<svg xmlns="http://www.w3.org/2000/svg" xmlns:xlink="http://www.w3.org/1999/xlink" width="500" zoomAndPan="magnify" viewBox="0 0 375 374.999991" height="500" preserveAspectRatio="xMidYMid meet" version="1.0"><defs><clipPath id="id1"><path d="M 23.53125 14 L 351 14 L 351 362.617188 L 23.53125 362.617188 Z M 23.53125 14 " clip-rule="nonzero"/></clipPath></defs><rect x="-37.5" width="450" fill="#ffffff" y="-37.499999" height="449.999989" fill-opacity="1"/><rect x="-37.5" width="450" fill="#ffffff" y="-37.499999" height="449.999989" fill-opacity="1"/><rect x="-37.5" width="450" fill="#ffffff" y="-37.499999" height="449.999989" fill-opacity="1"/><rect x="-37.5" width="450" fill="#ffffff" y="-37.499999" height="449.999989" fill-opacity="1"/><path fill="#59cffa" d="M 227.542969 233.40625 C 228 232.609375 228.445312 231.734375 228.9375 230.652344 L 226.703125 229.15625 C 228.25 227.484375 229.695312 225.722656 231.007812 223.863281 L 231.265625 223.5 L 231.347656 223.0625 C 231.949219 219.863281 232.089844 216.566406 231.765625 213.257812 L 231.285156 208.3125 L 230.996094 208.671875 C 230.3125 205.835938 229.273438 203.152344 227.902344 200.691406 L 227.078125 199.214844 L 227.0625 199.191406 L 226.398438 197.996094 L 226.300781 198.117188 L 226.222656 198.007812 C 224.609375 195.734375 222.609375 193.652344 220.273438 191.8125 L 219.628906 191.300781 L 219.660156 191.253906 L 219.121094 190.902344 L 218.585938 190.476562 L 218.550781 190.527344 L 217.902344 190.101562 C 216.226562 189.003906 214.40625 188.03125 212.496094 187.207031 L 212.234375 187.089844 L 212.296875 187.007812 L 211.125 186.609375 L 210.953125 186.535156 L 210.945312 186.550781 L 209.703125 186.125 C 208.597656 185.75 207.425781 185.425781 206.230469 185.136719 L 206.535156 184.902344 L 201.589844 184.273438 C 200.855469 184.183594 200.179688 184.113281 199.507812 184.066406 C 198.953125 184.03125 198.496094 184.015625 198.074219 184.015625 C 192.476562 184.015625 185.410156 186.347656 178.679688 190.410156 L 173.640625 193.453125 L 174.097656 193.511719 C 173.089844 194.273438 172.152344 195.03125 171.308594 195.78125 C 170.785156 196.246094 170.296875 196.722656 169.878906 197.128906 L 167.722656 199.25 L 167.867188 199.316406 L 167.796875 199.398438 C 166.28125 201.214844 164.964844 203.195312 163.882812 205.289062 L 163.5 206.03125 L 163.441406 206.007812 L 163.210938 206.589844 L 162.882812 207.21875 L 162.949219 207.25 L 162.660156 207.957031 C 161.496094 210.871094 160.855469 213.820312 160.746094 216.726562 L 160.394531 216.519531 L 160.683594 218.839844 L 160.675781 219.070312 L 160.710938 219.070312 L 160.902344 220.636719 C 161.242188 223.386719 162.019531 226.136719 163.207031 228.824219 L 162.210938 228.386719 L 166.230469 234.257812 C 166.574219 234.757812 166.921875 235.25 167.300781 235.75 C 170.050781 239.367188 173.429688 242.449219 177.351562 244.898438 L 177.675781 245.101562 L 178.046875 245.171875 C 180.59375 245.660156 183.199219 245.957031 185.8125 246.066406 L 185.332031 248.714844 C 189.222656 250.050781 193.210938 250.726562 197.183594 250.726562 C 197.507812 250.726562 197.832031 250.722656 198.160156 250.710938 C 210.121094 250.355469 221.652344 243.5625 227.542969 233.40625 Z M 227.542969 233.40625 " fill-opacity="1" fill-rule="nonzero"/><path fill="#59cffa" d="M 147.652344 146.277344 L 147.523438 145.890625 L 145.238281 149.660156 C 144.960938 150.117188 144.636719 150.65625 144.347656 151.214844 C 139.890625 159.609375 139.496094 170.515625 143.316406 179.675781 L 145.066406 183.871094 L 145.226562 183.535156 C 146.242188 185.324219 147.429688 187.058594 148.777344 188.699219 L 150.734375 191.074219 L 150.792969 190.957031 L 150.835938 191 C 153.128906 193.367188 155.738281 195.445312 158.578125 197.179688 L 159.132812 197.515625 L 159.089844 197.582031 L 160.007812 198.050781 L 160.261719 198.203125 L 160.269531 198.1875 L 161.09375 198.609375 C 162.175781 199.164062 163.292969 199.675781 164.414062 200.125 L 165.816406 200.691406 L 166.757812 199.511719 C 167.992188 197.980469 169.359375 196.542969 170.824219 195.238281 C 171.449219 194.6875 172.113281 194.132812 172.800781 193.59375 L 173.628906 192.945312 L 173.613281 192.683594 L 177.84375 190.074219 C 180.511719 188.425781 183.269531 187.03125 186.039062 185.917969 L 187.632812 185.28125 L 187.273438 183.601562 C 185.777344 176.648438 186.578125 169.042969 189.519531 162.175781 L 189.683594 161.785156 L 189.683594 161.414062 C 189.8125 160.992188 189.921875 160.566406 190.03125 160.136719 L 193.078125 155.738281 C 194.285156 154.003906 195.632812 152.378906 197.09375 150.917969 L 197.472656 150.535156 L 197.542969 150.277344 L 200.082031 148.265625 C 200.421875 147.996094 200.765625 147.738281 201.109375 147.484375 C 202.203125 146.695312 203.335938 145.976562 204.472656 145.351562 L 207.402344 143.742188 L 204.628906 141.875 C 202.636719 140.535156 200.570312 139.324219 198.484375 138.277344 L 193.539062 135.796875 L 193.691406 136.152344 C 190.164062 134.796875 186.550781 133.851562 182.949219 133.347656 L 176.109375 132.394531 L 176.71875 132.921875 C 175.410156 132.921875 174.097656 132.980469 172.820312 133.101562 C 172.582031 133.125 172.355469 133.15625 172.125 133.1875 L 168.113281 133.679688 L 168.238281 133.832031 C 165.710938 134.386719 163.195312 135.210938 160.761719 136.296875 L 159.769531 136.742188 L 159.742188 136.710938 L 159.296875 136.957031 L 158.554688 137.285156 L 158.589844 137.339844 L 158.128906 137.59375 C 156.109375 138.691406 154.226562 139.953125 152.53125 141.339844 L 152.398438 141.449219 L 152.359375 141.351562 L 151.535156 142.152344 L 151.304688 142.34375 L 151.3125 142.367188 L 150.261719 143.390625 C 149.328125 144.296875 148.460938 145.269531 147.652344 146.277344 Z M 147.652344 146.277344 " fill-opacity="1" fill-rule="nonzero"/><path fill="#eb6b66" d="M 240.207031 146.425781 C 234.902344 143.253906 228.664062 141.574219 222.175781 141.574219 C 214.644531 141.574219 207.316406 143.882812 201.539062 148.066406 C 190.789062 155.851562 185.296875 169.835938 187.863281 182.871094 L 188.289062 185.023438 L 190.40625 184.4375 C 193.152344 183.679688 195.734375 183.292969 198.089844 183.292969 C 198.597656 183.292969 199.101562 183.308594 199.582031 183.34375 C 211.71875 184.242188 222.289062 190.144531 227.855469 199.136719 C 229.761719 202.222656 231.125 205.6875 231.910156 209.449219 L 232.414062 211.828125 L 234.667969 210.917969 C 246.976562 205.9375 255.886719 194.289062 257.359375 181.238281 C 258.894531 167.6875 251.839844 153.371094 240.207031 146.425781 Z M 240.207031 146.425781 " fill-opacity="1" fill-rule="nonzero"/><path fill="#eb6b66" d="M 151.671875 235.582031 C 155.628906 235.582031 159.296875 234.652344 162.269531 232.890625 L 163.882812 231.933594 L 163.0625 230.246094 C 161.019531 226.054688 159.957031 221.632812 159.988281 217.453125 C 160.023438 212.683594 161.449219 207.785156 164.121094 203.296875 L 165.304688 201.308594 L 163.183594 200.386719 C 154 196.394531 146.570312 189.078125 142.796875 180.320312 C 141.878906 178.191406 141.164062 175.921875 140.671875 173.574219 L 140.121094 170.949219 L 137.746094 172.179688 C 125.960938 178.289062 118.480469 191.710938 119.542969 204.828125 C 120.667969 218.65625 131.230469 231.203125 144.65625 234.664062 C 147.019531 235.273438 149.378906 235.582031 151.671875 235.582031 Z M 151.671875 235.582031 " fill-opacity="1" fill-rule="nonzero"/><path fill="#f8d787" d="M 310.589844 262.953125 C 309.304688 262.953125 308.070312 263.070312 306.914062 263.296875 C 300.199219 264.613281 295.609375 273.566406 296.136719 280.394531 C 296.667969 287.207031 301.796875 293.496094 308.328125 295.355469 C 309.726562 295.753906 311.191406 295.957031 312.6875 295.957031 C 318.167969 295.957031 323.453125 293.265625 326.476562 288.941406 C 330.363281 283.382812 330.226562 275.128906 326.152344 269.742188 C 322.363281 264.730469 315.398438 262.953125 310.589844 262.953125 Z M 310.589844 262.953125 " fill-opacity="1" fill-rule="nonzero"/><path fill="#f8d787" d="M 261.792969 77.574219 C 262.320312 84.390625 267.445312 90.6875 273.980469 92.539062 C 275.378906 92.9375 276.84375 93.140625 278.339844 93.140625 C 283.820312 93.140625 289.101562 90.453125 292.128906 86.125 C 296.015625 80.566406 295.875 72.308594 291.800781 66.921875 C 288.007812 61.914062 281.050781 60.140625 276.242188 60.140625 C 274.957031 60.140625 273.71875 60.253906 272.574219 60.480469 C 265.855469 61.792969 261.265625 70.75 261.792969 77.574219 Z M 261.792969 77.574219 " fill-opacity="1" fill-rule="nonzero"/><path fill="#f8d787" d="M 192.625 28.875 C 191.339844 28.875 190.105469 28.988281 188.957031 29.210938 C 182.242188 30.527344 177.652344 39.480469 178.179688 46.308594 C 178.703125 53.117188 183.824219 59.410156 190.363281 61.273438 C 191.761719 61.671875 193.226562 61.871094 194.71875 61.871094 C 200.199219 61.871094 205.484375 59.183594 208.511719 54.855469 C 212.398438 49.296875 212.261719 41.042969 208.183594 35.65625 C 204.394531 30.648438 197.433594 28.875 192.625 28.875 Z M 192.625 28.875 " fill-opacity="1" fill-rule="nonzero"/><path fill="#f8d787" d="M 179.679688 321.546875 C 178.402344 321.546875 177.167969 321.660156 176.003906 321.882812 C 169.289062 323.207031 164.699219 332.160156 165.226562 338.980469 C 165.75 345.792969 170.875 352.089844 177.414062 353.949219 C 178.808594 354.347656 180.273438 354.550781 181.765625 354.550781 C 187.246094 354.550781 192.53125 351.859375 195.558594 347.53125 C 199.449219 341.972656 199.308594 333.714844 195.234375 328.324219 C 191.445312 323.324219 184.484375 321.546875 179.679688 321.546875 Z M 179.679688 321.546875 " fill-opacity="1" fill-rule="nonzero"/><path fill="#f8d787" d="M 98.304688 100.984375 C 97.019531 100.984375 95.789062 101.097656 94.636719 101.324219 C 87.925781 102.644531 83.332031 111.597656 83.863281 118.417969 C 84.386719 125.230469 89.511719 131.527344 96.050781 133.390625 C 97.445312 133.785156 98.90625 133.984375 100.398438 133.984375 C 105.878906 133.984375 111.167969 131.296875 114.195312 126.96875 C 118.082031 121.40625 117.945312 113.152344 113.871094 107.765625 C 110.082031 102.761719 103.117188 100.984375 98.304688 100.984375 Z M 98.304688 100.984375 " fill-opacity="1" fill-rule="nonzero"/><path fill="#f8d787" d="M 96.460938 310.632812 C 100.347656 305.066406 100.207031 296.808594 96.132812 291.429688 C 92.347656 286.421875 85.382812 284.648438 80.570312 284.648438 C 79.285156 284.648438 78.050781 284.761719 76.898438 284.984375 C 70.648438 286.210938 66.425781 293.84375 66.105469 300.210938 L 66.09375 300.390625 L 66.121094 300.59375 C 66.121094 300.597656 66.125 300.636719 66.109375 300.746094 L 66.089844 300.886719 L 66.089844 301.027344 C 66.089844 301.375 66.097656 301.726562 66.121094 302.082031 C 66.65625 308.898438 71.785156 315.191406 78.316406 317.050781 C 79.710938 317.445312 81.171875 317.648438 82.664062 317.648438 C 88.148438 317.644531 93.433594 314.960938 96.460938 310.632812 Z M 96.460938 310.632812 " fill-opacity="1" fill-rule="nonzero"/><path fill="#f8d787" d="M 41.183594 148.902344 C 39.898438 148.902344 38.667969 149.015625 37.515625 149.238281 C 30.800781 150.554688 26.210938 159.507812 26.738281 166.335938 C 27.273438 173.148438 32.398438 179.445312 38.933594 181.304688 C 40.328125 181.699219 41.785156 181.902344 43.277344 181.902344 C 48.757812 181.902344 54.042969 179.214844 57.074219 174.886719 C 60.964844 169.316406 60.824219 161.0625 56.75 155.683594 C 52.960938 150.675781 45.996094 148.902344 41.183594 148.902344 Z M 41.183594 148.902344 " fill-opacity="1" fill-rule="nonzero"/><path fill="#000000" d="M 241.625 144.054688 C 231.695312 138.121094 219.015625 137.289062 208.269531 141.355469 C 208.101562 141.039062 207.867188 140.75 207.554688 140.53125 C 196.738281 132.832031 184.316406 129.222656 172.5625 130.351562 C 159.382812 131.625 147.636719 139.121094 141.90625 149.917969 C 138.832031 155.710938 137.519531 162.367188 137.984375 168.996094 C 124.484375 175.160156 115.59375 190.242188 116.792969 205.054688 C 118.007812 220.019531 129.441406 233.597656 143.96875 237.339844 C 146.570312 238.011719 149.160156 238.339844 151.660156 238.339844 C 156.066406 238.339844 160.191406 237.300781 163.601562 235.296875 C 164.078125 236.015625 164.574219 236.722656 165.101562 237.421875 C 172.675781 247.402344 184.867188 253.488281 197.140625 253.488281 C 197.503906 253.488281 197.875 253.484375 198.242188 253.472656 C 211.136719 253.089844 223.570312 245.757812 229.921875 234.796875 C 233.558594 228.519531 235.109375 221.109375 234.585938 213.910156 C 248.253906 208.882812 258.472656 195.96875 260.105469 181.546875 C 261.753906 166.960938 254.15625 151.542969 241.625 144.054688 Z M 146.316406 152.261719 C 148.253906 148.632812 150.886719 145.367188 154.039062 142.71875 C 160.515625 137.273438 169.03125 134.4375 177.492188 134.488281 C 187.070312 134.546875 195.664062 138.308594 203.492188 143.5625 C 203.003906 143.238281 198.40625 147.300781 197.90625 147.714844 C 195.988281 149.316406 194.25 151.128906 192.726562 153.113281 C 189.46875 157.347656 188.171875 162.113281 185.933594 166.808594 C 183.535156 171.847656 184.421875 177.429688 184.980469 182.746094 C 185.015625 183.0625 185.046875 183.390625 184.933594 183.6875 C 184.761719 184.132812 184.316406 184.402344 183.898438 184.636719 C 179.816406 186.9375 175.878906 189.496094 172.121094 192.289062 C 170.5625 193.445312 168.980469 194.605469 167.574219 195.941406 C 167.324219 196.183594 165.460938 198.355469 165.171875 198.242188 C 162.90625 197.324219 160.796875 195.78125 158.652344 194.566406 C 156.308594 193.238281 154.105469 191.675781 152.210938 189.75 C 149.1875 186.675781 146.699219 182.253906 145.082031 178.273438 C 143.335938 173.980469 142.472656 169.316406 142.75 164.683594 C 143.007812 160.339844 144.273438 156.101562 146.316406 152.261719 Z M 161.234375 231.132812 C 156.972656 233.660156 151.15625 234.238281 145.164062 232.691406 C 132.550781 229.441406 122.632812 217.65625 121.574219 204.664062 C 120.570312 192.285156 127.691406 179.683594 138.683594 173.988281 C 139.1875 176.414062 139.925781 178.8125 140.925781 181.125 C 144.925781 190.417969 152.710938 198.054688 162.371094 202.253906 C 159.546875 206.996094 157.988281 212.21875 157.953125 217.4375 C 157.921875 221.980469 159.066406 226.675781 161.234375 231.132812 Z M 228.984375 222.621094 C 227.429688 230.738281 222.777344 238.261719 215.71875 242.96875 C 202.230469 251.957031 184.113281 249.144531 172.558594 238.214844 C 166.652344 232.632812 162.726562 224.398438 163.089844 216.167969 C 163.476562 207.238281 169.015625 199.074219 176.292969 193.890625 C 182.890625 189.1875 191.652344 186.023438 199.816406 186.015625 C 206.695312 186.011719 214.222656 189.585938 219.335938 194.03125 C 222.136719 196.46875 224.503906 199.40625 226.222656 202.699219 C 229.464844 208.925781 230.261719 215.972656 228.984375 222.621094 Z M 255.339844 181.003906 C 253.945312 193.316406 245.417969 204.375 233.90625 209.03125 C 233.09375 205.148438 231.65625 201.417969 229.582031 198.070312 C 223.675781 188.519531 212.515625 182.257812 199.730469 181.316406 C 196.582031 181.082031 193.21875 181.542969 189.859375 182.476562 C 187.46875 170.332031 192.632812 157.035156 202.730469 149.71875 C 213.113281 142.195312 228.097656 141.558594 239.164062 148.175781 C 250.132812 154.730469 256.785156 168.230469 255.339844 181.003906 Z M 255.339844 181.003906 " fill-opacity="1" fill-rule="nonzero"/><g clip-path="url(#id1)"><path fill="#000000" d="M 350.09375 243.675781 C 347.878906 224.875 339.335938 205.894531 324.699219 187.261719 C 320.667969 182.128906 316.402344 177.339844 312.085938 172.886719 C 313.804688 170.578125 315.515625 168.257812 317.203125 165.898438 C 320.859375 160.796875 324.464844 155.539062 327.917969 150.265625 C 332.625 143.082031 337.878906 134.625 340.667969 125.160156 C 343.726562 114.78125 343.226562 104.609375 339.25 96.523438 C 335.53125 88.960938 328.359375 82.539062 319.0625 78.445312 C 312.3125 75.472656 304.949219 73.300781 297.167969 71.964844 C 296.570312 69.550781 295.515625 67.253906 294 65.253906 C 288.898438 58.507812 279.085938 56.386719 272.039062 57.765625 C 265.914062 58.972656 261.339844 65.007812 259.675781 71.371094 C 249.746094 72.527344 239.441406 74.707031 228.835938 77.882812 C 223.429688 70.070312 217.753906 62.855469 211.324219 55.578125 C 215.359375 49.03125 215.023438 40.117188 210.386719 33.988281 C 205.285156 27.246094 195.46875 25.117188 188.421875 26.5 C 186.785156 26.820312 185.261719 27.492188 183.875 28.417969 C 168.503906 16.597656 153.816406 12.503906 140.199219 16.253906 C 126.359375 20.070312 115.546875 32.476562 108.074219 53.128906 C 104.40625 63.257812 101.578125 73.949219 99.609375 85.0625 C 92.242188 85.289062 84.902344 85.84375 77.609375 86.742188 C 52.089844 89.875 35.335938 99.355469 29.167969 114.15625 C 25.042969 124.046875 25.824219 135.816406 31.457031 149.15625 C 26.472656 153.097656 23.515625 160.433594 23.988281 166.550781 C 24.613281 174.601562 30.445312 181.757812 38.175781 183.960938 C 39.816406 184.425781 41.515625 184.652344 43.210938 184.652344 C 46.34375 184.652344 49.476562 183.886719 52.277344 182.484375 C 56.316406 187.59375 60.667969 192.585938 65.308594 197.445312 C 57.71875 209.039062 51.148438 221.191406 45.675781 233.796875 C 35.429688 257.390625 35.101562 276.644531 44.71875 289.476562 C 49.078125 295.289062 55.351562 299.621094 63.382812 302.382812 C 64.042969 310.398438 69.859375 317.511719 77.558594 319.707031 C 79.203125 320.171875 80.898438 320.398438 82.597656 320.398438 C 88.855469 320.398438 95.128906 317.351562 98.722656 312.214844 C 100.113281 310.222656 101.0625 307.976562 101.589844 305.632812 C 117.933594 304.511719 134.710938 301.257812 151.398438 296.011719 C 155.679688 302.898438 160.1875 309.753906 164.925781 316.558594 C 166.304688 318.535156 167.714844 320.519531 169.136719 322.488281 C 164.640625 326.554688 162.027344 333.421875 162.472656 339.195312 C 163.097656 347.246094 168.933594 354.40625 176.660156 356.605469 C 178.300781 357.074219 180 357.300781 181.699219 357.300781 C 186.519531 357.300781 191.34375 355.484375 194.949219 352.304688 C 195.386719 352.648438 195.828125 352.984375 196.269531 353.308594 C 204.355469 359.261719 213.28125 362.453125 221.699219 362.453125 C 222.632812 362.453125 223.554688 362.414062 224.46875 362.335938 C 233.105469 361.59375 241.839844 357.207031 249.066406 349.976562 C 262.542969 336.503906 271.976562 317.925781 277.113281 294.761719 C 277.699219 292.117188 278.210938 289.472656 278.664062 286.84375 C 283.34375 287.214844 288.050781 287.519531 292.714844 287.742188 C 293.625 287.789062 294.535156 287.824219 295.449219 287.859375 C 297.902344 292.695312 302.292969 296.511719 307.574219 298.015625 C 309.214844 298.484375 310.910156 298.707031 312.609375 298.707031 C 318.871094 298.707031 325.144531 295.660156 328.738281 290.523438 C 330.570312 287.902344 331.636719 284.828125 331.972656 281.675781 C 337.40625 278.71875 341.714844 274.886719 344.757812 270.257812 C 349.386719 263.210938 351.28125 253.773438 350.09375 243.675781 Z M 272.960938 62.476562 C 278.492188 61.394531 286.445312 63.214844 290.179688 68.152344 C 293.746094 72.863281 293.863281 80.085938 290.457031 84.957031 C 287.027344 89.867188 280.332031 92.230469 274.535156 90.582031 C 268.792969 88.945312 264.285156 83.410156 263.820312 77.417969 C 263.367188 71.550781 267.34375 63.578125 272.960938 62.476562 Z M 258.992188 76.289062 C 258.988281 76.792969 259 77.296875 259.042969 77.789062 C 259.664062 85.839844 265.496094 93 273.222656 95.195312 C 274.867188 95.664062 276.566406 95.890625 278.265625 95.890625 C 284.523438 95.890625 290.796875 92.84375 294.386719 87.707031 C 296.597656 84.554688 297.699219 80.75 297.734375 76.941406 C 304.621094 78.222656 311.136719 80.195312 317.128906 82.835938 C 325.398438 86.476562 331.722656 92.089844 334.941406 98.644531 C 338.386719 105.644531 338.785156 114.582031 336.066406 123.804688 C 333.460938 132.640625 328.425781 140.738281 323.90625 147.636719 C 320.488281 152.851562 316.921875 158.058594 313.304688 163.105469 C 311.773438 165.242188 310.226562 167.351562 308.667969 169.449219 C 298.128906 159.089844 287.527344 150.839844 279.3125 145.054688 C 272.210938 140.054688 264.710938 135.289062 256.503906 130.585938 C 251.058594 116.242188 245.035156 103.773438 237.9375 92 C 235.851562 88.539062 233.765625 85.234375 231.652344 82.042969 C 241.042969 79.304688 250.171875 77.386719 258.992188 76.289062 Z M 275.882812 233.046875 C 276.769531 243.8125 277.433594 261.996094 274.566406 281.683594 C 274.464844 281.671875 274.355469 281.664062 274.25 281.65625 C 251.097656 279.5625 228.796875 275.765625 207.65625 270.375 C 230.835938 256.386719 253.199219 238.507812 274.105469 217.292969 C 274.867188 222.65625 275.457031 227.878906 275.882812 233.046875 Z M 201.148438 268.652344 C 174.0625 261.238281 149.003906 251.15625 126.703125 238.628906 C 115.15625 211.726562 107.34375 184.851562 103.621094 158.800781 C 113.265625 149.679688 124.375 140.695312 137.773438 131.136719 C 154.675781 119.070312 169.242188 109.796875 183.121094 102.308594 C 192.417969 105.488281 202.171875 109.367188 212.75 114.082031 C 228.085938 120.921875 241.082031 127.363281 252.625 133.902344 C 255.722656 142.207031 258.636719 151.160156 261.464844 160.996094 C 266.953125 180.105469 270.75 196.351562 273.191406 211.351562 C 250.648438 234.652344 226.355469 254.003906 201.148438 268.652344 Z M 195.269531 271.984375 C 193.785156 272.800781 192.296875 273.601562 190.804688 274.386719 C 178.597656 280.792969 166.089844 286.113281 153.503906 290.289062 C 144.53125 275.574219 136.636719 260.714844 129.882812 245.839844 C 149.804688 256.472656 171.761719 265.230469 195.269531 271.984375 Z M 112.25 108.996094 C 115.8125 113.707031 115.933594 120.933594 112.527344 125.800781 C 109.09375 130.710938 102.402344 133.074219 96.605469 131.425781 C 90.863281 129.792969 86.355469 124.253906 85.890625 118.261719 C 85.4375 112.398438 89.414062 104.421875 95.03125 103.320312 C 100.5625 102.238281 108.515625 104.0625 112.25 108.996094 Z M 101.460938 136.699219 C 107.335938 136.363281 113.082031 133.382812 116.460938 128.554688 C 121.082031 121.945312 120.917969 112.5 116.074219 106.097656 C 112.816406 101.796875 107.648438 99.382812 102.503906 98.550781 C 102.839844 95.597656 103.234375 92.667969 103.691406 89.765625 C 117.511719 89.566406 131.414062 90.5625 145.253906 92.75 C 155.65625 94.394531 165.996094 96.835938 176.886719 100.253906 C 164.015625 107.445312 150.464844 116.183594 134.992188 127.226562 C 122.566406 136.09375 112.0625 144.480469 102.859375 152.941406 C 102.210938 147.511719 101.75 142.082031 101.460938 136.699219 Z M 99.390625 162.898438 C 103.050781 186.390625 109.949219 210.492188 119.835938 234.648438 C 118.636719 233.929688 117.441406 233.203125 116.261719 232.46875 C 99.664062 222.160156 84.480469 210.078125 71.4375 196.886719 C 75.707031 190.582031 80.28125 184.449219 85.160156 178.515625 C 89.574219 173.15625 94.277344 167.988281 99.390625 162.898438 Z M 188.925781 99.257812 C 192.703125 97.328125 196.449219 95.519531 200.195312 93.824219 C 209.265625 89.707031 218.164062 86.269531 226.863281 83.507812 C 229.210938 87.011719 231.519531 90.644531 233.832031 94.476562 C 239.875 104.503906 245.128906 115.058594 249.914062 126.90625 C 239.527344 121.25 227.980469 115.617188 214.703125 109.699219 C 205.589844 105.636719 197.074219 102.1875 188.925781 99.257812 Z M 266.074219 159.675781 C 263.820312 151.824219 261.507812 144.523438 259.089844 137.660156 C 265.261719 141.347656 271.03125 145.089844 276.554688 148.980469 C 283.75 154.046875 294.671875 162.402344 305.730469 173.355469 C 296.664062 185.289062 287.167969 196.53125 277.328125 207.015625 C 274.847656 192.820312 271.183594 177.464844 266.074219 159.675781 Z M 189.34375 31.210938 C 194.878906 30.125 202.828125 31.953125 206.5625 36.882812 C 210.128906 41.59375 210.25 48.820312 206.839844 53.6875 C 203.410156 58.597656 196.714844 60.964844 190.921875 59.316406 C 185.175781 57.679688 180.671875 52.144531 180.207031 46.152344 C 179.75 40.28125 183.726562 32.3125 189.34375 31.210938 Z M 112.582031 54.761719 C 119.496094 35.660156 129.21875 24.257812 141.472656 20.882812 C 153.371094 17.605469 166.417969 21.25 180.28125 31.714844 C 176.910156 35.816406 175.039062 41.570312 175.425781 46.523438 C 176.046875 54.570312 181.882812 61.730469 189.609375 63.933594 C 191.25 64.398438 192.945312 64.625 194.648438 64.625 C 199.621094 64.625 204.597656 62.695312 208.234375 59.332031 C 213.992188 65.882812 219.136719 72.398438 224.03125 79.378906 C 215.59375 82.125 206.972656 85.476562 198.214844 89.453125 C 193.070312 91.785156 187.921875 94.320312 182.695312 97.09375 C 169.960938 92.847656 158.027344 89.910156 146 88.011719 C 132.183594 85.824219 118.304688 84.8125 104.503906 84.960938 C 106.414062 74.457031 109.113281 64.34375 112.582031 54.761719 Z M 39.484375 179.34375 C 33.742188 177.710938 29.234375 172.171875 28.769531 166.179688 C 28.3125 160.3125 32.289062 152.339844 37.90625 151.238281 C 43.441406 150.15625 51.390625 151.980469 55.128906 156.910156 C 58.691406 161.621094 58.8125 168.847656 55.40625 173.714844 C 51.972656 178.628906 45.277344 180.988281 39.484375 179.34375 Z M 56.289062 179.820312 C 57.4375 178.835938 58.464844 177.714844 59.335938 176.46875 C 63.957031 169.863281 63.796875 160.417969 58.949219 154.015625 C 53.847656 147.273438 44.035156 145.144531 36.984375 146.527344 C 36.546875 146.613281 36.117188 146.730469 35.691406 146.867188 C 30.738281 134.933594 30.027344 124.5625 33.59375 116.003906 C 37.40625 106.859375 48.238281 95.183594 78.195312 91.503906 C 85.03125 90.664062 91.914062 90.125 98.820312 89.886719 C 98.398438 92.644531 98.03125 95.425781 97.710938 98.230469 C 96.460938 98.269531 95.246094 98.390625 94.105469 98.613281 C 85.902344 100.222656 80.480469 110.511719 81.109375 118.632812 C 81.730469 126.683594 87.566406 133.84375 95.292969 136.042969 C 95.738281 136.171875 96.1875 136.277344 96.636719 136.367188 C 96.988281 143.195312 97.628906 150.113281 98.550781 157 C 92.320312 163.007812 86.699219 169.101562 81.460938 175.464844 C 76.699219 181.253906 72.222656 187.226562 68.03125 193.363281 C 63.863281 188.957031 59.949219 184.429688 56.289062 179.820312 Z M 94.792969 309.460938 C 91.355469 314.371094 84.664062 316.738281 78.871094 315.089844 C 73.125 313.453125 68.621094 307.917969 68.152344 301.921875 C 68.132812 301.628906 68.121094 301.328125 68.121094 301.027344 C 68.160156 300.785156 68.167969 300.546875 68.136719 300.316406 C 68.421875 294.695312 72.171875 287.988281 77.292969 286.984375 C 82.828125 285.902344 90.777344 287.722656 94.511719 292.65625 C 98.074219 297.367188 98.199219 304.59375 94.792969 309.460938 Z M 102.070312 300.785156 C 101.980469 296.839844 100.730469 292.925781 98.335938 289.757812 C 93.230469 283.015625 83.421875 280.890625 76.367188 282.273438 C 69.765625 283.570312 64.960938 290.496094 63.671875 297.386719 C 57.171875 294.9375 52.097656 291.316406 48.554688 286.59375 C 37.785156 272.230469 43.4375 250.992188 50.074219 235.707031 C 55.296875 223.675781 61.546875 212.0625 68.738281 200.964844 C 81.886719 214.148438 97.117188 226.226562 113.730469 236.546875 C 116.742188 238.417969 119.820312 240.238281 122.941406 242.015625 C 130.175781 258.671875 138.824219 275.324219 148.808594 291.792969 C 133.140625 296.628906 117.40625 299.671875 102.070312 300.785156 Z M 177.972656 351.992188 C 172.226562 350.355469 167.71875 344.820312 167.253906 338.824219 C 166.800781 332.957031 170.777344 324.988281 176.394531 323.882812 C 177.421875 323.683594 178.527344 323.582031 179.675781 323.582031 C 184.726562 323.582031 190.570312 325.539062 193.613281 329.558594 C 197.175781 334.269531 197.296875 341.492188 193.890625 346.363281 C 190.457031 351.273438 183.765625 353.636719 177.972656 351.992188 Z M 245.675781 346.585938 C 239.246094 353.015625 231.570312 356.910156 224.0625 357.554688 C 216.015625 358.242188 207.152344 355.359375 199.109375 349.441406 C 198.773438 349.195312 198.4375 348.933594 198.101562 348.671875 C 202.421875 342.09375 202.175781 332.925781 197.4375 326.660156 C 192.332031 319.917969 182.523438 317.789062 175.472656 319.175781 C 174.675781 319.332031 173.910156 319.570312 173.167969 319.878906 C 171.71875 317.867188 170.269531 315.832031 168.863281 313.8125 C 164.398438 307.40625 160.140625 300.960938 156.09375 294.480469 C 168.558594 290.28125 180.949219 284.976562 193.03125 278.636719 C 195.976562 277.089844 198.90625 275.480469 201.828125 273.808594 C 224.582031 279.910156 248.714844 284.164062 273.816406 286.429688 C 270.121094 307.710938 262.09375 330.167969 245.675781 346.585938 Z M 324.808594 287.773438 C 321.375 292.679688 314.679688 295.046875 308.882812 293.398438 C 303.140625 291.761719 298.632812 286.226562 298.171875 280.230469 C 297.714844 274.367188 301.691406 266.394531 307.308594 265.292969 C 308.332031 265.089844 309.441406 264.992188 310.589844 264.992188 C 315.640625 264.992188 321.484375 266.949219 324.527344 270.96875 C 328.09375 275.675781 328.210938 282.902344 324.808594 287.773438 Z M 340.753906 267.617188 C 338.550781 270.964844 335.542969 273.839844 331.8125 276.210938 C 331.316406 273.277344 330.160156 270.460938 328.351562 268.070312 C 323.25 261.328125 313.441406 259.199219 306.386719 260.585938 C 298.183594 262.195312 292.757812 272.480469 293.390625 280.601562 C 293.449219 281.40625 293.578125 282.199219 293.742188 282.980469 C 293.476562 282.972656 293.214844 282.964844 292.949219 282.949219 C 288.457031 282.734375 283.921875 282.445312 279.414062 282.089844 C 282.15625 263.078125 281.695312 245.214844 280.660156 232.648438 C 280.128906 226.226562 279.351562 219.707031 278.308594 212.960938 C 289.015625 201.761719 299.316406 189.679688 309.132812 176.804688 C 325.925781 194.246094 342.183594 217.527344 345.332031 244.238281 C 346.386719 253.210938 344.761719 261.515625 340.753906 267.617188 Z M 340.753906 267.617188 " fill-opacity="1" fill-rule="nonzero"/></g><path fill="#000000" d="M 47.726562 162.292969 L 37.933594 162.671875 C 37.175781 162.699219 36.585938 163.335938 36.617188 164.089844 C 36.644531 164.832031 37.253906 165.410156 37.984375 165.410156 C 38.003906 165.410156 38.019531 165.410156 38.035156 165.410156 L 47.832031 165.03125 C 48.585938 165.003906 49.175781 164.367188 49.144531 163.609375 C 49.121094 162.851562 48.496094 162.25 47.726562 162.292969 Z M 47.726562 162.292969 " fill-opacity="1" fill-rule="nonzero"/><path fill="#000000" d="M 93.117188 118.175781 C 93.140625 118.914062 93.75 119.5 94.488281 119.5 C 94.5 119.5 94.515625 119.5 94.53125 119.496094 L 105.832031 119.128906 C 106.585938 119.105469 107.179688 118.472656 107.15625 117.714844 C 107.132812 116.972656 106.523438 116.386719 105.789062 116.386719 L 105.742188 116.386719 L 94.441406 116.757812 C 93.6875 116.78125 93.09375 117.417969 93.117188 118.175781 Z M 93.117188 118.175781 " fill-opacity="1" fill-rule="nonzero"/><path fill="#000000" d="M 189.402344 46.011719 L 189.449219 46.011719 L 200.75 45.648438 C 201.503906 45.625 202.097656 44.992188 202.074219 44.234375 C 202.050781 43.492188 201.441406 42.90625 200.703125 42.90625 L 200.660156 42.90625 L 189.359375 43.269531 C 188.605469 43.296875 188.011719 43.929688 188.035156 44.6875 C 188.058594 45.429688 188.667969 46.011719 189.402344 46.011719 Z M 189.402344 46.011719 " fill-opacity="1" fill-rule="nonzero"/><path fill="#000000" d="M 273.316406 76.84375 L 285.742188 77.59375 C 285.773438 77.597656 285.800781 77.597656 285.828125 77.597656 C 286.546875 77.597656 287.152344 77.039062 287.195312 76.3125 C 287.242188 75.554688 286.664062 74.90625 285.910156 74.859375 L 273.480469 74.105469 C 272.738281 74.0625 272.074219 74.632812 272.03125 75.390625 C 271.980469 76.144531 272.558594 76.796875 273.316406 76.84375 Z M 273.316406 76.84375 " fill-opacity="1" fill-rule="nonzero"/><path fill="#000000" d="M 319.265625 276.859375 L 306.835938 277.613281 C 306.082031 277.660156 305.503906 278.308594 305.550781 279.066406 C 305.597656 279.792969 306.199219 280.355469 306.917969 280.355469 C 306.949219 280.355469 306.972656 280.351562 307.003906 280.351562 L 319.433594 279.59375 C 320.1875 279.550781 320.761719 278.902344 320.71875 278.144531 C 320.667969 277.390625 320.011719 276.804688 319.265625 276.859375 Z M 319.265625 276.859375 " fill-opacity="1" fill-rule="nonzero"/><path fill="#000000" d="M 187.300781 336.464844 L 176.003906 338.347656 C 175.253906 338.46875 174.75 339.175781 174.875 339.921875 C 174.988281 340.59375 175.566406 341.070312 176.226562 341.070312 C 176.300781 341.070312 176.375 341.0625 176.449219 341.050781 L 187.75 339.164062 C 188.496094 339.042969 189 338.335938 188.875 337.585938 C 188.753906 336.84375 188.050781 336.335938 187.300781 336.464844 Z M 187.300781 336.464844 " fill-opacity="1" fill-rule="nonzero"/><path fill="#000000" d="M 89.246094 297.253906 L 77.570312 300.265625 C 76.835938 300.457031 76.394531 301.203125 76.585938 301.9375 C 76.746094 302.554688 77.300781 302.964844 77.910156 302.964844 C 78.023438 302.964844 78.136719 302.949219 78.253906 302.921875 L 89.929688 299.90625 C 90.664062 299.71875 91.101562 298.96875 90.914062 298.234375 C 90.726562 297.503906 89.980469 297.0625 89.246094 297.253906 Z M 89.246094 297.253906 " fill-opacity="1" fill-rule="nonzero"/></svg>