<svg xmlns="http://www.w3.org/2000/svg" xmlns:xlink="http://www.w3.org/1999/xlink" width="500" zoomAndPan="magnify" viewBox="0 0 375 374.999991" height="500" preserveAspectRatio="xMidYMid meet" version="1.0"><defs><clipPath id="id1"><path d="M 268 78.125 L 314 78.125 L 314 125 L 268 125 Z M 268 78.125 " clip-rule="nonzero"/></clipPath><clipPath id="id2"><path d="M 255.546875 280.003906 L 262.84375 280.003906 L 262.84375 287.375 L 255.546875 287.375 Z M 255.546875 280.003906 " clip-rule="nonzero"/></clipPath><clipPath id="id3"><path d="M 296.011719 140.550781 L 321.546875 140.550781 L 321.546875 166.449219 L 296.011719 166.449219 Z M 296.011719 140.550781 " clip-rule="nonzero"/></clipPath><clipPath id="id4"><path d="M 194.285156 111 L 261 111 L 261 191 L 194.285156 191 Z M 194.285156 111 " clip-rule="nonzero"/></clipPath><clipPath id="id5"><path d="M 284 125 L 335.339844 125 L 335.339844 177 L 284 177 Z M 284 125 " clip-rule="nonzero"/></clipPath><clipPath id="id6"><path d="M 223.589844 157 L 237 157 L 237 171 L 223.589844 171 Z M 223.589844 157 " clip-rule="nonzero"/></clipPath><clipPath id="id7"><path d="M 260 243 L 267 243 L 267 250.171875 L 260 250.171875 Z M 260 243 " clip-rule="nonzero"/></clipPath><clipPath id="id8"><path d="M 245 243 L 310 243 L 310 282 L 245 282 Z M 245 243 " clip-rule="nonzero"/></clipPath><clipPath id="id9"><path d="M 194.285156 244.234375 L 311.242188 241.058594 L 313.6875 331.023438 L 196.730469 334.203125 Z M 194.285156 244.234375 " clip-rule="nonzero"/></clipPath><clipPath id="id10"><path d="M 311.148438 241.058594 L 194.191406 244.238281 L 196.636719 334.207031 L 313.59375 331.027344 Z M 311.148438 241.058594 " clip-rule="nonzero"/></clipPath><clipPath id="id11"><path d="M 311.148438 241.058594 L 194.191406 244.238281 L 196.636719 334.207031 L 313.59375 331.027344 Z M 311.148438 241.058594 " clip-rule="nonzero"/></clipPath><clipPath id="id12"><path d="M 244 242 L 311 242 L 311 284 L 244 284 Z M 244 242 " clip-rule="nonzero"/></clipPath><clipPath id="id13"><path d="M 194.285156 244.234375 L 311.242188 241.058594 L 313.6875 331.023438 L 196.730469 334.203125 Z M 194.285156 244.234375 " clip-rule="nonzero"/></clipPath><clipPath id="id14"><path d="M 311.148438 241.058594 L 194.191406 244.238281 L 196.636719 334.207031 L 313.59375 331.027344 Z M 311.148438 241.058594 " clip-rule="nonzero"/></clipPath><clipPath id="id15"><path d="M 311.148438 241.058594 L 194.191406 244.238281 L 196.636719 334.207031 L 313.59375 331.027344 Z M 311.148438 241.058594 " clip-rule="nonzero"/></clipPath><clipPath id="id16"><path d="M 264 242 L 292 242 L 292 255 L 264 255 Z M 264 242 " clip-rule="nonzero"/></clipPath><clipPath id="id17"><path d="M 194.285156 244.234375 L 311.242188 241.058594 L 313.6875 331.023438 L 196.730469 334.203125 Z M 194.285156 244.234375 " clip-rule="nonzero"/></clipPath><clipPath id="id18"><path d="M 311.148438 241.058594 L 194.191406 244.238281 L 196.636719 334.207031 L 313.59375 331.027344 Z M 311.148438 241.058594 " clip-rule="nonzero"/></clipPath><clipPath id="id19"><path d="M 311.148438 241.058594 L 194.191406 244.238281 L 196.636719 334.207031 L 313.59375 331.027344 Z M 311.148438 241.058594 " clip-rule="nonzero"/></clipPath><clipPath id="id20"><path d="M 247 245 L 306 245 L 306 275 L 247 275 Z M 247 245 " clip-rule="nonzero"/></clipPath><clipPath id="id21"><path d="M 194.285156 244.234375 L 311.242188 241.058594 L 313.6875 331.023438 L 196.730469 334.203125 Z M 194.285156 244.234375 " clip-rule="nonzero"/></clipPath><clipPath id="id22"><path d="M 311.148438 241.058594 L 194.191406 244.238281 L 196.636719 334.207031 L 313.59375 331.027344 Z M 311.148438 241.058594 " clip-rule="nonzero"/></clipPath><clipPath id="id23"><path d="M 311.148438 241.058594 L 194.191406 244.238281 L 196.636719 334.207031 L 313.59375 331.027344 Z M 311.148438 241.058594 " clip-rule="nonzero"/></clipPath><clipPath id="id24"><path d="M 244 242 L 310 242 L 310 275 L 244 275 Z M 244 242 " clip-rule="nonzero"/></clipPath><clipPath id="id25"><path d="M 194.285156 244.234375 L 311.242188 241.058594 L 313.6875 331.023438 L 196.730469 334.203125 Z M 194.285156 244.234375 " clip-rule="nonzero"/></clipPath><clipPath id="id26"><path d="M 311.148438 241.058594 L 194.191406 244.238281 L 196.636719 334.207031 L 313.59375 331.027344 Z M 311.148438 241.058594 " clip-rule="nonzero"/></clipPath><clipPath id="id27"><path d="M 311.148438 241.058594 L 194.191406 244.238281 L 196.636719 334.207031 L 313.59375 331.027344 Z M 311.148438 241.058594 " clip-rule="nonzero"/></clipPath><clipPath id="id28"><path d="M 246 280 L 312 280 L 312 331 L 246 331 Z M 246 280 " clip-rule="nonzero"/></clipPath><clipPath id="id29"><path d="M 194.285156 244.234375 L 311.242188 241.058594 L 313.6875 331.023438 L 196.730469 334.203125 Z M 194.285156 244.234375 " clip-rule="nonzero"/></clipPath><clipPath id="id30"><path d="M 311.148438 241.058594 L 194.191406 244.238281 L 196.636719 334.207031 L 313.59375 331.027344 Z M 311.148438 241.058594 " clip-rule="nonzero"/></clipPath><clipPath id="id31"><path d="M 311.148438 241.058594 L 194.191406 244.238281 L 196.636719 334.207031 L 313.59375 331.027344 Z M 311.148438 241.058594 " clip-rule="nonzero"/></clipPath><clipPath id="id32"><path d="M 245 278 L 313 278 L 313 333 L 245 333 Z M 245 278 " clip-rule="nonzero"/></clipPath><clipPath id="id33"><path d="M 194.285156 244.234375 L 311.242188 241.058594 L 313.6875 331.023438 L 196.730469 334.203125 Z M 194.285156 244.234375 " clip-rule="nonzero"/></clipPath><clipPath id="id34"><path d="M 311.148438 241.058594 L 194.191406 244.238281 L 196.636719 334.207031 L 313.59375 331.027344 Z M 311.148438 241.058594 " clip-rule="nonzero"/></clipPath><clipPath id="id35"><path d="M 311.148438 241.058594 L 194.191406 244.238281 L 196.636719 334.207031 L 313.59375 331.027344 Z M 311.148438 241.058594 " clip-rule="nonzero"/></clipPath><clipPath id="id36"><path d="M 245 293 L 286 293 L 286 333 L 245 333 Z M 245 293 " clip-rule="nonzero"/></clipPath><clipPath id="id37"><path d="M 194.285156 244.234375 L 311.242188 241.058594 L 313.6875 331.023438 L 196.730469 334.203125 Z M 194.285156 244.234375 " clip-rule="nonzero"/></clipPath><clipPath id="id38"><path d="M 311.148438 241.058594 L 194.191406 244.238281 L 196.636719 334.207031 L 313.59375 331.027344 Z M 311.148438 241.058594 " clip-rule="nonzero"/></clipPath><clipPath id="id39"><path d="M 311.148438 241.058594 L 194.191406 244.238281 L 196.636719 334.207031 L 313.59375 331.027344 Z M 311.148438 241.058594 " clip-rule="nonzero"/></clipPath><clipPath id="id40"><path d="M 247 289 L 309 289 L 309 330 L 247 330 Z M 247 289 " clip-rule="nonzero"/></clipPath><clipPath id="id41"><path d="M 194.285156 244.234375 L 311.242188 241.058594 L 313.6875 331.023438 L 196.730469 334.203125 Z M 194.285156 244.234375 " clip-rule="nonzero"/></clipPath><clipPath id="id42"><path d="M 311.148438 241.058594 L 194.191406 244.238281 L 196.636719 334.207031 L 313.59375 331.027344 Z M 311.148438 241.058594 " clip-rule="nonzero"/></clipPath><clipPath id="id43"><path d="M 311.148438 241.058594 L 194.191406 244.238281 L 196.636719 334.207031 L 313.59375 331.027344 Z M 311.148438 241.058594 " clip-rule="nonzero"/></clipPath><clipPath id="id44"><path d="M 245 290 L 313 290 L 313 333 L 245 333 Z M 245 290 " clip-rule="nonzero"/></clipPath><clipPath id="id45"><path d="M 194.285156 244.234375 L 311.242188 241.058594 L 313.6875 331.023438 L 196.730469 334.203125 Z M 194.285156 244.234375 " clip-rule="nonzero"/></clipPath><clipPath id="id46"><path d="M 311.148438 241.058594 L 194.191406 244.238281 L 196.636719 334.207031 L 313.59375 331.027344 Z M 311.148438 241.058594 " clip-rule="nonzero"/></clipPath><clipPath id="id47"><path d="M 311.148438 241.058594 L 194.191406 244.238281 L 196.636719 334.207031 L 313.59375 331.027344 Z M 311.148438 241.058594 " clip-rule="nonzero"/></clipPath><clipPath id="id48"><path d="M 196 274 L 312 274 L 312 291 L 196 291 Z M 196 274 " clip-rule="nonzero"/></clipPath><clipPath id="id49"><path d="M 194.285156 244.234375 L 311.242188 241.058594 L 313.6875 331.023438 L 196.730469 334.203125 Z M 194.285156 244.234375 " clip-rule="nonzero"/></clipPath><clipPath id="id50"><path d="M 311.148438 241.058594 L 194.191406 244.238281 L 196.636719 334.207031 L 313.59375 331.027344 Z M 311.148438 241.058594 " clip-rule="nonzero"/></clipPath><clipPath id="id51"><path d="M 311.148438 241.058594 L 194.191406 244.238281 L 196.636719 334.207031 L 313.59375 331.027344 Z M 311.148438 241.058594 " clip-rule="nonzero"/></clipPath><clipPath id="id52"><path d="M 195 272 L 313 272 L 313 292 L 195 292 Z M 195 272 " clip-rule="nonzero"/></clipPath><clipPath id="id53"><path d="M 194.285156 244.234375 L 311.242188 241.058594 L 313.6875 331.023438 L 196.730469 334.203125 Z M 194.285156 244.234375 " clip-rule="nonzero"/></clipPath><clipPath id="id54"><path d="M 311.148438 241.058594 L 194.191406 244.238281 L 196.636719 334.207031 L 313.59375 331.027344 Z M 311.148438 241.058594 " clip-rule="nonzero"/></clipPath><clipPath id="id55"><path d="M 311.148438 241.058594 L 194.191406 244.238281 L 196.636719 334.207031 L 313.59375 331.027344 Z M 311.148438 241.058594 " clip-rule="nonzero"/></clipPath><clipPath id="id56"><path d="M 198 278 L 310 278 L 310 289 L 198 289 Z M 198 278 " clip-rule="nonzero"/></clipPath><clipPath id="id57"><path d="M 194.285156 244.234375 L 311.242188 241.058594 L 313.6875 331.023438 L 196.730469 334.203125 Z M 194.285156 244.234375 " clip-rule="nonzero"/></clipPath><clipPath id="id58"><path d="M 311.148438 241.058594 L 194.191406 244.238281 L 196.636719 334.207031 L 313.59375 331.027344 Z M 311.148438 241.058594 " clip-rule="nonzero"/></clipPath><clipPath id="id59"><path d="M 311.148438 241.058594 L 194.191406 244.238281 L 196.636719 334.207031 L 313.59375 331.027344 Z M 311.148438 241.058594 " clip-rule="nonzero"/></clipPath><clipPath id="id60"><path d="M 195 277 L 313 277 L 313 292 L 195 292 Z M 195 277 " clip-rule="nonzero"/></clipPath><clipPath id="id61"><path d="M 194.285156 244.234375 L 311.242188 241.058594 L 313.6875 331.023438 L 196.730469 334.203125 Z M 194.285156 244.234375 " clip-rule="nonzero"/></clipPath><clipPath id="id62"><path d="M 311.148438 241.058594 L 194.191406 244.238281 L 196.636719 334.207031 L 313.59375 331.027344 Z M 311.148438 241.058594 " clip-rule="nonzero"/></clipPath><clipPath id="id63"><path d="M 311.148438 241.058594 L 194.191406 244.238281 L 196.636719 334.207031 L 313.59375 331.027344 Z M 311.148438 241.058594 " clip-rule="nonzero"/></clipPath><clipPath id="id64"><path d="M 301 305 L 308 305 L 308 319 L 301 319 Z M 301 305 " clip-rule="nonzero"/></clipPath><clipPath id="id65"><path d="M 194.285156 244.234375 L 311.242188 241.058594 L 313.6875 331.023438 L 196.730469 334.203125 Z M 194.285156 244.234375 " clip-rule="nonzero"/></clipPath><clipPath id="id66"><path d="M 311.148438 241.058594 L 194.191406 244.238281 L 196.636719 334.207031 L 313.59375 331.027344 Z M 311.148438 241.058594 " clip-rule="nonzero"/></clipPath><clipPath id="id67"><path d="M 311.148438 241.058594 L 194.191406 244.238281 L 196.636719 334.207031 L 313.59375 331.027344 Z M 311.148438 241.058594 " clip-rule="nonzero"/></clipPath><clipPath id="id68"><path d="M 305 297 L 308 297 L 308 304 L 305 304 Z M 305 297 " clip-rule="nonzero"/></clipPath><clipPath id="id69"><path d="M 194.285156 244.234375 L 311.242188 241.058594 L 313.6875 331.023438 L 196.730469 334.203125 Z M 194.285156 244.234375 " clip-rule="nonzero"/></clipPath><clipPath id="id70"><path d="M 311.148438 241.058594 L 194.191406 244.238281 L 196.636719 334.207031 L 313.59375 331.027344 Z M 311.148438 241.058594 " clip-rule="nonzero"/></clipPath><clipPath id="id71"><path d="M 311.148438 241.058594 L 194.191406 244.238281 L 196.636719 334.207031 L 313.59375 331.027344 Z M 311.148438 241.058594 " clip-rule="nonzero"/></clipPath><clipPath id="id72"><path d="M 248 265 L 252 265 L 252 273 L 248 273 Z M 248 265 " clip-rule="nonzero"/></clipPath><clipPath id="id73"><path d="M 194.285156 244.234375 L 311.242188 241.058594 L 313.6875 331.023438 L 196.730469 334.203125 Z M 194.285156 244.234375 " clip-rule="nonzero"/></clipPath><clipPath id="id74"><path d="M 311.148438 241.058594 L 194.191406 244.238281 L 196.636719 334.207031 L 313.59375 331.027344 Z M 311.148438 241.058594 " clip-rule="nonzero"/></clipPath><clipPath id="id75"><path d="M 311.148438 241.058594 L 194.191406 244.238281 L 196.636719 334.207031 L 313.59375 331.027344 Z M 311.148438 241.058594 " clip-rule="nonzero"/></clipPath><clipPath id="id76"><path d="M 252 258 L 258 258 L 258 265 L 252 265 Z M 252 258 " clip-rule="nonzero"/></clipPath><clipPath id="id77"><path d="M 194.285156 244.234375 L 311.242188 241.058594 L 313.6875 331.023438 L 196.730469 334.203125 Z M 194.285156 244.234375 " clip-rule="nonzero"/></clipPath><clipPath id="id78"><path d="M 311.148438 241.058594 L 194.191406 244.238281 L 196.636719 334.207031 L 313.59375 331.027344 Z M 311.148438 241.058594 " clip-rule="nonzero"/></clipPath><clipPath id="id79"><path d="M 311.148438 241.058594 L 194.191406 244.238281 L 196.636719 334.207031 L 313.59375 331.027344 Z M 311.148438 241.058594 " clip-rule="nonzero"/></clipPath><clipPath id="id80"><path d="M 211 284 L 224 284 L 224 287 L 211 287 Z M 211 284 " clip-rule="nonzero"/></clipPath><clipPath id="id81"><path d="M 194.285156 244.234375 L 311.242188 241.058594 L 313.6875 331.023438 L 196.730469 334.203125 Z M 194.285156 244.234375 " clip-rule="nonzero"/></clipPath><clipPath id="id82"><path d="M 311.148438 241.058594 L 194.191406 244.238281 L 196.636719 334.207031 L 313.59375 331.027344 Z M 311.148438 241.058594 " clip-rule="nonzero"/></clipPath><clipPath id="id83"><path d="M 311.148438 241.058594 L 194.191406 244.238281 L 196.636719 334.207031 L 313.59375 331.027344 Z M 311.148438 241.058594 " clip-rule="nonzero"/></clipPath><clipPath id="id84"><path d="M 204 285 L 210 285 L 210 288 L 204 288 Z M 204 285 " clip-rule="nonzero"/></clipPath><clipPath id="id85"><path d="M 194.285156 244.234375 L 311.242188 241.058594 L 313.6875 331.023438 L 196.730469 334.203125 Z M 194.285156 244.234375 " clip-rule="nonzero"/></clipPath><clipPath id="id86"><path d="M 311.148438 241.058594 L 194.191406 244.238281 L 196.636719 334.207031 L 313.59375 331.027344 Z M 311.148438 241.058594 " clip-rule="nonzero"/></clipPath><clipPath id="id87"><path d="M 311.148438 241.058594 L 194.191406 244.238281 L 196.636719 334.207031 L 313.59375 331.027344 Z M 311.148438 241.058594 " clip-rule="nonzero"/></clipPath><clipPath id="id88"><path d="M 302 281 L 310 281 L 310 286 L 302 286 Z M 302 281 " clip-rule="nonzero"/></clipPath><clipPath id="id89"><path d="M 194.285156 244.234375 L 311.242188 241.058594 L 313.6875 331.023438 L 196.730469 334.203125 Z M 194.285156 244.234375 " clip-rule="nonzero"/></clipPath><clipPath id="id90"><path d="M 311.148438 241.058594 L 194.191406 244.238281 L 196.636719 334.207031 L 313.59375 331.027344 Z M 311.148438 241.058594 " clip-rule="nonzero"/></clipPath><clipPath id="id91"><path d="M 311.148438 241.058594 L 194.191406 244.238281 L 196.636719 334.207031 L 313.59375 331.027344 Z M 311.148438 241.058594 " clip-rule="nonzero"/></clipPath><clipPath id="id92"><path d="M 254 317 L 263 317 L 263 325 L 254 325 Z M 254 317 " clip-rule="nonzero"/></clipPath><clipPath id="id93"><path d="M 194.285156 244.234375 L 311.242188 241.058594 L 313.6875 331.023438 L 196.730469 334.203125 Z M 194.285156 244.234375 " clip-rule="nonzero"/></clipPath><clipPath id="id94"><path d="M 311.148438 241.058594 L 194.191406 244.238281 L 196.636719 334.207031 L 313.59375 331.027344 Z M 311.148438 241.058594 " clip-rule="nonzero"/></clipPath><clipPath id="id95"><path d="M 311.148438 241.058594 L 194.191406 244.238281 L 196.636719 334.207031 L 313.59375 331.027344 Z M 311.148438 241.058594 " clip-rule="nonzero"/></clipPath><clipPath id="id96"><path d="M 56 78.125 L 181 78.125 L 181 124 L 56 124 Z M 56 78.125 " clip-rule="nonzero"/></clipPath></defs><g clip-path="url(#id1)"><path fill="#6da8da" d="M 282.074219 83.453125 C 284.960938 81.863281 288.238281 81.019531 291.539062 81.019531 C 302.402344 81.019531 311.242188 89.867188 311.242188 100.742188 C 311.242188 108.429688 306.710938 115.472656 299.703125 118.679688 L 299.679688 118.691406 C 296.792969 120.285156 293.519531 121.125 290.214844 121.125 C 279.351562 121.125 270.515625 112.28125 270.515625 101.40625 C 270.515625 93.714844 275.046875 86.671875 282.074219 83.453125 Z M 291.539062 124.015625 C 294.9375 124.015625 298.21875 123.292969 301.316406 121.851562 C 308.808594 117.757812 313.464844 109.925781 313.464844 101.40625 C 313.464844 88.570312 303.035156 78.128906 290.214844 78.128906 C 286.820312 78.128906 283.535156 78.855469 280.441406 80.292969 C 272.945312 84.386719 268.292969 92.222656 268.292969 100.742188 C 268.292969 113.578125 278.722656 124.015625 291.539062 124.015625 " fill-opacity="1" fill-rule="nonzero"/></g><path fill="#6da8da" d="M 300.480469 216.628906 L 300.464844 216.644531 C 297.8125 219.476562 294.078125 221.101562 290.214844 221.101562 C 282.464844 221.101562 276.15625 214.789062 276.15625 207.027344 C 276.15625 203.160156 277.78125 199.421875 280.625 196.75 C 283.28125 193.914062 287.015625 192.289062 290.875 192.289062 C 298.628906 192.289062 304.9375 198.605469 304.9375 206.363281 C 304.9375 210.230469 303.3125 213.972656 300.480469 216.628906 Z M 290.214844 190.121094 C 285.894531 190.121094 281.777344 191.761719 278.613281 194.757812 C 275.628906 197.917969 273.992188 202.039062 273.992188 206.363281 C 273.992188 215.6875 281.566406 223.269531 290.875 223.269531 C 295.199219 223.269531 299.3125 221.625 302.480469 218.628906 C 305.460938 215.472656 307.101562 211.355469 307.101562 207.027344 C 307.101562 197.707031 299.527344 190.121094 290.214844 190.121094 " fill-opacity="1" fill-rule="nonzero"/><path fill="#6da8da" d="M 236.242188 236.976562 C 233.402344 236.976562 230.667969 235.761719 228.710938 233.625 C 226.597656 231.6875 225.382812 228.945312 225.382812 226.101562 C 225.382812 220.476562 229.957031 215.898438 235.578125 215.898438 C 238.417969 215.898438 241.15625 217.113281 243.113281 219.25 C 245.226562 221.1875 246.4375 223.925781 246.4375 226.765625 C 246.4375 232.394531 241.867188 236.976562 236.242188 236.976562 Z M 236.242188 213.730469 C 229.058594 213.730469 223.21875 219.578125 223.21875 226.765625 C 223.21875 230.054688 224.457031 233.199219 226.730469 235.648438 C 229.15625 237.902344 232.300781 239.144531 235.578125 239.144531 C 242.761719 239.144531 248.605469 233.292969 248.605469 226.101562 C 248.605469 222.820312 247.363281 219.671875 245.09375 217.230469 C 242.667969 214.972656 239.527344 213.730469 236.242188 213.730469 " fill-opacity="1" fill-rule="nonzero"/><path fill="#6da8da" d="M 257.304688 204.441406 C 258.539062 203.023438 260.3125 202.210938 262.175781 202.210938 C 265.742188 202.210938 268.644531 205.117188 268.644531 208.6875 C 268.644531 210.550781 267.832031 212.328125 266.417969 213.5625 L 266.386719 213.597656 C 265.152344 215.015625 263.378906 215.828125 261.515625 215.828125 C 257.949219 215.828125 255.046875 212.921875 255.046875 209.351562 C 255.046875 207.488281 255.859375 205.707031 257.304688 204.441406 Z M 262.175781 217.996094 C 264.46875 217.996094 266.671875 217.144531 268.414062 215.570312 C 269.960938 213.851562 270.8125 211.644531 270.8125 209.351562 C 270.8125 204.21875 266.640625 200.042969 261.515625 200.042969 C 259.226562 200.042969 257.019531 200.894531 255.277344 202.46875 C 253.734375 204.1875 252.878906 206.394531 252.878906 208.6875 C 252.878906 213.820312 257.050781 217.996094 262.175781 217.996094 " fill-opacity="1" fill-rule="nonzero"/><path fill="#6da8da" d="M 270.058594 236.328125 C 268.042969 236.328125 266.109375 235.449219 264.730469 233.890625 C 263.203125 232.542969 262.328125 230.609375 262.328125 228.585938 C 262.328125 224.683594 265.5 221.507812 269.394531 221.507812 C 271.417969 221.507812 273.351562 222.386719 274.726562 223.945312 C 276.253906 225.292969 277.132812 227.226562 277.132812 229.25 C 277.132812 233.152344 273.960938 236.328125 270.058594 236.328125 Z M 279.296875 228.585938 C 279.296875 226.132812 278.382812 223.773438 276.699219 221.917969 C 274.867188 220.253906 272.511719 219.339844 270.058594 219.339844 C 264.601562 219.339844 260.160156 223.785156 260.160156 229.25 C 260.160156 231.703125 261.078125 234.0625 262.761719 235.917969 C 264.589844 237.582031 266.949219 238.496094 269.394531 238.496094 C 274.855469 238.496094 279.296875 234.050781 279.296875 228.585938 " fill-opacity="1" fill-rule="nonzero"/><path fill="#6da8da" d="M 255.652344 99.355469 L 255.730469 99.367188 L 255.757812 99.363281 C 255.789062 99.363281 255.820312 99.359375 255.855469 99.351562 C 257.5 99.351562 258.835938 100.695312 258.835938 102.339844 C 258.835938 103.988281 257.5 105.328125 255.855469 105.328125 L 255.769531 105.316406 L 255.742188 105.320312 C 255.710938 105.320312 255.679688 105.320312 255.648438 105.328125 C 254 105.328125 252.664062 103.988281 252.664062 102.339844 C 252.664062 100.695312 254 99.355469 255.652344 99.355469 Z M 255.757812 107.433594 C 258.503906 107.375 260.738281 105.089844 260.738281 102.339844 C 260.738281 99.59375 258.503906 97.308594 255.757812 97.25 L 255.742188 97.25 C 252.996094 97.308594 250.761719 99.59375 250.761719 102.339844 C 250.761719 105.089844 252.996094 107.375 255.757812 107.433594 " fill-opacity="1" fill-rule="nonzero"/><path fill="#6da8da" d="M 313.164062 122.808594 C 314.808594 122.808594 316.148438 124.148438 316.148438 125.792969 C 316.148438 127.441406 314.808594 128.78125 313.164062 128.78125 L 313.078125 128.773438 L 313.050781 128.773438 C 313.019531 128.773438 312.992188 128.777344 312.957031 128.78125 C 311.308594 128.78125 309.972656 127.441406 309.972656 125.792969 C 309.972656 124.148438 311.308594 122.808594 312.957031 122.808594 C 312.960938 122.808594 312.960938 122.808594 312.960938 122.808594 L 313.039062 122.820312 L 313.066406 122.820312 C 313.097656 122.816406 313.125 122.8125 313.164062 122.808594 Z M 313.050781 120.703125 C 310.304688 120.761719 308.070312 123.046875 308.070312 125.792969 C 308.070312 128.542969 310.304688 130.828125 313.066406 130.886719 C 315.8125 130.828125 318.046875 128.542969 318.046875 125.792969 C 318.046875 123.046875 315.8125 120.761719 313.066406 120.703125 L 313.050781 120.703125 " fill-opacity="1" fill-rule="nonzero"/><path fill="#6da8da" d="M 266.894531 140.972656 C 266.894531 140.972656 266.898438 140.972656 266.898438 140.972656 L 266.976562 140.980469 L 267.003906 140.980469 C 267.035156 140.980469 267.0625 140.976562 267.097656 140.972656 C 268.742188 140.972656 270.082031 142.3125 270.082031 143.960938 C 270.082031 145.609375 268.742188 146.945312 267.097656 146.945312 L 267.015625 146.9375 L 266.988281 146.9375 C 266.957031 146.9375 266.925781 146.941406 266.890625 146.945312 C 265.246094 146.945312 263.910156 145.609375 263.910156 143.960938 C 263.910156 142.3125 265.242188 140.972656 266.894531 140.972656 Z M 267.003906 149.050781 C 269.75 148.992188 271.980469 146.707031 271.980469 143.960938 C 271.980469 141.210938 269.75 138.929688 267.003906 138.867188 L 266.988281 138.867188 C 264.238281 138.929688 262.007812 141.210938 262.007812 143.960938 C 262.007812 146.707031 264.238281 148.992188 267.003906 149.050781 " fill-opacity="1" fill-rule="nonzero"/><path fill="#6da8da" d="M 279.179688 187.023438 C 279.179688 188.671875 277.839844 190.011719 276.191406 190.011719 L 276.105469 190 L 276.078125 190 C 276.050781 190.003906 276.023438 190.003906 275.984375 190.011719 C 274.339844 190.011719 273.003906 188.671875 273.003906 187.023438 C 273.003906 185.375 274.339844 184.039062 275.988281 184.039062 C 275.992188 184.039062 275.992188 184.039062 275.992188 184.039062 L 276.070312 184.046875 L 276.09375 184.046875 C 276.128906 184.046875 276.15625 184.039062 276.191406 184.035156 C 277.839844 184.035156 279.179688 185.375 279.179688 187.023438 Z M 276.082031 181.933594 C 273.335938 181.992188 271.101562 184.277344 271.101562 187.023438 C 271.101562 189.769531 273.335938 192.054688 276.097656 192.117188 C 278.84375 192.054688 281.078125 189.769531 281.078125 187.023438 C 281.078125 184.277344 278.84375 181.992188 276.097656 181.933594 L 276.082031 181.933594 " fill-opacity="1" fill-rule="nonzero"/><path fill="#6da8da" d="M 241.929688 255.429688 L 241.84375 255.421875 L 241.8125 255.421875 C 241.789062 255.421875 241.757812 255.425781 241.722656 255.429688 C 240.078125 255.429688 238.738281 254.09375 238.738281 252.441406 C 238.738281 250.796875 240.074219 249.460938 241.726562 249.460938 L 241.804688 249.46875 L 241.835938 249.46875 C 241.867188 249.46875 241.894531 249.460938 241.929688 249.457031 C 243.574219 249.457031 244.914062 250.796875 244.914062 252.441406 C 244.914062 254.09375 243.574219 255.429688 241.929688 255.429688 Z M 241.835938 247.351562 L 241.820312 247.351562 C 239.074219 247.414062 236.839844 249.695312 236.839844 252.441406 C 236.839844 255.191406 239.074219 257.476562 241.835938 257.535156 C 244.582031 257.476562 246.816406 255.191406 246.816406 252.441406 C 246.816406 249.695312 244.582031 247.414062 241.835938 247.351562 " fill-opacity="1" fill-rule="nonzero"/><path fill="#6da8da" d="M 259.777344 267.539062 L 259.691406 267.523438 L 259.660156 267.527344 C 259.632812 267.527344 259.605469 267.53125 259.570312 267.539062 C 257.925781 267.539062 256.585938 266.195312 256.585938 264.550781 C 256.585938 262.902344 257.921875 261.5625 259.574219 261.5625 L 259.652344 261.574219 L 259.683594 261.574219 C 259.714844 261.570312 259.742188 261.570312 259.777344 261.5625 C 261.421875 261.5625 262.761719 262.902344 262.761719 264.550781 C 262.761719 266.195312 261.421875 267.539062 259.777344 267.539062 Z M 259.679688 259.457031 L 259.667969 259.457031 C 256.921875 259.515625 254.6875 261.800781 254.6875 264.550781 C 254.6875 267.300781 256.921875 269.582031 259.679688 269.640625 C 262.425781 269.582031 264.664062 267.300781 264.664062 264.550781 C 264.664062 261.800781 262.425781 259.515625 259.679688 259.457031 " fill-opacity="1" fill-rule="nonzero"/><path fill="#6da8da" d="M 280.847656 249.617188 L 280.765625 249.605469 L 280.734375 249.605469 C 280.703125 249.609375 280.675781 249.609375 280.640625 249.617188 C 278.996094 249.617188 277.660156 248.277344 277.660156 246.628906 C 277.660156 244.984375 278.996094 243.644531 280.644531 243.644531 C 280.648438 243.644531 280.648438 243.644531 280.648438 243.644531 L 280.726562 243.65625 L 280.757812 243.652344 C 280.785156 243.652344 280.816406 243.648438 280.847656 243.640625 C 282.496094 243.640625 283.835938 244.984375 283.835938 246.628906 C 283.835938 248.277344 282.496094 249.617188 280.847656 249.617188 Z M 280.753906 241.539062 L 280.742188 241.539062 C 277.992188 241.597656 275.757812 243.878906 275.757812 246.628906 C 275.757812 249.378906 277.992188 251.664062 280.753906 251.722656 C 283.5 251.664062 285.734375 249.378906 285.734375 246.628906 C 285.734375 243.878906 283.5 241.597656 280.753906 241.539062 " fill-opacity="1" fill-rule="nonzero"/><path fill="#6da8da" d="M 260.261719 249.992188 C 260.375 249.96875 260.476562 249.957031 260.574219 249.957031 C 261.367188 249.957031 262.007812 250.597656 262.007812 251.390625 C 262.007812 252.109375 261.464844 252.722656 260.742188 252.804688 L 260.707031 252.8125 C 260.59375 252.835938 260.492188 252.847656 260.394531 252.847656 C 259.605469 252.847656 258.960938 252.203125 258.960938 251.414062 C 258.960938 250.691406 259.507812 250.082031 260.261719 249.992188 Z M 260.574219 254.933594 C 260.761719 254.933594 260.941406 254.90625 261.136719 254.875 C 262.761719 254.527344 263.933594 253.070312 263.933594 251.414062 C 263.933594 249.460938 262.347656 247.871094 260.394531 247.871094 C 260.207031 247.871094 260.03125 247.894531 259.828125 247.925781 C 258.210938 248.273438 257.035156 249.734375 257.035156 251.390625 C 257.035156 253.34375 258.621094 254.933594 260.574219 254.933594 " fill-opacity="1" fill-rule="nonzero"/><g clip-path="url(#id2)"><path fill="#6da8da" d="M 259.628906 285.253906 L 259.59375 285.261719 C 259.484375 285.285156 259.382812 285.296875 259.28125 285.296875 C 258.492188 285.296875 257.851562 284.652344 257.851562 283.863281 C 257.851562 283.140625 258.394531 282.53125 259.152344 282.441406 C 259.261719 282.414062 259.363281 282.40625 259.460938 282.40625 C 260.253906 282.40625 260.894531 283.046875 260.894531 283.839844 C 260.894531 284.558594 260.351562 285.167969 259.628906 285.253906 Z M 259.28125 280.320312 C 259.097656 280.320312 258.914062 280.34375 258.71875 280.375 C 257.097656 280.722656 255.921875 282.179688 255.921875 283.839844 C 255.921875 285.792969 257.511719 287.382812 259.460938 287.382812 C 259.648438 287.382812 259.828125 287.355469 260.027344 287.324219 C 261.644531 286.976562 262.824219 285.519531 262.824219 283.863281 C 262.824219 281.910156 261.234375 280.320312 259.28125 280.320312 " fill-opacity="1" fill-rule="nonzero"/></g><g clip-path="url(#id3)"><path fill="#6da8da" d="M 316.054688 160.546875 L 316.035156 160.566406 C 314.105469 162.679688 311.367188 163.894531 308.53125 163.894531 C 302.917969 163.894531 298.347656 159.324219 298.347656 153.699219 C 298.347656 150.859375 299.558594 148.125 301.691406 146.167969 C 303.625 144.054688 306.359375 142.839844 309.195312 142.839844 C 314.8125 142.839844 319.378906 147.414062 319.378906 153.035156 C 319.378906 155.875 318.167969 158.613281 316.054688 160.546875 Z M 308.53125 140.671875 C 305.253906 140.671875 302.113281 141.914062 299.671875 144.183594 C 297.421875 146.613281 296.179688 149.753906 296.179688 153.035156 C 296.179688 160.21875 302.019531 166.0625 309.195312 166.0625 C 312.472656 166.0625 315.613281 164.824219 318.054688 162.550781 C 320.308594 160.125 321.546875 156.984375 321.546875 153.699219 C 321.546875 146.515625 315.707031 140.671875 308.53125 140.671875 " fill-opacity="1" fill-rule="nonzero"/></g><g clip-path="url(#id4)"><path fill="#6da8da" d="M 217.832031 172.207031 C 219.976562 172.734375 222.210938 173.042969 224.503906 173.085938 C 236.769531 172.863281 247.332031 165.25 251.964844 154.574219 C 254.878906 158.082031 256.480469 162.484375 256.480469 167.035156 C 256.480469 167.242188 256.472656 167.445312 256.464844 167.652344 L 256.464844 167.761719 C 256.472656 168 256.480469 168.246094 256.480469 168.488281 C 256.480469 179.257812 247.730469 188.015625 236.972656 188.015625 C 227.621094 188.015625 219.605469 181.382812 217.832031 172.207031 Z M 196.957031 142.535156 C 196.957031 127.640625 209.0625 115.523438 223.9375 115.523438 C 224.050781 115.523438 224.160156 115.527344 224.269531 115.53125 L 224.503906 115.539062 L 224.71875 115.53125 C 224.832031 115.527344 224.941406 115.523438 225.050781 115.523438 C 239.929688 115.523438 252.03125 127.640625 252.03125 142.535156 C 252.03125 157.429688 239.929688 169.546875 225.050781 169.546875 C 224.941406 169.546875 224.832031 169.539062 224.71875 169.539062 L 224.488281 169.53125 L 224.269531 169.539062 C 224.160156 169.539062 224.050781 169.546875 223.9375 169.546875 C 209.0625 169.546875 196.957031 157.429688 196.957031 142.535156 Z M 260.015625 167.765625 C 259.824219 161.730469 257.328125 156.105469 252.976562 151.902344 C 253.941406 148.941406 254.472656 145.792969 254.472656 142.535156 C 254.472656 125.988281 241.027344 112.285156 224.503906 111.980469 L 224.488281 111.980469 C 207.964844 112.285156 194.519531 125.988281 194.519531 142.535156 C 194.519531 155.492188 202.765625 166.703125 214.285156 171.105469 L 214.332031 171.355469 C 216.398438 182.230469 225.917969 190.121094 236.972656 190.121094 C 249.492188 190.121094 259.613281 180.3125 260.015625 167.765625 " fill-opacity="1" fill-rule="nonzero"/></g><path fill="#6da8da" d="M 212.089844 124.230469 L 211.945312 124.121094 C 211.925781 124.109375 211.914062 124.097656 211.914062 124.09375 L 211.90625 124.101562 C 211.75 124.007812 211.585938 123.96875 211.441406 124.160156 C 211.390625 124.226562 211.367188 124.289062 211.367188 124.347656 C 204.332031 127.226562 199.632812 134.476562 199.632812 142.535156 C 199.632812 150.851562 204.199219 157.726562 211.847656 160.929688 L 212.160156 160.347656 C 206.164062 156.363281 202.589844 149.703125 202.589844 142.535156 C 202.589844 135.476562 206.0625 128.902344 211.890625 124.898438 C 212.042969 124.988281 212.203125 125.019531 212.34375 124.835938 C 212.425781 124.726562 212.4375 124.632812 212.40625 124.550781 L 212.464844 124.511719 L 212.089844 124.230469 " fill-opacity="1" fill-rule="nonzero"/><path fill="#6da8da" d="M 296.945312 87.210938 C 297.074219 87.382812 297.222656 87.363281 297.355469 87.296875 C 302.019531 90.511719 304.796875 95.785156 304.796875 101.4375 C 304.796875 107.199219 301.921875 112.546875 297.109375 115.746094 L 297.421875 116.332031 C 303.613281 113.738281 307.308594 108.171875 307.308594 101.4375 C 307.308594 94.929688 303.523438 89.070312 297.839844 86.730469 C 297.832031 86.6875 297.8125 86.636719 297.773438 86.585938 C 297.628906 86.394531 297.460938 86.441406 297.316406 86.527344 L 297.304688 86.519531 L 296.789062 86.914062 L 296.875 86.972656 C 296.863281 87.042969 296.878906 87.121094 296.945312 87.210938 " fill-opacity="1" fill-rule="nonzero"/><path fill="#6da8da" d="M 294.773438 195.855469 C 294.761719 195.824219 294.746094 195.789062 294.71875 195.753906 C 294.585938 195.578125 294.429688 195.605469 294.304688 195.671875 L 294.289062 195.664062 L 294.140625 195.773438 L 293.769531 196.054688 L 293.890625 196.132812 C 293.894531 196.195312 293.914062 196.257812 293.960938 196.324219 C 294.078125 196.476562 294.214844 196.476562 294.328125 196.429688 C 297.820312 198.855469 299.894531 202.8125 299.894531 207.050781 C 299.894531 211.386719 297.730469 215.414062 294.109375 217.824219 L 294.417969 218.40625 C 299.140625 216.429688 301.960938 212.183594 301.960938 207.050781 C 301.960938 202.105469 299.085938 197.648438 294.773438 195.855469 " fill-opacity="1" fill-rule="nonzero"/><path fill="#97daf8" d="M 284 182.050781 C 272.503906 182.050781 263.179688 191.347656 263.179688 202.820312 C 263.179688 214.289062 272.503906 223.589844 284 223.589844 C 295.5 223.589844 304.824219 214.289062 304.824219 202.820312 C 304.824219 191.347656 295.5 182.050781 284 182.050781 Z M 297.808594 202 C 297.148438 205.035156 292.496094 203.742188 293.152344 200.722656 C 294.261719 195.621094 290.332031 191.828125 285.414062 191.460938 C 282.328125 191.234375 282.316406 186.414062 285.414062 186.644531 C 293.554688 187.25 299.617188 193.699219 297.808594 202 Z M 297.808594 202 " fill-opacity="1" fill-rule="nonzero"/><path fill="#97daf8" d="M 258.546875 145.910156 C 270.046875 145.910156 279.367188 136.613281 279.367188 125.140625 C 279.367188 113.671875 270.046875 104.371094 258.546875 104.371094 C 247.046875 104.371094 237.726562 113.671875 237.726562 125.140625 C 237.726562 136.613281 247.046875 145.910156 258.546875 145.910156 Z M 258.792969 108.585938 C 267.578125 109.53125 274.6875 115.628906 274.195312 124.921875 C 274.03125 128.011719 269.199219 128.019531 269.363281 124.921875 C 269.707031 118.433594 265.089844 114.082031 258.792969 113.40625 C 255.726562 113.074219 255.703125 108.253906 258.792969 108.585938 Z M 258.792969 108.585938 " fill-opacity="1" fill-rule="nonzero"/><g clip-path="url(#id5)"><path fill="#97daf8" d="M 309.675781 125.132812 C 295.496094 125.132812 284 136.601562 284 150.746094 C 284 164.890625 295.496094 176.355469 309.675781 176.355469 C 323.855469 176.355469 335.347656 164.890625 335.347656 150.746094 C 335.347656 136.601562 323.855469 125.132812 309.675781 125.132812 Z M 327.113281 162.414062 C 325.484375 165.050781 321.308594 162.628906 322.941406 159.984375 C 328.9375 150.277344 324.054688 137.171875 312.039062 136.078125 C 308.964844 135.796875 308.945312 130.976562 312.039062 131.257812 C 327.542969 132.671875 335.183594 149.347656 327.113281 162.414062 Z M 327.113281 162.414062 " fill-opacity="1" fill-rule="nonzero"/></g><g clip-path="url(#id6)"><path fill="#97daf8" d="M 236.238281 163.980469 C 236.238281 164.394531 236.199219 164.804688 236.117188 165.210938 C 236.035156 165.617188 235.917969 166.011719 235.757812 166.394531 C 235.597656 166.777344 235.402344 167.140625 235.171875 167.484375 C 234.941406 167.828125 234.679688 168.148438 234.386719 168.441406 C 234.09375 168.734375 233.773438 168.996094 233.429688 169.226562 C 233.082031 169.457031 232.71875 169.652344 232.335938 169.808594 C 231.949219 169.96875 231.554688 170.085938 231.148438 170.167969 C 230.742188 170.25 230.328125 170.289062 229.914062 170.289062 C 229.5 170.289062 229.085938 170.25 228.679688 170.167969 C 228.273438 170.085938 227.878906 169.96875 227.492188 169.808594 C 227.109375 169.652344 226.746094 169.457031 226.398438 169.226562 C 226.054688 168.996094 225.734375 168.734375 225.441406 168.441406 C 225.148438 168.148438 224.886719 167.828125 224.65625 167.484375 C 224.425781 167.140625 224.230469 166.777344 224.070312 166.394531 C 223.910156 166.011719 223.792969 165.617188 223.710938 165.210938 C 223.628906 164.804688 223.589844 164.394531 223.589844 163.980469 C 223.589844 163.566406 223.628906 163.15625 223.710938 162.75 C 223.792969 162.34375 223.910156 161.949219 224.070312 161.566406 C 224.230469 161.183594 224.425781 160.820312 224.65625 160.472656 C 224.886719 160.128906 225.148438 159.8125 225.441406 159.519531 C 225.734375 159.226562 226.054688 158.964844 226.398438 158.734375 C 226.746094 158.503906 227.109375 158.308594 227.492188 158.152344 C 227.878906 157.992188 228.273438 157.871094 228.679688 157.792969 C 229.085938 157.710938 229.5 157.671875 229.914062 157.671875 C 230.328125 157.671875 230.742188 157.710938 231.148438 157.792969 C 231.554688 157.871094 231.949219 157.992188 232.335938 158.152344 C 232.71875 158.308594 233.082031 158.503906 233.429688 158.734375 C 233.773438 158.964844 234.09375 159.226562 234.386719 159.519531 C 234.679688 159.8125 234.941406 160.128906 235.171875 160.472656 C 235.402344 160.820312 235.597656 161.183594 235.757812 161.566406 C 235.917969 161.949219 236.035156 162.34375 236.117188 162.75 C 236.199219 163.15625 236.238281 163.566406 236.238281 163.980469 Z M 236.238281 163.980469 " fill-opacity="1" fill-rule="nonzero"/></g><path fill="#97daf8" d="M 248.136719 175.894531 C 242.386719 175.894531 237.726562 180.546875 237.726562 186.28125 C 237.726562 192.015625 242.386719 196.664062 248.136719 196.664062 C 253.886719 196.664062 258.546875 192.015625 258.546875 186.28125 C 258.546875 180.546875 253.886719 175.894531 248.136719 175.894531 Z M 255.601562 189.695312 C 255.144531 190.917969 253.980469 191.746094 252.628906 191.375 C 251.449219 191.054688 250.488281 189.632812 250.941406 188.414062 C 251.421875 187.125 251.394531 186.234375 250.535156 185.085938 C 249.753906 184.039062 250.375 182.390625 251.402344 181.789062 C 252.617188 181.082031 253.929688 181.613281 254.707031 182.65625 C 256.210938 184.671875 256.46875 187.363281 255.601562 189.695312 Z M 255.601562 189.695312 " fill-opacity="1" fill-rule="nonzero"/><path fill="#97daf8" d="M 279.367188 54.941406 C 281.113281 54.941406 282.53125 53.53125 282.53125 51.789062 C 282.53125 50.046875 281.113281 48.632812 279.367188 48.632812 C 277.621094 48.632812 276.207031 50.046875 276.207031 51.789062 C 276.207031 53.53125 277.621094 54.941406 279.367188 54.941406 Z M 279.367188 54.941406 " fill-opacity="1" fill-rule="nonzero"/><path fill="#97daf8" d="M 256.957031 92.613281 C 258.703125 92.613281 260.121094 91.199219 260.121094 89.457031 C 260.121094 87.714844 258.703125 86.300781 256.957031 86.300781 C 255.210938 86.300781 253.796875 87.714844 253.796875 89.457031 C 253.796875 91.199219 255.210938 92.613281 256.957031 92.613281 Z M 256.957031 92.613281 " fill-opacity="1" fill-rule="nonzero"/><path fill="#97daf8" d="M 233.09375 181.011719 C 233.09375 181.429688 233.011719 181.832031 232.851562 182.21875 C 232.691406 182.605469 232.464844 182.945312 232.167969 183.242188 C 231.871094 183.539062 231.527344 183.765625 231.140625 183.925781 C 230.753906 184.085938 230.351562 184.164062 229.929688 184.164062 C 229.511719 184.164062 229.109375 184.085938 228.722656 183.925781 C 228.332031 183.765625 227.992188 183.539062 227.695312 183.242188 C 227.398438 182.945312 227.167969 182.605469 227.007812 182.21875 C 226.847656 181.832031 226.769531 181.429688 226.769531 181.011719 C 226.769531 180.59375 226.847656 180.191406 227.007812 179.804688 C 227.167969 179.417969 227.398438 179.074219 227.695312 178.78125 C 227.992188 178.484375 228.332031 178.257812 228.722656 178.097656 C 229.109375 177.9375 229.511719 177.855469 229.929688 177.855469 C 230.351562 177.855469 230.753906 177.9375 231.140625 178.097656 C 231.527344 178.257812 231.871094 178.484375 232.167969 178.78125 C 232.464844 179.074219 232.691406 179.417969 232.851562 179.804688 C 233.011719 180.191406 233.09375 180.59375 233.09375 181.011719 Z M 233.09375 181.011719 " fill-opacity="1" fill-rule="nonzero"/><path fill="#97daf8" d="M 251.300781 207.332031 C 249.554688 207.332031 248.136719 208.746094 248.136719 210.488281 C 248.136719 212.230469 249.554688 213.640625 251.300781 213.640625 C 253.046875 213.640625 254.460938 212.230469 254.460938 210.488281 C 254.460938 208.746094 253.046875 207.332031 251.300781 207.332031 Z M 251.300781 207.332031 " fill-opacity="1" fill-rule="nonzero"/><g clip-path="url(#id7)"><path fill="#97daf8" d="M 263.28125 243.734375 C 261.535156 243.734375 260.121094 245.148438 260.121094 246.890625 C 260.121094 248.632812 261.535156 250.042969 263.28125 250.042969 C 265.03125 250.042969 266.445312 248.632812 266.445312 246.890625 C 266.445312 245.148438 265.03125 243.734375 263.28125 243.734375 Z M 263.28125 243.734375 " fill-opacity="1" fill-rule="nonzero"/></g><path fill="#97daf8" d="M 287.164062 64.324219 C 288.910156 64.324219 290.328125 62.910156 290.328125 61.167969 C 290.328125 59.425781 288.910156 58.015625 287.164062 58.015625 C 285.417969 58.015625 284 59.425781 284 61.167969 C 284 62.910156 285.417969 64.324219 287.164062 64.324219 Z M 287.164062 64.324219 " fill-opacity="1" fill-rule="nonzero"/><path fill="#97daf8" d="M 287.164062 117.003906 C 287.164062 118.746094 288.582031 120.15625 290.328125 120.15625 C 292.074219 120.15625 293.488281 118.746094 293.488281 117.003906 C 293.488281 115.257812 292.074219 113.847656 290.328125 113.847656 C 288.582031 113.847656 287.164062 115.257812 287.164062 117.003906 Z M 287.164062 117.003906 " fill-opacity="1" fill-rule="nonzero"/><path fill="#97daf8" d="M 274.625 44.191406 C 275.496094 44.191406 276.207031 43.484375 276.207031 42.613281 C 276.207031 41.742188 275.496094 41.035156 274.625 41.035156 C 273.75 41.035156 273.042969 41.742188 273.042969 42.613281 C 273.042969 43.484375 273.75 44.191406 274.625 44.191406 Z M 274.625 44.191406 " fill-opacity="1" fill-rule="nonzero"/><path fill="#97daf8" d="M 309.675781 185.410156 C 307.929688 185.410156 306.511719 186.820312 306.511719 188.5625 C 306.511719 190.304688 307.929688 191.71875 309.675781 191.71875 C 311.421875 191.71875 312.839844 190.304688 312.839844 188.5625 C 312.839844 186.820312 311.421875 185.410156 309.675781 185.410156 Z M 309.675781 185.410156 " fill-opacity="1" fill-rule="nonzero"/><path fill="#97daf8" d="M 269.507812 220.433594 C 267.757812 220.433594 266.34375 221.84375 266.34375 223.589844 C 266.34375 225.332031 267.757812 226.742188 269.507812 226.742188 C 271.253906 226.742188 272.667969 225.332031 272.667969 223.589844 C 272.667969 221.84375 271.253906 220.433594 269.507812 220.433594 Z M 269.507812 220.433594 " fill-opacity="1" fill-rule="nonzero"/><path fill="#97daf8" d="M 273.042969 94.730469 C 273.042969 98.214844 275.875 101.039062 279.367188 101.039062 C 282.863281 101.039062 285.695312 98.214844 285.695312 94.730469 C 285.695312 91.246094 282.863281 88.417969 279.367188 88.417969 C 275.875 88.417969 273.042969 91.246094 273.042969 94.730469 Z M 273.042969 94.730469 " fill-opacity="1" fill-rule="nonzero"/><path fill="#97daf8" d="M 269.507812 74.761719 C 273 74.761719 275.832031 71.933594 275.832031 68.449219 C 275.832031 64.964844 273 62.140625 269.507812 62.140625 C 266.011719 62.140625 263.179688 64.964844 263.179688 68.449219 C 263.179688 71.933594 266.011719 74.761719 269.507812 74.761719 Z M 270.96875 64.011719 C 274.078125 64.011719 274.074219 68.828125 270.96875 68.828125 C 267.855469 68.828125 267.859375 64.011719 270.96875 64.011719 Z M 270.96875 64.011719 " fill-opacity="1" fill-rule="nonzero"/><path fill="#97daf8" d="M 284 74.761719 C 284 78.246094 286.832031 81.070312 290.328125 81.070312 C 293.820312 81.070312 296.652344 78.246094 296.652344 74.761719 C 296.652344 71.277344 293.820312 68.449219 290.328125 68.449219 C 286.832031 68.449219 284 71.277344 284 74.761719 Z M 290.066406 71.566406 C 290.164062 71.265625 290.332031 71.007812 290.566406 70.789062 C 290.785156 70.554688 291.046875 70.390625 291.34375 70.292969 C 291.632812 70.140625 291.941406 70.070312 292.273438 70.085938 C 292.367188 70.085938 292.492188 70.109375 292.570312 70.121094 C 292.550781 70.117188 292.882812 70.152344 292.960938 70.175781 C 292.972656 70.179688 292.984375 70.183594 292.996094 70.1875 C 293.1875 70.269531 293.378906 70.347656 293.570312 70.429688 L 293.582031 70.4375 L 293.605469 70.449219 C 293.609375 70.453125 293.613281 70.457031 293.617188 70.460938 C 293.78125 70.585938 293.945312 70.710938 294.105469 70.835938 C 294.121094 70.851562 294.136719 70.863281 294.148438 70.882812 C 294.191406 70.925781 294.460938 71.230469 294.558594 71.417969 C 294.609375 71.515625 294.679688 71.707031 294.691406 71.734375 C 294.726562 71.8125 294.789062 71.941406 294.824219 72.046875 C 294.828125 72.0625 294.832031 72.074219 294.835938 72.089844 C 294.878906 72.296875 294.902344 72.550781 294.925781 72.761719 C 294.929688 72.792969 294.933594 72.824219 294.933594 72.859375 C 294.933594 73.292969 294.820312 73.699219 294.605469 74.074219 C 294.476562 74.234375 294.351562 74.398438 294.226562 74.5625 C 293.925781 74.859375 293.570312 75.066406 293.160156 75.179688 C 292.945312 75.210938 292.734375 75.238281 292.519531 75.265625 C 292.1875 75.277344 291.875 75.210938 291.589844 75.058594 C 291.289062 74.960938 291.03125 74.796875 290.8125 74.5625 C 290.632812 74.398438 290.507812 74.203125 290.410156 73.992188 C 290.203125 73.738281 290.039062 73.457031 289.945312 73.132812 C 289.917969 72.921875 289.886719 72.707031 289.859375 72.492188 C 289.847656 72.160156 289.917969 71.851562 290.066406 71.566406 Z M 290.066406 71.566406 " fill-opacity="1" fill-rule="nonzero"/><path fill="#97daf8" d="M 269.609375 163.980469 C 269.609375 160.496094 266.777344 157.671875 263.28125 157.671875 C 259.789062 157.671875 256.957031 160.496094 256.957031 163.980469 C 256.957031 167.464844 259.789062 170.289062 263.28125 170.289062 C 266.777344 170.289062 269.609375 167.464844 269.609375 163.980469 Z M 269.609375 163.980469 " fill-opacity="1" fill-rule="nonzero"/><g clip-path="url(#id8)"><g clip-path="url(#id9)"><g clip-path="url(#id10)"><g clip-path="url(#id11)"><path fill="#ffffff" d="M 309.320312 280.316406 C 309.347656 277.117188 309.039062 274.660156 307.027344 272.832031 C 306.042969 271.945312 304.738281 271.226562 303.351562 270.464844 C 300.789062 269.050781 297.882812 267.453125 296.734375 264.335938 C 296.496094 263.6875 296.277344 263.011719 296.0625 262.363281 C 294.980469 259.046875 294.042969 256.183594 290.863281 255.355469 C 290.535156 255.269531 290.1875 255.230469 289.800781 255.242188 C 288.964844 255.265625 288.089844 255.5 287.160156 255.753906 C 286.183594 256.015625 285.175781 256.289062 284.148438 256.316406 C 282.171875 256.367188 280.617188 255.492188 279.410156 253.636719 C 276.554688 249.261719 273.195312 246.386719 268.84375 244.589844 C 267.777344 244.152344 266.144531 243.636719 264.429688 243.683594 C 262.9375 243.722656 261.722656 244.191406 260.8125 245.070312 C 259.117188 246.707031 258.328125 249.027344 257.5 251.488281 C 257.316406 252.023438 257.136719 252.558594 256.949219 253.082031 C 256.144531 255.304688 255.128906 257.585938 253.144531 259.234375 C 252.40625 259.84375 251.625 260.367188 250.871094 260.875 C 249.976562 261.476562 249.132812 262.042969 248.394531 262.722656 C 244.570312 266.246094 245.429688 273.449219 246.9375 277.429688 C 247.578125 279.117188 247.933594 280.570312 248.046875 281.980469 L 309.320312 280.316406 " fill-opacity="1" fill-rule="nonzero"/></g></g></g></g><g clip-path="url(#id12)"><g clip-path="url(#id13)"><g clip-path="url(#id14)"><g clip-path="url(#id15)"><path fill="#231f20" d="M 264.394531 242.335938 C 266.082031 242.289062 267.835938 242.71875 269.355469 243.34375 C 274.222656 245.351562 277.699219 248.550781 280.535156 252.902344 C 281.613281 254.550781 282.820312 255.003906 284.113281 254.96875 C 285.886719 254.917969 287.816406 253.949219 289.765625 253.894531 C 290.242188 253.882812 290.722656 253.925781 291.203125 254.050781 C 295.847656 255.261719 296.578125 260.003906 298 263.867188 C 299.527344 268.023438 304.902344 269.09375 307.929688 271.835938 C 310.773438 274.414062 310.738281 278.085938 310.636719 281.628906 L 246.730469 283.363281 C 246.800781 281.464844 246.378906 279.75 245.679688 277.910156 C 243.851562 273.089844 243.355469 265.53125 247.484375 261.730469 C 248.953125 260.375 250.753906 259.464844 252.285156 258.195312 C 254.019531 256.757812 254.933594 254.691406 255.683594 252.625 C 256.75 249.664062 257.539062 246.359375 259.875 244.097656 C 261.136719 242.882812 262.734375 242.378906 264.394531 242.335938 M 264.464844 245.027344 C 263.304688 245.058594 262.417969 245.390625 261.746094 246.039062 C 260.285156 247.449219 259.550781 249.621094 258.773438 251.921875 C 258.597656 252.449219 258.410156 253 258.214844 253.539062 C 257.347656 255.941406 256.238281 258.417969 254.003906 260.269531 C 253.210938 260.925781 252.402344 261.46875 251.621094 261.992188 C 250.769531 262.566406 249.96875 263.105469 249.308594 263.710938 C 246.355469 266.429688 246.53125 272.5625 248.199219 276.953125 C 248.695312 278.265625 249.035156 279.460938 249.230469 280.601562 L 307.960938 279.003906 C 307.890625 276.757812 307.496094 275.078125 306.125 273.832031 C 305.257812 273.050781 304.015625 272.367188 302.703125 271.644531 C 299.933594 270.117188 296.792969 268.390625 295.472656 264.796875 C 295.226562 264.128906 295 263.441406 294.785156 262.78125 C 293.675781 259.382812 292.875 257.269531 290.523438 256.65625 C 290.320312 256.605469 290.097656 256.582031 289.839844 256.589844 C 289.164062 256.605469 288.359375 256.824219 287.507812 257.054688 C 286.457031 257.335938 285.371094 257.628906 284.183594 257.660156 C 281.734375 257.726562 279.75 256.621094 278.28125 254.371094 C 275.582031 250.234375 272.421875 247.523438 268.328125 245.835938 C 266.992188 245.285156 265.621094 244.996094 264.464844 245.027344 " fill-opacity="1" fill-rule="nonzero"/></g></g></g></g><g clip-path="url(#id16)"><g clip-path="url(#id17)"><g clip-path="url(#id18)"><g clip-path="url(#id19)"><path fill="#afc8d5" d="M 283.582031 254.953125 C 282.488281 254.855469 281.464844 254.320312 280.535156 252.902344 C 281.464844 254.320312 282.488281 254.855469 283.582031 254.953125 M 287.265625 254.328125 C 288.078125 254.113281 288.910156 253.921875 289.742188 253.898438 C 288.910156 253.921875 288.078125 254.113281 287.265625 254.328125 M 291.203125 254.050781 C 290.722656 253.925781 290.246094 253.882812 289.765625 253.894531 C 290.242188 253.882812 290.722656 253.925781 291.203125 254.050781 M 289.742188 253.898438 C 289.746094 253.894531 289.75 253.894531 289.75 253.894531 C 289.75 253.894531 289.746094 253.894531 289.742188 253.898438 M 289.753906 253.894531 C 289.757812 253.894531 289.757812 253.894531 289.761719 253.894531 C 289.757812 253.894531 289.757812 253.894531 289.753906 253.894531 M 266.628906 242.523438 C 265.886719 242.386719 265.132812 242.3125 264.394531 242.335938 C 265.132812 242.3125 265.886719 242.386719 266.628906 242.523438 " fill-opacity="1" fill-rule="nonzero"/></g></g></g></g><g clip-path="url(#id20)"><g clip-path="url(#id21)"><g clip-path="url(#id22)"><g clip-path="url(#id23)"><path fill="#afc8d5" d="M 247.519531 274.726562 L 253.558594 274.5625 C 253.90625 273.046875 254.417969 271.578125 255.03125 270.136719 C 255.929688 268.011719 258.207031 265.953125 258.410156 263.609375 C 258.605469 261.332031 258.222656 258.910156 259.867188 257.03125 C 261.316406 255.375 263.195312 254.515625 265.289062 254.460938 C 265.679688 254.449219 266.082031 254.46875 266.488281 254.511719 C 271.527344 255.082031 274.464844 259.648438 279.117188 260.859375 C 281.800781 261.558594 284.765625 260.984375 287.304688 262.367188 C 289.785156 263.71875 290.921875 265.546875 291.304688 268.304688 C 291.621094 270.589844 291.8125 271.851562 294.070312 272.863281 C 294.527344 273.066406 294.984375 273.25 295.433594 273.425781 L 305.261719 273.15625 C 304.515625 272.640625 303.628906 272.152344 302.703125 271.644531 C 299.933594 270.117188 296.792969 268.390625 295.472656 264.796875 C 295.226562 264.128906 295 263.441406 294.785156 262.78125 C 293.675781 259.382812 292.875 257.269531 290.523438 256.65625 C 290.320312 256.605469 290.097656 256.582031 289.84375 256.589844 C 289.839844 256.589844 289.839844 256.589844 289.839844 256.589844 C 289.164062 256.605469 288.359375 256.824219 287.507812 257.054688 C 286.457031 257.335938 285.371094 257.628906 284.183594 257.660156 C 281.734375 257.726562 279.75 256.621094 278.28125 254.371094 C 275.582031 250.234375 272.421875 247.523438 268.328125 245.835938 C 266.992188 245.285156 265.621094 244.996094 264.464844 245.027344 C 263.304688 245.058594 262.417969 245.390625 261.746094 246.039062 C 260.285156 247.449219 259.550781 249.621094 258.773438 251.921875 C 258.597656 252.449219 258.410156 253 258.214844 253.539062 C 257.347656 255.941406 256.238281 258.417969 254.003906 260.269531 C 253.210938 260.925781 252.402344 261.46875 251.621094 261.992188 C 250.769531 262.566406 249.96875 263.105469 249.308594 263.710938 C 246.828125 265.996094 246.558594 270.683594 247.519531 274.726562 " fill-opacity="1" fill-rule="nonzero"/></g></g></g></g><g clip-path="url(#id24)"><g clip-path="url(#id25)"><g clip-path="url(#id26)"><g clip-path="url(#id27)"><path fill="#18161a" d="M 244.78125 274.800781 L 247.519531 274.726562 C 246.558594 270.683594 246.828125 265.996094 249.308594 263.710938 C 249.96875 263.105469 250.769531 262.566406 251.621094 261.992188 C 252.402344 261.46875 253.210938 260.925781 254.003906 260.269531 C 256.238281 258.417969 257.347656 255.941406 258.214844 253.539062 C 258.410156 253 258.597656 252.449219 258.773438 251.921875 C 259.550781 249.621094 260.285156 247.449219 261.746094 246.039062 C 262.417969 245.390625 263.304688 245.058594 264.464844 245.027344 C 265.621094 244.996094 266.992188 245.285156 268.328125 245.835938 C 272.421875 247.523438 275.582031 250.234375 278.28125 254.371094 C 279.75 256.621094 281.734375 257.726562 284.183594 257.660156 C 285.371094 257.628906 286.457031 257.335938 287.507812 257.054688 C 288.359375 256.824219 289.164062 256.605469 289.839844 256.589844 C 289.839844 256.589844 289.839844 256.589844 289.84375 256.589844 C 290.097656 256.582031 290.320312 256.605469 290.523438 256.65625 C 292.875 257.269531 293.675781 259.382812 294.785156 262.78125 C 295 263.441406 295.226562 264.128906 295.472656 264.796875 C 296.792969 268.390625 299.933594 270.117188 302.703125 271.644531 C 303.628906 272.152344 304.515625 272.640625 305.261719 273.15625 L 309.019531 273.054688 C 308.714844 272.628906 308.351562 272.21875 307.929688 271.835938 C 304.902344 269.09375 299.527344 268.023438 298 263.867188 C 296.578125 260.003906 295.847656 255.261719 291.203125 254.050781 C 290.722656 253.925781 290.242188 253.882812 289.765625 253.894531 C 289.765625 253.894531 289.761719 253.894531 289.761719 253.894531 C 289.757812 253.894531 289.757812 253.894531 289.753906 253.894531 C 289.753906 253.894531 289.753906 253.894531 289.75 253.894531 C 289.75 253.894531 289.746094 253.894531 289.742188 253.898438 C 288.910156 253.921875 288.078125 254.113281 287.265625 254.328125 C 286.179688 254.613281 285.121094 254.941406 284.113281 254.96875 C 283.933594 254.972656 283.757812 254.96875 283.582031 254.953125 C 282.488281 254.855469 281.464844 254.320312 280.535156 252.902344 C 277.699219 248.550781 274.222656 245.351562 269.355469 243.34375 C 268.503906 242.992188 267.578125 242.703125 266.628906 242.523438 C 265.886719 242.386719 265.132812 242.3125 264.394531 242.335938 C 262.734375 242.378906 261.136719 242.882812 259.875 244.097656 C 257.539062 246.359375 256.75 249.664062 255.683594 252.625 C 254.933594 254.691406 254.019531 256.757812 252.285156 258.195312 C 250.753906 259.464844 248.953125 260.375 247.484375 261.730469 C 245.066406 263.957031 244.234375 267.476562 244.328125 270.976562 C 244.363281 272.277344 244.527344 273.574219 244.78125 274.800781 " fill-opacity="1" fill-rule="nonzero"/></g></g></g></g><g clip-path="url(#id28)"><g clip-path="url(#id29)"><g clip-path="url(#id30)"><g clip-path="url(#id31)"><path fill="#94dbd6" d="M 284.753906 330.457031 C 299.882812 330.046875 311.855469 317.394531 311.445312 302.253906 L 311.160156 291.757812 C 311.046875 287.644531 310.050781 283.71875 308.195312 280.078125 L 248.9375 281.6875 C 247.285156 285.425781 246.503906 289.398438 246.617188 293.511719 L 246.902344 304.011719 C 247.3125 319.148438 259.957031 331.132812 275.085938 330.71875 L 284.753906 330.457031 " fill-opacity="1" fill-rule="nonzero"/></g></g></g></g><g clip-path="url(#id32)"><g clip-path="url(#id33)"><g clip-path="url(#id34)"><g clip-path="url(#id35)"><path fill="#231f20" d="M 248.066406 280.363281 L 308.996094 278.707031 C 311.113281 282.585938 312.378906 287 312.503906 291.722656 L 312.789062 302.21875 C 313.222656 318.128906 300.6875 331.375 284.789062 331.804688 L 275.125 332.070312 C 259.226562 332.5 245.988281 319.953125 245.554688 304.046875 L 245.269531 293.550781 C 245.140625 288.828125 246.164062 284.347656 248.066406 280.363281 M 249.839844 283.011719 C 248.496094 286.335938 247.863281 289.847656 247.960938 293.476562 L 248.246094 303.972656 C 248.636719 318.371094 260.664062 329.765625 275.050781 329.375 L 284.714844 329.113281 C 299.101562 328.71875 310.488281 316.6875 310.097656 302.292969 L 309.8125 291.796875 C 309.714844 288.167969 308.894531 284.695312 307.367188 281.445312 L 249.839844 283.011719 " fill-opacity="1" fill-rule="nonzero"/></g></g></g></g><g clip-path="url(#id36)"><g clip-path="url(#id37)"><g clip-path="url(#id38)"><g clip-path="url(#id39)"><path fill="#94dbd6" d="M 275.125 332.070312 L 284.789062 331.804688 C 284.796875 331.804688 284.804688 331.804688 284.808594 331.804688 C 284.804688 331.804688 284.796875 331.804688 284.789062 331.804688 L 275.125 332.070312 C 259.226562 332.5 245.988281 319.953125 245.554688 304.046875 L 245.269531 293.550781 L 245.554688 304.046875 C 245.988281 319.953125 259.226562 332.5 275.125 332.070312 M 284.816406 331.804688 C 284.824219 331.804688 284.824219 331.804688 284.832031 331.804688 C 284.828125 331.804688 284.820312 331.804688 284.816406 331.804688 M 284.839844 331.804688 C 284.84375 331.804688 284.847656 331.804688 284.855469 331.804688 C 284.847656 331.804688 284.847656 331.804688 284.839844 331.804688 M 284.863281 331.804688 C 284.867188 331.804688 284.871094 331.804688 284.875 331.804688 C 284.871094 331.804688 284.867188 331.804688 284.863281 331.804688 M 284.886719 331.804688 C 284.890625 331.804688 284.894531 331.804688 284.898438 331.804688 C 284.894531 331.804688 284.890625 331.804688 284.886719 331.804688 M 284.910156 331.800781 C 284.914062 331.800781 284.917969 331.800781 284.921875 331.800781 C 284.914062 331.800781 284.914062 331.800781 284.910156 331.800781 M 284.929688 331.800781 C 284.933594 331.800781 284.941406 331.800781 284.945312 331.800781 C 284.941406 331.800781 284.933594 331.800781 284.929688 331.800781 M 284.953125 331.800781 C 284.960938 331.800781 284.964844 331.800781 284.972656 331.800781 C 284.964844 331.800781 284.960938 331.800781 284.953125 331.800781 M 284.980469 331.800781 C 284.988281 331.800781 284.988281 331.800781 284.996094 331.796875 C 284.992188 331.800781 284.984375 331.800781 284.980469 331.800781 M 285.003906 331.796875 C 285.007812 331.796875 285.011719 331.796875 285.015625 331.796875 C 285.015625 331.796875 285.007812 331.796875 285.003906 331.796875 M 285.027344 331.796875 C 285.03125 331.796875 285.035156 331.796875 285.039062 331.796875 C 285.035156 331.796875 285.03125 331.796875 285.027344 331.796875 M 285.050781 331.796875 C 285.054688 331.796875 285.058594 331.796875 285.058594 331.796875 C 285.054688 331.796875 285.054688 331.796875 285.050781 331.796875 M 285.070312 331.796875 C 285.074219 331.796875 285.078125 331.796875 285.082031 331.796875 C 285.078125 331.796875 285.074219 331.796875 285.070312 331.796875 M 285.09375 331.796875 C 285.097656 331.796875 285.101562 331.796875 285.105469 331.796875 C 285.101562 331.796875 285.097656 331.796875 285.09375 331.796875 M 285.113281 331.796875 C 285.117188 331.796875 285.121094 331.796875 285.125 331.796875 C 285.121094 331.796875 285.117188 331.796875 285.113281 331.796875 M 285.175781 331.792969 C 285.175781 331.792969 285.175781 331.792969 285.179688 331.792969 C 285.175781 331.792969 285.175781 331.792969 285.175781 331.792969 M 285.191406 331.792969 C 285.195312 331.792969 285.199219 331.792969 285.203125 331.792969 C 285.199219 331.792969 285.195312 331.792969 285.191406 331.792969 M 285.214844 331.792969 C 285.21875 331.792969 285.21875 331.792969 285.222656 331.792969 C 285.21875 331.792969 285.21875 331.792969 285.214844 331.792969 M 285.238281 331.789062 C 285.238281 331.789062 285.242188 331.789062 285.242188 331.789062 C 285.242188 331.789062 285.238281 331.789062 285.238281 331.789062 M 285.257812 331.789062 C 285.261719 331.789062 285.261719 331.789062 285.265625 331.789062 C 285.261719 331.789062 285.261719 331.789062 285.257812 331.789062 M 285.28125 331.789062 L 285.28125 331.789062 M 285.382812 331.785156 L 285.382812 331.78125 L 285.382812 331.785156 M 285.402344 331.78125 L 285.40625 331.78125 L 285.402344 331.78125 M 285.421875 331.78125 L 285.425781 331.78125 L 285.421875 331.78125 " fill-opacity="1" fill-rule="nonzero"/></g></g></g></g><g clip-path="url(#id40)"><g clip-path="url(#id41)"><g clip-path="url(#id42)"><g clip-path="url(#id43)"><path fill="#56c6bc" d="M 275.050781 329.375 L 284.714844 329.113281 C 295.867188 328.808594 305.214844 321.511719 308.675781 311.542969 C 302.792969 316.796875 295.148438 320.105469 286.796875 320.332031 C 269.074219 320.8125 253.742188 307.277344 251.597656 289.972656 L 248.085938 290.066406 C 247.972656 291.191406 247.929688 292.328125 247.960938 293.476562 L 248.246094 303.972656 C 248.636719 318.371094 260.664062 329.765625 275.050781 329.375 " fill-opacity="1" fill-rule="nonzero"/></g></g></g></g><g clip-path="url(#id44)"><g clip-path="url(#id45)"><g clip-path="url(#id46)"><g clip-path="url(#id47)"><path fill="#14181c" d="M 275.125 332.070312 L 284.789062 331.804688 C 284.796875 331.804688 284.804688 331.804688 284.808594 331.804688 C 284.8125 331.804688 284.816406 331.804688 284.816406 331.804688 C 284.820312 331.804688 284.828125 331.804688 284.832031 331.804688 C 284.835938 331.804688 284.835938 331.804688 284.839844 331.804688 C 284.847656 331.804688 284.847656 331.804688 284.855469 331.804688 C 284.855469 331.804688 284.859375 331.804688 284.863281 331.804688 C 284.867188 331.804688 284.871094 331.804688 284.875 331.804688 C 284.878906 331.804688 284.882812 331.804688 284.886719 331.804688 C 284.890625 331.804688 284.894531 331.804688 284.898438 331.804688 C 284.902344 331.804688 284.902344 331.800781 284.910156 331.800781 C 284.914062 331.800781 284.914062 331.800781 284.921875 331.800781 C 284.921875 331.800781 284.925781 331.800781 284.929688 331.800781 C 284.933594 331.800781 284.941406 331.800781 284.945312 331.800781 C 284.949219 331.800781 284.949219 331.800781 284.953125 331.800781 C 284.960938 331.800781 284.964844 331.800781 284.972656 331.800781 C 284.976562 331.800781 284.980469 331.800781 284.980469 331.800781 C 284.984375 331.800781 284.992188 331.800781 284.996094 331.796875 C 285 331.796875 285.003906 331.796875 285.003906 331.796875 C 285.007812 331.796875 285.015625 331.796875 285.015625 331.796875 C 285.019531 331.796875 285.023438 331.796875 285.027344 331.796875 C 285.03125 331.796875 285.035156 331.796875 285.039062 331.796875 C 285.042969 331.796875 285.046875 331.796875 285.050781 331.796875 C 285.054688 331.796875 285.054688 331.796875 285.058594 331.796875 C 285.066406 331.796875 285.066406 331.796875 285.070312 331.796875 C 285.074219 331.796875 285.078125 331.796875 285.082031 331.796875 C 285.085938 331.796875 285.089844 331.796875 285.09375 331.796875 C 285.097656 331.796875 285.101562 331.796875 285.105469 331.796875 C 285.109375 331.796875 285.113281 331.796875 285.113281 331.796875 C 285.117188 331.796875 285.121094 331.796875 285.125 331.796875 C 285.140625 331.792969 285.15625 331.792969 285.175781 331.792969 C 285.175781 331.792969 285.175781 331.792969 285.179688 331.792969 C 285.183594 331.792969 285.1875 331.792969 285.191406 331.792969 C 285.195312 331.792969 285.199219 331.792969 285.203125 331.792969 C 285.207031 331.792969 285.210938 331.792969 285.214844 331.792969 C 285.21875 331.792969 285.21875 331.792969 285.222656 331.792969 C 285.226562 331.789062 285.230469 331.789062 285.238281 331.789062 C 285.238281 331.789062 285.242188 331.789062 285.242188 331.789062 C 285.25 331.789062 285.253906 331.789062 285.257812 331.789062 C 285.261719 331.789062 285.261719 331.789062 285.265625 331.789062 C 285.269531 331.789062 285.273438 331.789062 285.28125 331.789062 C 285.308594 331.785156 285.335938 331.785156 285.363281 331.785156 C 285.371094 331.785156 285.375 331.785156 285.382812 331.785156 L 285.382812 331.78125 C 285.390625 331.78125 285.394531 331.78125 285.402344 331.78125 L 285.40625 331.78125 C 285.410156 331.78125 285.417969 331.78125 285.421875 331.78125 L 285.425781 331.78125 C 299.179688 331.109375 310.289062 320.828125 312.421875 307.640625 C 311.273438 309.035156 310.023438 310.339844 308.675781 311.542969 C 305.214844 321.511719 295.867188 328.808594 284.714844 329.113281 L 275.050781 329.375 C 260.664062 329.765625 248.636719 318.371094 248.246094 303.972656 L 247.960938 293.476562 C 247.929688 292.328125 247.972656 291.191406 248.085938 290.066406 L 245.378906 290.140625 C 245.273438 291.261719 245.238281 292.398438 245.269531 293.550781 L 245.554688 304.046875 C 245.988281 319.953125 259.226562 332.5 275.125 332.070312 " fill-opacity="1" fill-rule="nonzero"/></g></g></g></g><g clip-path="url(#id48)"><g clip-path="url(#id49)"><g clip-path="url(#id50)"><g clip-path="url(#id51)"><path fill="#f57fc3" d="M 311.03125 287.007812 L 196.804688 290.113281 L 196.460938 277.460938 L 310.6875 274.359375 Z M 311.03125 287.007812 " fill-opacity="1" fill-rule="nonzero"/></g></g></g></g><g clip-path="url(#id52)"><g clip-path="url(#id53)"><g clip-path="url(#id54)"><g clip-path="url(#id55)"><path fill="#231f20" d="M 195.078125 276.152344 L 311.996094 272.976562 L 312.414062 288.320312 L 195.496094 291.496094 L 195.078125 276.152344 M 197.839844 278.773438 L 198.113281 288.730469 L 309.648438 285.699219 L 309.375 275.742188 L 197.839844 278.773438 " fill-opacity="1" fill-rule="nonzero"/></g></g></g></g><g clip-path="url(#id56)"><g clip-path="url(#id57)"><g clip-path="url(#id58)"><g clip-path="url(#id59)"><path fill="#f13fa5" d="M 198.113281 288.730469 L 309.648438 285.699219 L 309.441406 278.171875 C 307.160156 278.675781 304.878906 279.179688 302.578125 279.597656 C 291.46875 281.613281 280.480469 282.71875 269.246094 283.507812 C 252.441406 284.683594 235.714844 286.640625 218.867188 287.101562 C 218.101562 287.121094 217.335938 287.140625 216.574219 287.152344 C 210.453125 287.269531 204.261719 287.191406 198.0625 286.894531 L 198.113281 288.730469 " fill-opacity="1" fill-rule="nonzero"/></g></g></g></g><g clip-path="url(#id60)"><g clip-path="url(#id61)"><g clip-path="url(#id62)"><g clip-path="url(#id63)"><path fill="#230f10" d="M 195.496094 291.496094 L 312.414062 288.320312 L 312.121094 277.589844 C 311.226562 277.78125 310.335938 277.976562 309.441406 278.171875 L 309.648438 285.699219 L 198.113281 288.730469 L 198.0625 286.894531 C 197.164062 286.847656 196.261719 286.800781 195.363281 286.746094 L 195.496094 291.496094 " fill-opacity="1" fill-rule="nonzero"/></g></g></g></g><g clip-path="url(#id64)"><g clip-path="url(#id65)"><g clip-path="url(#id66)"><g clip-path="url(#id67)"><path fill="#231f20" d="M 301.230469 317.371094 C 303.621094 314.066406 304.84375 310.34375 305.273438 306.304688 C 305.417969 304.945312 307.574219 304.867188 307.425781 306.246094 C 306.957031 310.667969 305.746094 314.773438 303.121094 318.410156 C 302.316406 319.519531 300.417969 318.5 301.230469 317.371094 " fill-opacity="1" fill-rule="nonzero"/></g></g></g></g><g clip-path="url(#id68)"><g clip-path="url(#id69)"><g clip-path="url(#id70)"><g clip-path="url(#id71)"><path fill="#231f20" d="M 305.171875 302.535156 C 305.308594 301.15625 305.441406 299.78125 305.417969 298.394531 C 305.390625 297.003906 307.542969 296.945312 307.570312 298.335938 C 307.597656 299.722656 307.460938 301.097656 307.324219 302.476562 C 307.265625 303.058594 306.921875 303.5625 306.277344 303.582031 C 305.746094 303.597656 305.113281 303.121094 305.171875 302.535156 " fill-opacity="1" fill-rule="nonzero"/></g></g></g></g><g clip-path="url(#id72)"><g clip-path="url(#id73)"><g clip-path="url(#id74)"><g clip-path="url(#id75)"><path fill="#231f20" d="M 248.667969 270.714844 C 248.835938 269.269531 249.339844 267.921875 249.8125 266.550781 C 250.261719 265.25 252.359375 265.753906 251.90625 267.066406 C 251.429688 268.433594 250.929688 269.785156 250.757812 271.230469 C 250.691406 271.816406 249.972656 272.148438 249.457031 272.023438 C 248.832031 271.867188 248.601562 271.300781 248.667969 270.714844 " fill-opacity="1" fill-rule="nonzero"/></g></g></g></g><g clip-path="url(#id76)"><g clip-path="url(#id77)"><g clip-path="url(#id78)"><g clip-path="url(#id79)"><path fill="#231f20" d="M 253.261719 262.9375 C 254.375 262.058594 255.0625 260.742188 255.65625 259.484375 C 256.25 258.230469 258.136719 259.269531 257.546875 260.523438 C 256.773438 262.15625 255.828125 263.640625 254.398438 264.769531 C 253.9375 265.136719 253.199219 264.878906 252.914062 264.421875 C 252.578125 263.882812 252.804688 263.300781 253.261719 262.9375 " fill-opacity="1" fill-rule="nonzero"/></g></g></g></g><g clip-path="url(#id80)"><g clip-path="url(#id81)"><g clip-path="url(#id82)"><g clip-path="url(#id83)"><path fill="#231f20" d="M 222.480469 286.628906 C 219.070312 286.722656 215.664062 286.816406 212.25 286.90625 C 210.863281 286.945312 210.804688 284.789062 212.191406 284.753906 C 215.605469 284.660156 219.011719 284.566406 222.421875 284.476562 C 223.8125 284.4375 223.871094 286.59375 222.480469 286.628906 " fill-opacity="1" fill-rule="nonzero"/></g></g></g></g><g clip-path="url(#id84)"><g clip-path="url(#id85)"><g clip-path="url(#id86)"><g clip-path="url(#id87)"><path fill="#231f20" d="M 208.488281 287.191406 C 207.648438 287.210938 206.8125 287.234375 205.976562 287.257812 C 204.585938 287.296875 204.527344 285.140625 205.917969 285.105469 C 206.753906 285.082031 207.59375 285.058594 208.429688 285.035156 C 209.816406 285 209.875 287.152344 208.488281 287.191406 " fill-opacity="1" fill-rule="nonzero"/></g></g></g></g><g clip-path="url(#id88)"><g clip-path="url(#id89)"><g clip-path="url(#id90)"><g clip-path="url(#id91)"><path fill="#ffffff" d="M 308.367188 284.433594 C 307.019531 285.328125 305.40625 285.621094 303.816406 285.675781 C 301.730469 285.753906 301.644531 282.523438 303.726562 282.445312 C 304.769531 282.40625 305.777344 282.273438 306.664062 281.6875 C 308.40625 280.535156 310.101562 283.285156 308.367188 284.433594 " fill-opacity="1" fill-rule="nonzero"/></g></g></g></g><g clip-path="url(#id92)"><g clip-path="url(#id93)"><g clip-path="url(#id94)"><g clip-path="url(#id95)"><path fill="#ffffff" d="M 260.21875 324.019531 C 258.378906 322.976562 256.664062 321.757812 255.292969 320.128906 C 254.726562 319.457031 254.574219 318.539062 255.234375 317.84375 C 255.785156 317.257812 256.949219 317.105469 257.519531 317.78125 C 258.722656 319.214844 260.152344 320.265625 261.773438 321.1875 C 263.578125 322.214844 262.035156 325.054688 260.21875 324.019531 " fill-opacity="1" fill-rule="nonzero"/></g></g></g></g><g clip-path="url(#id96)"><path fill="#133d62" d="M 84.171875 100.464844 L 84.199219 98.332031 C 84.25 94.101562 87.722656 90.710938 91.960938 90.761719 L 134.570312 91.28125 C 138.804688 91.332031 142.195312 94.804688 142.144531 99.042969 L 142.117188 101.171875 C 142.066406 105.40625 138.589844 108.792969 134.355469 108.742188 L 91.746094 108.222656 C 87.511719 108.171875 84.121094 104.699219 84.171875 100.464844 M 176.726562 122.992188 C 176.667969 122.003906 176.59375 121.085938 176.5 120.25 C 174.730469 104.332031 177.84375 89.757812 180.226562 79.589844 L 58.902344 78.125 C 58.902344 78.125 59.019531 103.332031 56.425781 120.566406 C 82.644531 127.09375 145.882812 121.121094 176.726562 122.992188 " fill-opacity="1" fill-rule="nonzero"/></g><path fill="#0c88c9" d="M 56.425781 120.566406 C 55.511719 126.632812 54.265625 131.71875 52.558594 134.359375 C 48.101562 141.257812 42.230469 200.832031 40.617188 247.457031 C 53.285156 254.332031 72.070312 269.546875 97.347656 260.339844 C 122.75 251.085938 149.015625 229.582031 170.875 228.117188 C 186.148438 184.5625 185.789062 141.582031 176.726562 122.992188 C 148.351562 113.992188 85.789062 118.007812 56.425781 120.566406 Z M 56.425781 120.566406 " fill-opacity="1" fill-rule="nonzero"/><path fill="#97daf8" d="M 40.617188 247.457031 C 39.855469 269.4375 40.042969 288.539062 41.773438 297.886719 C 41.773438 297.886719 103.632812 322.621094 170.574219 321.671875 C 170.574219 321.671875 170.605469 321.652344 170.648438 321.625 C 177.964844 295.734375 180.8125 261.394531 170.875 228.117188 C 149.015625 229.585938 122.90625 240.375 97.507812 249.628906 C 72.226562 258.839844 53.285156 254.332031 40.617188 247.457031 Z M 40.617188 247.457031 " fill-opacity="1" fill-rule="nonzero"/><path fill="#133d62" d="M 187.816406 132.40625 C 187.816406 132.40625 181.363281 102.011719 180.304688 79.605469 L 179.238281 79.589844 C 176.855469 89.757812 173.9375 104.335938 175.710938 120.25 C 178.753906 147.652344 163.894531 259.195312 170.648438 321.625 C 172.308594 320.613281 203.925781 301.316406 205.472656 299.152344 C 207.058594 296.933594 199.710938 162.371094 187.816406 132.40625 " fill-opacity="1" fill-rule="nonzero"/></svg>