<svg xmlns="http://www.w3.org/2000/svg" xmlns:xlink="http://www.w3.org/1999/xlink" width="500" zoomAndPan="magnify" viewBox="0 0 375 374.999991" height="500" preserveAspectRatio="xMidYMid meet" version="1.0"><defs><filter x="0%" y="0%" width="100%" height="100%" id="id1"><feColorMatrix values="0 0 0 0 1 0 0 0 0 1 0 0 0 0 1 0 0 0 1 0" color-interpolation-filters="sRGB"/></filter><mask id="id2"><g filter="url(#id1)"><rect x="-37.5" width="450" fill="#000000" y="-37.499999" height="449.999989" fill-opacity="0.5882"/></g></mask><clipPath id="id3"><path d="M 1.105469 0.570312 L 172.808594 0.570312 L 172.808594 160.320312 L 1.105469 160.320312 Z M 1.105469 0.570312 " clip-rule="nonzero"/></clipPath><clipPath id="id4"><rect x="0" width="173" y="0" height="161"/></clipPath><clipPath id="id5"><path d="M 143 237 L 212.183594 237 L 212.183594 280.953125 L 143 280.953125 Z M 143 237 " clip-rule="nonzero"/></clipPath><clipPath id="id6"><path d="M 12.683594 218 L 71 218 L 71 262 L 12.683594 262 Z M 12.683594 218 " clip-rule="nonzero"/></clipPath><clipPath id="id7"><path d="M 135 49.953125 L 204 49.953125 L 204 94 L 135 94 Z M 135 49.953125 " clip-rule="nonzero"/></clipPath><clipPath id="id8"><path d="M 12.683594 57 L 208 57 L 208 232 L 12.683594 232 Z M 12.683594 57 " clip-rule="nonzero"/></clipPath><clipPath id="id9"><path d="M 213 69.84375 L 362 69.84375 L 362 165.84375 L 213 165.84375 Z M 213 69.84375 " clip-rule="nonzero"/></clipPath></defs><rect x="-37.5" width="450" fill="#ffffff" y="-37.499999" height="449.999989" fill-opacity="1"/><rect x="-37.5" width="450" fill="#ffffff" y="-37.499999" height="449.999989" fill-opacity="1"/><rect x="-37.5" width="450" fill="#ffffff" y="-37.499999" height="449.999989" fill-opacity="1"/><rect x="-37.5" width="450" fill="#ffffff" y="-37.499999" height="449.999989" fill-opacity="1"/><g mask="url(#id2)"><g transform="matrix(1, 0, 0, 1, 152, 165)"><g clip-path="url(#id4)"><g clip-path="url(#id3)"><path fill="#2f669b" d="M 145.089844 0.574219 L 172.808594 28.324219 L 172.808594 160.320312 L 132.003906 160.320312 L 132.003906 49.351562 L 102.328125 19.632812 L 102.328125 0.574219 Z M 152.40625 17.660156 L 122.730469 17.660156 L 122.730469 24.347656 L 152.40625 24.347656 Z M 101.214844 27.953125 L 124.695312 51.46875 C 122.324219 52.65625 119.652344 53.328125 116.796875 53.328125 C 107.113281 53.328125 99.363281 45.5625 99.363281 35.867188 C 99.363281 33.003906 100.027344 30.332031 101.214844 27.953125 Z M 92.796875 33.636719 C 92.722656 34.378906 92.683594 35.121094 92.683594 35.867188 C 92.683594 39.023438 93.316406 42.03125 94.390625 44.78125 L 6.625 44.78125 C 4.472656 44.78125 3.324219 44.113281 2.433594 43.109375 C 1.578125 42.144531 1.058594 40.695312 1.058594 39.210938 C 1.058594 37.722656 1.578125 36.273438 2.433594 35.308594 C 3.324219 34.304688 4.472656 33.636719 6.625 33.636719 Z M 98.433594 51.46875 C 99.917969 53.25 101.660156 54.773438 103.589844 56.039062 L 23.167969 99.839844 C 21.3125 100.839844 19.941406 100.804688 18.714844 100.359375 C 17.457031 99.914062 16.304688 98.871094 15.601562 97.570312 C 14.894531 96.273438 14.671875 94.785156 14.96875 93.484375 C 15.265625 92.222656 15.972656 91.070312 17.828125 90.03125 L 88.714844 51.46875 Z M 111.417969 59.382812 C 112.976562 59.753906 114.570312 59.976562 116.203125 60.011719 L 84.042969 138.625 C 83.226562 140.59375 82.148438 141.410156 80.886719 141.855469 C 79.664062 142.265625 78.105469 142.191406 76.734375 141.632812 C 75.359375 141.074219 74.246094 140.070312 73.65625 138.882812 C 73.097656 137.695312 72.914062 136.355469 73.691406 134.386719 L 102.402344 64.324219 Z M 111.417969 59.382812 " fill-opacity="1" fill-rule="nonzero"/></g></g></g></g><path fill="#f5f7f8" d="M 204.144531 168.234375 C 186 197.933594 153.273438 217.757812 115.917969 217.757812 C 78.554688 217.757812 45.828125 197.933594 27.691406 168.234375 C 45.824219 138.535156 78.554688 118.707031 115.917969 118.707031 C 153.277344 118.707031 186.003906 138.535156 204.144531 168.234375 Z M 204.144531 168.234375 " fill-opacity="1" fill-rule="nonzero"/><path fill="#d9e7eb" d="M 104.871094 119.292969 C 100.9375 136.917969 85.195312 150.097656 66.375 150.097656 C 59.34375 150.097656 52.738281 148.257812 47.023438 145.03125 C 62.722656 130.964844 82.753906 121.636719 104.871094 119.292969 Z M 104.871094 119.292969 " fill-opacity="1" fill-rule="nonzero"/><path fill="#d9e7eb" d="M 204.144531 168.234375 C 186 197.933594 153.273438 217.757812 115.917969 217.757812 C 78.558594 217.757812 45.832031 197.933594 27.6875 168.234375 C 29.78125 164.808594 32.066406 161.511719 34.535156 158.367188 C 51.351562 185.636719 81.511719 203.816406 115.917969 203.816406 C 150.316406 203.816406 180.472656 185.644531 197.296875 158.371094 C 199.765625 161.515625 202.054688 164.808594 204.144531 168.234375 Z M 204.144531 168.234375 " fill-opacity="1" fill-rule="nonzero"/><path fill="#596d76" d="M 165.460938 168.230469 C 165.460938 169.855469 165.378906 171.472656 165.222656 173.085938 C 165.0625 174.699219 164.824219 176.300781 164.507812 177.894531 C 164.191406 179.484375 163.796875 181.054688 163.328125 182.609375 C 162.855469 184.160156 162.308594 185.683594 161.6875 187.183594 C 161.066406 188.683594 160.375 190.148438 159.609375 191.578125 C 158.84375 193.007812 158.011719 194.398438 157.109375 195.746094 C 156.210938 197.09375 155.242188 198.394531 154.214844 199.648438 C 153.183594 200.902344 152.097656 202.105469 150.949219 203.25 C 149.800781 204.398438 148.601562 205.484375 147.347656 206.515625 C 146.09375 207.542969 144.789062 208.507812 143.441406 209.410156 C 142.09375 210.3125 140.703125 211.144531 139.273438 211.910156 C 137.839844 212.671875 136.375 213.367188 134.875 213.988281 C 133.378906 214.609375 131.851562 215.152344 130.296875 215.625 C 128.746094 216.09375 127.171875 216.488281 125.582031 216.804688 C 123.992188 217.121094 122.386719 217.359375 120.773438 217.519531 C 119.160156 217.675781 117.539062 217.757812 115.917969 217.757812 C 114.292969 217.757812 112.675781 217.675781 111.0625 217.519531 C 109.445312 217.359375 107.84375 217.121094 106.25 216.804688 C 104.660156 216.488281 103.089844 216.09375 101.535156 215.625 C 99.984375 215.152344 98.457031 214.609375 96.957031 213.988281 C 95.457031 213.367188 93.992188 212.671875 92.5625 211.910156 C 91.132812 211.144531 89.742188 210.3125 88.390625 209.410156 C 87.042969 208.507812 85.742188 207.542969 84.488281 206.515625 C 83.234375 205.484375 82.03125 204.398438 80.882812 203.25 C 79.738281 202.105469 78.648438 200.902344 77.621094 199.648438 C 76.589844 198.394531 75.625 197.09375 74.722656 195.746094 C 73.820312 194.398438 72.988281 193.007812 72.222656 191.578125 C 71.457031 190.148438 70.765625 188.683594 70.144531 187.183594 C 69.523438 185.683594 68.976562 184.160156 68.507812 182.609375 C 68.035156 181.054688 67.640625 179.484375 67.324219 177.894531 C 67.007812 176.300781 66.769531 174.699219 66.613281 173.085938 C 66.453125 171.472656 66.375 169.855469 66.375 168.230469 C 66.375 166.609375 66.453125 164.992188 66.613281 163.378906 C 66.769531 161.761719 67.007812 160.160156 67.324219 158.570312 C 67.640625 156.980469 68.035156 155.40625 68.507812 153.855469 C 68.976562 152.304688 69.523438 150.777344 70.144531 149.277344 C 70.765625 147.78125 71.457031 146.316406 72.222656 144.886719 C 72.988281 143.457031 73.820312 142.066406 74.722656 140.71875 C 75.625 139.367188 76.589844 138.066406 77.621094 136.8125 C 78.648438 135.558594 79.738281 134.359375 80.882812 133.210938 C 82.03125 132.066406 83.234375 130.976562 84.488281 129.949219 C 85.742188 128.917969 87.042969 127.953125 88.390625 127.054688 C 89.742188 126.152344 91.132812 125.320312 92.5625 124.554688 C 93.992188 123.789062 95.457031 123.097656 96.957031 122.476562 C 98.457031 121.855469 99.984375 121.308594 101.535156 120.839844 C 103.089844 120.367188 104.660156 119.972656 106.25 119.65625 C 107.84375 119.339844 109.445312 119.105469 111.0625 118.945312 C 112.675781 118.785156 114.292969 118.707031 115.917969 118.707031 C 117.539062 118.707031 119.160156 118.785156 120.773438 118.945312 C 122.386719 119.105469 123.992188 119.339844 125.582031 119.65625 C 127.171875 119.972656 128.746094 120.367188 130.296875 120.839844 C 131.851562 121.308594 133.378906 121.855469 134.875 122.476562 C 136.375 123.097656 137.839844 123.789062 139.273438 124.554688 C 140.703125 125.320312 142.09375 126.152344 143.441406 127.054688 C 144.789062 127.953125 146.09375 128.917969 147.347656 129.949219 C 148.601562 130.976562 149.800781 132.066406 150.949219 133.210938 C 152.097656 134.359375 153.183594 135.558594 154.214844 136.8125 C 155.242188 138.066406 156.210938 139.367188 157.109375 140.71875 C 158.011719 142.066406 158.84375 143.457031 159.609375 144.886719 C 160.375 146.316406 161.066406 147.78125 161.6875 149.277344 C 162.308594 150.777344 162.855469 152.304688 163.328125 153.855469 C 163.796875 155.40625 164.191406 156.980469 164.507812 158.570312 C 164.824219 160.160156 165.0625 161.761719 165.222656 163.378906 C 165.378906 164.992188 165.460938 166.609375 165.460938 168.230469 Z M 165.460938 168.230469 " fill-opacity="1" fill-rule="nonzero"/><path fill="#475a61" d="M 104.710938 119.980469 C 100.792969 136.164062 86.878906 148.453125 69.867188 149.941406 C 75.804688 135.011719 88.785156 123.65625 104.710938 119.980469 Z M 104.710938 119.980469 " fill-opacity="1" fill-rule="nonzero"/><path fill="#475a61" d="M 165.460938 168.234375 C 165.460938 194.722656 144.660156 216.351562 118.496094 217.691406 C 137.867188 210.964844 151.777344 192.558594 151.777344 170.898438 C 151.777344 143.546875 129.597656 121.371094 102.234375 121.371094 C 101.371094 121.371094 100.511719 121.394531 99.660156 121.4375 C 104.75 119.671875 110.222656 118.707031 115.917969 118.707031 C 143.28125 118.707031 165.460938 140.882812 165.460938 168.234375 Z M 165.460938 168.234375 " fill-opacity="1" fill-rule="nonzero"/><path fill="#685e67" d="M 149.230469 168.230469 C 149.230469 169.324219 149.175781 170.410156 149.070312 171.496094 C 148.964844 172.582031 148.804688 173.660156 148.589844 174.726562 C 148.378906 175.796875 148.113281 176.855469 147.796875 177.898438 C 147.480469 178.941406 147.113281 179.96875 146.695312 180.976562 C 146.277344 181.984375 145.8125 182.96875 145.296875 183.929688 C 144.78125 184.890625 144.222656 185.828125 143.617188 186.734375 C 143.011719 187.640625 142.359375 188.515625 141.667969 189.359375 C 140.976562 190.203125 140.246094 191.007812 139.472656 191.78125 C 138.703125 192.550781 137.894531 193.28125 137.050781 193.972656 C 136.207031 194.667969 135.332031 195.316406 134.425781 195.921875 C 133.519531 196.527344 132.582031 197.085938 131.621094 197.601562 C 130.660156 198.117188 129.671875 198.582031 128.664062 199 C 127.65625 199.414062 126.632812 199.78125 125.585938 200.097656 C 124.542969 200.417969 123.484375 200.679688 122.417969 200.894531 C 121.347656 201.105469 120.269531 201.265625 119.183594 201.375 C 118.097656 201.480469 117.007812 201.535156 115.917969 201.535156 C 114.824219 201.535156 113.738281 201.480469 112.652344 201.375 C 111.566406 201.265625 110.488281 201.105469 109.417969 200.894531 C 108.347656 200.679688 107.289062 200.417969 106.246094 200.097656 C 105.203125 199.78125 104.175781 199.414062 103.167969 199 C 102.160156 198.582031 101.175781 198.117188 100.210938 197.601562 C 99.25 197.085938 98.316406 196.527344 97.410156 195.921875 C 96.5 195.316406 95.625 194.667969 94.78125 193.972656 C 93.9375 193.28125 93.132812 192.550781 92.359375 191.78125 C 91.589844 191.007812 90.855469 190.203125 90.164062 189.359375 C 89.472656 188.515625 88.824219 187.640625 88.21875 186.734375 C 87.609375 185.828125 87.050781 184.890625 86.535156 183.929688 C 86.023438 182.96875 85.554688 181.984375 85.136719 180.976562 C 84.722656 179.96875 84.355469 178.941406 84.039062 177.898438 C 83.71875 176.855469 83.457031 175.796875 83.242188 174.726562 C 83.03125 173.660156 82.871094 172.582031 82.761719 171.496094 C 82.65625 170.410156 82.601562 169.324219 82.601562 168.230469 C 82.601562 167.140625 82.65625 166.054688 82.761719 164.96875 C 82.871094 163.882812 83.03125 162.804688 83.242188 161.734375 C 83.457031 160.664062 83.71875 159.609375 84.039062 158.566406 C 84.355469 157.519531 84.722656 156.496094 85.136719 155.488281 C 85.554688 154.480469 86.023438 153.496094 86.535156 152.535156 C 87.050781 151.570312 87.609375 150.636719 88.21875 149.730469 C 88.824219 148.824219 89.472656 147.949219 90.164062 147.105469 C 90.855469 146.261719 91.589844 145.453125 92.359375 144.683594 C 93.132812 143.914062 93.9375 143.179688 94.78125 142.488281 C 95.625 141.796875 96.5 141.148438 97.410156 140.542969 C 98.316406 139.9375 99.25 139.375 100.210938 138.863281 C 101.175781 138.347656 102.160156 137.882812 103.167969 137.464844 C 104.175781 137.046875 105.203125 136.679688 106.246094 136.363281 C 107.289062 136.046875 108.347656 135.78125 109.417969 135.570312 C 110.488281 135.355469 111.566406 135.195312 112.652344 135.089844 C 113.738281 134.984375 114.824219 134.929688 115.917969 134.929688 C 117.007812 134.929688 118.097656 134.984375 119.183594 135.089844 C 120.269531 135.195312 121.347656 135.355469 122.417969 135.570312 C 123.484375 135.78125 124.542969 136.046875 125.585938 136.363281 C 126.632812 136.679688 127.65625 137.046875 128.664062 137.464844 C 129.671875 137.882812 130.660156 138.347656 131.621094 138.863281 C 132.582031 139.375 133.519531 139.9375 134.425781 140.542969 C 135.332031 141.148438 136.207031 141.796875 137.050781 142.488281 C 137.894531 143.179688 138.703125 143.914062 139.472656 144.683594 C 140.246094 145.453125 140.976562 146.261719 141.667969 147.105469 C 142.359375 147.949219 143.011719 148.824219 143.617188 149.730469 C 144.222656 150.636719 144.78125 151.570312 145.296875 152.535156 C 145.8125 153.496094 146.277344 154.480469 146.695312 155.488281 C 147.113281 156.496094 147.480469 157.519531 147.796875 158.566406 C 148.113281 159.609375 148.378906 160.664062 148.589844 161.734375 C 148.804688 162.804688 148.964844 163.882812 149.070312 164.96875 C 149.175781 166.054688 149.230469 167.140625 149.230469 168.230469 Z M 149.230469 168.230469 " fill-opacity="1" fill-rule="nonzero"/><path fill="#596d76" d="M 137.691406 168.230469 C 137.691406 168.945312 137.65625 169.65625 137.585938 170.363281 C 137.515625 171.074219 137.414062 171.777344 137.273438 172.476562 C 137.132812 173.175781 136.960938 173.867188 136.753906 174.550781 C 136.546875 175.234375 136.308594 175.902344 136.035156 176.5625 C 135.761719 177.21875 135.457031 177.863281 135.121094 178.492188 C 134.785156 179.121094 134.417969 179.730469 134.023438 180.324219 C 133.625 180.917969 133.203125 181.488281 132.75 182.039062 C 132.296875 182.589844 131.820312 183.121094 131.3125 183.625 C 130.808594 184.128906 130.28125 184.605469 129.730469 185.058594 C 129.179688 185.511719 128.609375 185.933594 128.015625 186.332031 C 127.421875 186.726562 126.8125 187.09375 126.183594 187.429688 C 125.554688 187.765625 124.910156 188.070312 124.25 188.34375 C 123.589844 188.613281 122.921875 188.855469 122.238281 189.0625 C 121.554688 189.269531 120.863281 189.441406 120.164062 189.582031 C 119.464844 189.71875 118.761719 189.824219 118.050781 189.894531 C 117.339844 189.964844 116.628906 190 115.917969 190 C 115.203125 190 114.492188 189.964844 113.78125 189.894531 C 113.074219 189.824219 112.367188 189.71875 111.667969 189.582031 C 110.96875 189.441406 110.277344 189.269531 109.597656 189.0625 C 108.914062 188.855469 108.242188 188.613281 107.582031 188.34375 C 106.925781 188.070312 106.28125 187.765625 105.652344 187.429688 C 105.023438 187.09375 104.414062 186.726562 103.820312 186.332031 C 103.226562 185.933594 102.652344 185.511719 102.101562 185.058594 C 101.550781 184.605469 101.023438 184.128906 100.519531 183.625 C 100.015625 183.121094 99.535156 182.589844 99.085938 182.039062 C 98.632812 181.488281 98.207031 180.917969 97.8125 180.324219 C 97.414062 179.730469 97.050781 179.121094 96.710938 178.492188 C 96.375 177.863281 96.070312 177.21875 95.800781 176.5625 C 95.527344 175.902344 95.285156 175.234375 95.078125 174.550781 C 94.871094 173.867188 94.699219 173.175781 94.558594 172.476562 C 94.421875 171.777344 94.316406 171.074219 94.246094 170.363281 C 94.175781 169.65625 94.140625 168.945312 94.140625 168.230469 C 94.140625 167.519531 94.175781 166.808594 94.246094 166.097656 C 94.316406 165.386719 94.421875 164.683594 94.558594 163.984375 C 94.699219 163.285156 94.871094 162.59375 95.078125 161.914062 C 95.285156 161.230469 95.527344 160.558594 95.800781 159.902344 C 96.070312 159.242188 96.375 158.597656 96.710938 157.96875 C 97.050781 157.34375 97.414062 156.730469 97.8125 156.136719 C 98.207031 155.546875 98.632812 154.972656 99.085938 154.421875 C 99.535156 153.871094 100.015625 153.34375 100.519531 152.839844 C 101.023438 152.335938 101.550781 151.859375 102.101562 151.40625 C 102.652344 150.953125 103.226562 150.527344 103.820312 150.132812 C 104.414062 149.738281 105.023438 149.371094 105.652344 149.035156 C 106.28125 148.699219 106.925781 148.394531 107.582031 148.121094 C 108.242188 147.847656 108.914062 147.609375 109.597656 147.402344 C 110.277344 147.195312 110.96875 147.023438 111.667969 146.882812 C 112.367188 146.742188 113.074219 146.640625 113.78125 146.570312 C 114.492188 146.5 115.203125 146.464844 115.917969 146.464844 C 116.628906 146.464844 117.339844 146.5 118.050781 146.570312 C 118.761719 146.640625 119.464844 146.742188 120.164062 146.882812 C 120.863281 147.023438 121.554688 147.195312 122.238281 147.402344 C 122.921875 147.609375 123.589844 147.847656 124.25 148.121094 C 124.910156 148.394531 125.554688 148.699219 126.183594 149.035156 C 126.8125 149.371094 127.421875 149.738281 128.015625 150.132812 C 128.609375 150.527344 129.179688 150.953125 129.730469 151.40625 C 130.28125 151.859375 130.808594 152.335938 131.3125 152.839844 C 131.820312 153.34375 132.296875 153.871094 132.75 154.421875 C 133.203125 154.972656 133.625 155.546875 134.023438 156.136719 C 134.417969 156.730469 134.785156 157.34375 135.121094 157.96875 C 135.457031 158.597656 135.761719 159.242188 136.035156 159.902344 C 136.308594 160.558594 136.546875 161.230469 136.753906 161.914062 C 136.960938 162.59375 137.132812 163.285156 137.273438 163.984375 C 137.414062 164.683594 137.515625 165.386719 137.585938 166.097656 C 137.65625 166.808594 137.691406 167.519531 137.691406 168.230469 Z M 137.691406 168.230469 " fill-opacity="1" fill-rule="nonzero"/><path fill="#475a61" d="M 137.695312 168.234375 C 137.695312 180.25 127.941406 190 115.917969 190 C 109.414062 190 103.570312 187.148438 99.582031 182.625 C 101.679688 183.378906 103.9375 183.789062 106.296875 183.789062 C 117.253906 183.789062 126.136719 174.914062 126.136719 163.960938 C 126.136719 156.390625 121.898438 149.808594 115.652344 146.472656 C 115.742188 146.464844 115.828125 146.464844 115.917969 146.464844 C 127.941406 146.464844 137.695312 156.210938 137.695312 168.234375 Z M 137.695312 168.234375 " fill-opacity="1" fill-rule="nonzero"/><path fill="#f5f7f8" d="M 112.855469 158.007812 C 112.855469 158.480469 112.808594 158.953125 112.714844 159.417969 C 112.625 159.882812 112.484375 160.335938 112.304688 160.773438 C 112.121094 161.210938 111.898438 161.628906 111.636719 162.023438 C 111.371094 162.417969 111.074219 162.78125 110.738281 163.117188 C 110.402344 163.453125 110.035156 163.753906 109.640625 164.019531 C 109.246094 164.28125 108.828125 164.503906 108.390625 164.6875 C 107.953125 164.867188 107.5 165.003906 107.035156 165.097656 C 106.570312 165.191406 106.097656 165.234375 105.625 165.234375 C 105.148438 165.234375 104.679688 165.191406 104.214844 165.097656 C 103.746094 165.003906 103.296875 164.867188 102.855469 164.6875 C 102.417969 164.503906 102 164.28125 101.605469 164.019531 C 101.210938 163.753906 100.847656 163.453125 100.511719 163.117188 C 100.175781 162.78125 99.875 162.417969 99.613281 162.023438 C 99.347656 161.628906 99.125 161.210938 98.945312 160.773438 C 98.761719 160.335938 98.625 159.882812 98.53125 159.417969 C 98.441406 158.953125 98.394531 158.480469 98.394531 158.007812 C 98.394531 157.53125 98.441406 157.0625 98.53125 156.597656 C 98.625 156.132812 98.761719 155.679688 98.945312 155.242188 C 99.125 154.804688 99.347656 154.386719 99.613281 153.992188 C 99.875 153.597656 100.175781 153.230469 100.511719 152.898438 C 100.847656 152.5625 101.210938 152.261719 101.605469 151.996094 C 102 151.734375 102.417969 151.511719 102.855469 151.328125 C 103.296875 151.148438 103.746094 151.011719 104.214844 150.917969 C 104.679688 150.824219 105.148438 150.78125 105.625 150.78125 C 106.097656 150.78125 106.570312 150.824219 107.035156 150.917969 C 107.5 151.011719 107.953125 151.148438 108.390625 151.328125 C 108.828125 151.511719 109.246094 151.734375 109.640625 151.996094 C 110.035156 152.261719 110.402344 152.5625 110.738281 152.898438 C 111.074219 153.230469 111.371094 153.597656 111.636719 153.992188 C 111.898438 154.386719 112.121094 154.804688 112.304688 155.242188 C 112.484375 155.679688 112.625 156.132812 112.714844 156.597656 C 112.808594 157.0625 112.855469 157.53125 112.855469 158.007812 Z M 112.855469 158.007812 " fill-opacity="1" fill-rule="nonzero"/><path fill="#68dbf9" d="M 105.824219 100.320312 C 105.824219 101.613281 105.757812 102.898438 105.632812 104.183594 C 105.503906 105.46875 105.316406 106.746094 105.0625 108.011719 C 104.8125 109.28125 104.5 110.53125 104.125 111.765625 C 103.75 113.003906 103.3125 114.21875 102.820312 115.410156 C 102.324219 116.605469 101.773438 117.769531 101.164062 118.910156 C 100.554688 120.046875 99.890625 121.152344 99.175781 122.226562 C 98.457031 123.300781 97.6875 124.339844 96.867188 125.335938 C 96.046875 126.335938 95.183594 127.289062 94.269531 128.203125 C 93.355469 129.117188 92.398438 129.984375 91.398438 130.800781 C 90.402344 131.621094 89.363281 132.390625 88.289062 133.109375 C 87.214844 133.824219 86.109375 134.488281 84.96875 135.097656 C 83.832031 135.707031 82.664062 136.257812 81.46875 136.75 C 80.277344 137.246094 79.0625 137.679688 77.824219 138.054688 C 76.589844 138.429688 75.335938 138.742188 74.070312 138.996094 C 72.804688 139.246094 71.527344 139.4375 70.242188 139.5625 C 68.953125 139.691406 67.664062 139.753906 66.375 139.753906 C 65.082031 139.753906 63.792969 139.691406 62.507812 139.5625 C 61.222656 139.4375 59.945312 139.246094 58.679688 138.996094 C 57.410156 138.742188 56.160156 138.429688 54.921875 138.054688 C 53.6875 137.679688 52.472656 137.246094 51.277344 136.75 C 50.085938 136.257812 48.917969 135.707031 47.777344 135.097656 C 46.640625 134.488281 45.53125 133.824219 44.457031 133.109375 C 43.382812 132.390625 42.347656 131.621094 41.347656 130.800781 C 40.347656 129.984375 39.394531 129.117188 38.480469 128.203125 C 37.566406 127.289062 36.699219 126.335938 35.878906 125.335938 C 35.058594 124.339844 34.292969 123.300781 33.574219 122.226562 C 32.855469 121.152344 32.191406 120.046875 31.582031 118.910156 C 30.976562 117.769531 30.421875 116.605469 29.929688 115.410156 C 29.433594 114.21875 29 113.003906 28.625 111.765625 C 28.25 110.53125 27.9375 109.28125 27.683594 108.011719 C 27.433594 106.746094 27.242188 105.46875 27.117188 104.183594 C 26.988281 102.898438 26.925781 101.613281 26.925781 100.320312 C 26.925781 99.027344 26.988281 97.738281 27.117188 96.453125 C 27.242188 95.167969 27.433594 93.894531 27.683594 92.625 C 27.9375 91.359375 28.25 90.109375 28.625 88.871094 C 29 87.636719 29.433594 86.421875 29.929688 85.230469 C 30.421875 84.035156 30.976562 82.871094 31.582031 81.730469 C 32.191406 80.59375 32.855469 79.484375 33.574219 78.410156 C 34.292969 77.335938 35.058594 76.300781 35.878906 75.304688 C 36.699219 74.304688 37.566406 73.347656 38.480469 72.4375 C 39.394531 71.523438 40.347656 70.65625 41.347656 69.835938 C 42.347656 69.019531 43.382812 68.25 44.457031 67.53125 C 45.53125 66.8125 46.640625 66.152344 47.777344 65.542969 C 48.917969 64.933594 50.085938 64.382812 51.277344 63.886719 C 52.472656 63.394531 53.6875 62.960938 54.921875 62.585938 C 56.160156 62.210938 57.410156 61.894531 58.679688 61.644531 C 59.945312 61.390625 61.222656 61.203125 62.507812 61.074219 C 63.792969 60.949219 65.082031 60.886719 66.375 60.886719 C 67.664062 60.886719 68.953125 60.949219 70.242188 61.074219 C 71.527344 61.203125 72.804688 61.390625 74.070312 61.644531 C 75.335938 61.894531 76.589844 62.210938 77.824219 62.585938 C 79.0625 62.960938 80.277344 63.394531 81.46875 63.886719 C 82.664062 64.382812 83.832031 64.933594 84.96875 65.542969 C 86.109375 66.152344 87.214844 66.8125 88.289062 67.53125 C 89.363281 68.25 90.402344 69.019531 91.398438 69.835938 C 92.398438 70.65625 93.355469 71.523438 94.269531 72.4375 C 95.183594 73.347656 96.046875 74.304688 96.867188 75.304688 C 97.6875 76.300781 98.457031 77.335938 99.175781 78.410156 C 99.890625 79.484375 100.554688 80.59375 101.164062 81.730469 C 101.773438 82.871094 102.324219 84.035156 102.820312 85.230469 C 103.3125 86.421875 103.75 87.636719 104.125 88.871094 C 104.5 90.109375 104.8125 91.359375 105.0625 92.625 C 105.316406 93.894531 105.503906 95.167969 105.632812 96.453125 C 105.757812 97.738281 105.824219 99.027344 105.824219 100.320312 Z M 105.824219 100.320312 " fill-opacity="1" fill-rule="nonzero"/><path fill="#24d1f8" d="M 105.820312 100.316406 C 105.820312 122.097656 88.164062 139.75 66.371094 139.75 C 63.734375 139.75 61.152344 139.492188 58.65625 138.992188 C 76.742188 135.40625 90.382812 119.457031 90.382812 100.316406 C 90.382812 81.183594 76.746094 65.234375 58.65625 61.648438 C 61.152344 61.144531 63.734375 60.886719 66.371094 60.886719 C 88.164062 60.886719 105.820312 78.539062 105.820312 100.316406 Z M 105.820312 100.316406 " fill-opacity="1" fill-rule="nonzero"/><path fill="#fcb44d" d="M 75.363281 121.703125 L 57.386719 121.703125 C 54.953125 121.703125 52.984375 119.734375 52.984375 117.304688 L 52.984375 101.246094 C 52.984375 98.816406 54.953125 96.847656 57.386719 96.847656 L 75.363281 96.847656 C 77.792969 96.847656 79.765625 98.816406 79.765625 101.246094 L 79.765625 117.304688 C 79.765625 119.734375 77.792969 121.703125 75.363281 121.703125 Z M 75.363281 121.703125 " fill-opacity="1" fill-rule="nonzero"/><path fill="#fb9927" d="M 79.761719 101.246094 L 79.761719 117.304688 C 79.761719 119.734375 77.792969 121.703125 75.359375 121.703125 L 65.613281 121.703125 C 68.046875 121.703125 70.015625 119.734375 70.015625 117.304688 L 70.015625 101.246094 C 70.015625 98.816406 68.046875 96.84375 65.613281 96.84375 L 75.359375 96.84375 C 77.792969 96.84375 79.761719 98.816406 79.761719 101.246094 Z M 79.761719 101.246094 " fill-opacity="1" fill-rule="nonzero"/><path fill="#68dbf9" d="M 204.183594 277.566406 L 151.59375 277.566406 C 149.070312 277.566406 147.023438 275.523438 147.023438 273 L 147.023438 245.839844 C 147.023438 243.316406 149.070312 241.273438 151.59375 241.273438 L 204.183594 241.273438 C 206.707031 241.273438 208.75 243.316406 208.75 245.839844 L 208.75 273 C 208.75 275.523438 206.707031 277.566406 204.183594 277.566406 Z M 204.183594 277.566406 " fill-opacity="1" fill-rule="nonzero"/><path fill="#24d1f8" d="M 208.753906 245.84375 L 208.753906 273 C 208.753906 275.523438 206.703125 277.570312 204.183594 277.570312 L 192.035156 277.570312 C 194.558594 277.570312 196.605469 275.523438 196.605469 273 L 196.605469 245.84375 C 196.605469 243.316406 194.558594 241.277344 192.035156 241.277344 L 204.183594 241.277344 C 206.703125 241.277344 208.753906 243.316406 208.753906 245.84375 Z M 208.753906 245.84375 " fill-opacity="1" fill-rule="nonzero"/><path fill="#fcc16d" d="M 62.347656 258.285156 L 20.726562 258.285156 C 18.203125 258.285156 16.15625 256.238281 16.15625 253.714844 L 16.15625 226.558594 C 16.15625 224.035156 18.203125 221.988281 20.726562 221.988281 L 62.347656 221.988281 C 64.871094 221.988281 66.917969 224.035156 66.917969 226.558594 L 66.917969 253.714844 C 66.917969 256.238281 64.871094 258.285156 62.347656 258.285156 Z M 62.347656 258.285156 " fill-opacity="1" fill-rule="nonzero"/><path fill="#fca62f" d="M 66.917969 226.558594 L 66.917969 253.71875 C 66.917969 256.238281 64.871094 258.285156 62.347656 258.285156 L 50.203125 258.285156 C 52.726562 258.285156 54.773438 256.238281 54.773438 253.71875 L 54.773438 226.558594 C 54.773438 224.035156 52.726562 221.992188 50.203125 221.992188 L 62.347656 221.992188 C 64.871094 221.992188 66.917969 224.035156 66.917969 226.558594 Z M 66.917969 226.558594 " fill-opacity="1" fill-rule="nonzero"/><path fill="#fcc16d" d="M 195.777344 89.628906 L 143.1875 89.628906 C 140.664062 89.628906 138.617188 87.585938 138.617188 85.0625 L 138.617188 57.90625 C 138.617188 55.382812 140.664062 53.335938 143.1875 53.335938 L 195.777344 53.335938 C 198.300781 53.335938 200.347656 55.382812 200.347656 57.90625 L 200.347656 85.0625 C 200.347656 87.585938 198.300781 89.628906 195.777344 89.628906 Z M 195.777344 89.628906 " fill-opacity="1" fill-rule="nonzero"/><path fill="#fca62f" d="M 200.347656 57.90625 L 200.347656 85.0625 C 200.347656 87.585938 198.300781 89.632812 195.777344 89.632812 L 183.632812 89.632812 C 186.152344 89.632812 188.203125 87.585938 188.203125 85.0625 L 188.203125 57.90625 C 188.203125 55.382812 186.152344 53.339844 183.632812 53.339844 L 195.777344 53.339844 C 198.300781 53.339844 200.347656 55.382812 200.347656 57.90625 Z M 200.347656 57.90625 " fill-opacity="1" fill-rule="nonzero"/><path fill="#000000" d="M 83.148438 117.304688 L 83.148438 101.246094 C 83.148438 98.53125 81.746094 96.136719 79.632812 94.746094 L 79.632812 88.804688 C 79.632812 81.496094 73.683594 75.550781 66.375 75.550781 C 59.0625 75.550781 53.117188 81.496094 53.117188 88.804688 L 53.117188 94.746094 C 51 96.136719 49.597656 98.53125 49.597656 101.246094 L 49.597656 117.304688 C 49.597656 121.597656 53.09375 125.089844 57.386719 125.089844 L 75.363281 125.089844 C 79.65625 125.089844 83.148438 121.597656 83.148438 117.304688 Z M 66.375 82.320312 C 69.953125 82.320312 72.863281 85.230469 72.863281 88.804688 L 72.863281 93.460938 L 59.886719 93.460938 L 59.886719 88.804688 C 59.886719 85.230469 62.796875 82.320312 66.375 82.320312 Z M 56.371094 117.304688 L 56.371094 101.246094 C 56.371094 100.6875 56.824219 100.230469 57.386719 100.230469 L 75.363281 100.230469 C 75.921875 100.230469 76.378906 100.6875 76.378906 101.246094 L 76.378906 117.304688 C 76.378906 117.863281 75.921875 118.320312 75.363281 118.320312 L 57.386719 118.320312 C 56.824219 118.320312 56.371094 117.863281 56.371094 117.304688 Z M 56.371094 117.304688 " fill-opacity="1" fill-rule="nonzero"/><path fill="#000000" d="M 66.375 104.324219 C 64.503906 104.324219 62.988281 105.839844 62.988281 107.710938 L 62.988281 110.171875 C 62.988281 112.042969 64.503906 113.558594 66.375 113.558594 C 68.242188 113.558594 69.757812 112.042969 69.757812 110.171875 L 69.757812 107.710938 C 69.757812 105.839844 68.242188 104.324219 66.375 104.324219 Z M 66.375 104.324219 " fill-opacity="1" fill-rule="nonzero"/><g clip-path="url(#id5)"><path fill="#000000" d="M 204.183594 237.890625 L 151.59375 237.890625 C 147.207031 237.890625 143.636719 241.457031 143.636719 245.839844 L 143.636719 273 C 143.636719 277.382812 147.207031 280.949219 151.59375 280.949219 L 204.183594 280.949219 C 208.566406 280.949219 212.136719 277.382812 212.136719 273 L 212.136719 245.839844 C 212.136719 241.457031 208.566406 237.890625 204.183594 237.890625 Z M 205.367188 273 C 205.367188 273.652344 204.835938 274.183594 204.183594 274.183594 L 151.59375 274.183594 C 150.9375 274.183594 150.40625 273.652344 150.40625 273 L 150.40625 245.839844 C 150.40625 245.1875 150.9375 244.65625 151.59375 244.65625 L 204.183594 244.65625 C 204.835938 244.65625 205.367188 245.1875 205.367188 245.839844 Z M 205.367188 273 " fill-opacity="1" fill-rule="nonzero"/></g><path fill="#000000" d="M 191.417969 250.300781 L 164.355469 250.300781 C 162.488281 250.300781 160.972656 251.816406 160.972656 253.683594 C 160.972656 255.554688 162.488281 257.070312 164.355469 257.070312 L 191.417969 257.070312 C 193.285156 257.070312 194.800781 255.554688 194.800781 253.683594 C 194.800781 251.816406 193.285156 250.300781 191.417969 250.300781 Z M 191.417969 250.300781 " fill-opacity="1" fill-rule="nonzero"/><path fill="#000000" d="M 191.417969 261.769531 L 164.355469 261.769531 C 162.488281 261.769531 160.972656 263.285156 160.972656 265.15625 C 160.972656 267.023438 162.488281 268.539062 164.355469 268.539062 L 191.417969 268.539062 C 193.285156 268.539062 194.800781 267.023438 194.800781 265.15625 C 194.800781 263.285156 193.285156 261.769531 191.417969 261.769531 Z M 191.417969 261.769531 " fill-opacity="1" fill-rule="nonzero"/><g clip-path="url(#id6)"><path fill="#000000" d="M 62.347656 218.605469 L 50.847656 218.605469 C 48.976562 218.605469 47.460938 220.121094 47.460938 221.988281 C 47.460938 223.859375 48.976562 225.375 50.847656 225.375 L 62.347656 225.375 C 63.003906 225.375 63.535156 225.90625 63.535156 226.558594 L 63.535156 253.714844 C 63.535156 254.367188 63.003906 254.898438 62.347656 254.898438 L 20.726562 254.898438 C 20.074219 254.898438 19.542969 254.367188 19.542969 253.714844 L 19.542969 226.558594 C 19.542969 225.90625 20.074219 225.375 20.726562 225.375 L 35.808594 225.375 C 37.675781 225.375 39.191406 223.859375 39.191406 221.988281 C 39.191406 220.121094 37.675781 218.605469 35.808594 218.605469 L 20.726562 218.605469 C 16.339844 218.605469 12.773438 222.171875 12.773438 226.558594 L 12.773438 253.714844 C 12.773438 258.101562 16.339844 261.667969 20.726562 261.667969 L 62.347656 261.667969 C 66.734375 261.667969 70.304688 258.101562 70.304688 253.714844 L 70.304688 226.558594 C 70.304688 222.171875 66.734375 218.605469 62.347656 218.605469 Z M 62.347656 218.605469 " fill-opacity="1" fill-rule="nonzero"/></g><path fill="#000000" d="M 49.585938 231.019531 L 33.492188 231.019531 C 31.621094 231.019531 30.105469 232.53125 30.105469 234.402344 C 30.105469 236.269531 31.621094 237.785156 33.492188 237.785156 L 49.585938 237.785156 C 51.453125 237.785156 52.96875 236.269531 52.96875 234.402344 C 52.96875 232.53125 51.453125 231.019531 49.585938 231.019531 Z M 49.585938 231.019531 " fill-opacity="1" fill-rule="nonzero"/><path fill="#000000" d="M 49.585938 242.488281 L 33.492188 242.488281 C 31.621094 242.488281 30.105469 244.003906 30.105469 245.871094 C 30.105469 247.742188 31.621094 249.253906 33.492188 249.253906 L 49.585938 249.253906 C 51.453125 249.253906 52.96875 247.742188 52.96875 245.871094 C 52.96875 244.003906 51.453125 242.488281 49.585938 242.488281 Z M 49.585938 242.488281 " fill-opacity="1" fill-rule="nonzero"/><g clip-path="url(#id7)"><path fill="#000000" d="M 143.1875 93.011719 L 195.777344 93.011719 C 200.164062 93.011719 203.730469 89.445312 203.730469 85.0625 L 203.730469 57.90625 C 203.730469 53.519531 200.164062 49.953125 195.777344 49.953125 L 143.1875 49.953125 C 138.800781 49.953125 135.234375 53.519531 135.234375 57.90625 L 135.234375 85.0625 C 135.234375 89.445312 138.800781 93.011719 143.1875 93.011719 Z M 142.003906 57.90625 C 142.003906 57.25 142.535156 56.71875 143.1875 56.71875 L 195.777344 56.71875 C 196.429688 56.71875 196.960938 57.25 196.960938 57.90625 L 196.960938 85.0625 C 196.960938 85.714844 196.429688 86.246094 195.777344 86.246094 L 143.1875 86.246094 C 142.535156 86.246094 142.003906 85.714844 142.003906 85.0625 Z M 142.003906 57.90625 " fill-opacity="1" fill-rule="nonzero"/></g><path fill="#000000" d="M 155.953125 69.132812 L 183.011719 69.132812 C 184.882812 69.132812 186.398438 67.617188 186.398438 65.75 C 186.398438 63.878906 184.882812 62.363281 183.011719 62.363281 L 155.953125 62.363281 C 154.082031 62.363281 152.566406 63.878906 152.566406 65.75 C 152.566406 67.617188 154.082031 69.132812 155.953125 69.132812 Z M 155.953125 69.132812 " fill-opacity="1" fill-rule="nonzero"/><path fill="#000000" d="M 155.953125 80.601562 L 183.011719 80.601562 C 184.882812 80.601562 186.398438 79.085938 186.398438 77.21875 C 186.398438 75.347656 184.882812 73.835938 183.011719 73.835938 L 155.953125 73.835938 C 154.082031 73.835938 152.566406 75.347656 152.566406 77.21875 C 152.566406 79.085938 154.082031 80.601562 155.953125 80.601562 Z M 155.953125 80.601562 " fill-opacity="1" fill-rule="nonzero"/><g clip-path="url(#id8)"><path fill="#000000" d="M 144.027344 230.859375 C 144.664062 231.492188 145.523438 231.847656 146.421875 231.847656 L 188.195312 231.847656 C 190.066406 231.847656 191.582031 230.335938 191.582031 228.464844 C 191.582031 226.597656 190.066406 225.082031 188.195312 225.082031 L 147.824219 225.082031 L 140.914062 218.175781 C 150.710938 215.824219 160.15625 212.09375 168.917969 207.066406 C 184.492188 198.140625 197.671875 185.320312 207.03125 169.996094 C 207.695312 168.914062 207.695312 167.550781 207.03125 166.46875 C 202.128906 158.441406 196.175781 151.082031 189.332031 144.59375 C 187.976562 143.308594 185.832031 143.367188 184.546875 144.71875 C 183.261719 146.078125 183.316406 148.21875 184.671875 149.503906 C 190.578125 155.105469 195.777344 161.398438 200.152344 168.234375 C 191.464844 181.808594 179.539062 193.179688 165.550781 201.199219 C 160.757812 203.945312 155.746094 206.28125 150.578125 208.1875 C 161.761719 198.476562 168.84375 184.167969 168.84375 168.230469 C 168.84375 152.28125 161.746094 137.957031 150.542969 128.25 C 158.554688 131.207031 166.199219 135.207031 173.308594 140.203125 C 173.898438 140.621094 174.578125 140.820312 175.25 140.820312 C 176.316406 140.820312 177.363281 140.316406 178.023438 139.382812 C 179.097656 137.851562 178.730469 135.742188 177.199219 134.667969 C 165.410156 126.382812 152.253906 120.652344 138.375 117.683594 L 141.933594 106.074219 L 185.765625 106.074219 C 187.636719 106.074219 189.152344 104.558594 189.152344 102.6875 C 189.152344 100.820312 187.636719 99.304688 185.765625 99.304688 L 139.429688 99.304688 C 137.945312 99.304688 136.628906 100.277344 136.195312 101.699219 L 131.664062 116.476562 C 126.488281 115.714844 121.230469 115.324219 115.917969 115.324219 C 112.71875 115.324219 109.511719 115.46875 106.328125 115.753906 C 108.183594 110.960938 109.207031 105.757812 109.207031 100.320312 C 109.207031 76.710938 89.992188 57.503906 66.375 57.503906 C 42.753906 57.503906 23.539062 76.710938 23.539062 100.320312 C 23.539062 117.582031 33.816406 132.492188 48.570312 139.257812 C 39.144531 146.925781 31.160156 156.050781 24.800781 166.46875 C 24.140625 167.550781 24.140625 168.914062 24.800781 169.996094 C 31.058594 180.242188 39.03125 189.359375 48.277344 196.949219 L 44.628906 207.242188 L 16.15625 207.242188 C 14.289062 207.242188 12.773438 208.757812 12.773438 210.628906 C 12.773438 212.496094 14.289062 214.011719 16.15625 214.011719 L 47.023438 214.011719 C 48.457031 214.011719 49.734375 213.109375 50.214844 211.757812 L 53.921875 201.285156 C 56.816406 203.355469 59.8125 205.292969 62.910156 207.066406 C 78.96875 216.273438 97.296875 221.140625 115.917969 221.140625 C 121.636719 221.140625 127.332031 220.679688 132.941406 219.773438 Z M 30.3125 100.320312 C 30.3125 80.441406 46.488281 64.269531 66.375 64.269531 C 86.257812 64.269531 102.4375 80.441406 102.4375 100.320312 C 102.4375 120.199219 86.257812 136.371094 66.375 136.371094 C 46.488281 136.371094 30.3125 120.199219 30.3125 100.320312 Z M 56.28125 194.632812 L 59.902344 184.402344 C 60.527344 182.640625 59.605469 180.707031 57.84375 180.082031 C 56.082031 179.457031 54.144531 180.382812 53.523438 182.144531 L 50.691406 190.136719 C 43.347656 183.804688 36.921875 176.421875 31.679688 168.230469 C 38.207031 158.015625 46.441406 149.175781 56.179688 141.910156 C 59.449219 142.710938 62.863281 143.136719 66.375 143.136719 C 67.386719 143.136719 68.386719 143.097656 69.382812 143.03125 C 66.484375 148.375 64.507812 154.203125 63.59375 160.210938 C 63.3125 162.058594 64.585938 163.785156 66.433594 164.066406 C 66.605469 164.089844 66.777344 164.101562 66.945312 164.101562 C 68.589844 164.101562 70.035156 162.902344 70.289062 161.226562 C 71.367188 154.121094 74.152344 147.300781 78.351562 141.429688 C 88.035156 138.605469 96.316406 132.449219 101.851562 124.285156 C 106.378906 122.835938 111.105469 122.089844 115.917969 122.089844 C 120.582031 122.089844 125.085938 122.789062 129.335938 124.082031 L 126.5625 133.125 C 123.191406 132.101562 119.617188 131.546875 115.917969 131.546875 C 95.679688 131.546875 79.21875 148.003906 79.21875 168.230469 C 79.21875 188.460938 95.679688 204.917969 115.917969 204.917969 C 136.152344 204.917969 152.617188 188.460938 152.617188 168.230469 C 152.617188 154.105469 144.585938 141.832031 132.855469 135.703125 L 135.664062 126.53125 C 151.261719 133.945312 162.074219 149.847656 162.074219 168.230469 C 162.074219 187.417969 150.296875 203.90625 133.589844 210.851562 L 130.96875 208.234375 C 129.648438 206.914062 127.503906 206.914062 126.183594 208.234375 C 124.863281 209.554688 124.863281 211.699219 126.183594 213.019531 L 126.347656 213.183594 C 122.996094 213.960938 119.503906 214.371094 115.917969 214.371094 C 104.816406 214.371094 94.085938 210.375 85.707031 203.117188 C 77.410156 195.929688 71.933594 186.03125 70.289062 175.246094 C 70.007812 173.398438 68.277344 172.128906 66.429688 172.410156 C 64.582031 172.691406 63.3125 174.417969 63.59375 176.265625 C 65.480469 188.609375 71.730469 199.933594 81.199219 208.164062 C 76.050781 206.261719 71.054688 203.9375 66.277344 201.195312 C 62.8125 199.210938 59.472656 197.015625 56.28125 194.632812 Z M 119.632812 167.289062 C 119.960938 167.390625 120.296875 167.441406 120.625 167.441406 C 122.074219 167.441406 123.414062 166.503906 123.859375 165.046875 L 127.304688 153.8125 C 131.566406 157.179688 134.308594 162.390625 134.308594 168.230469 C 134.308594 178.367188 126.058594 186.613281 115.917969 186.613281 C 105.777344 186.613281 97.527344 178.367188 97.527344 168.230469 C 97.527344 167.183594 97.617188 166.160156 97.789062 165.160156 C 99.730469 167.285156 102.523438 168.621094 105.625 168.621094 C 111.476562 168.621094 116.238281 163.859375 116.238281 158.007812 C 116.238281 154.886719 114.882812 152.074219 112.730469 150.128906 C 113.765625 149.949219 114.828125 149.847656 115.917969 149.847656 C 117.753906 149.847656 119.523438 150.121094 121.199219 150.625 L 117.386719 163.066406 C 116.839844 164.851562 117.84375 166.742188 119.632812 167.289062 Z M 105.625 154.164062 C 107.746094 154.164062 109.46875 155.886719 109.46875 158.007812 C 109.46875 160.128906 107.746094 161.851562 105.625 161.851562 C 103.503906 161.851562 101.777344 160.128906 101.777344 158.007812 C 101.777344 155.886719 103.503906 154.164062 105.625 154.164062 Z M 112.609375 143.304688 C 108.140625 143.894531 104.042969 145.65625 100.628906 148.277344 C 100.5 148.074219 100.347656 147.882812 100.171875 147.707031 L 97.296875 144.832031 C 101.578125 141.421875 106.8125 139.15625 112.53125 138.511719 L 112.53125 142.585938 C 112.53125 142.832031 112.558594 143.074219 112.609375 143.304688 Z M 92.511719 149.617188 L 95.382812 152.492188 C 95.558594 152.667969 95.753906 152.816406 95.953125 152.949219 C 93.332031 156.359375 91.570312 160.460938 90.980469 164.925781 C 90.75 164.875 90.507812 164.847656 90.261719 164.847656 L 86.183594 164.847656 C 86.832031 159.132812 89.097656 153.898438 92.511719 149.617188 Z M 90.261719 171.617188 C 90.507812 171.617188 90.75 171.585938 90.980469 171.539062 C 91.570312 176.003906 93.332031 180.101562 95.953125 183.515625 C 95.753906 183.644531 95.558594 183.796875 95.382812 183.972656 L 92.511719 186.84375 C 89.097656 182.5625 86.832031 177.332031 86.183594 171.617188 Z M 100.171875 188.757812 C 100.347656 188.582031 100.5 188.390625 100.628906 188.1875 C 104.042969 190.804688 108.144531 192.570312 112.609375 193.160156 C 112.558594 193.390625 112.53125 193.628906 112.53125 193.875 L 112.53125 197.953125 C 106.8125 197.304688 101.582031 195.042969 97.296875 191.628906 Z M 119.222656 193.160156 C 123.691406 192.570312 127.792969 190.804688 131.207031 188.1875 C 131.335938 188.390625 131.488281 188.582031 131.664062 188.757812 L 134.535156 191.628906 C 130.253906 195.042969 125.019531 197.304688 119.300781 197.953125 L 119.300781 193.875 C 119.300781 193.628906 119.273438 193.390625 119.222656 193.160156 Z M 139.324219 186.84375 L 136.449219 183.972656 C 136.273438 183.796875 136.082031 183.644531 135.878906 183.515625 C 138.5 180.101562 140.265625 176.003906 140.855469 171.539062 C 141.085938 171.585938 141.324219 171.617188 141.570312 171.617188 L 145.648438 171.617188 C 145.003906 177.332031 142.738281 182.5625 139.324219 186.84375 Z M 141.570312 164.847656 C 141.324219 164.847656 141.085938 164.875 140.851562 164.925781 C 140.265625 160.460938 138.5 156.359375 135.878906 152.949219 C 136.082031 152.820312 136.273438 152.667969 136.449219 152.492188 L 139.324219 149.621094 C 142.738281 153.898438 145.003906 159.132812 145.648438 164.847656 Z M 131.664062 147.707031 C 131.488281 147.882812 131.335938 148.074219 131.207031 148.277344 C 130.621094 147.828125 130.011719 147.402344 129.390625 147.007812 L 130.828125 142.308594 C 132.128906 143.058594 133.367188 143.902344 134.535156 144.832031 Z M 123.183594 144.152344 C 121.902344 143.765625 120.582031 143.484375 119.222656 143.304688 C 119.273438 143.074219 119.300781 142.832031 119.300781 142.585938 L 119.300781 138.507812 C 121.117188 138.714844 122.878906 139.078125 124.582031 139.59375 Z M 123.183594 144.152344 " fill-opacity="1" fill-rule="nonzero"/></g><g clip-path="url(#id9)"><path fill="#2f669b" d="M 347.921875 164.34375 C 342.246094 163.503906 327.53125 161.359375 315.226562 159.582031 C 302.917969 157.804688 292.585938 156.269531 292.265625 156.171875 C 291.871094 156.054688 291.636719 156.195312 291.527344 156.621094 C 291.402344 157.105469 290.992188 157.289062 289.722656 157.441406 C 287.464844 157.707031 286.289062 157.484375 280.625 155.726562 C 277.917969 154.890625 274.789062 153.964844 273.671875 153.675781 C 272.453125 153.359375 271.414062 152.871094 271.070312 152.453125 C 269.496094 150.550781 269.613281 145.0625 271.28125 142.652344 C 271.753906 141.96875 272.335938 141.410156 272.578125 141.410156 C 273.5 141.410156 271.8125 137.304688 270.855469 137.222656 L 269.929688 137.136719 C 268.8125 137.03125 269.484375 136.566406 272.429688 135.410156 C 274.230469 134.703125 276.394531 133.816406 277.246094 133.4375 C 278.449219 132.902344 278.863281 132.835938 279.148438 133.140625 C 279.421875 133.433594 279.398438 133.570312 279.054688 133.695312 C 277.339844 134.316406 276.730469 136.289062 277.449219 138.882812 L 277.761719 140.019531 L 285.144531 140.398438 C 289.207031 140.609375 292.847656 140.867188 293.242188 140.972656 C 293.769531 141.117188 293.957031 141.398438 293.957031 142.074219 C 293.957031 142.765625 294.1875 143.105469 294.910156 143.480469 C 295.433594 143.75 295.859375 144.054688 295.859375 144.15625 C 295.859375 144.253906 295.445312 144.726562 294.9375 145.203125 C 293.175781 146.851562 292.945312 150.714844 294.550781 151.578125 C 295.753906 152.222656 330.351562 157.773438 345.351562 159.730469 C 353.976562 160.855469 361.105469 161.847656 361.195312 161.9375 C 361.28125 162.027344 361.003906 162.921875 360.578125 163.933594 C 359.949219 165.414062 359.648438 165.777344 359.019531 165.816406 C 358.589844 165.84375 353.597656 165.183594 347.921875 164.34375 Z M 347.128906 155.234375 C 339.96875 154.117188 325.542969 151.898438 315.066406 150.304688 C 304.589844 148.710938 295.816406 147.34375 295.574219 147.265625 C 295.234375 147.15625 295.308594 146.933594 295.875 146.328125 C 296.507812 145.652344 296.824219 145.554688 297.90625 145.699219 C 298.613281 145.789062 303.550781 146.503906 308.875 147.285156 C 323.492188 149.425781 335.160156 151.128906 343.792969 152.386719 C 348.070312 153.011719 353.816406 153.847656 356.5625 154.25 C 359.308594 154.648438 361.648438 155.074219 361.765625 155.1875 C 362.132812 155.554688 361.203125 157.332031 360.660156 157.296875 C 360.375 157.28125 354.285156 156.351562 347.128906 155.234375 Z M 359.507812 151.074219 C 358.984375 151.015625 356.769531 150.8125 354.589844 150.621094 C 350.65625 150.277344 344.769531 149.582031 341.097656 149.023438 C 340.046875 148.867188 337.976562 148.601562 336.492188 148.433594 C 331.4375 147.867188 326.964844 146.710938 323.320312 145.03125 C 320.984375 143.957031 318.585938 141.886719 317.59375 140.089844 C 316.742188 138.546875 316.652344 138.113281 316.664062 135.519531 C 316.675781 132.6875 316.695312 132.617188 318.332031 129.5 C 319.964844 126.394531 321.003906 124.933594 323.28125 122.523438 C 323.914062 121.855469 324.429688 121.171875 324.429688 121.011719 C 324.429688 120.847656 324.609375 120.710938 324.828125 120.703125 C 325.046875 120.699219 325.867188 119.980469 326.652344 119.109375 C 327.4375 118.234375 329.152344 116.402344 330.460938 115.035156 C 333.539062 111.828125 338.6875 106.417969 344.269531 100.527344 C 346.714844 97.949219 349.285156 95.316406 349.984375 94.675781 C 352.589844 92.28125 355.222656 89.535156 355.222656 89.210938 C 355.222656 88.789062 353.621094 88.777344 352.542969 89.1875 C 352.089844 89.359375 351.570312 89.835938 351.382812 90.25 C 351.027344 91.03125 350.769531 91.175781 343 94.972656 C 338.957031 96.949219 337.972656 97.304688 336.476562 97.34375 L 334.714844 97.386719 L 334.171875 94.734375 C 333.871094 93.277344 333.550781 91.890625 333.460938 91.652344 C 333.347656 91.351562 333.84375 91.03125 335.050781 90.617188 C 337.171875 89.894531 337.351562 89.390625 335.386719 89.6875 C 333.816406 89.925781 332.367188 89.679688 332.367188 89.179688 C 332.367188 89 332.617188 88.765625 332.921875 88.65625 C 333.226562 88.542969 333.839844 88.203125 334.277344 87.898438 C 334.71875 87.59375 335.863281 87.1875 336.820312 86.996094 C 337.773438 86.800781 340.796875 86.167969 343.539062 85.585938 C 348.0625 84.621094 348.617188 84.566406 349.570312 84.96875 C 350.382812 85.308594 350.921875 85.332031 351.949219 85.074219 C 354.003906 84.554688 357.332031 84.648438 358.25 85.25 C 358.914062 85.6875 359.03125 86.011719 359.03125 87.414062 C 359.03125 89.964844 357.042969 92.714844 350.59375 99.066406 C 333.886719 115.523438 330.078125 119.4375 325.828125 124.539062 C 322.222656 128.863281 319.988281 133.238281 319.988281 135.964844 C 319.988281 137.214844 321.378906 139.714844 322.230469 139.984375 C 322.566406 140.089844 322.84375 140.3125 322.84375 140.476562 C 322.84375 140.640625 323.058594 140.773438 323.324219 140.773438 C 323.589844 140.773438 324.050781 140.914062 324.355469 141.082031 C 326.425781 142.25 333.246094 143.671875 340.460938 144.433594 C 346.632812 145.089844 354.972656 146.363281 358.4375 147.183594 L 361.175781 147.828125 L 361.371094 149.269531 C 361.582031 150.804688 361.445312 151.308594 360.839844 151.230469 C 360.632812 151.207031 360.03125 151.136719 359.507812 151.074219 Z M 251.734375 140.320312 C 250.949219 140.09375 247.605469 138.578125 244.300781 136.953125 L 238.296875 133.996094 L 239.457031 133.398438 C 241.753906 132.21875 242.542969 130.136719 242.757812 124.695312 C 242.910156 120.851562 243.09375 120.097656 243.871094 120.082031 C 244.648438 120.066406 246.316406 125.011719 246.335938 127.402344 C 246.34375 128.273438 246.421875 128.410156 246.683594 128.039062 C 246.921875 127.695312 246.976562 128.632812 246.875 131.34375 L 246.734375 135.128906 L 247.804688 136.316406 C 248.570312 137.167969 249.546875 137.75 251.257812 138.375 C 254.113281 139.417969 254.746094 139.300781 254.496094 137.769531 L 254.324219 136.691406 L 263.109375 133.113281 C 278.265625 126.945312 296.308594 119.753906 296.972656 119.617188 C 297.984375 119.410156 297.980469 119.390625 296.875 119.125 C 295.730469 118.855469 297.8125 118.105469 268.5625 129.320312 C 261.140625 132.164062 254.839844 134.554688 254.558594 134.632812 C 254.277344 134.710938 253.964844 134.5625 253.867188 134.304688 C 253.730469 133.949219 254.695312 133.4375 257.871094 132.175781 C 266.351562 128.816406 272.28125 126.492188 274.910156 125.5 C 276.394531 124.9375 278.214844 124.203125 278.953125 123.871094 C 279.695312 123.535156 280.386719 123.261719 280.492188 123.261719 C 280.601562 123.261719 281.136719 123.066406 281.6875 122.828125 C 282.238281 122.589844 283.257812 122.171875 283.957031 121.898438 C 288.617188 120.082031 288.878906 119.949219 288.878906 119.371094 C 288.878906 119.050781 288.683594 118.710938 288.449219 118.621094 C 288.214844 118.527344 280.253906 121.390625 270.761719 124.980469 C 261.269531 128.570312 253.464844 131.472656 253.421875 131.425781 C 253.300781 131.304688 250.464844 112.550781 250.464844 111.875 C 250.464844 111.484375 250.972656 111.132812 252.132812 110.722656 C 253.050781 110.398438 258.011719 108.558594 263.164062 106.636719 C 268.316406 104.710938 276.027344 101.847656 280.308594 100.269531 C 284.585938 98.691406 289.910156 96.726562 292.144531 95.902344 C 294.378906 95.074219 296.441406 94.164062 296.726562 93.875 C 297.902344 92.695312 296.859375 92.921875 290.464844 95.230469 C 288.457031 95.957031 285.886719 96.847656 284.75 97.210938 C 276.863281 99.746094 254.808594 107.214844 253.480469 107.800781 C 252.148438 108.390625 250.128906 109.019531 250 108.886719 C 249.9375 108.824219 249.839844 108.285156 249.78125 107.6875 L 249.671875 106.601562 L 260.941406 102.640625 C 288.960938 92.796875 286.183594 93.847656 285.113281 93.507812 C 284.503906 93.3125 282.390625 93.804688 280.464844 94.59375 C 280.117188 94.738281 278.257812 95.359375 276.339844 95.980469 C 257.054688 102.203125 250.832031 104.234375 250.1875 104.503906 C 249.773438 104.675781 249.34375 104.730469 249.234375 104.621094 C 249 104.382812 249.113281 98.238281 249.367188 97.433594 C 249.492188 97.042969 250 96.8125 251.039062 96.675781 C 252.785156 96.449219 249.824219 97.339844 291.734375 84.464844 C 309.980469 78.863281 325.65625 74.179688 326.574219 74.0625 C 327.777344 73.910156 328.242188 73.957031 328.242188 74.234375 C 328.242188 74.453125 328.457031 74.53125 328.753906 74.417969 C 329.183594 74.253906 329.238281 74.414062 329.113281 75.421875 C 329.019531 76.152344 329.507812 79.285156 330.363281 83.464844 C 332.910156 95.890625 334.589844 104.878906 334.589844 106.082031 C 334.589844 106.757812 334.351562 107.550781 334.035156 107.917969 C 333.015625 109.101562 334.070312 108.640625 287.949219 128.09375 C 284.207031 129.671875 280.796875 131.027344 280.367188 131.105469 C 279.9375 131.183594 275.144531 133.023438 269.710938 135.191406 C 254.074219 141.429688 254.839844 141.210938 251.738281 140.316406 Z M 224.75 137.328125 C 223.515625 136.765625 222.488281 135.804688 220.78125 133.621094 C 218.804688 131.085938 217.230469 128.46875 217.519531 128.179688 C 218.03125 127.664062 219.511719 128.609375 220.84375 130.308594 C 223.25 133.382812 225.070312 134.128906 226.8125 132.757812 C 227.679688 132.074219 227.691406 132.023438 227.496094 129.484375 C 227.289062 126.808594 226.546875 123.746094 226.019531 123.421875 C 225.855469 123.316406 224.824219 123.585938 223.726562 124.019531 C 220.117188 125.441406 216.800781 126.535156 216.628906 126.363281 C 216.535156 126.269531 216.046875 125.046875 215.550781 123.644531 C 212.917969 116.257812 212.46875 108.382812 214.535156 105.910156 C 214.832031 105.554688 216.363281 104.859375 217.96875 104.347656 C 221.191406 103.324219 222.726562 103.351562 224.109375 104.472656 C 225.777344 105.820312 226.300781 105.871094 229 104.964844 L 231.5 104.125 L 232.28125 104.859375 C 232.707031 105.261719 233.691406 106.542969 234.464844 107.710938 C 239.011719 114.566406 242.058594 126.753906 240.230469 130.78125 C 239.894531 131.523438 237.894531 132.46875 235.617188 132.960938 C 235.046875 133.082031 234.335938 133.542969 234.03125 133.984375 C 232.863281 135.683594 232.40625 135.933594 228.972656 136.757812 C 227.0625 137.214844 225.4375 137.578125 225.363281 137.566406 C 225.289062 137.554688 225.011719 137.445312 224.75 137.328125 Z M 241.601562 105.136719 C 240.386719 103.921875 240.074219 100.992188 241.023438 99.78125 C 241.480469 99.199219 242.351562 99.292969 242.984375 99.996094 C 244.855469 102.070312 243.511719 107.054688 241.601562 105.136719 Z M 224.59375 101.851562 C 224.492188 101.28125 224.144531 99.253906 223.824219 97.34375 L 223.242188 93.875 L 224.261719 92.757812 C 225.832031 91.042969 227.359375 91.046875 234.59375 92.800781 C 237.820312 93.585938 241.894531 94.554688 243.640625 94.957031 C 245.386719 95.359375 246.871094 95.730469 246.945312 95.78125 C 247.207031 95.972656 245.90625 97.152344 245.429688 97.152344 C 245.15625 97.152344 240.945312 96.144531 236.066406 94.90625 L 227.203125 92.664062 L 226.3125 93.519531 C 225.023438 94.757812 224.800781 96.980469 225.671875 99.917969 C 226.511719 102.742188 226.507812 102.882812 225.558594 102.882812 C 224.929688 102.882812 224.742188 102.683594 224.59375 101.851562 Z M 230.304688 90.316406 L 229.035156 89.898438 L 230.128906 89.863281 C 231.265625 89.828125 236.90625 88.21875 274.273438 77.257812 C 286.582031 73.644531 297.582031 70.492188 298.71875 70.246094 C 300.5625 69.847656 302.105469 69.886719 313.164062 70.585938 C 319.972656 71.015625 325.828125 71.410156 326.179688 71.460938 C 327.128906 71.601562 324.617188 72.636719 323.328125 72.636719 C 322.761719 72.636719 317.371094 72.207031 311.347656 71.683594 L 300.394531 70.726562 L 296.777344 71.816406 C 294.789062 72.414062 285.59375 75.144531 276.339844 77.886719 C 245.453125 87.03125 243.347656 87.65625 238.121094 89.226562 C 232.511719 90.910156 232.21875 90.949219 230.308594 90.316406 Z M 230.304688 90.316406 " fill-opacity="1" fill-rule="nonzero"/></g></svg>