<svg xmlns="http://www.w3.org/2000/svg" xmlns:xlink="http://www.w3.org/1999/xlink" width="500" zoomAndPan="magnify" viewBox="0 0 375 374.999991" height="500" preserveAspectRatio="xMidYMid meet" version="1.0"><defs><g/><clipPath id="id1"><path d="M 95.445312 5.335938 L 264 5.335938 L 264 374 L 95.445312 374 Z M 95.445312 5.335938 " clip-rule="nonzero"/></clipPath></defs><g clip-path="url(#id1)"><path fill="#ff775f" d="M 241.886719 99.214844 C 241.628906 100.03125 236.878906 110.722656 230.546875 118.425781 C 224.515625 125.753906 213.523438 134.480469 211.742188 135.746094 C 211.652344 135.8125 211.585938 135.855469 211.542969 135.882812 C 210.6875 136.394531 211.199219 124.585938 211.375 121.332031 C 211.542969 118.082031 210.515625 115.003906 210.515625 114.488281 C 210.515625 113.976562 209.488281 107.644531 210.003906 105.761719 C 210.515625 103.878906 211.199219 98.746094 211.199219 98.746094 L 209.832031 93.785156 C 209.832031 93.785156 207.4375 83.515625 212.742188 83.6875 C 218.050781 83.855469 225.921875 95.320312 240.476562 98.40625 C 240.476562 98.40625 242.144531 98.40625 241.886719 99.214844 Z M 144.949219 138.734375 C 143.582031 141.898438 143.152344 145.917969 142.9375 147.886719 C 142.722656 149.855469 144.179688 152.851562 143.839844 154.132812 C 143.496094 155.417969 144.523438 156.875 144.695312 157.382812 C 144.863281 157.898438 138.703125 178.265625 138.703125 179.460938 C 138.703125 180.660156 137.675781 191.269531 137.675781 191.953125 C 137.675781 191.980469 137.667969 192.050781 137.652344 192.148438 C 134.296875 184.929688 126.984375 179.925781 118.503906 179.925781 C 118.253906 179.925781 118.007812 179.9375 117.761719 179.941406 L 117.078125 179.0625 C 116.164062 174.386719 114.792969 174.730469 113.652344 171.191406 C 112.511719 167.652344 131.226562 151.453125 134.765625 147.460938 C 138.304688 143.464844 141.957031 132.972656 141.957031 132.972656 C 143.898438 129.09375 145.492188 122.703125 145.492188 122.703125 L 145.550781 132.832031 C 145.550781 132.832031 146.320312 135.566406 144.949219 138.734375 Z M 260.753906 94.753906 C 248.773438 76.496094 234.621094 71.707031 234.621094 71.707031 C 234.621094 71.707031 230.96875 65.089844 226.863281 60.867188 C 222.753906 56.648438 209.574219 53.253906 209.574219 53.253906 C 207.089844 52.140625 202.8125 50.171875 202.554688 49.746094 C 202.296875 49.316406 194.765625 48.035156 192.109375 47.777344 C 189.457031 47.519531 188.257812 47.433594 186.574219 45.980469 C 184.886719 44.523438 184.75 41.359375 184.492188 38.707031 C 184.238281 36.054688 184.492188 34.171875 184.492188 34.171875 C 184.492188 34.171875 184.921875 33.65625 185.566406 33.746094 C 186.214844 33.832031 187.917969 31.777344 188.515625 29.550781 C 189.117188 27.328125 188.515625 24.933594 188.003906 22.878906 C 187.488281 20.824219 185.566406 21.9375 185.566406 21.9375 L 185.507812 21.941406 C 185.539062 21.542969 185.566406 21.144531 185.566406 20.738281 C 185.566406 12.230469 178.671875 5.335938 170.160156 5.335938 C 161.652344 5.335938 154.753906 12.230469 154.753906 20.738281 C 154.753906 22.203125 154.972656 23.617188 155.355469 24.960938 L 155.339844 24.960938 C 155.339844 24.960938 154.679688 25.84375 154.753906 27.386719 C 154.832031 28.925781 154.964844 30.523438 155.019531 33.429688 C 155.078125 36.339844 157.246094 35.425781 157.132812 36.140625 C 157.019531 36.851562 160.328125 42.84375 161.355469 45.007812 C 162.382812 47.175781 163.695312 53.679688 163.695312 54.707031 C 163.695312 55.734375 150.515625 63.777344 150.515625 63.777344 C 150.515625 63.777344 145.890625 64.121094 139.214844 70.625 C 132.542969 77.125 134.9375 90.132812 134.421875 92.527344 C 133.910156 94.921875 133.910156 100.398438 133.910156 100.398438 C 131.167969 105.019531 129.175781 118.824219 128.03125 120.648438 C 126.890625 122.472656 125.636719 128.410156 125.636719 128.410156 C 121.753906 132.398438 119.128906 139.246094 117.644531 142.898438 C 116.164062 146.546875 105.78125 166.171875 104.523438 168.222656 C 103.265625 170.277344 100.757812 177.238281 99.957031 179.859375 C 99.160156 182.484375 98.816406 185.90625 98.816406 185.90625 C 98.816406 185.90625 97.445312 189.214844 97.105469 189.671875 C 96.761719 190.128906 96.535156 191.953125 96.535156 191.953125 C 96.535156 191.953125 95.851562 194.578125 95.734375 195.832031 C 95.621094 197.089844 96.421875 204.277344 96.421875 206.101562 C 96.421875 207.925781 98.019531 208.382812 98.019531 208.382812 C 98.019531 208.382812 98.164062 208.023438 98.246094 207.8125 C 98.019531 208.382812 99.160156 209.75 99.160156 209.75 L 99.242188 209.648438 C 102.539062 217.003906 109.917969 222.125 118.503906 222.125 C 123.941406 222.125 128.890625 220.066406 132.632812 216.695312 C 132.46875 217.492188 132.367188 217.964844 132.367188 217.964844 C 132.367188 217.964844 133.652344 226.179688 132.882812 228.746094 C 132.109375 231.316406 132.484375 239.984375 132.484375 239.984375 L 138.417969 243.179688 C 138.417969 243.179688 139.558594 255.273438 139.101562 263.03125 C 138.644531 270.789062 140.699219 313.910156 140.699219 313.910156 C 140.699219 313.910156 140.128906 316.195312 139.558594 317.335938 C 138.988281 318.476562 139.101562 319.390625 139.101562 319.390625 C 138.761719 319.273438 137.160156 321.101562 135.679688 323.839844 C 134.195312 326.578125 129.972656 331.824219 127.804688 334.90625 C 125.636719 337.984375 113.882812 341.179688 112.511719 341.523438 C 111.140625 341.863281 109.773438 342.546875 109.773438 344.144531 C 109.773438 345.742188 109.773438 346.769531 109.773438 349.277344 C 109.773438 351.789062 110.230469 351.5625 121.1875 352.816406 C 132.140625 354.074219 142.9375 349.851562 142.9375 349.851562 C 153.503906 350.988281 159.644531 348.136719 161.011719 347.683594 C 162.382812 347.226562 161.128906 345.515625 161.355469 343.804688 C 161.582031 342.089844 160.898438 333.421875 160.671875 330.570312 C 160.445312 327.71875 158.160156 325.664062 157.589844 324.410156 C 157.019531 323.152344 156.675781 320.984375 156.675781 320.984375 C 156.675781 311.402344 158.046875 291.550781 160.101562 281.96875 C 162.15625 272.386719 160.101562 262.117188 160.101562 262.117188 L 163.179688 249.453125 C 163.179688 249.453125 166.175781 248.683594 167.546875 248.683594 C 168.917969 248.683594 181.496094 244.75 182.011719 243.632812 C 182.523438 242.523438 183.464844 235.761719 183.464844 235.761719 C 183.464844 235.761719 187.746094 242.265625 188.601562 243.207031 C 189.457031 244.148438 190.140625 244.832031 190.140625 244.832031 C 190.140625 244.832031 191.339844 247.65625 192.625 248.253906 C 193.910156 248.855469 194.792969 248.652344 194.792969 248.652344 C 194.792969 248.652344 203.011719 265.082031 203.011719 270.789062 C 203.011719 276.492188 206.207031 292.464844 207.800781 298.398438 C 209.402344 304.328125 213.851562 328.402344 213.851562 328.402344 C 213.851562 328.402344 212.59375 331.480469 210.769531 334.335938 C 208.941406 337.1875 209.972656 343.917969 209.742188 346.65625 C 209.515625 349.394531 205.632812 358.519531 204.492188 359.890625 C 203.351562 361.257812 203.695312 361.488281 202.554688 363.082031 C 201.414062 364.679688 201.871094 367.191406 201.640625 369.015625 C 201.414062 370.84375 199.929688 370.726562 209.285156 372.894531 C 218.644531 375.0625 226.175781 372.894531 228.457031 371.527344 C 230.742188 370.160156 231.769531 365.363281 231.996094 362.398438 C 232.226562 359.433594 232.566406 358.175781 232.566406 358.175781 C 233.023438 357.265625 232.910156 355.667969 232.910156 353.046875 C 232.910156 350.421875 232.339844 340.066406 232.339844 337.671875 C 232.339844 335.277344 228.316406 334.164062 228.316406 334.164062 L 227.203125 333.398438 C 226.175781 322.445312 229.257812 296.34375 229.257812 282.3125 C 229.257812 268.277344 220.695312 260.40625 220.011719 255.617188 C 219.328125 250.820312 220.695312 242.949219 220.695312 242.949219 C 220.695312 242.949219 224.238281 242.496094 225.265625 241.238281 C 226.289062 239.984375 224.808594 239.414062 224.347656 238.160156 C 223.894531 236.902344 222.179688 231.199219 221.953125 230.171875 C 221.726562 229.144531 221.382812 227.777344 221.382812 227.777344 C 221.382812 227.777344 221.210938 221.671875 220.527344 220.191406 C 219.84375 218.707031 220.355469 214.886719 220.355469 213.175781 C 220.355469 211.464844 219.898438 208.496094 219.445312 207.8125 C 218.988281 207.128906 219.445312 204.503906 219.558594 203.019531 C 219.671875 201.535156 219.558594 197.203125 219.214844 196.746094 C 218.871094 196.289062 218.1875 193.210938 218.757812 191.609375 C 219.328125 190.015625 217.960938 182.027344 217.503906 180.644531 C 217.046875 179.261719 216.132812 175.753906 216.132812 173.8125 C 216.132812 171.875 213.625 159.210938 213.28125 158.300781 C 212.9375 157.382812 213.167969 154.730469 213.167969 154.730469 C 213.167969 154.730469 214.878906 151.738281 216.417969 150.539062 C 217.960938 149.34375 218.988281 146.007812 219.414062 145.066406 C 219.84375 144.125 222.410156 142.328125 222.410156 142.328125 C 227.890625 137.707031 256.476562 110.496094 258.703125 108.441406 C 260.929688 106.386719 261.78125 104.109375 262.921875 100.796875 C 264.066406 97.488281 260.753906 94.753906 260.753906 94.753906 " fill-opacity="1" fill-rule="nonzero"/></g><g fill="#000000" fill-opacity="1"><g transform="translate(42.233123, 298.569129)"><g><path d="M 2.050781 0 L 7.597656 0 L 7.597656 -9.898438 L 14.96875 0 L 19.515625 0 L 19.515625 -19.40625 L 14 -19.40625 L 14 -9.5625 L 6.625 -19.40625 L 2.050781 -19.40625 Z M 2.050781 0 "/></g></g></g><g fill="#000000" fill-opacity="1"><g transform="translate(63.823766, 298.569129)"><g><path d="M 0.136719 0 L 6.070312 0 L 7.125 -2.746094 L 13.75 -2.746094 L 14.804688 0 L 20.761719 0 L 13.222656 -19.40625 L 7.679688 -19.40625 Z M 5.570312 -21.402344 L 8.816406 -21.402344 L 8.816406 -21.761719 C 8.816406 -22.175781 8.980469 -22.398438 9.371094 -22.398438 C 10.230469 -22.398438 10.757812 -21.316406 12.558594 -21.316406 C 14.359375 -21.316406 15.359375 -22.398438 15.359375 -24.367188 L 15.359375 -25.199219 L 12.113281 -25.199219 L 12.113281 -24.839844 C 12.113281 -24.394531 11.949219 -24.199219 11.558594 -24.199219 C 10.699219 -24.199219 10.175781 -25.28125 8.371094 -25.28125 C 6.570312 -25.28125 5.570312 -24.199219 5.570312 -22.234375 Z M 8.289062 -6.847656 L 10.449219 -12.863281 L 12.613281 -6.847656 Z M 8.289062 -6.847656 "/></g></g></g><g fill="#000000" fill-opacity="1"><g transform="translate(84.721513, 298.569129)"><g><path d="M 11.503906 0.414062 C 17.6875 0.414062 22.066406 -3.769531 22.066406 -9.703125 C 22.066406 -15.636719 17.6875 -19.820312 11.503906 -19.820312 C 5.324219 -19.820312 0.941406 -15.636719 0.941406 -9.703125 C 0.941406 -3.769531 5.324219 0.414062 11.503906 0.414062 Z M 6.625 -9.703125 C 6.625 -12.613281 8.648438 -14.636719 11.503906 -14.636719 C 14.386719 -14.636719 16.382812 -12.613281 16.382812 -9.703125 C 16.382812 -6.792969 14.386719 -4.769531 11.503906 -4.769531 C 8.648438 -4.769531 6.625 -6.792969 6.625 -9.703125 Z M 6.625 -9.703125 "/></g></g></g><g fill="#000000" fill-opacity="1"><g transform="translate(107.753377, 298.569129)"><g/></g></g><g fill="#000000" fill-opacity="1"><g transform="translate(114.155738, 298.569129)"><g><path d="M 9.007812 0.414062 C 13.832031 0.414062 16.6875 -1.855469 16.6875 -5.683594 C 16.6875 -8.898438 14.609375 -10.785156 9.898438 -11.835938 C 7.402344 -12.390625 6.488281 -13 6.488281 -14 C 6.488281 -14.941406 7.320312 -15.523438 8.621094 -15.523438 C 10.175781 -15.523438 11.0625 -14.71875 11.0625 -13.25 L 16.328125 -13.25 C 16.328125 -17.242188 13.277344 -19.820312 8.511719 -19.820312 C 3.9375 -19.820312 1.109375 -17.546875 1.109375 -13.886719 C 1.109375 -10.617188 3.242188 -8.59375 7.625 -7.761719 C 9.980469 -7.289062 11.117188 -6.570312 11.117188 -5.460938 C 11.117188 -4.492188 10.285156 -3.9375 8.925781 -3.9375 C 7.320312 -3.9375 6.375 -4.796875 6.375 -6.292969 L 0.96875 -6.292969 C 0.96875 -2.105469 3.964844 0.414062 9.007812 0.414062 Z M 9.007812 0.414062 "/></g></g></g><g fill="#000000" fill-opacity="1"><g transform="translate(131.86616, 298.569129)"><g><path d="M 11.503906 0.414062 C 17.6875 0.414062 22.066406 -3.769531 22.066406 -9.703125 C 22.066406 -15.636719 17.6875 -19.820312 11.503906 -19.820312 C 5.324219 -19.820312 0.941406 -15.636719 0.941406 -9.703125 C 0.941406 -3.769531 5.324219 0.414062 11.503906 0.414062 Z M 6.625 -9.703125 C 6.625 -12.613281 8.648438 -14.636719 11.503906 -14.636719 C 14.386719 -14.636719 16.382812 -12.613281 16.382812 -9.703125 C 16.382812 -6.792969 14.386719 -4.769531 11.503906 -4.769531 C 8.648438 -4.769531 6.625 -6.792969 6.625 -9.703125 Z M 6.625 -9.703125 "/></g></g></g><g fill="#000000" fill-opacity="1"><g transform="translate(154.898024, 298.569129)"><g><path d="M 10.394531 0.414062 C 15.636719 0.414062 18.878906 -2.773438 18.878906 -7.984375 L 18.878906 -19.40625 L 13.304688 -19.40625 L 13.304688 -8.34375 C 13.304688 -6.042969 12.335938 -4.824219 10.394531 -4.824219 C 8.457031 -4.824219 7.484375 -6.042969 7.484375 -8.34375 L 7.484375 -19.40625 L 1.886719 -19.40625 L 1.886719 -7.984375 C 1.886719 -2.773438 5.15625 0.414062 10.394531 0.414062 Z M 10.394531 0.414062 "/></g></g></g><g fill="#000000" fill-opacity="1"><g transform="translate(175.68491, 298.569129)"><g/></g></g><g fill="#000000" fill-opacity="1"><g transform="translate(182.087271, 298.569129)"><g><path d="M 11.503906 0.414062 C 17.6875 0.414062 22.066406 -3.769531 22.066406 -9.703125 C 22.066406 -15.636719 17.6875 -19.820312 11.503906 -19.820312 C 5.324219 -19.820312 0.941406 -15.636719 0.941406 -9.703125 C 0.941406 -3.769531 5.324219 0.414062 11.503906 0.414062 Z M 6.625 -9.703125 C 6.625 -12.613281 8.648438 -14.636719 11.503906 -14.636719 C 14.386719 -14.636719 16.382812 -12.613281 16.382812 -9.703125 C 16.382812 -6.792969 14.386719 -4.769531 11.503906 -4.769531 C 8.648438 -4.769531 6.625 -6.792969 6.625 -9.703125 Z M 6.625 -9.703125 "/></g></g></g><g fill="#000000" fill-opacity="1"><g transform="translate(205.119126, 298.569129)"><g/></g></g><g fill="#000000" fill-opacity="1"><g transform="translate(211.521477, 298.569129)"><g><path d="M 0.886719 0 L 4.296875 0 C 9.316406 0 12.085938 -2.578125 12.085938 -7.484375 L 12.085938 -19.40625 L 6.488281 -19.40625 L 6.488281 -7.929688 C 6.488281 -5.988281 5.683594 -5.183594 3.824219 -5.183594 L 0.886719 -5.183594 Z M 0.886719 0 "/></g></g></g><g fill="#000000" fill-opacity="1"><g transform="translate(225.62885, 298.569129)"><g><path d="M 11.503906 0.414062 C 17.6875 0.414062 22.066406 -3.769531 22.066406 -9.703125 C 22.066406 -15.636719 17.6875 -19.820312 11.503906 -19.820312 C 5.324219 -19.820312 0.941406 -15.636719 0.941406 -9.703125 C 0.941406 -3.769531 5.324219 0.414062 11.503906 0.414062 Z M 6.625 -9.703125 C 6.625 -12.613281 8.648438 -14.636719 11.503906 -14.636719 C 14.386719 -14.636719 16.382812 -12.613281 16.382812 -9.703125 C 16.382812 -6.792969 14.386719 -4.769531 11.503906 -4.769531 C 8.648438 -4.769531 6.625 -6.792969 6.625 -9.703125 Z M 6.625 -9.703125 "/></g></g></g><g fill="#000000" fill-opacity="1"><g transform="translate(248.660714, 298.569129)"><g><path d="M 2.050781 0 L 7.652344 0 L 7.652344 -5.515625 L 9.757812 -5.515625 L 12.53125 0 L 18.878906 0 L 15.300781 -6.542969 C 17.355469 -7.679688 18.519531 -9.730469 18.519531 -12.445312 C 18.519531 -16.742188 15.605469 -19.40625 10.894531 -19.40625 L 2.050781 -19.40625 Z M 7.539062 -9.980469 L 7.539062 -14.832031 L 10.144531 -14.832031 C 11.921875 -14.832031 12.890625 -13.972656 12.890625 -12.417969 C 12.890625 -10.867188 11.921875 -9.980469 10.144531 -9.980469 Z M 7.539062 -9.980469 "/></g></g></g><g fill="#000000" fill-opacity="1"><g transform="translate(268.616133, 298.569129)"><g><path d="M 2.050781 0 L 10.285156 0 C 16.550781 0 20.707031 -3.851562 20.707031 -9.703125 C 20.707031 -15.523438 16.550781 -19.40625 10.285156 -19.40625 L 2.050781 -19.40625 Z M 7.652344 -5.019531 L 7.652344 -14.386719 L 10.117188 -14.386719 C 13.085938 -14.386719 14.996094 -12.558594 14.996094 -9.703125 C 14.996094 -6.847656 13.085938 -5.019531 10.117188 -5.019531 Z M 7.652344 -5.019531 "/></g></g></g><g fill="#000000" fill-opacity="1"><g transform="translate(290.262206, 298.569129)"><g><path d="M 0.136719 0 L 6.070312 0 L 7.125 -2.746094 L 13.75 -2.746094 L 14.804688 0 L 20.761719 0 L 13.222656 -19.40625 L 7.679688 -19.40625 Z M 8.289062 -6.847656 L 10.449219 -12.863281 L 12.613281 -6.847656 Z M 8.289062 -6.847656 "/></g></g></g><g fill="#000000" fill-opacity="1"><g transform="translate(311.159953, 298.569129)"><g><path d="M 2.050781 0 L 7.597656 0 L 7.597656 -9.898438 L 14.96875 0 L 19.515625 0 L 19.515625 -19.40625 L 14 -19.40625 L 14 -9.5625 L 6.625 -19.40625 L 2.050781 -19.40625 Z M 2.050781 0 "/></g></g></g><g fill="#000000" fill-opacity="1"><g transform="translate(68.530774, 317.913613)"><g><path d="M 0.972656 0 L 3.605469 0 L 3.605469 -4.671875 L 5.382812 -2.183594 L 7.109375 -2.183594 L 8.871094 -4.660156 L 8.871094 0 L 11.503906 0 L 11.503906 -9.214844 L 9.34375 -9.214844 L 6.238281 -4.832031 L 3.144531 -9.214844 L 0.972656 -9.214844 Z M 0.972656 0 "/></g></g></g><g fill="#000000" fill-opacity="1"><g transform="translate(81.66507, 317.913613)"><g><path d="M 0.0664062 0 L 2.882812 0 L 3.382812 -1.304688 L 6.527344 -1.304688 L 7.027344 0 L 9.859375 0 L 6.277344 -9.214844 L 3.644531 -9.214844 Z M 3.9375 -3.25 L 4.960938 -6.105469 L 5.988281 -3.25 Z M 3.9375 -3.25 "/></g></g></g><g fill="#000000" fill-opacity="1"><g transform="translate(92.246292, 317.913613)"><g><path d="M 4.277344 0.199219 C 6.566406 0.199219 7.921875 -0.882812 7.921875 -2.699219 C 7.921875 -4.226562 6.9375 -5.121094 4.699219 -5.621094 C 3.515625 -5.882812 3.078125 -6.171875 3.078125 -6.648438 C 3.078125 -7.09375 3.476562 -7.371094 4.09375 -7.371094 C 4.832031 -7.371094 5.25 -6.988281 5.25 -6.292969 L 7.753906 -6.292969 C 7.753906 -8.1875 6.304688 -9.410156 4.039062 -9.410156 C 1.867188 -9.410156 0.527344 -8.332031 0.527344 -6.59375 C 0.527344 -5.042969 1.539062 -4.082031 3.621094 -3.683594 C 4.738281 -3.460938 5.277344 -3.121094 5.277344 -2.59375 C 5.277344 -2.132812 4.882812 -1.867188 4.238281 -1.867188 C 3.476562 -1.867188 3.027344 -2.277344 3.027344 -2.988281 L 0.460938 -2.988281 C 0.460938 -1 1.882812 0.199219 4.277344 0.199219 Z M 4.277344 0.199219 "/></g></g></g><g fill="#000000" fill-opacity="1"><g transform="translate(101.314089, 317.913613)"><g/></g></g><g fill="#000000" fill-opacity="1"><g transform="translate(105.012536, 317.913613)"><g><path d="M 0.972656 0 L 3.605469 0 L 3.605469 -4.671875 L 5.382812 -2.183594 L 7.109375 -2.183594 L 8.871094 -4.660156 L 8.871094 0 L 11.503906 0 L 11.503906 -9.214844 L 9.34375 -9.214844 L 6.238281 -4.832031 L 3.144531 -9.214844 L 0.972656 -9.214844 Z M 0.972656 0 "/></g></g></g><g fill="#000000" fill-opacity="1"><g transform="translate(118.146831, 317.913613)"><g><path d="M 0.972656 0 L 7.4375 0 L 7.4375 -2.171875 L 3.605469 -2.171875 L 3.605469 -3.59375 L 6.9375 -3.59375 L 6.9375 -5.726562 L 3.605469 -5.726562 L 3.605469 -7.066406 L 7.292969 -7.066406 L 7.292969 -9.214844 L 0.972656 -9.214844 Z M 0.972656 0 "/></g></g></g><g fill="#000000" fill-opacity="1"><g transform="translate(126.832982, 317.913613)"><g/></g></g><g fill="#000000" fill-opacity="1"><g transform="translate(130.531432, 317.913613)"><g><path d="M 0.0664062 0 L 2.882812 0 L 3.382812 -1.304688 L 6.527344 -1.304688 L 7.027344 0 L 9.859375 0 L 6.277344 -9.214844 L 3.644531 -9.214844 Z M 3.9375 -3.25 L 4.960938 -6.105469 L 5.988281 -3.25 Z M 3.9375 -3.25 "/></g></g></g><g fill="#000000" fill-opacity="1"><g transform="translate(141.112655, 317.913613)"><g><path d="M 0.972656 0 L 3.632812 0 L 3.632812 -2.621094 L 4.632812 -2.621094 L 5.949219 0 L 8.964844 0 L 7.265625 -3.105469 C 8.238281 -3.644531 8.792969 -4.621094 8.792969 -5.910156 C 8.792969 -7.949219 7.410156 -9.214844 5.171875 -9.214844 L 0.972656 -9.214844 Z M 3.582031 -4.738281 L 3.582031 -7.042969 L 4.816406 -7.042969 C 5.660156 -7.042969 6.121094 -6.632812 6.121094 -5.898438 C 6.121094 -5.160156 5.660156 -4.738281 4.816406 -4.738281 Z M 3.582031 -4.738281 "/></g></g></g><g fill="#000000" fill-opacity="1"><g transform="translate(151.246427, 317.913613)"><g><path d="M 0.972656 0 L 3.632812 0 L 3.632812 -2.621094 L 4.632812 -2.621094 L 5.949219 0 L 8.964844 0 L 7.265625 -3.105469 C 8.238281 -3.644531 8.792969 -4.621094 8.792969 -5.910156 C 8.792969 -7.949219 7.410156 -9.214844 5.171875 -9.214844 L 0.972656 -9.214844 Z M 3.582031 -4.738281 L 3.582031 -7.042969 L 4.816406 -7.042969 C 5.660156 -7.042969 6.121094 -6.632812 6.121094 -5.898438 C 6.121094 -5.160156 5.660156 -4.738281 4.816406 -4.738281 Z M 3.582031 -4.738281 "/></g></g></g><g fill="#000000" fill-opacity="1"><g transform="translate(161.380198, 317.913613)"><g><path d="M 0.972656 0 L 3.632812 0 L 3.632812 -9.214844 L 0.972656 -9.214844 Z M 0.972656 0 "/></g></g></g><g fill="#000000" fill-opacity="1"><g transform="translate(166.644709, 317.913613)"><g><path d="M 4.277344 0.199219 C 6.566406 0.199219 7.921875 -0.882812 7.921875 -2.699219 C 7.921875 -4.226562 6.9375 -5.121094 4.699219 -5.621094 C 3.515625 -5.882812 3.078125 -6.171875 3.078125 -6.648438 C 3.078125 -7.09375 3.476562 -7.371094 4.09375 -7.371094 C 4.832031 -7.371094 5.25 -6.988281 5.25 -6.292969 L 7.753906 -6.292969 C 7.753906 -8.1875 6.304688 -9.410156 4.039062 -9.410156 C 1.867188 -9.410156 0.527344 -8.332031 0.527344 -6.59375 C 0.527344 -5.042969 1.539062 -4.082031 3.621094 -3.683594 C 4.738281 -3.460938 5.277344 -3.121094 5.277344 -2.59375 C 5.277344 -2.132812 4.882812 -1.867188 4.238281 -1.867188 C 3.476562 -1.867188 3.027344 -2.277344 3.027344 -2.988281 L 0.460938 -2.988281 C 0.460938 -1 1.882812 0.199219 4.277344 0.199219 Z M 4.277344 0.199219 "/></g></g></g><g fill="#000000" fill-opacity="1"><g transform="translate(175.712503, 317.913613)"><g><path d="M 5.277344 0.199219 C 7.820312 0.199219 9.742188 -1.34375 10.136719 -3.683594 L 7.4375 -3.683594 C 7.109375 -2.816406 6.332031 -2.265625 5.332031 -2.265625 C 4.039062 -2.265625 3.144531 -3.226562 3.144531 -4.605469 C 3.144531 -6.003906 4.054688 -6.949219 5.355469 -6.949219 C 6.316406 -6.949219 7.121094 -6.410156 7.398438 -5.582031 L 10.082031 -5.582031 C 9.609375 -7.910156 7.714844 -9.410156 5.25 -9.410156 C 2.410156 -9.410156 0.449219 -7.449219 0.449219 -4.605469 C 0.449219 -1.765625 2.410156 0.199219 5.277344 0.199219 Z M 5.277344 0.199219 "/></g></g></g><g fill="#000000" fill-opacity="1"><g transform="translate(186.9254, 317.913613)"><g><path d="M 5.460938 0.199219 C 8.398438 0.199219 10.476562 -1.789062 10.476562 -4.605469 C 10.476562 -7.421875 8.398438 -9.410156 5.460938 -9.410156 C 2.527344 -9.410156 0.449219 -7.421875 0.449219 -4.605469 C 0.449219 -1.789062 2.527344 0.199219 5.460938 0.199219 Z M 3.144531 -4.605469 C 3.144531 -5.988281 4.105469 -6.949219 5.460938 -6.949219 C 6.832031 -6.949219 7.777344 -5.988281 7.777344 -4.605469 C 7.777344 -3.226562 6.832031 -2.265625 5.460938 -2.265625 C 4.105469 -2.265625 3.144531 -3.226562 3.144531 -4.605469 Z M 3.144531 -4.605469 "/></g></g></g><g fill="#000000" fill-opacity="1"><g transform="translate(198.519947, 317.913613)"><g/></g></g><g fill="#000000" fill-opacity="1"><g transform="translate(202.218391, 317.913613)"><g><path d="M 0.972656 0 L 3.605469 0 L 3.605469 -4.699219 L 7.109375 0 L 9.265625 0 L 9.265625 -9.214844 L 6.648438 -9.214844 L 6.648438 -4.542969 L 3.144531 -9.214844 L 0.972656 -9.214844 Z M 0.972656 0 "/></g></g></g><g fill="#000000" fill-opacity="1"><g transform="translate(213.128604, 317.913613)"><g><path d="M 5.460938 0.199219 C 8.398438 0.199219 10.476562 -1.789062 10.476562 -4.605469 C 10.476562 -7.421875 8.398438 -9.410156 5.460938 -9.410156 C 2.527344 -9.410156 0.449219 -7.421875 0.449219 -4.605469 C 0.449219 -1.789062 2.527344 0.199219 5.460938 0.199219 Z M 3.144531 -4.605469 C 3.144531 -5.988281 4.105469 -6.949219 5.460938 -6.949219 C 6.832031 -6.949219 7.777344 -5.988281 7.777344 -4.605469 C 7.777344 -3.226562 6.832031 -2.265625 5.460938 -2.265625 C 4.105469 -2.265625 3.144531 -3.226562 3.144531 -4.605469 Z M 3.144531 -4.605469 "/></g></g></g><g fill="#000000" fill-opacity="1"><g transform="translate(224.72315, 317.913613)"><g/></g></g><g fill="#000000" fill-opacity="1"><g transform="translate(228.421594, 317.913613)"><g><path d="M 0.972656 0 L 5.699219 0 C 7.570312 0 8.871094 -1.054688 8.871094 -2.566406 C 8.871094 -3.539062 8.34375 -4.332031 7.476562 -4.710938 C 8.1875 -5.121094 8.59375 -5.855469 8.59375 -6.738281 C 8.59375 -8.253906 7.382812 -9.214844 5.460938 -9.214844 L 0.972656 -9.214844 Z M 3.582031 -1.972656 L 3.582031 -3.699219 L 5.1875 -3.699219 C 5.816406 -3.699219 6.171875 -3.382812 6.171875 -2.84375 C 6.171875 -2.289062 5.816406 -1.972656 5.1875 -1.972656 Z M 3.582031 -5.59375 L 3.582031 -7.253906 L 4.960938 -7.253906 C 5.582031 -7.253906 5.921875 -6.949219 5.921875 -6.421875 C 5.921875 -5.882812 5.582031 -5.59375 4.960938 -5.59375 Z M 3.582031 -5.59375 "/></g></g></g><g fill="#000000" fill-opacity="1"><g transform="translate(238.331639, 317.913613)"><g><path d="M 0.0664062 0 L 2.882812 0 L 3.382812 -1.304688 L 6.527344 -1.304688 L 7.027344 0 L 9.859375 0 L 6.277344 -9.214844 L 3.644531 -9.214844 Z M 3.9375 -3.25 L 4.960938 -6.105469 L 5.988281 -3.25 Z M 3.9375 -3.25 "/></g></g></g><g fill="#000000" fill-opacity="1"><g transform="translate(248.912857, 317.913613)"><g><path d="M 4.277344 0.199219 C 6.566406 0.199219 7.921875 -0.882812 7.921875 -2.699219 C 7.921875 -4.226562 6.9375 -5.121094 4.699219 -5.621094 C 3.515625 -5.882812 3.078125 -6.171875 3.078125 -6.648438 C 3.078125 -7.09375 3.476562 -7.371094 4.09375 -7.371094 C 4.832031 -7.371094 5.25 -6.988281 5.25 -6.292969 L 7.753906 -6.292969 C 7.753906 -8.1875 6.304688 -9.410156 4.039062 -9.410156 C 1.867188 -9.410156 0.527344 -8.332031 0.527344 -6.59375 C 0.527344 -5.042969 1.539062 -4.082031 3.621094 -3.683594 C 4.738281 -3.460938 5.277344 -3.121094 5.277344 -2.59375 C 5.277344 -2.132812 4.882812 -1.867188 4.238281 -1.867188 C 3.476562 -1.867188 3.027344 -2.277344 3.027344 -2.988281 L 0.460938 -2.988281 C 0.460938 -1 1.882812 0.199219 4.277344 0.199219 Z M 4.277344 0.199219 "/></g></g></g><g fill="#000000" fill-opacity="1"><g transform="translate(257.980652, 317.913613)"><g><path d="M 5.460938 0.199219 L 5.605469 0.199219 L 5.84375 0.75 C 6.332031 1.882812 7.226562 2.460938 8.53125 2.460938 L 9.898438 2.460938 L 9.898438 0.59375 L 9.226562 0.59375 C 8.476562 0.59375 8.277344 0.460938 8.027344 -0.105469 L 7.921875 -0.355469 C 9.488281 -1.117188 10.476562 -2.671875 10.476562 -4.605469 C 10.476562 -7.421875 8.398438 -9.410156 5.460938 -9.410156 C 2.527344 -9.410156 0.449219 -7.421875 0.449219 -4.605469 C 0.449219 -1.789062 2.527344 0.199219 5.460938 0.199219 Z M 3.144531 -4.605469 C 3.144531 -5.988281 4.105469 -6.949219 5.460938 -6.949219 C 6.832031 -6.949219 7.777344 -5.988281 7.777344 -4.605469 C 7.777344 -3.226562 6.832031 -2.265625 5.460938 -2.265625 C 4.105469 -2.265625 3.144531 -3.226562 3.144531 -4.605469 Z M 3.144531 -4.605469 "/></g></g></g><g fill="#000000" fill-opacity="1"><g transform="translate(269.57521, 317.913613)"><g><path d="M 4.9375 0.199219 C 7.421875 0.199219 8.964844 -1.316406 8.964844 -3.789062 L 8.964844 -9.214844 L 6.316406 -9.214844 L 6.316406 -3.960938 C 6.316406 -2.871094 5.855469 -2.289062 4.9375 -2.289062 C 4.015625 -2.289062 3.554688 -2.871094 3.554688 -3.960938 L 3.554688 -9.214844 L 0.894531 -9.214844 L 0.894531 -3.789062 C 0.894531 -1.316406 2.449219 0.199219 4.9375 0.199219 Z M 4.9375 0.199219 "/></g></g></g><g fill="#000000" fill-opacity="1"><g transform="translate(280.103796, 317.913613)"><g><path d="M 0.972656 0 L 7.4375 0 L 7.4375 -2.171875 L 3.605469 -2.171875 L 3.605469 -3.59375 L 6.9375 -3.59375 L 6.9375 -5.726562 L 3.605469 -5.726562 L 3.605469 -7.066406 L 7.292969 -7.066406 L 7.292969 -9.214844 L 0.972656 -9.214844 Z M 0.972656 0 "/></g></g></g><g fill="#000000" fill-opacity="1"><g transform="translate(288.789953, 317.913613)"><g><path d="M 3.171875 0 L 5.816406 0 L 5.816406 -6.753906 L 8.621094 -6.753906 L 8.621094 -9.214844 L 0.367188 -9.214844 L 0.367188 -6.753906 L 3.171875 -6.753906 Z M 3.171875 0 "/></g></g></g><g fill="#000000" fill-opacity="1"><g transform="translate(298.436795, 317.913613)"><g><path d="M 0.972656 0 L 7.4375 0 L 7.4375 -2.171875 L 3.605469 -2.171875 L 3.605469 -3.59375 L 6.9375 -3.59375 L 6.9375 -5.726562 L 3.605469 -5.726562 L 3.605469 -7.066406 L 7.292969 -7.066406 L 7.292969 -9.214844 L 0.972656 -9.214844 Z M 0.972656 0 "/></g></g></g></svg>