<svg xmlns="http://www.w3.org/2000/svg" xmlns:xlink="http://www.w3.org/1999/xlink" width="500" zoomAndPan="magnify" viewBox="0 0 375 374.999991" height="500" preserveAspectRatio="xMidYMid meet" version="1.0"><defs><filter x="0%" y="0%" width="100%" height="100%" id="id1"><feColorMatrix values="0 0 0 0 1 0 0 0 0 1 0 0 0 0 1 0 0 0 1 0" color-interpolation-filters="sRGB"/></filter><mask id="id2"><g filter="url(#id1)"><rect x="-37.5" width="450" fill="#000000" y="-37.499999" height="449.999989" fill-opacity="0.6471"/></g></mask><clipPath id="id3"><path d="M 0.199219 21 L 113.71875 21 L 113.71875 194 L 0.199219 194 Z M 0.199219 21 " clip-rule="nonzero"/></clipPath><clipPath id="id4"><path d="M 18 0.457031 L 92 0.457031 L 92 179 L 18 179 Z M 18 0.457031 " clip-rule="nonzero"/></clipPath><clipPath id="id5"><rect x="0" width="114" y="0" height="195"/></clipPath><clipPath id="id6"><path d="M 158 315 L 172 315 L 172 328.667969 L 158 328.667969 Z M 158 315 " clip-rule="nonzero"/></clipPath><clipPath id="id7"><path d="M 261 143.558594 L 281 143.558594 L 281 165 L 261 165 Z M 261 143.558594 " clip-rule="nonzero"/></clipPath><clipPath id="id8"><path d="M 270 161 L 284.472656 161 L 284.472656 177 L 270 177 Z M 270 161 " clip-rule="nonzero"/></clipPath></defs><g mask="url(#id2)"><g transform="matrix(1, 0, 0, 1, 91, 46)"><g clip-path="url(#id5)"><path fill="#004aad" d="M 107.207031 78.339844 L 102.703125 114.328125 L 90.191406 124.324219 L 83.957031 103.132812 C 83.957031 103.132812 87.683594 107.332031 90.191406 107.332031 C 92.691406 107.332031 93.195312 104.835938 94.195312 100.832031 C 95.195312 96.835938 97.695312 91.335938 95.695312 85.839844 C 93.695312 80.339844 81.683594 65.34375 79.175781 62.847656 C 76.667969 60.347656 74.171875 63.347656 74.171875 63.347656 C 74.171875 63.347656 72.671875 54.847656 73.171875 54.847656 C 73.671875 54.847656 80.179688 52.847656 83.183594 54.847656 C 86.183594 56.847656 107.207031 78.339844 107.207031 78.339844 Z M 107.207031 78.339844 " fill-opacity="1" fill-rule="nonzero"/><g clip-path="url(#id3)"><path fill="#8c52ff" d="M 113.171875 96.101562 C 114.53125 86.210938 113.21875 76.734375 105.855469 69.980469 C 99.324219 63.984375 75.828125 34.890625 72.78125 32.128906 C 69.734375 29.371094 68.925781 25.539062 68.925781 21.125 L 37.050781 21.492188 C 37.050781 27.257812 32.75 32.507812 28.652344 36.128906 C 24.558594 39.75 16.242188 48.375 13.015625 52.785156 C 8.625 58.792969 8.75 62.347656 9.058594 69.78125 C 9.3125 75.828125 9.570312 78.304688 10.984375 84.1875 C 12.75 91.546875 17.6875 97.460938 17.6875 109.476562 C 17.6875 122.019531 11 147.917969 3.710938 164.953125 C 0.945312 171.414062 -0.0507812 179.414062 1.53125 186.265625 C 1.847656 187.648438 2.359375 189.023438 3.3125 190.066406 C 5.140625 192.054688 8.109375 192.386719 10.808594 192.558594 C 44.0625 194.734375 58.878906 193.976562 92.164062 192.3125 C 95.042969 192.171875 98.171875 191.929688 100.316406 190.007812 C 101.929688 188.5625 102.691406 186.414062 103.242188 184.324219 C 108.121094 165.902344 99.257812 156.34375 102.601562 137.582031 C 104.054688 129.472656 112.234375 102.960938 113.171875 96.101562 Z M 97.214844 107.703125 C 94.996094 115.3125 88.566406 111.371094 81.765625 99.578125 C 77.050781 91.410156 74.492188 72.5 74.164062 60.984375 C 74.082031 58.070312 77.742188 56.707031 79.59375 58.964844 C 85.574219 66.261719 94.78125 77.476562 98.589844 82.011719 C 104.453125 88.984375 99.429688 100.09375 97.214844 107.703125 Z M 97.214844 107.703125 " fill-opacity="1" fill-rule="nonzero"/></g><g clip-path="url(#id4)"><path fill="#004aad" d="M 52.570312 25.144531 L 33.414062 25.144531 L 33.414062 20.710938 L 35.742188 20.710938 L 35.742188 5.875 C 35.742188 2.878906 38.167969 0.457031 41.167969 0.457031 L 63.988281 0.457031 C 66.984375 0.457031 69.414062 2.878906 69.414062 5.875 L 69.414062 20.710938 L 71.738281 20.710938 L 71.738281 25.144531 Z M 89.453125 151.15625 C 86.773438 145.746094 80.386719 146.515625 74.160156 132.75 C 70.53125 124.738281 67.890625 117.269531 65.984375 110.191406 C 58.558594 147.527344 23.066406 157.542969 23.066406 157.542969 C 21.875 161.054688 20.53125 164.765625 19.023438 168.828125 C 18.46875 170.332031 17.902344 171.972656 18.382812 173.5 C 19.25 176.265625 22.773438 176.964844 25.671875 177.160156 C 46.074219 178.515625 62.515625 178.234375 82.875 176.328125 C 84.679688 176.160156 86.605469 175.929688 87.992188 174.757812 C 89.640625 173.359375 90.066406 171.03125 90.390625 168.898438 C 91.289062 162.941406 92.128906 156.550781 89.453125 151.15625 Z M 89.453125 151.15625 " fill-opacity="1" fill-rule="nonzero"/></g><path fill="#ffffff" d="M 65.984375 110.191406 C 58.558594 147.527344 23.066406 157.542969 23.066406 157.542969 C 27.925781 143.289062 30.328125 132.351562 31.164062 114.78125 C 31.339844 111.078125 31.324219 102.832031 30.757812 99.167969 C 29.460938 90.859375 25.820312 83.789062 23.472656 75.714844 C 22.621094 72.792969 21.605469 64.03125 23.210938 61.445312 C 25.183594 58.273438 33.214844 55.820312 33.214844 55.820312 C 37.984375 54.179688 41.042969 53.28125 45.976562 52.230469 C 49.507812 51.480469 53.421875 50.941406 56.539062 52.761719 C 59.121094 54.273438 60.628906 57.171875 61.214844 60.101562 C 61.800781 63.03125 61.601562 66.054688 61.527344 69.042969 C 61.210938 81.886719 61.925781 95.144531 65.984375 110.191406 Z M 65.984375 110.191406 " fill-opacity="1" fill-rule="nonzero"/><path fill="#ffffff" d="M 64.964844 8.320312 L 64.964844 20.925781 L 62.351562 20.925781 L 62.351562 8.320312 C 62.351562 7.605469 62.941406 7.015625 63.660156 7.015625 C 64.378906 7.019531 64.964844 7.605469 64.964844 8.320312 Z M 55.820312 7.019531 C 55.105469 7.019531 54.515625 7.605469 54.515625 8.328125 L 54.515625 20.933594 L 57.125 20.933594 L 57.125 8.328125 C 57.128906 7.605469 56.542969 7.019531 55.820312 7.019531 Z M 47.988281 7.019531 C 47.269531 7.019531 46.679688 7.605469 46.679688 8.328125 L 46.679688 20.933594 L 49.289062 20.933594 L 49.289062 8.328125 C 49.296875 7.605469 48.707031 7.019531 47.988281 7.019531 Z M 40.152344 7.019531 C 39.4375 7.019531 38.84375 7.605469 38.84375 8.328125 L 38.84375 20.933594 L 41.457031 20.933594 L 41.457031 8.328125 C 41.460938 7.605469 40.867188 7.019531 40.152344 7.019531 Z M 40.152344 7.019531 " fill-opacity="1" fill-rule="nonzero"/></g></g></g><path fill="#e36cbc" d="M 204.078125 180.371094 C 203.609375 180.371094 203.230469 179.992188 203.230469 179.523438 L 203.230469 163.078125 C 203.230469 157.03125 208.152344 152.113281 214.210938 152.113281 L 223.070312 152.113281 C 229.121094 152.113281 234.042969 157.03125 234.042969 163.078125 L 234.042969 179.523438 C 234.042969 179.992188 233.664062 180.371094 233.195312 180.371094 L 204.078125 180.371094 " fill-opacity="1" fill-rule="nonzero"/><path fill="#19153d" d="M 223.070312 151.261719 L 214.210938 151.261719 C 207.691406 151.261719 202.382812 156.5625 202.382812 163.078125 L 202.382812 179.523438 C 202.382812 180.453125 203.144531 181.21875 204.078125 181.21875 L 233.195312 181.21875 C 234.136719 181.21875 234.894531 180.453125 234.894531 179.523438 L 234.894531 163.078125 C 234.894531 156.5625 229.589844 151.261719 223.070312 151.261719 Z M 223.070312 152.960938 C 228.664062 152.960938 233.195312 157.492188 233.195312 163.078125 L 233.195312 179.523438 L 204.078125 179.523438 L 204.078125 163.078125 C 204.078125 157.492188 208.617188 152.960938 214.210938 152.960938 L 223.070312 152.960938 " fill-opacity="1" fill-rule="nonzero"/><path fill="#e03ea7" d="M 225.441406 153.25 C 226.136719 154.625 226.539062 156.171875 226.539062 157.8125 L 226.539062 174.253906 L 204.078125 174.253906 L 204.078125 179.523438 L 233.195312 179.523438 L 233.195312 163.078125 C 233.195312 158.308594 229.890625 154.324219 225.441406 153.25 " fill-opacity="1" fill-rule="nonzero"/><path fill="#65549d" d="M 197.425781 191.101562 C 196.878906 191.101562 196.433594 190.660156 196.433594 190.113281 L 196.433594 183.101562 C 196.433594 180.585938 198.488281 178.53125 201.007812 178.53125 L 236.269531 178.53125 C 238.785156 178.53125 240.839844 180.585938 240.839844 183.101562 L 240.839844 190.113281 C 240.839844 190.660156 240.398438 191.101562 239.851562 191.101562 L 197.425781 191.101562 " fill-opacity="1" fill-rule="nonzero"/><path fill="#19153d" d="M 236.269531 177.542969 L 201.007812 177.542969 C 197.9375 177.542969 195.449219 180.035156 195.449219 183.101562 L 195.449219 190.113281 C 195.449219 191.203125 196.332031 192.085938 197.425781 192.085938 L 239.851562 192.085938 C 240.941406 192.085938 241.832031 191.203125 241.832031 190.113281 L 241.832031 183.101562 C 241.832031 180.035156 239.335938 177.542969 236.269531 177.542969 Z M 236.269531 179.523438 C 238.242188 179.523438 239.851562 181.121094 239.851562 183.101562 L 239.851562 190.113281 L 197.425781 190.113281 L 197.425781 183.101562 C 197.425781 181.121094 199.03125 179.523438 201.007812 179.523438 L 236.269531 179.523438 " fill-opacity="1" fill-rule="nonzero"/><path fill="#504595" d="M 236.269531 179.523438 L 231.125 179.523438 L 231.125 186 L 197.425781 186 L 197.425781 190.113281 L 239.851562 190.113281 L 239.851562 183.101562 C 239.851562 181.121094 238.25 179.523438 236.269531 179.523438 " fill-opacity="1" fill-rule="nonzero"/><path fill="#1db4cc" d="M 249.105469 214.6875 C 248.140625 214.6875 247.21875 214.988281 246.4375 215.558594 C 244.421875 217.023438 243.980469 219.855469 245.449219 221.875 C 245.582031 222.0625 259.414062 241.25 252.214844 262.039062 C 251.402344 264.398438 252.652344 266.976562 255.011719 267.796875 C 255.492188 267.960938 255.996094 268.046875 256.496094 268.046875 C 258.425781 268.046875 260.140625 266.824219 260.773438 264.996094 C 269.503906 239.804688 253.4375 217.464844 252.753906 216.527344 C 251.90625 215.375 250.542969 214.6875 249.105469 214.6875 Z M 188.296875 309.132812 C 188.085938 309.132812 187.882812 309.054688 187.730469 308.910156 C 175.671875 298.117188 169.03125 277.441406 169.03125 250.695312 C 169.03125 223.601562 179.480469 200.691406 196.976562 189.398438 C 197.113281 189.308594 197.277344 189.261719 197.441406 189.261719 L 239.851562 189.261719 C 239.988281 189.261719 240.121094 189.296875 240.242188 189.359375 C 260.976562 200.058594 274.371094 224.613281 274.371094 251.910156 C 274.371094 275.023438 264.800781 296.34375 248.765625 308.945312 C 248.609375 309.066406 248.429688 309.132812 248.238281 309.132812 L 188.296875 309.132812 " fill-opacity="1" fill-rule="nonzero"/><path fill="#19153d" d="M 256.496094 267.195312 C 256.085938 267.195312 255.683594 267.128906 255.285156 266.992188 C 253.371094 266.332031 252.351562 264.234375 253.015625 262.316406 C 260.347656 241.160156 246.273438 221.570312 246.125 221.371094 C 244.945312 219.738281 245.300781 217.4375 246.9375 216.242188 C 247.574219 215.78125 248.324219 215.539062 249.105469 215.539062 C 250.285156 215.539062 251.367188 216.078125 252.070312 217.03125 C 252.742188 217.957031 268.558594 239.929688 259.96875 264.726562 C 259.453125 266.203125 258.054688 267.199219 256.496094 267.199219 Z M 239.851562 188.414062 L 197.441406 188.414062 C 197.113281 188.414062 196.789062 188.511719 196.519531 188.6875 C 178.777344 200.136719 168.183594 223.3125 168.183594 250.695312 C 168.183594 277.683594 174.921875 298.589844 187.164062 309.546875 C 187.476562 309.820312 187.878906 309.980469 188.296875 309.980469 L 248.238281 309.980469 C 248.617188 309.980469 248.992188 309.851562 249.285156 309.613281 C 265.527344 296.851562 275.222656 275.277344 275.222656 251.910156 C 275.222656 224.296875 261.644531 199.445312 240.632812 188.609375 C 240.386719 188.476562 240.121094 188.414062 239.851562 188.414062 Z M 256.496094 268.894531 C 258.71875 268.894531 260.800781 267.496094 261.578125 265.28125 C 270.460938 239.632812 254.132812 216.980469 253.433594 216.027344 C 252.378906 214.597656 250.757812 213.839844 249.105469 213.839844 C 248.003906 213.839844 246.890625 214.175781 245.933594 214.875 C 243.539062 216.617188 243.015625 219.980469 244.757812 222.371094 C 244.894531 222.566406 258.425781 241.527344 251.414062 261.765625 C 250.4375 264.566406 251.925781 267.625 254.734375 268.597656 C 255.316406 268.796875 255.90625 268.894531 256.496094 268.894531 M 239.851562 190.113281 C 259.648438 200.324219 273.523438 224.148438 273.523438 251.910156 C 273.523438 275.554688 263.449219 296.328125 248.238281 308.285156 L 188.296875 308.285156 C 175.257812 296.609375 169.878906 274.332031 169.878906 250.695312 C 169.878906 223.097656 180.792969 200.855469 197.441406 190.113281 L 239.851562 190.113281 " fill-opacity="1" fill-rule="nonzero"/><path fill="#1677b4" d="M 243.972656 192.496094 C 249.988281 200.542969 254.40625 210.371094 256.648438 221.242188 C 261.144531 229.519531 268.042969 246.605469 261.578125 265.28125 C 260.800781 267.496094 258.71875 268.894531 256.496094 268.894531 C 255.910156 268.894531 255.316406 268.796875 254.734375 268.597656 C 253.902344 268.3125 253.195312 267.835938 252.625 267.25 C 248.1875 278.15625 241.382812 287.398438 233.027344 293.96875 L 177.992188 293.96875 C 180.679688 299.632812 184.085938 304.511719 188.296875 308.285156 L 248.238281 308.285156 C 263.449219 296.328125 273.523438 275.554688 273.523438 251.910156 C 273.523438 226.117188 261.542969 203.738281 243.972656 192.496094 " fill-opacity="1" fill-rule="nonzero"/><path fill="#bae4e9" d="M 210.238281 287.601562 C 205.246094 287.601562 198.789062 287.324219 193.152344 285.136719 C 186.902344 282.71875 184.355469 276.519531 182.988281 272.070312 C 181.023438 265.683594 180.023438 258.296875 180.023438 250.121094 C 180.023438 247.601562 180.175781 245.128906 180.464844 242.773438 C 181.855469 231.503906 185.289062 223.199219 190.671875 218.082031 C 194.28125 214.65625 200.300781 212.101562 206.773438 211.242188 C 208.453125 211.019531 210.128906 210.90625 211.753906 210.90625 C 216.097656 210.90625 220.230469 211.703125 224.039062 213.269531 C 237.378906 218.769531 245.996094 233.535156 245.996094 250.878906 C 245.996094 255.441406 244.984375 260.433594 244.09375 264.273438 C 242.203125 272.457031 238.628906 278.527344 233.460938 282.328125 C 227.925781 286.390625 220.800781 287.394531 215.792969 287.511719 C 214.105469 287.558594 212.1875 287.601562 210.238281 287.601562 " fill-opacity="1" fill-rule="nonzero"/><path fill="#19153d" d="M 211.753906 210.058594 C 210.089844 210.058594 208.378906 210.175781 206.660156 210.402344 C 200.015625 211.28125 193.820312 213.921875 190.089844 217.464844 C 184.5625 222.71875 181.035156 231.199219 179.621094 242.664062 C 179.324219 245.054688 179.171875 247.5625 179.171875 250.121094 C 179.171875 258.382812 180.1875 265.851562 182.179688 272.320312 C 183.597656 276.9375 186.253906 283.375 192.847656 285.929688 C 198.605469 288.160156 205.171875 288.449219 210.238281 288.449219 C 212.199219 288.449219 214.203125 288.40625 215.816406 288.359375 C 220.945312 288.242188 228.253906 287.210938 233.964844 283.003906 C 239.300781 279.085938 242.984375 272.84375 244.921875 264.464844 C 245.820312 260.582031 246.84375 255.527344 246.84375 250.878906 C 246.84375 233.1875 238.023438 218.121094 224.367188 212.488281 C 220.453125 210.878906 216.210938 210.058594 211.753906 210.058594 Z M 211.753906 211.753906 C 216.121094 211.753906 220.121094 212.574219 223.714844 214.054688 C 237.316406 219.660156 245.148438 234.75 245.148438 250.878906 C 245.148438 255.1875 244.238281 259.898438 243.269531 264.082031 C 241.71875 270.804688 238.65625 277.453125 232.957031 281.644531 C 228.121094 285.199219 221.703125 286.523438 215.777344 286.667969 C 213.972656 286.710938 212.113281 286.753906 210.238281 286.753906 C 204.539062 286.753906 198.636719 286.351562 193.457031 284.34375 C 188.058594 282.253906 185.414062 277.0625 183.800781 271.820312 C 181.679688 264.9375 180.871094 257.3125 180.871094 250.121094 C 180.871094 247.703125 181.007812 245.28125 181.308594 242.878906 C 182.335938 234.5 184.921875 224.714844 191.253906 218.699219 C 195.21875 214.9375 201.550781 212.789062 206.886719 212.082031 C 208.550781 211.863281 210.179688 211.753906 211.753906 211.753906 " fill-opacity="1" fill-rule="nonzero"/><path fill="#57c6f2" d="M 226.582031 215.425781 C 230 221.777344 231.832031 229.328125 231.832031 237.117188 C 231.832031 241.425781 230.914062 246.136719 229.953125 250.320312 C 228.398438 257.042969 225.339844 263.691406 219.648438 267.882812 C 214.808594 271.4375 208.386719 272.761719 202.453125 272.90625 C 196.429688 273.054688 189.789062 273.191406 183.773438 271.714844 C 183.78125 271.75 183.792969 271.78125 183.800781 271.820312 C 185.414062 277.0625 188.058594 282.253906 193.457031 284.34375 C 200.34375 287.019531 208.503906 286.84375 215.777344 286.667969 C 221.703125 286.523438 228.121094 285.199219 232.957031 281.644531 C 238.65625 277.453125 241.71875 270.804688 243.269531 264.082031 C 244.238281 259.898438 245.148438 255.1875 245.148438 250.878906 C 245.148438 235.914062 238.402344 221.859375 226.582031 215.425781 " fill-opacity="1" fill-rule="nonzero"/><path fill="#e36cbc" d="M 148.96875 318.738281 C 146.226562 318.738281 143.984375 316.515625 143.960938 313.78125 L 139.914062 273.484375 C 139.886719 273.246094 139.964844 273.007812 140.128906 272.835938 C 140.285156 272.652344 140.515625 272.550781 140.753906 272.550781 L 191.851562 272.550781 C 192.085938 272.550781 192.320312 272.652344 192.484375 272.835938 C 192.640625 273.007812 192.722656 273.246094 192.691406 273.484375 L 188.648438 313.78125 C 188.625 316.515625 186.382812 318.738281 183.636719 318.738281 L 148.96875 318.738281 " fill-opacity="1" fill-rule="nonzero"/><path fill="#19153d" d="M 191.851562 275.097656 L 191.855469 275.097656 Z M 191.855469 271.703125 L 140.753906 271.703125 C 140.277344 271.703125 139.820312 271.90625 139.496094 272.261719 C 139.175781 272.621094 139.019531 273.09375 139.066406 273.570312 L 143.113281 313.824219 C 143.164062 317.007812 145.773438 319.585938 148.96875 319.585938 L 183.632812 319.585938 C 186.835938 319.585938 189.445312 317.007812 189.488281 313.824219 L 193.53125 273.644531 C 193.542969 273.5625 193.546875 273.484375 193.546875 273.398438 C 193.546875 272.464844 192.789062 271.703125 191.855469 271.703125 Z M 191.851562 273.398438 L 187.796875 313.734375 C 187.796875 316.03125 185.9375 317.890625 183.632812 317.890625 L 148.96875 317.890625 C 146.671875 317.890625 144.8125 316.03125 144.8125 313.734375 L 140.753906 273.398438 L 191.855469 273.398438 " fill-opacity="1" fill-rule="nonzero"/><path fill="#e03ea7" d="M 184.804688 273.398438 L 181.246094 308.792969 C 181.246094 311.089844 179.386719 312.949219 177.089844 312.949219 L 144.730469 312.949219 L 144.8125 313.734375 C 144.8125 316.03125 146.671875 317.890625 148.96875 317.890625 L 183.636719 317.890625 C 185.9375 317.890625 187.796875 316.03125 187.796875 313.734375 L 191.851562 273.398438 L 184.804688 273.398438 " fill-opacity="1" fill-rule="nonzero"/><path fill="#bae4e9" d="M 156.207031 289.050781 C 155.457031 289.050781 154.316406 288.683594 153.785156 288.089844 C 152.835938 287.03125 152.558594 285.582031 152.472656 284.816406 C 152.375 283.925781 152.46875 283.054688 152.550781 282.214844 L 152.570312 282.015625 C 152.574219 281.964844 152.625 281.070312 152.636719 280.851562 C 152.089844 280.964844 151.554688 281.019531 151.046875 281.019531 C 149.203125 281.019531 147.652344 280.292969 146.558594 278.914062 C 145.484375 277.5625 144.894531 275.597656 144.917969 273.394531 C 144.917969 272.929688 145.296875 272.550781 145.765625 272.550781 L 163.152344 272.550781 C 163.308594 272.550781 163.699219 272.601562 163.957031 273.039062 C 164.386719 273.785156 164.855469 277.65625 163.609375 279.8125 C 163.027344 280.824219 162.140625 281.355469 161.042969 281.355469 C 160.820312 281.355469 160.601562 281.335938 160.367188 281.292969 C 159.191406 281.078125 158.394531 280.054688 158.097656 279.015625 C 157.769531 279.558594 157.5625 280.195312 157.539062 280.816406 C 157.519531 281.394531 157.652344 281.980469 157.78125 282.605469 L 157.878906 283.035156 C 158.144531 284.242188 158.449219 285.617188 158.246094 286.953125 C 158.082031 288 157.621094 288.664062 156.882812 288.9375 C 156.683594 289.011719 156.457031 289.050781 156.207031 289.050781 " fill-opacity="1" fill-rule="nonzero"/><path fill="#19153d" d="M 163.152344 271.703125 L 145.761719 271.703125 C 144.832031 271.703125 144.074219 272.457031 144.0625 273.386719 C 144.046875 275.820312 144.679688 277.910156 145.890625 279.445312 C 147.152344 281.027344 148.9375 281.871094 151.046875 281.871094 C 151.273438 281.871094 151.5 281.859375 151.730469 281.839844 C 151.730469 281.886719 151.726562 281.925781 151.726562 281.949219 L 151.710938 282.128906 C 151.625 282.972656 151.523438 283.925781 151.628906 284.90625 C 151.71875 285.777344 152.046875 287.421875 153.15625 288.660156 C 153.875 289.460938 155.269531 289.898438 156.207031 289.898438 C 156.558594 289.898438 156.886719 289.839844 157.175781 289.734375 C 157.898438 289.46875 158.824219 288.789062 159.082031 287.078125 C 159.308594 285.589844 158.992188 284.136719 158.710938 282.859375 L 158.648438 282.574219 L 158.613281 282.429688 C 158.511719 281.964844 158.421875 281.550781 158.398438 281.167969 C 158.867188 281.636719 159.480469 281.992188 160.214844 282.125 C 160.492188 282.179688 160.773438 282.203125 161.042969 282.203125 C 162.644531 282.203125 163.90625 281.320312 164.613281 279.710938 C 165.144531 278.488281 165.257812 277.035156 165.257812 276.035156 C 165.257812 273 164.628906 271.703125 163.152344 271.703125 Z M 163.152344 273.398438 C 163.53125 273.398438 164.46875 280.507812 161.042969 280.507812 C 160.878906 280.507812 160.707031 280.488281 160.519531 280.457031 C 159.582031 280.285156 158.941406 279.300781 158.835938 278.386719 C 158.789062 277.980469 158.789062 277.566406 158.777344 277.152344 C 157.539062 277.859375 156.738281 279.414062 156.6875 280.789062 C 156.667969 281.523438 156.832031 282.21875 156.988281 282.9375 C 157.261719 284.175781 157.601562 285.542969 157.402344 286.820312 C 157.324219 287.347656 157.128906 287.941406 156.585938 288.144531 C 156.480469 288.183594 156.351562 288.203125 156.207031 288.203125 C 155.589844 288.203125 154.730469 287.875 154.417969 287.523438 C 153.746094 286.78125 153.425781 285.703125 153.316406 284.722656 C 153.21875 283.855469 153.328125 282.964844 153.417969 282.101562 C 153.433594 281.890625 153.527344 279.742188 153.617188 279.714844 C 152.675781 280.027344 151.816406 280.171875 151.046875 280.171875 C 149.371094 280.171875 148.097656 279.496094 147.222656 278.386719 C 146.238281 277.148438 145.75 275.367188 145.761719 273.398438 L 163.152344 273.398438 " fill-opacity="1" fill-rule="nonzero"/><path fill="#57c6f2" d="M 156.6875 280.789062 C 156.722656 279.992188 157 279.132812 157.476562 278.414062 C 157.171875 278.03125 156.976562 277.542969 156.921875 277.074219 C 156.875 276.660156 154.828125 278.097656 154.777344 279.476562 C 154.753906 280.210938 154.917969 280.90625 155.078125 281.625 C 155.34375 282.863281 155.6875 284.234375 155.488281 285.511719 C 155.410156 286.035156 155.21875 286.628906 154.675781 286.828125 C 154.488281 286.902344 154.226562 286.902344 153.949219 286.855469 C 154.085938 287.097656 154.238281 287.324219 154.417969 287.523438 C 154.804688 287.957031 156.019531 288.355469 156.585938 288.144531 C 157.128906 287.941406 157.324219 287.347656 157.402344 286.820312 C 157.601562 285.542969 157.261719 284.175781 156.988281 282.9375 C 156.832031 282.21875 156.667969 281.523438 156.6875 280.789062 " fill-opacity="1" fill-rule="nonzero"/><path fill="#57c6f2" d="M 163.152344 273.398438 L 161.574219 273.398438 C 161.804688 275.46875 161.605469 279.25 159.066406 279.1875 C 159.34375 279.8125 159.859375 280.335938 160.519531 280.457031 C 164.554688 281.203125 163.546875 273.398438 163.152344 273.398438 " fill-opacity="1" fill-rule="nonzero"/><path fill="#1db4cc" d="M 166.304688 314.085938 C 163.101562 314.085938 160.492188 311.484375 160.492188 308.285156 C 160.492188 305.085938 163.101562 302.476562 166.304688 302.476562 C 169.507812 302.476562 172.117188 305.085938 172.117188 308.285156 C 172.117188 311.484375 169.507812 314.085938 166.304688 314.085938 " fill-opacity="1" fill-rule="nonzero"/><path fill="#19153d" d="M 166.304688 301.628906 C 162.632812 301.628906 159.644531 304.613281 159.644531 308.285156 C 159.644531 311.949219 162.632812 314.933594 166.304688 314.933594 C 169.976562 314.933594 172.964844 311.949219 172.964844 308.285156 C 172.964844 304.613281 169.976562 301.628906 166.304688 301.628906 Z M 166.304688 303.324219 C 169.042969 303.324219 171.265625 305.542969 171.265625 308.285156 C 171.265625 311.019531 169.042969 313.238281 166.304688 313.238281 C 163.558594 313.238281 161.339844 311.019531 161.339844 308.285156 C 161.339844 305.542969 163.558594 303.324219 166.304688 303.324219 " fill-opacity="1" fill-rule="nonzero"/><path fill="#1db4cc" d="M 136.648438 322.898438 C 131.863281 322.898438 127.964844 319.003906 127.964844 314.222656 C 127.964844 309.433594 131.863281 305.542969 136.648438 305.542969 C 141.441406 305.542969 145.335938 309.433594 145.335938 314.222656 C 145.335938 319.003906 141.441406 322.898438 136.648438 322.898438 " fill-opacity="1" fill-rule="nonzero"/><path fill="#19153d" d="M 136.648438 304.695312 C 131.394531 304.695312 127.117188 308.96875 127.117188 314.222656 C 127.117188 319.472656 131.394531 323.746094 136.648438 323.746094 C 141.90625 323.746094 146.1875 319.472656 146.1875 314.222656 C 146.1875 308.96875 141.90625 304.695312 136.648438 304.695312 Z M 136.648438 306.390625 C 140.976562 306.390625 144.488281 309.894531 144.488281 314.222656 C 144.488281 318.546875 140.976562 322.050781 136.648438 322.050781 C 132.320312 322.050781 128.8125 318.546875 128.8125 314.222656 C 128.8125 309.894531 132.320312 306.390625 136.648438 306.390625 " fill-opacity="1" fill-rule="nonzero"/><path fill="#1db4cc" d="M 153.9375 325.261719 C 149.152344 325.261719 145.253906 321.375 145.253906 316.589844 C 145.253906 311.808594 149.152344 307.910156 153.9375 307.910156 C 158.726562 307.910156 162.625 311.808594 162.625 316.589844 C 162.625 321.375 158.726562 325.261719 153.9375 325.261719 " fill-opacity="1" fill-rule="nonzero"/><path fill="#19153d" d="M 153.9375 307.0625 C 148.679688 307.0625 144.402344 311.335938 144.402344 316.589844 C 144.402344 321.84375 148.679688 326.109375 153.9375 326.109375 C 159.195312 326.109375 163.46875 321.84375 163.46875 316.589844 C 163.46875 311.335938 159.195312 307.0625 153.9375 307.0625 Z M 153.9375 308.757812 C 158.269531 308.757812 161.769531 312.265625 161.769531 316.589844 C 161.769531 320.914062 158.269531 324.414062 153.9375 324.414062 C 149.609375 324.414062 146.101562 320.914062 146.101562 316.589844 C 146.101562 312.265625 149.609375 308.757812 153.9375 308.757812 " fill-opacity="1" fill-rule="nonzero"/><path fill="#1677b4" d="M 168.238281 304.953125 C 168.238281 307.691406 166.015625 309.914062 163.277344 309.914062 C 162.660156 309.914062 162.066406 309.792969 161.523438 309.585938 C 162.09375 311.695312 164.019531 313.238281 166.304688 313.238281 C 166.53125 313.238281 166.761719 313.21875 166.984375 313.1875 C 167.828125 312.503906 168.8125 311.992188 169.886719 311.703125 C 170.742188 310.8125 171.265625 309.609375 171.265625 308.285156 C 171.265625 306.164062 169.933594 304.359375 168.058594 303.648438 C 168.171875 304.066406 168.238281 304.5 168.238281 304.953125 " fill-opacity="1" fill-rule="nonzero"/><path fill="#1db4cc" d="M 164.917969 327.859375 C 161.714844 327.859375 159.105469 325.25 159.105469 322.050781 C 159.105469 318.851562 161.714844 316.246094 164.917969 316.246094 C 168.125 316.246094 170.730469 318.851562 170.730469 322.050781 C 170.730469 325.25 168.125 327.859375 164.917969 327.859375 " fill-opacity="1" fill-rule="nonzero"/><g clip-path="url(#id6)"><path fill="#19153d" d="M 164.917969 315.398438 C 161.246094 315.398438 158.257812 318.382812 158.257812 322.050781 C 158.257812 325.722656 161.246094 328.707031 164.917969 328.707031 C 168.589844 328.707031 171.578125 325.722656 171.578125 322.050781 C 171.578125 318.382812 168.589844 315.398438 164.917969 315.398438 Z M 164.917969 317.09375 C 167.664062 317.09375 169.878906 319.316406 169.878906 322.050781 C 169.878906 324.789062 167.664062 327.011719 164.917969 327.011719 C 162.179688 327.011719 159.953125 324.789062 159.953125 322.050781 C 159.953125 319.316406 162.179688 317.09375 164.917969 317.09375 " fill-opacity="1" fill-rule="nonzero"/></g><path fill="#1677b4" d="M 166.851562 318.722656 C 166.851562 321.457031 164.632812 323.679688 161.894531 323.679688 C 161.273438 323.679688 160.683594 323.5625 160.136719 323.359375 C 160.714844 325.457031 162.632812 327.011719 164.917969 327.011719 C 165.148438 327.011719 165.375 326.988281 165.597656 326.953125 C 166.441406 326.269531 167.425781 325.761719 168.503906 325.472656 C 169.355469 324.578125 169.878906 323.375 169.878906 322.050781 C 169.878906 319.929688 168.546875 318.128906 166.671875 317.414062 C 166.785156 317.832031 166.851562 318.269531 166.851562 318.722656 " fill-opacity="1" fill-rule="nonzero"/><path fill="#1db4cc" d="M 146.875 312.195312 C 143.671875 312.195312 141.0625 309.589844 141.0625 306.390625 C 141.0625 303.191406 143.671875 300.582031 146.875 300.582031 C 150.078125 300.582031 152.6875 303.191406 152.6875 306.390625 C 152.6875 309.589844 150.078125 312.195312 146.875 312.195312 " fill-opacity="1" fill-rule="nonzero"/><path fill="#19153d" d="M 146.875 299.734375 C 143.203125 299.734375 140.214844 302.722656 140.214844 306.390625 C 140.214844 310.058594 143.203125 313.046875 146.875 313.046875 C 150.550781 313.046875 153.535156 310.058594 153.535156 306.390625 C 153.535156 302.722656 150.550781 299.734375 146.875 299.734375 Z M 146.875 301.433594 C 149.617188 301.433594 151.839844 303.652344 151.839844 306.390625 C 151.839844 309.125 149.617188 311.347656 146.875 311.347656 C 144.136719 311.347656 141.914062 309.125 141.914062 306.390625 C 141.914062 303.652344 144.136719 301.433594 146.875 301.433594 " fill-opacity="1" fill-rule="nonzero"/><path fill="#1677b4" d="M 148.8125 303.066406 C 148.8125 305.800781 146.585938 308.019531 143.847656 308.019531 C 143.230469 308.019531 142.644531 307.898438 142.09375 307.695312 C 142.671875 309.800781 144.589844 311.347656 146.875 311.347656 C 147.109375 311.347656 147.335938 311.328125 147.554688 311.296875 C 148.398438 310.609375 149.382812 310.097656 150.464844 309.8125 C 151.3125 308.921875 151.839844 307.71875 151.839844 306.390625 C 151.839844 304.269531 150.503906 302.464844 148.628906 301.757812 C 148.742188 302.171875 148.8125 302.609375 148.8125 303.066406 " fill-opacity="1" fill-rule="nonzero"/><path fill="#1677b4" d="M 143.078125 313.261719 C 143.078125 312.304688 143.261719 311.394531 143.570312 310.546875 C 142.902344 309.289062 141.898438 308.25 140.683594 307.515625 C 141.175781 308.539062 141.460938 309.679688 141.460938 310.890625 C 141.460938 315.214844 137.953125 318.722656 133.625 318.722656 C 132.144531 318.722656 130.765625 318.308594 129.589844 317.597656 C 130.851562 320.226562 133.53125 322.050781 136.648438 322.050781 C 140.019531 322.050781 142.886719 319.921875 143.996094 316.933594 C 143.40625 315.839844 143.078125 314.589844 143.078125 313.261719 " fill-opacity="1" fill-rule="nonzero"/><path fill="#1677b4" d="M 157.972656 309.882812 C 158.464844 310.90625 158.75 312.050781 158.75 313.261719 C 158.75 317.585938 155.242188 321.089844 150.910156 321.089844 C 149.433594 321.089844 148.058594 320.671875 146.875 319.964844 C 148.136719 322.59375 150.820312 324.414062 153.9375 324.414062 C 158.269531 324.414062 161.777344 320.914062 161.777344 316.589844 C 161.777344 313.742188 160.25 311.257812 157.972656 309.882812 " fill-opacity="1" fill-rule="nonzero"/><path fill="#1db4cc" d="M 145.207031 255.859375 C 142.800781 255.859375 140.839844 253.90625 140.839844 251.5 C 140.839844 249.09375 142.800781 247.136719 145.207031 247.136719 C 147.613281 247.136719 149.570312 249.09375 149.570312 251.5 C 149.570312 253.90625 147.613281 255.859375 145.207031 255.859375 " fill-opacity="1" fill-rule="nonzero"/><path fill="#19153d" d="M 145.207031 246.289062 C 142.332031 246.289062 139.992188 248.628906 139.992188 251.5 C 139.992188 254.367188 142.332031 256.710938 145.207031 256.710938 C 148.082031 256.710938 150.417969 254.367188 150.417969 251.5 C 150.417969 248.628906 148.082031 246.289062 145.207031 246.289062 Z M 145.207031 247.984375 C 147.148438 247.984375 148.722656 249.5625 148.722656 251.5 C 148.722656 253.441406 147.148438 255.011719 145.207031 255.011719 C 143.261719 255.011719 141.691406 253.441406 141.691406 251.5 C 141.691406 249.5625 143.261719 247.984375 145.207031 247.984375 " fill-opacity="1" fill-rule="nonzero"/><path fill="#1db4cc" d="M 153.484375 247.464844 C 151.082031 247.464844 149.121094 245.503906 149.121094 243.101562 C 149.121094 240.695312 151.082031 238.742188 153.484375 238.742188 C 155.890625 238.742188 157.847656 240.695312 157.847656 243.101562 C 157.847656 245.503906 155.890625 247.464844 153.484375 247.464844 " fill-opacity="1" fill-rule="nonzero"/><path fill="#19153d" d="M 153.484375 237.894531 C 150.617188 237.894531 148.273438 240.226562 148.273438 243.101562 C 148.273438 245.972656 150.617188 248.3125 153.484375 248.3125 C 156.359375 248.3125 158.699219 245.972656 158.699219 243.101562 C 158.699219 240.226562 156.359375 237.894531 153.484375 237.894531 Z M 153.484375 239.589844 C 155.425781 239.589844 157 241.160156 157 243.101562 C 157 245.039062 155.425781 246.617188 153.484375 246.617188 C 151.546875 246.617188 149.972656 245.039062 149.972656 243.101562 C 149.972656 241.160156 151.546875 239.589844 153.484375 239.589844 " fill-opacity="1" fill-rule="nonzero"/><path fill="#1db4cc" d="M 155.523438 263.4375 C 151.996094 263.4375 149.121094 260.570312 149.121094 257.042969 C 149.121094 253.519531 151.996094 250.652344 155.523438 250.652344 C 159.054688 250.652344 161.925781 253.519531 161.925781 257.042969 C 161.925781 260.570312 159.054688 263.4375 155.523438 263.4375 " fill-opacity="1" fill-rule="nonzero"/><path fill="#19153d" d="M 155.523438 249.804688 C 151.527344 249.804688 148.273438 253.050781 148.273438 257.042969 C 148.273438 261.039062 151.527344 264.285156 155.523438 264.285156 C 159.523438 264.285156 162.773438 261.039062 162.773438 257.042969 C 162.773438 253.050781 159.523438 249.804688 155.523438 249.804688 Z M 155.523438 251.5 C 158.589844 251.5 161.074219 253.984375 161.074219 257.042969 C 161.074219 260.105469 158.589844 262.589844 155.523438 262.589844 C 152.457031 262.589844 149.972656 260.105469 149.972656 257.042969 C 149.972656 253.984375 152.457031 251.5 155.523438 251.5 " fill-opacity="1" fill-rule="nonzero"/><path fill="#1677b4" d="M 158.382812 252.300781 C 158.730469 253.023438 158.929688 253.832031 158.929688 254.691406 C 158.929688 257.75 156.445312 260.230469 153.378906 260.230469 C 152.332031 260.230469 151.359375 259.9375 150.519531 259.433594 C 151.414062 261.300781 153.316406 262.589844 155.523438 262.589844 C 158.589844 262.589844 161.074219 260.105469 161.074219 257.042969 C 161.074219 255.03125 159.996094 253.265625 158.382812 252.300781 " fill-opacity="1" fill-rule="nonzero"/><path fill="#1677b4" d="M 154.859375 240.742188 C 154.859375 242.6875 153.28125 244.253906 151.339844 244.253906 C 150.90625 244.253906 150.488281 244.175781 150.101562 244.027344 C 150.503906 245.515625 151.867188 246.617188 153.484375 246.617188 C 155.425781 246.617188 157 245.039062 157 243.101562 C 157 241.601562 156.054688 240.324219 154.730469 239.820312 C 154.808594 240.113281 154.859375 240.425781 154.859375 240.742188 " fill-opacity="1" fill-rule="nonzero"/><path fill="#1677b4" d="M 148.710938 251.695312 C 148.714844 251.632812 148.722656 251.5625 148.722656 251.5 C 148.722656 249.996094 147.777344 248.71875 146.445312 248.21875 C 146.53125 248.511719 146.578125 248.820312 146.578125 249.144531 C 146.578125 251.082031 145.003906 252.65625 143.0625 252.65625 C 142.621094 252.65625 142.203125 252.570312 141.816406 252.421875 C 142.222656 253.917969 143.582031 255.011719 145.207031 255.011719 C 146.300781 255.011719 147.273438 254.515625 147.917969 253.734375 C 148.042969 252.996094 148.320312 252.304688 148.710938 251.695312 " fill-opacity="1" fill-rule="nonzero"/><path fill="#93dcf8" d="M 137.710938 200.875 C 138.15625 203.097656 140.542969 206.582031 144.789062 208.375 C 140.542969 210.160156 138.15625 213.644531 137.710938 215.871094 C 137.269531 213.644531 134.878906 210.160156 130.636719 208.375 C 134.882812 206.582031 137.269531 203.097656 137.710938 200.875 " fill-opacity="1" fill-rule="nonzero"/><path stroke-linecap="round" transform="matrix(0.0565918, 0, 0, -0.0565393, 85.757065, 355.918805)" fill="none" stroke-linejoin="round" d="M 918.046143 2742.228302 C 925.914997 2702.916632 968.089292 2641.289199 1043.119503 2609.577325 C 968.089292 2578.003629 925.914997 2516.376196 918.046143 2476.995437 C 910.246314 2516.376196 868.002994 2578.003629 793.041808 2609.577325 C 868.072019 2641.289199 910.246314 2702.916632 918.046143 2742.228302 Z M 918.046143 2742.228302 " stroke="#19153d" stroke-width="30" stroke-opacity="1" stroke-miterlimit="10"/><path fill="#93dcf8" d="M 131.863281 212.636719 C 132.054688 213.597656 133.085938 215.101562 134.914062 215.871094 C 133.085938 216.640625 132.054688 218.144531 131.863281 219.097656 C 131.671875 218.144531 130.644531 216.640625 128.8125 215.871094 C 130.644531 215.101562 131.671875 213.597656 131.863281 212.636719 " fill-opacity="1" fill-rule="nonzero"/><path stroke-linecap="round" transform="matrix(0.0565918, 0, 0, -0.0565393, 85.757065, 355.918805)" fill="none" stroke-linejoin="round" d="M 814.715669 2534.201171 C 818.097895 2517.205264 836.320504 2490.60598 868.624219 2476.995437 C 836.320504 2463.384894 818.097895 2436.78561 814.715669 2419.927881 C 811.333442 2436.78561 793.179858 2463.384894 760.807118 2476.995437 C 793.179858 2490.60598 811.333442 2517.205264 814.715669 2534.201171 Z M 814.715669 2534.201171 " stroke="#19153d" stroke-width="30" stroke-opacity="1" stroke-miterlimit="10"/><path fill="#93dcf8" d="M 142.511719 215.027344 C 142.820312 216.539062 144.4375 218.902344 147.316406 220.117188 C 144.4375 221.332031 142.820312 223.695312 142.511719 225.207031 C 142.214844 223.695312 140.59375 221.332031 137.710938 220.117188 C 140.59375 218.902344 142.214844 216.539062 142.511719 215.027344 " fill-opacity="1" fill-rule="nonzero"/><path stroke-linecap="round" transform="matrix(0.0565918, 0, 0, -0.0565393, 85.757065, 355.918805)" fill="none" stroke-linejoin="round" d="M 1002.877909 2491.918672 C 1008.330886 2465.181209 1036.90725 2423.382334 1087.778699 2401.895639 C 1036.90725 2380.408944 1008.330886 2338.610069 1002.877909 2311.872606 C 997.632006 2338.610069 968.986617 2380.408944 918.046143 2401.895639 C 968.986617 2423.382334 997.632006 2465.181209 1002.877909 2491.918672 Z M 1002.877909 2491.918672 " stroke="#19153d" stroke-width="30" stroke-opacity="1" stroke-miterlimit="10"/><path fill="#93dcf8" d="M 271.167969 144.425781 C 271.730469 147.238281 274.75 151.648438 280.128906 153.914062 C 274.75 156.175781 271.730469 160.589844 271.167969 163.402344 C 270.609375 160.589844 267.585938 156.175781 262.214844 153.914062 C 267.585938 151.648438 270.609375 147.238281 271.167969 144.425781 " fill-opacity="1" fill-rule="nonzero"/><g clip-path="url(#id7)"><path stroke-linecap="round" transform="matrix(0.0565918, 0, 0, -0.0565393, 85.757065, 355.918805)" fill="none" stroke-linejoin="round" d="M 3276.286396 3740.634171 C 3286.226001 3690.890054 3339.582352 3612.888516 3434.629822 3572.816867 C 3339.582352 3532.814307 3286.226001 3454.812769 3276.286396 3404.999563 C 3266.415817 3454.812769 3212.990441 3532.814307 3118.081021 3572.816867 C 3212.990441 3612.888516 3266.415817 3690.890054 3276.286396 3740.634171 Z M 3276.286396 3740.634171 " stroke="#19153d" stroke-width="30" stroke-opacity="1" stroke-miterlimit="10"/></g><path fill="#93dcf8" d="M 263.765625 159.3125 C 264.011719 160.527344 265.3125 162.425781 267.625 163.402344 C 265.3125 164.378906 264.011719 166.28125 263.765625 167.492188 L 263.765625 167.496094 L 263.765625 167.492188 C 263.523438 166.28125 262.222656 164.378906 259.90625 163.402344 C 262.222656 162.425781 263.523438 160.527344 263.765625 159.3125 " fill-opacity="1" fill-rule="nonzero"/><path stroke-linecap="round" transform="matrix(0.0565918, 0, 0, -0.0565393, 85.757065, 355.918805)" fill="none" stroke-linejoin="round" d="M 3145.483959 3477.404888 C 3149.832536 3455.918194 3172.817872 3422.271826 3213.680691 3404.999563 C 3172.817872 3387.727301 3149.832536 3354.080933 3145.483959 3332.732417 L 3145.483959 3332.594238 L 3145.483959 3332.732417 C 3141.204407 3354.080933 3118.219071 3387.727301 3077.287226 3404.999563 C 3118.219071 3422.271826 3141.204407 3455.918194 3145.483959 3477.404888 Z M 3145.483959 3477.404888 " stroke="#19153d" stroke-width="30" stroke-opacity="1" stroke-miterlimit="10"/><path fill="#93dcf8" d="M 277.253906 162.339844 C 277.632812 164.25 279.6875 167.242188 283.332031 168.78125 C 279.6875 170.316406 277.632812 173.3125 277.253906 175.226562 C 276.867188 173.3125 274.820312 170.316406 271.167969 168.78125 C 274.820312 167.242188 276.867188 164.25 277.253906 162.339844 " fill-opacity="1" fill-rule="nonzero"/><g clip-path="url(#id8)"><path stroke-linecap="round" transform="matrix(0.0565918, 0, 0, -0.0565393, 85.757065, 355.918805)" fill="none" stroke-linejoin="round" d="M 3383.827398 3423.791785 C 3390.522826 3390.007239 3426.829993 3337.085027 3491.230349 3309.93303 C 3426.829993 3282.711944 3390.522826 3229.720642 3383.827398 3195.867007 C 3376.99392 3229.720642 3340.824802 3282.711944 3276.286396 3309.93303 C 3340.824802 3337.085027 3376.99392 3390.007239 3383.827398 3423.791785 Z M 3383.827398 3423.791785 " stroke="#19153d" stroke-width="30" stroke-opacity="1" stroke-miterlimit="10"/></g></svg>