<svg xmlns="http://www.w3.org/2000/svg" xmlns:xlink="http://www.w3.org/1999/xlink" width="500" zoomAndPan="magnify" viewBox="0 0 375 374.999991" height="500" preserveAspectRatio="xMidYMid meet" version="1.0"><defs><clipPath id="id1"><path d="M 269 229 L 270 229 L 270 230 L 269 230 Z M 269 229 " clip-rule="nonzero"/></clipPath><clipPath id="id2"><path d="M 319.070312 227.640625 L 231.8125 230.800781 L 226.640625 88.019531 L 313.898438 84.859375 Z M 319.070312 227.640625 " clip-rule="nonzero"/></clipPath><clipPath id="id3"><path d="M 319.070312 227.640625 L 231.8125 230.800781 L 226.640625 88.019531 L 313.898438 84.859375 Z M 319.070312 227.640625 " clip-rule="nonzero"/></clipPath><clipPath id="id4"><path d="M 283 135 L 317 135 L 317 170 L 283 170 Z M 283 135 " clip-rule="nonzero"/></clipPath><clipPath id="id5"><path d="M 319.070312 227.640625 L 231.8125 230.800781 L 226.640625 88.019531 L 313.898438 84.859375 Z M 319.070312 227.640625 " clip-rule="nonzero"/></clipPath><clipPath id="id6"><path d="M 319.070312 227.640625 L 231.8125 230.800781 L 226.640625 88.019531 L 313.898438 84.859375 Z M 319.070312 227.640625 " clip-rule="nonzero"/></clipPath><clipPath id="id7"><path d="M 288 154 L 296 154 L 296 163 L 288 163 Z M 288 154 " clip-rule="nonzero"/></clipPath><clipPath id="id8"><path d="M 319.070312 227.640625 L 231.8125 230.800781 L 226.640625 88.019531 L 313.898438 84.859375 Z M 319.070312 227.640625 " clip-rule="nonzero"/></clipPath><clipPath id="id9"><path d="M 319.070312 227.640625 L 231.8125 230.800781 L 226.640625 88.019531 L 313.898438 84.859375 Z M 319.070312 227.640625 " clip-rule="nonzero"/></clipPath><clipPath id="id10"><path d="M 286 148 L 291 148 L 291 153 L 286 153 Z M 286 148 " clip-rule="nonzero"/></clipPath><clipPath id="id11"><path d="M 319.070312 227.640625 L 231.8125 230.800781 L 226.640625 88.019531 L 313.898438 84.859375 Z M 319.070312 227.640625 " clip-rule="nonzero"/></clipPath><clipPath id="id12"><path d="M 319.070312 227.640625 L 231.8125 230.800781 L 226.640625 88.019531 L 313.898438 84.859375 Z M 319.070312 227.640625 " clip-rule="nonzero"/></clipPath><clipPath id="id13"><path d="M 229 87 L 279 87 L 279 136 L 229 136 Z M 229 87 " clip-rule="nonzero"/></clipPath><clipPath id="id14"><path d="M 319.070312 227.640625 L 231.8125 230.800781 L 226.640625 88.019531 L 313.898438 84.859375 Z M 319.070312 227.640625 " clip-rule="nonzero"/></clipPath><clipPath id="id15"><path d="M 319.070312 227.640625 L 231.8125 230.800781 L 226.640625 88.019531 L 313.898438 84.859375 Z M 319.070312 227.640625 " clip-rule="nonzero"/></clipPath><clipPath id="id16"><path d="M 279.390625 135.144531 L 230.269531 136.921875 L 228.496094 87.894531 L 277.617188 86.117188 Z M 279.390625 135.144531 " clip-rule="nonzero"/></clipPath><clipPath id="id17"><path d="M 279.390625 135.144531 L 230.269531 136.921875 L 228.496094 87.953125 L 277.617188 86.171875 Z M 279.390625 135.144531 " clip-rule="nonzero"/></clipPath><clipPath id="id18"><path d="M 235 104 L 243 104 L 243 118 L 235 118 Z M 235 104 " clip-rule="nonzero"/></clipPath><clipPath id="id19"><path d="M 319.070312 227.640625 L 231.8125 230.800781 L 226.640625 88.019531 L 313.898438 84.859375 Z M 319.070312 227.640625 " clip-rule="nonzero"/></clipPath><clipPath id="id20"><path d="M 319.070312 227.640625 L 231.8125 230.800781 L 226.640625 88.019531 L 313.898438 84.859375 Z M 319.070312 227.640625 " clip-rule="nonzero"/></clipPath><clipPath id="id21"><path d="M 239 96 L 246 96 L 246 103 L 239 103 Z M 239 96 " clip-rule="nonzero"/></clipPath><clipPath id="id22"><path d="M 319.070312 227.640625 L 231.8125 230.800781 L 226.640625 88.019531 L 313.898438 84.859375 Z M 319.070312 227.640625 " clip-rule="nonzero"/></clipPath><clipPath id="id23"><path d="M 319.070312 227.640625 L 231.8125 230.800781 L 226.640625 88.019531 L 313.898438 84.859375 Z M 319.070312 227.640625 " clip-rule="nonzero"/></clipPath><clipPath id="id24"><path d="M 229 157 L 266 157 L 266 193 L 229 193 Z M 229 157 " clip-rule="nonzero"/></clipPath><clipPath id="id25"><path d="M 319.070312 227.640625 L 231.8125 230.800781 L 226.640625 88.019531 L 313.898438 84.859375 Z M 319.070312 227.640625 " clip-rule="nonzero"/></clipPath><clipPath id="id26"><path d="M 319.070312 227.640625 L 231.8125 230.800781 L 226.640625 88.019531 L 313.898438 84.859375 Z M 319.070312 227.640625 " clip-rule="nonzero"/></clipPath><clipPath id="id27"><path d="M 265.777344 192.269531 L 230.386719 193.550781 L 229.105469 158.226562 L 264.496094 156.945312 Z M 265.777344 192.269531 " clip-rule="nonzero"/></clipPath><clipPath id="id28"><path d="M 265.777344 192.269531 L 230.535156 193.546875 L 229.253906 158.222656 L 264.496094 156.945312 Z M 265.777344 192.269531 " clip-rule="nonzero"/></clipPath><clipPath id="id29"><path d="M 235 177 L 243 177 L 243 187 L 235 187 Z M 235 177 " clip-rule="nonzero"/></clipPath><clipPath id="id30"><path d="M 319.070312 227.640625 L 231.8125 230.800781 L 226.640625 88.019531 L 313.898438 84.859375 Z M 319.070312 227.640625 " clip-rule="nonzero"/></clipPath><clipPath id="id31"><path d="M 319.070312 227.640625 L 231.8125 230.800781 L 226.640625 88.019531 L 313.898438 84.859375 Z M 319.070312 227.640625 " clip-rule="nonzero"/></clipPath><clipPath id="id32"><path d="M 233 171 L 238 171 L 238 176 L 233 176 Z M 233 171 " clip-rule="nonzero"/></clipPath><clipPath id="id33"><path d="M 319.070312 227.640625 L 231.8125 230.800781 L 226.640625 88.019531 L 313.898438 84.859375 Z M 319.070312 227.640625 " clip-rule="nonzero"/></clipPath><clipPath id="id34"><path d="M 319.070312 227.640625 L 231.8125 230.800781 L 226.640625 88.019531 L 313.898438 84.859375 Z M 319.070312 227.640625 " clip-rule="nonzero"/></clipPath><clipPath id="id35"><path d="M 70.335938 210.695312 L 272 210.695312 L 272 275.949219 L 70.335938 275.949219 Z M 70.335938 210.695312 " clip-rule="nonzero"/></clipPath><clipPath id="id36"><path d="M 110.738281 275.949219 C 110.464844 275.898438 110.1875 275.851562 109.910156 275.789062 C 110.179688 275.691406 110.445312 275.574219 110.703125 275.445312 C 110.710938 275.613281 110.722656 275.78125 110.738281 275.949219 M 144.898438 267.523438 C 144.179688 267.179688 143.378906 266.980469 142.523438 266.980469 C 142.171875 266.980469 141.824219 267.015625 141.480469 267.082031 L 141.484375 267.078125 L 141.480469 267.078125 L 141.488281 267.078125 C 141.050781 263.484375 137.988281 260.699219 134.269531 260.699219 C 131.550781 260.699219 129.1875 262.183594 127.9375 264.386719 C 126.304688 263.535156 124.449219 263.054688 122.480469 263.054688 C 120.035156 263.054688 117.765625 263.792969 115.882812 265.0625 L 115.820312 265.1875 C 114.996094 260.898438 111.257812 257.648438 106.742188 257.5625 C 108.121094 255.402344 108.914062 252.839844 108.914062 250.09375 C 108.914062 249.324219 108.855469 248.570312 108.734375 247.835938 C 111.261719 248.320312 114.023438 248.59375 117.046875 248.59375 C 120.464844 248.59375 124.214844 248.246094 128.34375 247.472656 C 136.378906 245.964844 213.695312 228.621094 242.660156 225.972656 C 261.917969 224.210938 269.125 220.386719 271.878906 215.992188 C 271.921875 215.945312 271.957031 215.898438 272 215.851562 C 271.511719 222.667969 270.785156 233.472656 270.65625 238.828125 C 270.476562 246.460938 260.804688 249.152344 257.019531 250.238281 C 254.402344 250.984375 243.421875 252.039062 231.796875 253.15625 C 223.46875 253.964844 214.851562 254.789062 207.824219 255.632812 C 199.621094 256.621094 189.09375 258.617188 178.171875 261 C 177.875 257.929688 175.386719 255.5 172.285156 255.289062 L 172.304688 255.269531 C 172.304688 250.386719 168.34375 246.429688 163.457031 246.429688 C 158.570312 246.429688 154.613281 250.386719 154.613281 255.269531 C 154.613281 256.347656 154.808594 257.382812 155.164062 258.339844 L 154.613281 258.339844 C 149.417969 258.339844 145.179688 262.40625 144.898438 267.523438 M 97.390625 267.246094 C 96.609375 267.074219 95.796875 266.980469 94.964844 266.980469 C 94.742188 266.980469 94.523438 266.988281 94.304688 267 C 93.261719 265.949219 92.242188 264.796875 91.242188 263.53125 C 92.429688 263.863281 93.671875 264.035156 94.964844 264.035156 C 95.667969 264.035156 96.359375 263.980469 97.03125 263.882812 L 97.847656 263.355469 C 97.382812 264.46875 97.125 265.695312 97.125 266.980469 L 97.390625 267.246094 M 128.027344 264.4375 C 127.996094 264.421875 127.96875 264.40625 127.9375 264.390625 L 128.066406 264.414062 L 128.027344 264.4375 M 163.601562 264.335938 C 163.59375 264.316406 163.589844 264.296875 163.578125 264.277344 L 163.578125 264.28125 L 163.5625 264.101562 C 164.359375 264.089844 165.136719 263.976562 165.871094 263.773438 L 165.875 263.765625 C 165.878906 263.777344 165.882812 263.78125 165.886719 263.792969 C 165.125 263.972656 164.363281 264.15625 163.601562 264.335938 M 81.007812 249.964844 L 73.949219 240.597656 C 70.898438 236.242188 70.335938 233.609375 70.335938 230.019531 L 70.871094 210.695312 C 70.9375 210.824219 70.996094 210.953125 71.0625 211.082031 L 71.117188 211.171875 C 71.433594 211.652344 76.691406 219.632812 81.339844 226.214844 C 83.636719 229.832031 85.757812 232.992188 87.101562 234.582031 C 87.847656 235.46875 88.648438 236.367188 89.511719 237.253906 C 84.550781 239.359375 81.058594 244.253906 81.007812 249.964844 " clip-rule="nonzero"/></clipPath><clipPath id="id37"><path d="M 110.738281 275.949219 C 110.464844 275.898438 110.1875 275.851562 109.910156 275.789062 C 110.179688 275.691406 110.445312 275.574219 110.703125 275.445312 C 110.710938 275.613281 110.722656 275.78125 110.738281 275.949219 M 144.898438 267.523438 C 144.179688 267.179688 143.378906 266.980469 142.523438 266.980469 C 142.171875 266.980469 141.824219 267.015625 141.480469 267.082031 L 141.484375 267.078125 L 141.480469 267.078125 L 141.488281 267.078125 C 141.050781 263.484375 137.988281 260.699219 134.269531 260.699219 C 131.550781 260.699219 129.1875 262.183594 127.9375 264.386719 C 126.304688 263.535156 124.449219 263.054688 122.480469 263.054688 C 120.035156 263.054688 117.765625 263.792969 115.882812 265.0625 L 115.820312 265.1875 C 114.996094 260.898438 111.257812 257.648438 106.742188 257.5625 C 108.121094 255.402344 108.914062 252.839844 108.914062 250.09375 C 108.914062 249.324219 108.855469 248.570312 108.734375 247.835938 C 111.261719 248.320312 114.023438 248.59375 117.046875 248.59375 C 120.464844 248.59375 124.214844 248.246094 128.34375 247.472656 C 136.378906 245.964844 213.695312 228.621094 242.660156 225.972656 C 261.917969 224.210938 269.125 220.386719 271.878906 215.992188 C 271.921875 215.945312 271.957031 215.898438 272 215.851562 C 271.511719 222.667969 270.785156 233.472656 270.65625 238.828125 C 270.476562 246.460938 260.804688 249.152344 257.019531 250.238281 C 254.402344 250.984375 243.421875 252.039062 231.796875 253.15625 C 223.46875 253.964844 214.851562 254.789062 207.824219 255.632812 C 199.621094 256.621094 189.09375 258.617188 178.171875 261 C 177.875 257.929688 175.386719 255.5 172.285156 255.289062 L 172.304688 255.269531 C 172.304688 250.386719 168.34375 246.429688 163.457031 246.429688 C 158.570312 246.429688 154.613281 250.386719 154.613281 255.269531 C 154.613281 256.347656 154.808594 257.382812 155.164062 258.339844 L 154.613281 258.339844 C 149.417969 258.339844 145.179688 262.40625 144.898438 267.523438 M 97.390625 267.246094 C 96.609375 267.074219 95.796875 266.980469 94.964844 266.980469 C 94.742188 266.980469 94.523438 266.988281 94.304688 267 C 93.261719 265.949219 92.242188 264.796875 91.242188 263.53125 C 92.429688 263.863281 93.671875 264.035156 94.964844 264.035156 C 95.667969 264.035156 96.359375 263.980469 97.03125 263.882812 L 97.847656 263.355469 C 97.382812 264.46875 97.125 265.695312 97.125 266.980469 L 97.390625 267.246094 M 128.027344 264.4375 C 127.996094 264.421875 127.96875 264.40625 127.9375 264.390625 L 128.066406 264.414062 L 128.027344 264.4375 M 163.601562 264.335938 C 163.59375 264.316406 163.589844 264.296875 163.578125 264.277344 L 163.578125 264.28125 L 163.5625 264.101562 C 164.359375 264.089844 165.136719 263.976562 165.871094 263.773438 L 165.875 263.765625 C 165.878906 263.777344 165.882812 263.78125 165.886719 263.792969 C 165.125 263.972656 164.363281 264.15625 163.601562 264.335938 M 81.007812 249.964844 L 73.949219 240.597656 C 70.898438 236.242188 70.335938 233.609375 70.335938 230.019531 L 70.871094 210.695312 C 70.9375 210.824219 70.996094 210.953125 71.0625 211.082031 L 71.117188 211.171875 C 71.433594 211.652344 76.691406 219.632812 81.339844 226.214844 C 83.636719 229.832031 85.757812 232.992188 87.101562 234.582031 C 87.847656 235.46875 88.648438 236.367188 89.511719 237.253906 C 84.550781 239.359375 81.058594 244.253906 81.007812 249.964844 " clip-rule="nonzero"/></clipPath><linearGradient x1="0.0046674" gradientTransform="matrix(203.350105, 0, 0, 203.146405, 69.388522, 239.924953)" y1="0" x2="0.996361" gradientUnits="userSpaceOnUse" y2="0" id="id38"><stop stop-opacity="1" stop-color="rgb(92.498779%, 72.198486%, 77.598572%)" offset="0"/><stop stop-opacity="1" stop-color="rgb(92.367554%, 71.650696%, 77.099609%)" offset="0.00390625"/><stop stop-opacity="1" stop-color="rgb(92.237854%, 71.102905%, 76.602173%)" offset="0.0078125"/><stop stop-opacity="1" stop-color="rgb(92.018127%, 70.68634%, 76.185608%)" offset="0.0117188"/><stop stop-opacity="1" stop-color="rgb(91.799927%, 70.269775%, 75.769043%)" offset="0.015625"/><stop stop-opacity="1" stop-color="rgb(91.593933%, 69.628906%, 75.128174%)" offset="0.0195312"/><stop stop-opacity="1" stop-color="rgb(91.387939%, 68.988037%, 74.487305%)" offset="0.0234375"/><stop stop-opacity="1" stop-color="rgb(90.995789%, 68.595886%, 74.09668%)" offset="0.0273438"/><stop stop-opacity="1" stop-color="rgb(90.605164%, 68.205261%, 73.706055%)" offset="0.03125"/><stop stop-opacity="1" stop-color="rgb(90.402222%, 67.663574%, 73.114014%)" offset="0.0351563"/><stop stop-opacity="1" stop-color="rgb(90.19928%, 67.123413%, 72.523499%)" offset="0.0390625"/><stop stop-opacity="1" stop-color="rgb(89.820862%, 66.55426%, 72.003174%)" offset="0.0429688"/><stop stop-opacity="1" stop-color="rgb(89.442444%, 65.985107%, 71.484375%)" offset="0.046875"/><stop stop-opacity="1" stop-color="rgb(89.251709%, 65.571594%, 71.072388%)" offset="0.0507812"/><stop stop-opacity="1" stop-color="rgb(89.060974%, 65.159607%, 70.6604%)" offset="0.0546875"/><stop stop-opacity="1" stop-color="rgb(88.829041%, 64.569092%, 70.068359%)" offset="0.0585938"/><stop stop-opacity="1" stop-color="rgb(88.598633%, 63.978577%, 69.477844%)" offset="0.0625"/><stop stop-opacity="1" stop-color="rgb(88.197327%, 63.337708%, 68.836975%)" offset="0.0664062"/><stop stop-opacity="1" stop-color="rgb(87.797546%, 62.696838%, 68.196106%)" offset="0.0703125"/><stop stop-opacity="1" stop-color="rgb(87.64801%, 62.355042%, 67.852783%)" offset="0.0742188"/><stop stop-opacity="1" stop-color="rgb(87.5%, 62.014771%, 67.510986%)" offset="0.078125"/><stop stop-opacity="1" stop-color="rgb(87.115479%, 61.424255%, 66.921997%)" offset="0.0820312"/><stop stop-opacity="1" stop-color="rgb(86.732483%, 60.83374%, 66.333008%)" offset="0.0859375"/><stop stop-opacity="1" stop-color="rgb(86.541748%, 60.241699%, 65.742493%)" offset="0.0898438"/><stop stop-opacity="1" stop-color="rgb(86.351013%, 59.651184%, 65.151978%)" offset="0.09375"/><stop stop-opacity="1" stop-color="rgb(85.960388%, 59.060669%, 64.559937%)" offset="0.0976562"/><stop stop-opacity="1" stop-color="rgb(85.569763%, 58.470154%, 63.969421%)" offset="0.101562"/><stop stop-opacity="1" stop-color="rgb(85.328674%, 57.878113%, 63.330078%)" offset="0.105469"/><stop stop-opacity="1" stop-color="rgb(85.087585%, 57.287598%, 62.690735%)" offset="0.109375"/><stop stop-opacity="1" stop-color="rgb(84.69696%, 56.700134%, 62.150574%)" offset="0.113281"/><stop stop-opacity="1" stop-color="rgb(84.306335%, 56.112671%, 61.611938%)" offset="0.117188"/><stop stop-opacity="1" stop-color="rgb(84.114075%, 55.717468%, 61.218262%)" offset="0.121094"/><stop stop-opacity="1" stop-color="rgb(83.92334%, 55.323792%, 60.824585%)" offset="0.125"/><stop stop-opacity="1" stop-color="rgb(83.532715%, 54.733276%, 60.232544%)" offset="0.128906"/><stop stop-opacity="1" stop-color="rgb(83.14209%, 54.142761%, 59.642029%)" offset="0.132812"/><stop stop-opacity="1" stop-color="rgb(82.951355%, 53.55072%, 59.051514%)" offset="0.136719"/><stop stop-opacity="1" stop-color="rgb(82.76062%, 52.960205%, 58.460999%)" offset="0.140625"/><stop stop-opacity="1" stop-color="rgb(82.37915%, 52.359009%, 57.859802%)" offset="0.144531"/><stop stop-opacity="1" stop-color="rgb(81.999207%, 51.757812%, 57.258606%)" offset="0.148438"/><stop stop-opacity="1" stop-color="rgb(81.797791%, 51.176453%, 56.67572%)" offset="0.152344"/><stop stop-opacity="1" stop-color="rgb(81.596375%, 50.595093%, 56.09436%)" offset="0.15625"/><stop stop-opacity="1" stop-color="rgb(81.20575%, 50.004578%, 55.503845%)" offset="0.160156"/><stop stop-opacity="1" stop-color="rgb(80.815125%, 49.415588%, 54.914856%)" offset="0.164062"/><stop stop-opacity="1" stop-color="rgb(80.62439%, 48.840332%, 54.324341%)" offset="0.167969"/><stop stop-opacity="1" stop-color="rgb(80.433655%, 48.266602%, 53.733826%)" offset="0.171875"/><stop stop-opacity="1" stop-color="rgb(80.041504%, 47.727966%, 53.167725%)" offset="0.175781"/><stop stop-opacity="1" stop-color="rgb(79.650879%, 47.190857%, 52.603149%)" offset="0.179688"/><stop stop-opacity="1" stop-color="rgb(79.425049%, 46.615601%, 52.070618%)" offset="0.183594"/><stop stop-opacity="1" stop-color="rgb(79.199219%, 46.040344%, 51.539612%)" offset="0.1875"/><stop stop-opacity="1" stop-color="rgb(78.793335%, 45.36438%, 50.863647%)" offset="0.191406"/><stop stop-opacity="1" stop-color="rgb(78.387451%, 44.688416%, 50.187683%)" offset="0.195312"/><stop stop-opacity="1" stop-color="rgb(78.193665%, 44.100952%, 49.60022%)" offset="0.199219"/><stop stop-opacity="1" stop-color="rgb(77.999878%, 43.513489%, 49.012756%)" offset="0.203125"/><stop stop-opacity="1" stop-color="rgb(77.798462%, 43.318176%, 48.817444%)" offset="0.207031"/><stop stop-opacity="1" stop-color="rgb(77.598572%, 43.12439%, 48.623657%)" offset="0.210938"/><stop stop-opacity="1" stop-color="rgb(77.598572%, 43.112183%, 48.61145%)" offset="0.21875"/><stop stop-opacity="1" stop-color="rgb(77.598572%, 43.099976%, 48.599243%)" offset="0.25"/><stop stop-opacity="1" stop-color="rgb(77.598572%, 43.099976%, 48.599243%)" offset="0.5"/><stop stop-opacity="1" stop-color="rgb(77.598572%, 43.099976%, 48.599243%)" offset="0.75"/><stop stop-opacity="1" stop-color="rgb(77.598572%, 43.099976%, 48.599243%)" offset="0.875"/><stop stop-opacity="1" stop-color="rgb(77.598572%, 43.099976%, 48.599243%)" offset="0.9375"/><stop stop-opacity="1" stop-color="rgb(77.613831%, 43.115234%, 48.614502%)" offset="0.945312"/><stop stop-opacity="1" stop-color="rgb(77.815247%, 43.338013%, 48.83728%)" offset="0.949219"/><stop stop-opacity="1" stop-color="rgb(77.999878%, 43.545532%, 49.0448%)" offset="0.953125"/><stop stop-opacity="1" stop-color="rgb(78.213501%, 43.936157%, 49.449158%)" offset="0.957031"/><stop stop-opacity="1" stop-color="rgb(78.427124%, 44.326782%, 49.853516%)" offset="0.960938"/><stop stop-opacity="1" stop-color="rgb(78.817749%, 44.721985%, 50.434875%)" offset="0.964844"/><stop stop-opacity="1" stop-color="rgb(79.208374%, 45.117188%, 51.017761%)" offset="0.96875"/><stop stop-opacity="1" stop-color="rgb(79.794312%, 45.898438%, 51.945496%)" offset="0.972656"/><stop stop-opacity="1" stop-color="rgb(80.381775%, 46.681213%, 52.874756%)" offset="0.976562"/><stop stop-opacity="1" stop-color="rgb(81.253052%, 47.78595%, 54.232788%)" offset="0.980469"/><stop stop-opacity="1" stop-color="rgb(82.125854%, 48.890686%, 55.59082%)" offset="0.984375"/><stop stop-opacity="1" stop-color="rgb(83.094788%, 50.274658%, 57.130432%)" offset="0.988281"/><stop stop-opacity="1" stop-color="rgb(84.063721%, 51.65863%, 58.67157%)" offset="0.992188"/><stop stop-opacity="1" stop-color="rgb(85.180664%, 53.279114%, 60.534668%)" offset="0.996094"/><stop stop-opacity="1" stop-color="rgb(86.299133%, 54.899597%, 62.399292%)" offset="1"/></linearGradient><clipPath id="id39"><path d="M 81.007812 237.253906 L 178.171875 237.253906 L 178.171875 276.320312 L 81.007812 276.320312 Z M 81.007812 237.253906 " clip-rule="nonzero"/></clipPath><clipPath id="id40"><path d="M 115.050781 276.320312 C 113.667969 276.320312 112.21875 276.207031 110.738281 275.949219 C 110.722656 275.78125 110.710938 275.613281 110.703125 275.445312 C 110.445312 275.574219 110.179688 275.691406 109.910156 275.789062 C 104.828125 274.75 99.339844 272.074219 94.304688 267 C 94.523438 266.988281 94.742188 266.980469 94.964844 266.980469 C 95.796875 266.980469 96.609375 267.074219 97.390625 267.246094 L 97.125 266.980469 C 97.125 265.695312 97.382812 264.46875 97.847656 263.355469 L 97.03125 263.882812 C 96.359375 263.980469 95.667969 264.035156 94.964844 264.035156 C 93.671875 264.035156 92.429688 263.863281 91.242188 263.53125 C 91.117188 263.367188 90.984375 263.199219 90.855469 263.03125 L 81.007812 249.964844 C 81.058594 244.253906 84.550781 239.359375 89.511719 237.253906 C 93.898438 241.785156 99.878906 246.128906 108.734375 247.835938 C 108.855469 248.570312 108.914062 249.324219 108.914062 250.09375 C 108.914062 252.839844 108.121094 255.402344 106.742188 257.5625 C 111.257812 257.648438 114.996094 260.898438 115.820312 265.1875 L 115.882812 265.0625 C 117.765625 263.792969 120.035156 263.054688 122.480469 263.054688 C 124.449219 263.054688 126.304688 263.535156 127.9375 264.386719 C 129.1875 262.183594 131.550781 260.699219 134.269531 260.699219 C 137.988281 260.699219 141.050781 263.484375 141.488281 267.078125 L 141.480469 267.078125 L 141.484375 267.078125 L 141.480469 267.082031 C 141.824219 267.015625 142.171875 266.980469 142.523438 266.980469 C 143.378906 266.980469 144.179688 267.179688 144.898438 267.523438 C 145.179688 262.40625 149.417969 258.339844 154.613281 258.339844 L 155.164062 258.339844 C 154.808594 257.382812 154.613281 256.347656 154.613281 255.269531 C 154.613281 250.386719 158.570312 246.429688 163.457031 246.429688 C 168.34375 246.429688 172.304688 250.386719 172.304688 255.269531 L 172.285156 255.289062 C 175.386719 255.5 177.875 257.929688 178.171875 261 C 174.097656 261.890625 169.96875 262.835938 165.886719 263.792969 C 165.882812 263.78125 165.878906 263.777344 165.875 263.765625 L 165.871094 263.773438 C 165.136719 263.976562 164.359375 264.089844 163.5625 264.101562 L 163.578125 264.28125 L 163.578125 264.277344 C 163.589844 264.296875 163.59375 264.316406 163.601562 264.335938 C 144.761719 268.832031 127.324219 273.628906 121.347656 275.4375 C 119.484375 275.996094 117.355469 276.320312 115.050781 276.320312 M 127.9375 264.390625 C 127.96875 264.40625 127.996094 264.421875 128.027344 264.4375 L 128.066406 264.414062 L 127.9375 264.390625 " clip-rule="nonzero"/></clipPath><clipPath id="id41"><path d="M 115.050781 276.320312 C 113.667969 276.320312 112.21875 276.207031 110.738281 275.949219 C 110.722656 275.78125 110.710938 275.613281 110.703125 275.445312 C 110.445312 275.574219 110.179688 275.691406 109.910156 275.789062 C 104.828125 274.75 99.339844 272.074219 94.304688 267 C 94.523438 266.988281 94.742188 266.980469 94.964844 266.980469 C 95.796875 266.980469 96.609375 267.074219 97.390625 267.246094 L 97.125 266.980469 C 97.125 265.695312 97.382812 264.46875 97.847656 263.355469 L 97.03125 263.882812 C 96.359375 263.980469 95.667969 264.035156 94.964844 264.035156 C 93.671875 264.035156 92.429688 263.863281 91.242188 263.53125 C 91.117188 263.367188 90.984375 263.199219 90.855469 263.03125 L 81.007812 249.964844 C 81.058594 244.253906 84.550781 239.359375 89.511719 237.253906 C 93.898438 241.785156 99.878906 246.128906 108.734375 247.835938 C 108.855469 248.570312 108.914062 249.324219 108.914062 250.09375 C 108.914062 252.839844 108.121094 255.402344 106.742188 257.5625 C 111.257812 257.648438 114.996094 260.898438 115.820312 265.1875 L 115.882812 265.0625 C 117.765625 263.792969 120.035156 263.054688 122.480469 263.054688 C 124.449219 263.054688 126.304688 263.535156 127.9375 264.386719 C 129.1875 262.183594 131.550781 260.699219 134.269531 260.699219 C 137.988281 260.699219 141.050781 263.484375 141.488281 267.078125 L 141.480469 267.078125 L 141.484375 267.078125 L 141.480469 267.082031 C 141.824219 267.015625 142.171875 266.980469 142.523438 266.980469 C 143.378906 266.980469 144.179688 267.179688 144.898438 267.523438 C 145.179688 262.40625 149.417969 258.339844 154.613281 258.339844 L 155.164062 258.339844 C 154.808594 257.382812 154.613281 256.347656 154.613281 255.269531 C 154.613281 250.386719 158.570312 246.429688 163.457031 246.429688 C 168.34375 246.429688 172.304688 250.386719 172.304688 255.269531 L 172.285156 255.289062 C 175.386719 255.5 177.875 257.929688 178.171875 261 C 174.097656 261.890625 169.96875 262.835938 165.886719 263.792969 C 165.882812 263.78125 165.878906 263.777344 165.875 263.765625 L 165.871094 263.773438 C 165.136719 263.976562 164.359375 264.089844 163.5625 264.101562 L 163.578125 264.28125 L 163.578125 264.277344 C 163.589844 264.296875 163.59375 264.316406 163.601562 264.335938 C 144.761719 268.832031 127.324219 273.628906 121.347656 275.4375 C 119.484375 275.996094 117.355469 276.320312 115.050781 276.320312 M 127.9375 264.390625 C 127.96875 264.40625 127.996094 264.421875 128.027344 264.4375 L 128.066406 264.414062 L 127.9375 264.390625 " clip-rule="nonzero"/></clipPath><linearGradient x1="0.0571375" gradientTransform="matrix(203.350105, 0, 0, 203.146405, 69.388522, 239.924953)" y1="0" x2="0.534958" gradientUnits="userSpaceOnUse" y2="0" id="id42"><stop stop-opacity="1" stop-color="rgb(98.799133%, 96.499634%, 96.899414%)" offset="0"/><stop stop-opacity="1" stop-color="rgb(98.799133%, 96.495056%, 96.899414%)" offset="0.03125"/><stop stop-opacity="1" stop-color="rgb(98.799133%, 96.296692%, 96.899414%)" offset="0.0625"/><stop stop-opacity="1" stop-color="rgb(98.699951%, 96.101379%, 96.800232%)" offset="0.078125"/><stop stop-opacity="1" stop-color="rgb(98.500061%, 96.099854%, 96.600342%)" offset="0.09375"/><stop stop-opacity="1" stop-color="rgb(98.399353%, 95.99762%, 96.499634%)" offset="0.109375"/><stop stop-opacity="1" stop-color="rgb(98.399353%, 95.796204%, 96.498108%)" offset="0.125"/><stop stop-opacity="1" stop-color="rgb(98.399353%, 95.594788%, 96.395874%)" offset="0.140625"/><stop stop-opacity="1" stop-color="rgb(98.396301%, 95.396423%, 96.194458%)" offset="0.15625"/><stop stop-opacity="1" stop-color="rgb(98.197937%, 95.298767%, 95.898438%)" offset="0.1875"/><stop stop-opacity="1" stop-color="rgb(98.001099%, 95.199585%, 95.700073%)" offset="0.203125"/><stop stop-opacity="1" stop-color="rgb(97.999573%, 95.001221%, 95.698547%)" offset="0.21875"/><stop stop-opacity="1" stop-color="rgb(97.999573%, 94.898987%, 95.597839%)" offset="0.234375"/><stop stop-opacity="1" stop-color="rgb(97.999573%, 94.897461%, 95.397949%)" offset="0.25"/><stop stop-opacity="1" stop-color="rgb(97.999573%, 94.795227%, 95.298767%)" offset="0.265625"/><stop stop-opacity="1" stop-color="rgb(97.996521%, 94.593811%, 95.295715%)" offset="0.28125"/><stop stop-opacity="1" stop-color="rgb(97.798157%, 94.297791%, 95.098877%)" offset="0.3125"/><stop stop-opacity="1" stop-color="rgb(97.601318%, 94.100952%, 94.900513%)" offset="0.375"/><stop stop-opacity="1" stop-color="rgb(97.599792%, 94.099426%, 94.898987%)" offset="0.5"/><stop stop-opacity="1" stop-color="rgb(97.599792%, 94.099426%, 94.898987%)" offset="1"/></linearGradient><clipPath id="id43"><path d="M 199 132.695312 L 217 132.695312 L 217 150 L 199 150 Z M 199 132.695312 " clip-rule="nonzero"/></clipPath><clipPath id="id44"><path d="M 80 235 L 179.390625 235 L 179.390625 290.441406 L 80 290.441406 Z M 80 235 " clip-rule="nonzero"/></clipPath></defs><rect x="-37.5" width="450" fill="#ffffff" y="-37.499999" height="449.999989" fill-opacity="1"/><rect x="-37.5" width="450" fill="#ffffff" y="-37.499999" height="449.999989" fill-opacity="1"/><rect x="-37.5" width="450" fill="#ffffff" y="-37.499999" height="449.999989" fill-opacity="1"/><rect x="-37.5" width="450" fill="#ffffff" y="-37.499999" height="449.999989" fill-opacity="1"/><g clip-path="url(#id1)"><g clip-path="url(#id2)"><g clip-path="url(#id3)"><path fill="#ff66c4" d="M 269.144531 229.417969 C 269.140625 229.429688 269.136719 229.441406 269.132812 229.449219 C 269.136719 229.4375 269.144531 229.421875 269.148438 229.410156 C 269.148438 229.414062 269.148438 229.414062 269.144531 229.417969 " fill-opacity="1" fill-rule="nonzero"/></g></g></g><g clip-path="url(#id4)"><g clip-path="url(#id5)"><g clip-path="url(#id6)"><path fill="#ff66c4" d="M 285.257812 151.253906 C 285.398438 150.003906 285.683594 148.78125 286.105469 147.59375 C 286.554688 146.425781 287.136719 145.316406 287.839844 144.277344 C 288.546875 143.292969 289.351562 142.390625 290.273438 141.59375 C 291.265625 140.773438 292.351562 140.085938 293.515625 139.523438 C 294.691406 138.992188 295.925781 138.605469 297.195312 138.371094 C 298.503906 138.167969 299.820312 138.121094 301.136719 138.226562 C 302.382812 138.367188 303.601562 138.636719 304.785156 139.054688 C 304.917969 139.105469 305.050781 139.15625 305.1875 139.207031 C 305.144531 139.191406 305.101562 139.175781 305.058594 139.160156 C 306.117188 139.585938 307.117188 140.125 308.058594 140.769531 C 309.0625 141.488281 309.972656 142.316406 310.78125 143.246094 C 311.582031 144.21875 312.261719 145.269531 312.816406 146.402344 C 312.863281 146.503906 312.90625 146.609375 312.953125 146.710938 C 312.210938 146.679688 311.46875 146.695312 310.730469 146.785156 C 309.453125 146.945312 308.167969 147.324219 307.109375 148.074219 C 307.007812 148.144531 306.933594 148.214844 306.898438 148.335938 C 306.863281 148.449219 306.878906 148.574219 306.933594 148.675781 C 306.988281 148.777344 307.085938 148.855469 307.199219 148.886719 C 307.304688 148.914062 307.445312 148.910156 307.539062 148.847656 C 307.9375 148.574219 308.367188 148.34375 308.816406 148.160156 C 309.503906 147.898438 310.226562 147.734375 310.957031 147.644531 C 311.738281 147.558594 312.527344 147.558594 313.316406 147.609375 C 313.503906 148.132812 313.671875 148.664062 313.808594 149.203125 C 313.191406 149.117188 312.570312 149.078125 311.949219 149.113281 C 310.898438 149.171875 309.863281 149.425781 308.925781 149.910156 C 308.753906 150 308.695312 150.226562 308.785156 150.390625 C 308.882812 150.566406 309.09375 150.613281 309.265625 150.53125 C 309.402344 150.464844 309.542969 150.402344 309.683594 150.347656 C 310.261719 150.125 310.859375 149.980469 311.472656 149.902344 C 312.25 149.820312 313.027344 149.84375 313.800781 149.953125 C 313.863281 149.964844 313.925781 149.976562 313.988281 149.988281 C 314 150.058594 314.019531 150.125 314.03125 150.195312 C 314.238281 151.492188 314.277344 152.800781 314.171875 154.109375 C 314.042969 155.320312 313.765625 156.503906 313.355469 157.652344 C 313.019531 158.519531 312.617188 159.351562 312.144531 160.148438 C 312.039062 160.234375 311.953125 160.34375 311.871094 160.46875 C 311.808594 160.5625 311.746094 160.65625 311.683594 160.746094 C 310.992188 161.695312 310.230469 162.570312 309.359375 163.359375 C 309.359375 163.363281 309.355469 163.367188 309.351562 163.367188 C 309.289062 163.414062 309.230469 163.460938 309.179688 163.519531 C 309.167969 163.527344 309.160156 163.539062 309.148438 163.546875 C 308.074219 164.4375 306.914062 165.195312 305.65625 165.796875 C 305.039062 166.074219 304.40625 166.308594 303.761719 166.511719 C 303.128906 166.707031 302.480469 166.847656 301.828125 166.964844 C 300.648438 167.152344 299.449219 167.171875 298.261719 167.070312 C 297.03125 166.9375 295.832031 166.671875 294.664062 166.261719 C 293.484375 165.8125 292.363281 165.238281 291.320312 164.527344 C 290.304688 163.800781 289.382812 162.957031 288.566406 162.011719 C 287.785156 161.0625 287.132812 160.03125 286.597656 158.925781 C 286.042969 157.707031 285.648438 156.433594 285.398438 155.117188 C 285.199219 153.835938 285.148438 152.546875 285.257812 151.253906 Z M 283.921875 157.734375 C 284.882812 160.519531 286.59375 163.035156 288.820312 164.96875 C 289.484375 165.546875 290.207031 166.058594 290.949219 166.527344 C 291.703125 167.003906 292.5 167.40625 293.324219 167.746094 C 295.289062 168.5625 297.378906 168.988281 299.503906 169.035156 C 301.566406 169.078125 303.667969 168.710938 305.601562 167.984375 C 307.371094 167.320312 309.007812 166.367188 310.441406 165.144531 C 310.46875 165.125 310.5 165.105469 310.523438 165.082031 C 310.554688 165.058594 310.578125 165.03125 310.605469 165.003906 C 310.640625 164.972656 310.675781 164.941406 310.710938 164.914062 C 310.722656 164.902344 310.734375 164.890625 310.746094 164.878906 C 310.769531 164.855469 310.792969 164.835938 310.816406 164.816406 C 310.835938 164.800781 310.851562 164.785156 310.867188 164.769531 C 310.878906 164.757812 310.890625 164.746094 310.902344 164.734375 C 311.96875 163.75 312.882812 162.628906 313.65625 161.402344 C 313.710938 161.308594 313.746094 161.203125 313.761719 161.089844 C 314.273438 160.253906 314.714844 159.371094 315.070312 158.445312 C 315.386719 157.621094 315.640625 156.78125 315.832031 155.917969 C 315.992188 155.175781 316.089844 154.425781 316.15625 153.671875 C 316.292969 152.382812 316.203125 151.0625 315.984375 149.789062 C 315.761719 148.476562 315.410156 147.195312 314.875 145.972656 C 313.707031 143.28125 311.84375 140.921875 309.472656 139.1875 C 307.398438 137.671875 304.980469 136.625 302.449219 136.179688 C 299.703125 135.695312 296.867188 135.9375 294.234375 136.851562 C 292.929688 137.304688 291.675781 137.929688 290.523438 138.6875 C 289.375 139.441406 288.324219 140.367188 287.390625 141.371094 C 286.441406 142.394531 285.632812 143.5625 284.972656 144.789062 C 284.292969 146.050781 283.800781 147.425781 283.472656 148.820312 C 283.128906 150.273438 283.011719 151.789062 283.074219 153.273438 C 283.140625 154.785156 283.429688 156.304688 283.921875 157.734375 " fill-opacity="1" fill-rule="nonzero"/></g></g></g><g clip-path="url(#id7)"><g clip-path="url(#id8)"><g clip-path="url(#id9)"><path fill="#ff66c4" d="M 288.359375 156.296875 C 288.402344 157.367188 288.882812 158.375 289.402344 159.289062 C 289.644531 159.710938 289.929688 160.109375 290.226562 160.492188 C 290.628906 161.015625 291.0625 161.519531 291.535156 161.980469 C 292.332031 162.757812 293.660156 162.710938 294.476562 162.011719 C 294.539062 161.953125 294.601562 161.894531 294.660156 161.832031 C 295.046875 161.410156 295.253906 160.839844 295.234375 160.269531 C 295.214844 159.660156 294.941406 159.132812 294.511719 158.714844 C 294.363281 158.566406 294.21875 158.414062 294.074219 158.257812 C 293.414062 157.4375 292.828125 156.539062 292.359375 155.597656 C 292.246094 155.253906 292.058594 154.957031 291.789062 154.710938 C 291.394531 154.355469 290.871094 154.164062 290.339844 154.179688 C 289.226562 154.21875 288.320312 155.183594 288.359375 156.296875 " fill-opacity="1" fill-rule="nonzero"/></g></g></g><g clip-path="url(#id10)"><g clip-path="url(#id11)"><g clip-path="url(#id12)"><path fill="#ff66c4" d="M 289.738281 152.53125 C 290.167969 152.164062 290.464844 151.722656 290.539062 151.148438 C 290.613281 150.601562 290.464844 150.039062 290.128906 149.601562 C 289.464844 148.734375 288.058594 148.46875 287.191406 149.214844 C 286.761719 149.582031 286.464844 150.023438 286.386719 150.597656 C 286.316406 151.144531 286.464844 151.703125 286.800781 152.144531 C 287.464844 153.007812 288.871094 153.277344 289.738281 152.53125 " fill-opacity="1" fill-rule="nonzero"/></g></g></g><g clip-path="url(#id13)"><g clip-path="url(#id14)"><g clip-path="url(#id15)"><g clip-path="url(#id16)"><g clip-path="url(#id17)"><path fill="#ff66c4" d="M 274.75 116.519531 C 274.710938 116.679688 274.667969 116.839844 274.628906 117 C 273.800781 116.28125 272.925781 115.621094 271.992188 115.050781 C 270.371094 114.058594 268.542969 113.316406 266.625 113.207031 C 266.445312 113.199219 266.292969 113.207031 266.136719 113.320312 C 265.996094 113.417969 265.898438 113.570312 265.871094 113.742188 C 265.839844 113.910156 265.878906 114.089844 265.980469 114.230469 C 266.074219 114.359375 266.238281 114.484375 266.40625 114.496094 C 267.121094 114.546875 267.824219 114.675781 268.515625 114.875 C 269.554688 115.207031 270.53125 115.679688 271.460938 116.246094 C 272.441406 116.867188 273.355469 117.585938 274.214844 118.367188 C 273.953125 119.148438 273.652344 119.914062 273.316406 120.664062 C 272.683594 120 272.003906 119.386719 271.253906 118.855469 C 269.988281 117.957031 268.554688 117.304688 267.027344 116.996094 C 266.746094 116.941406 266.472656 117.148438 266.425781 117.421875 C 266.375 117.714844 266.574219 117.960938 266.851562 118.027344 C 267.070312 118.074219 267.285156 118.132812 267.5 118.195312 C 268.371094 118.472656 269.195312 118.855469 269.972656 119.332031 C 270.945312 119.945312 271.824219 120.691406 272.609375 121.527344 C 272.675781 121.597656 272.734375 121.667969 272.796875 121.738281 C 272.746094 121.832031 272.703125 121.925781 272.65625 122.019531 C 271.699219 123.703125 270.539062 125.25 269.210938 126.664062 C 267.945312 127.941406 266.53125 129.054688 265 130 C 263.8125 130.695312 262.582031 131.289062 261.300781 131.769531 C 261.097656 131.773438 260.898438 131.820312 260.6875 131.890625 C 260.527344 131.941406 260.371094 131.988281 260.214844 132.039062 C 258.542969 132.496094 256.855469 132.808594 255.125 132.921875 C 255.121094 132.921875 255.113281 132.921875 255.109375 132.921875 C 254.996094 132.914062 254.882812 132.921875 254.769531 132.9375 C 254.75 132.941406 254.730469 132.941406 254.710938 132.941406 C 252.648438 132.984375 250.609375 132.789062 248.601562 132.332031 C 247.636719 132.082031 246.691406 131.773438 245.761719 131.414062 C 244.847656 131.058594 243.96875 130.625 243.109375 130.160156 C 241.574219 129.296875 240.171875 128.214844 238.894531 127.003906 C 237.597656 125.71875 236.457031 124.316406 235.492188 122.765625 C 234.542969 121.164062 233.78125 119.472656 233.234375 117.695312 C 232.730469 115.921875 232.445312 114.101562 232.371094 112.257812 C 232.347656 110.445312 232.546875 108.65625 232.945312 106.890625 C 233.429688 104.976562 234.148438 103.136719 235.078125 101.394531 C 236.027344 99.726562 237.160156 98.195312 238.480469 96.800781 C 239.792969 95.488281 241.246094 94.335938 242.828125 93.355469 C 244.425781 92.421875 246.121094 91.675781 247.890625 91.121094 C 249.617188 90.636719 251.378906 90.335938 253.171875 90.257812 C 255.078125 90.226562 256.964844 90.429688 258.824219 90.847656 C 260.671875 91.320312 262.449219 92.003906 264.132812 92.902344 C 265.832031 93.867188 267.390625 95.023438 268.816406 96.355469 C 270.125 97.660156 271.285156 99.09375 272.261719 100.664062 C 272.367188 100.84375 272.476562 101.027344 272.582031 101.207031 C 272.550781 101.152344 272.515625 101.09375 272.480469 101.039062 C 273.308594 102.5 273.964844 104.042969 274.457031 105.648438 C 274.953125 107.402344 275.238281 109.191406 275.316406 111.011719 C 275.34375 112.867188 275.15625 114.707031 274.75 116.519531 Z M 272.21875 95.199219 C 269.496094 92.113281 266 89.792969 262.121094 88.429688 C 260.199219 87.75 258.171875 87.320312 256.144531 87.136719 C 254.121094 86.949219 252.054688 87.050781 250.050781 87.355469 C 248.011719 87.660156 246.003906 88.269531 244.113281 89.078125 C 242.160156 89.914062 240.324219 91.046875 238.660156 92.351562 C 236.925781 93.714844 235.390625 95.355469 234.09375 97.128906 C 232.777344 98.929688 231.710938 100.953125 230.960938 103.054688 C 229.496094 107.152344 229.15625 111.628906 229.9375 115.90625 C 230.171875 117.183594 230.535156 118.4375 230.960938 119.660156 C 231.394531 120.902344 231.941406 122.101562 232.574219 123.25 C 234.089844 125.996094 236.109375 128.410156 238.519531 130.410156 C 240.859375 132.359375 243.621094 133.863281 246.519531 134.800781 C 249.175781 135.660156 251.941406 136.066406 254.726562 135.976562 C 254.777344 135.976562 254.828125 135.980469 254.878906 135.976562 C 254.9375 135.976562 254.992188 135.96875 255.046875 135.960938 C 255.113281 135.960938 255.183594 135.957031 255.25 135.953125 C 255.273438 135.949219 255.300781 135.949219 255.324219 135.945312 C 255.371094 135.941406 255.417969 135.941406 255.464844 135.9375 C 255.5 135.9375 255.53125 135.933594 255.566406 135.929688 C 255.589844 135.929688 255.613281 135.929688 255.632812 135.925781 C 257.773438 135.765625 259.859375 135.3125 261.886719 134.605469 C 262.035156 134.550781 262.175781 134.460938 262.296875 134.34375 C 263.660156 133.847656 264.984375 133.238281 266.246094 132.496094 C 267.371094 131.832031 268.441406 131.097656 269.457031 130.273438 C 270.328125 129.570312 271.128906 128.792969 271.902344 127.984375 C 273.25 126.621094 274.363281 125.011719 275.285156 123.339844 C 276.238281 121.621094 277.015625 119.820312 277.527344 117.917969 C 278.65625 113.738281 278.683594 109.304688 277.546875 105.121094 C 276.554688 101.46875 274.726562 98.039062 272.21875 95.199219 " fill-opacity="1" fill-rule="nonzero"/></g></g></g></g></g><g clip-path="url(#id18)"><g clip-path="url(#id19)"><g clip-path="url(#id20)"><path fill="#ff66c4" d="M 241.640625 104.847656 C 240.320312 103.871094 238.386719 104.148438 237.40625 105.472656 C 236.46875 106.746094 236.09375 108.351562 235.851562 109.882812 C 235.738281 110.59375 235.703125 111.3125 235.6875 112.03125 C 235.671875 113.003906 235.707031 113.984375 235.828125 114.949219 C 236.03125 116.582031 237.605469 117.742188 239.195312 117.6875 C 239.320312 117.679688 239.445312 117.667969 239.570312 117.648438 C 240.40625 117.515625 241.171875 117.054688 241.675781 116.375 C 242.210938 115.652344 242.386719 114.792969 242.277344 113.914062 C 242.238281 113.605469 242.210938 113.296875 242.191406 112.988281 C 242.1875 111.433594 242.339844 109.859375 242.664062 108.339844 C 242.855469 107.839844 242.90625 107.324219 242.824219 106.792969 C 242.699219 106.019531 242.269531 105.3125 241.640625 104.847656 " fill-opacity="1" fill-rule="nonzero"/></g></g></g><g clip-path="url(#id21)"><g clip-path="url(#id22)"><g clip-path="url(#id23)"><path fill="#ff66c4" d="M 242.589844 96.222656 C 241.753906 96.253906 241.003906 96.492188 240.386719 97.082031 C 239.796875 97.648438 239.453125 98.433594 239.4375 99.246094 C 239.40625 100.855469 240.78125 102.453125 242.464844 102.394531 C 243.304688 102.363281 244.054688 102.125 244.671875 101.535156 C 245.261719 100.96875 245.605469 100.183594 245.621094 99.371094 C 245.652344 97.761719 244.277344 96.164062 242.589844 96.222656 " fill-opacity="1" fill-rule="nonzero"/></g></g></g><g clip-path="url(#id24)"><g clip-path="url(#id25)"><g clip-path="url(#id26)"><g clip-path="url(#id27)"><g clip-path="url(#id28)"><path fill="#ff66c4" d="M 262.964844 176.640625 C 262.851562 177.929688 262.582031 179.191406 262.167969 180.417969 C 261.828125 181.347656 261.417969 182.242188 260.933594 183.09375 C 260.820312 183.191406 260.734375 183.308594 260.648438 183.441406 C 260.582031 183.542969 260.519531 183.644531 260.453125 183.742188 C 259.738281 184.761719 258.945312 185.707031 258.039062 186.5625 C 258.039062 186.566406 258.035156 186.570312 258.03125 186.570312 C 257.964844 186.617188 257.90625 186.675781 257.851562 186.738281 C 257.839844 186.746094 257.828125 186.753906 257.820312 186.765625 C 256.695312 187.734375 255.480469 188.558594 254.15625 189.226562 C 253.507812 189.53125 252.839844 189.792969 252.160156 190.019531 C 251.488281 190.242188 250.804688 190.40625 250.113281 190.542969 C 248.863281 190.765625 247.589844 190.8125 246.324219 190.726562 C 245.015625 190.609375 243.738281 190.351562 242.492188 189.9375 C 241.230469 189.484375 240.027344 188.898438 238.90625 188.164062 C 237.808594 187.414062 236.816406 186.535156 235.929688 185.550781 C 235.082031 184.554688 234.367188 183.472656 233.773438 182.3125 C 233.164062 181.027344 232.714844 179.683594 232.425781 178.289062 C 232.1875 176.933594 232.109375 175.5625 232.199219 174.1875 C 232.320312 172.855469 232.597656 171.554688 233.023438 170.285156 C 233.476562 169.035156 234.074219 167.84375 234.800781 166.726562 C 235.53125 165.667969 236.371094 164.691406 237.328125 163.828125 C 238.367188 162.9375 239.507812 162.183594 240.730469 161.566406 C 241.972656 160.976562 243.269531 160.542969 244.617188 160.269531 C 246.003906 160.023438 247.398438 159.949219 248.800781 160.03125 C 250.125 160.15625 251.429688 160.417969 252.691406 160.839844 C 252.832031 160.890625 252.976562 160.945312 253.121094 160.992188 C 253.074219 160.976562 253.03125 160.960938 252.984375 160.945312 C 254.117188 161.378906 255.191406 161.929688 256.203125 162.59375 C 257.28125 163.339844 258.265625 164.199219 259.144531 165.171875 C 260.015625 166.1875 260.757812 167.292969 261.367188 168.484375 C 261.417969 168.589844 261.46875 168.695312 261.519531 168.804688 C 260.730469 168.785156 259.945312 168.820312 259.160156 168.933594 C 257.804688 169.125 256.453125 169.554688 255.339844 170.371094 C 255.234375 170.449219 255.15625 170.527344 255.121094 170.65625 C 255.089844 170.777344 255.105469 170.90625 255.167969 171.015625 C 255.230469 171.121094 255.332031 171.203125 255.453125 171.234375 C 255.5625 171.261719 255.714844 171.257812 255.8125 171.1875 C 256.230469 170.886719 256.683594 170.636719 257.15625 170.429688 C 257.882812 170.136719 258.644531 169.949219 259.417969 169.839844 C 260.25 169.734375 261.085938 169.71875 261.921875 169.757812 C 262.136719 170.308594 262.320312 170.867188 262.476562 171.4375 C 261.824219 171.359375 261.164062 171.328125 260.503906 171.378906 C 259.386719 171.460938 258.296875 171.753906 257.308594 172.285156 C 257.128906 172.382812 257.070312 172.625 257.167969 172.800781 C 257.273438 172.984375 257.5 173.03125 257.683594 172.9375 C 257.828125 172.867188 257.972656 172.796875 258.121094 172.734375 C 258.730469 172.488281 259.363281 172.324219 260.015625 172.230469 C 260.835938 172.125 261.664062 172.136719 262.484375 172.238281 C 262.550781 172.246094 262.617188 172.257812 262.683594 172.269531 C 262.699219 172.34375 262.71875 172.414062 262.734375 172.488281 C 262.980469 173.859375 263.050781 175.25 262.964844 176.640625 Z M 257.671875 160.886719 C 255.441406 159.320312 252.847656 158.257812 250.152344 157.835938 C 247.226562 157.375 244.222656 157.6875 241.441406 158.710938 C 240.066406 159.21875 238.746094 159.910156 237.539062 160.734375 C 236.332031 161.558594 235.234375 162.5625 234.261719 163.652344 C 233.273438 164.753906 232.441406 166.011719 231.765625 167.328125 C 231.070312 168.683594 230.574219 170.152344 230.253906 171.640625 C 229.917969 173.1875 229.820312 174.800781 229.921875 176.378906 C 230.019531 177.980469 230.359375 179.589844 230.910156 181.097656 C 231.984375 184.039062 233.855469 186.675781 236.257812 188.683594 C 236.972656 189.285156 237.753906 189.8125 238.550781 190.296875 C 239.363281 190.785156 240.214844 191.199219 241.097656 191.542969 C 243.199219 192.371094 245.429688 192.78125 247.683594 192.785156 C 249.878906 192.792969 252.101562 192.359375 254.140625 191.550781 C 256.003906 190.808594 257.722656 189.765625 259.226562 188.4375 C 259.253906 188.417969 259.285156 188.390625 259.3125 188.367188 C 259.339844 188.34375 259.367188 188.3125 259.394531 188.285156 C 259.433594 188.25 259.46875 188.21875 259.503906 188.183594 C 259.515625 188.171875 259.53125 188.160156 259.542969 188.148438 C 259.566406 188.125 259.589844 188.101562 259.617188 188.078125 C 259.632812 188.0625 259.652344 188.046875 259.667969 188.027344 C 259.679688 188.015625 259.691406 188.007812 259.703125 187.992188 C 260.816406 186.925781 261.765625 185.71875 262.5625 184.394531 C 262.621094 184.296875 262.652344 184.183594 262.667969 184.066406 C 263.195312 183.164062 263.648438 182.21875 264.007812 181.230469 C 264.324219 180.347656 264.578125 179.449219 264.761719 178.527344 C 264.921875 177.738281 265.007812 176.941406 265.0625 176.136719 C 265.179688 174.765625 265.058594 173.363281 264.800781 172.015625 C 264.539062 170.625 264.136719 169.273438 263.546875 167.984375 C 262.25 165.148438 260.226562 162.683594 257.671875 160.886719 " fill-opacity="1" fill-rule="nonzero"/></g></g></g></g></g><g clip-path="url(#id29)"><g clip-path="url(#id30)"><g clip-path="url(#id31)"><path fill="#ff66c4" d="M 241.703125 181.453125 C 240.984375 180.59375 240.34375 179.652344 239.828125 178.660156 C 239.703125 178.296875 239.492188 177.984375 239.203125 177.730469 C 238.78125 177.359375 238.214844 177.164062 237.652344 177.195312 C 236.472656 177.257812 235.527344 178.300781 235.59375 179.480469 C 235.660156 180.617188 236.191406 181.675781 236.761719 182.636719 C 237.023438 183.082031 237.335938 183.5 237.660156 183.902344 C 238.097656 184.449219 238.570312 184.976562 239.078125 185.453125 C 239.941406 186.265625 241.351562 186.1875 242.203125 185.425781 C 242.273438 185.367188 242.335938 185.304688 242.394531 185.234375 C 242.796875 184.777344 243.007812 184.171875 242.976562 183.566406 C 242.941406 182.917969 242.640625 182.363281 242.175781 181.925781 C 242.011719 181.773438 241.855469 181.613281 241.703125 181.453125 " fill-opacity="1" fill-rule="nonzero"/></g></g></g><g clip-path="url(#id32)"><g clip-path="url(#id33)"><g clip-path="url(#id34)"><path fill="#ff66c4" d="M 236.980469 175.457031 C 237.429688 175.054688 237.738281 174.582031 237.804688 173.96875 C 237.871094 173.386719 237.703125 172.796875 237.335938 172.335938 C 236.613281 171.429688 235.117188 171.175781 234.210938 171.980469 C 233.761719 172.382812 233.457031 172.859375 233.386719 173.46875 C 233.320312 174.050781 233.488281 174.644531 233.855469 175.101562 C 234.578125 176.007812 236.074219 176.261719 236.980469 175.457031 " fill-opacity="1" fill-rule="nonzero"/></g></g></g><path fill="#ffffff" d="M 204.886719 167.085938 C 204.886719 162.628906 201.273438 159.019531 196.8125 159.019531 C 192.351562 159.019531 188.742188 162.628906 188.742188 167.085938 C 188.742188 171.542969 192.351562 175.152344 196.8125 175.152344 C 201.273438 175.152344 204.886719 171.542969 204.886719 167.085938 " fill-opacity="1" fill-rule="nonzero"/><path fill="#ffffff" d="M 68.652344 221.132812 C 62.515625 220.007812 57.871094 214.644531 57.871094 208.191406 C 57.871094 203.085938 60.78125 198.65625 65.039062 196.472656 L 65.042969 196.472656 C 64.980469 196.003906 64.945312 195.527344 64.945312 195.035156 C 64.945312 189.144531 69.726562 184.371094 75.625 184.371094 C 78.878906 184.371094 81.796875 185.824219 83.753906 188.121094 C 77.136719 191.179688 72.039062 194.808594 70.042969 199.515625 C 69.632812 200.480469 69.367188 201.480469 69.234375 202.507812 L 68.652344 221.132812 " fill-opacity="1" fill-rule="nonzero"/><g clip-path="url(#id35)"><g clip-path="url(#id36)"><g clip-path="url(#id37)"><path fill="url(#id38)" d="M 70.335938 210.695312 L 70.335938 275.949219 L 272 275.949219 L 272 210.695312 Z M 70.335938 210.695312 " fill-rule="nonzero"/></g></g></g><path fill="#db97b3" d="M 273.613281 207.074219 L 273.617188 207.050781 L 273.613281 207.074219 " fill-opacity="1" fill-rule="nonzero"/><path fill="#dda2b6" d="M 69.902344 204.992188 C 69.902344 204.992188 83.351562 226.949219 87.71875 232.117188 C 94.585938 240.242188 105.21875 249.460938 128.34375 245.117188 C 136.378906 243.609375 213.695312 226.261719 242.660156 223.617188 C 271.167969 221.003906 273.050781 213.320312 272.738281 206.777344 C 272.75 207.003906 273.496094 209.175781 273.359375 211.949219 C 272.347656 217.921875 267.664062 223.683594 242.660156 225.972656 C 213.695312 228.621094 136.378906 245.964844 128.34375 247.472656 C 105.21875 251.816406 93.96875 242.707031 87.101562 234.582031 C 82.734375 229.414062 70.117188 207.585938 70.117188 207.585938 L 69.902344 204.992188 " fill-opacity="1" fill-rule="nonzero"/><path fill="#ecc1cf" d="M 72.164062 210.632812 C 72.164062 210.632812 83.328125 227.585938 87.679688 232.75 C 94.527344 240.878906 105.117188 250.09375 128.160156 245.75 C 136.171875 244.242188 213.222656 226.898438 242.082031 224.25 C 282.300781 220.554688 274.476562 207.308594 268.390625 200.359375 C 264.230469 195.609375 250.128906 180.8125 250.128906 180.8125 C 250.128906 180.8125 238.390625 166.691406 207.515625 166.691406 C 176.425781 166.691406 135.992188 172.339844 110.121094 180.160156 C 88.105469 186.8125 63.375 193.625 72.164062 210.632812 " fill-opacity="1" fill-rule="nonzero"/><path fill="#eab2c2" d="M 270.574219 203.621094 C 272.691406 210.214844 273.007812 218.773438 239.773438 220.328125 C 225.554688 220.988281 199.800781 224.507812 176.269531 229.28125 C 151.882812 234.230469 129.925781 241.0625 125.851562 241.828125 C 102.808594 246.171875 92.210938 236.957031 85.367188 228.828125 C 81.738281 224.519531 73.367188 212.003906 70.691406 207.976562 C 70.976562 208.832031 71.347656 209.71875 71.816406 210.632812 C 71.816406 210.632812 82.980469 227.585938 87.332031 232.75 C 94.179688 240.878906 104.773438 250.09375 127.816406 245.75 C 135.824219 244.242188 212.875 226.898438 241.738281 224.25 C 276.304688 221.074219 275.382812 210.84375 270.574219 203.621094 " fill-opacity="1" fill-rule="nonzero"/><path fill="#a55568" d="M 257.019531 250.238281 C 254.402344 250.984375 243.421875 252.039062 231.796875 253.15625 C 223.46875 253.964844 214.851562 254.789062 207.824219 255.632812 C 181.792969 258.761719 132.304688 272.121094 121.347656 275.4375 C 119.484375 275.996094 117.355469 276.320312 115.050781 276.320312 C 107.621094 276.320312 98.425781 272.917969 90.855469 263.03125 L 73.949219 240.597656 C 70.898438 236.242188 70.335938 233.609375 70.335938 230.019531 L 70.871094 210.695312 C 70.9375 210.824219 70.996094 210.953125 71.0625 211.082031 L 71.117188 211.171875 C 71.570312 211.867188 82.359375 228.230469 86.699219 233.382812 C 92.367188 240.117188 100.914062 247.847656 116.8125 247.847656 C 120.332031 247.847656 124.140625 247.464844 128.117188 246.714844 C 129.683594 246.421875 133.902344 245.515625 139.75 244.265625 C 163.386719 239.203125 218.742188 227.359375 241.945312 225.226562 C 258.050781 223.746094 267.941406 220.667969 272 215.851562 C 271.511719 222.667969 270.785156 233.472656 270.65625 238.828125 C 270.476562 246.460938 260.804688 249.152344 257.019531 250.238281 M 108.09375 181.726562 L 110.175781 181.097656 C 136.328125 173.195312 176.261719 167.675781 207.289062 167.675781 C 237.265625 167.675781 249.027344 181.304688 249.140625 181.4375 L 249.1875 181.488281 C 249.328125 181.636719 263.316406 196.320312 267.421875 201.003906 C 271.546875 205.714844 272.945312 209.511719 271.703125 212.617188 C 270.207031 216.363281 263.796875 221.246094 241.765625 223.273438 C 218.449219 225.410156 163.007812 237.277344 139.335938 242.34375 C 133.507812 243.59375 129.292969 244.492188 127.75 244.785156 C 123.890625 245.511719 120.214844 245.882812 116.8125 245.882812 C 101.816406 245.882812 93.933594 238.925781 88.199219 232.121094 C 84.042969 227.183594 73.417969 211.09375 72.785156 210.136719 C 70.902344 206.464844 70.59375 203.242188 71.851562 200.28125 C 75.5625 191.527344 92.101562 186.542969 108.09375 181.726562 M 274.09375 210.714844 C 274.246094 207.488281 272.535156 203.863281 268.898438 199.710938 C 264.847656 195.085938 251.257812 180.816406 250.632812 180.15625 C 249.875 179.261719 237.886719 165.710938 207.289062 165.710938 C 176.089844 165.710938 135.921875 171.269531 109.605469 179.21875 L 107.523438 179.847656 C 91.097656 184.796875 74.113281 189.914062 70.042969 199.515625 C 69.632812 200.480469 69.367188 201.480469 69.234375 202.507812 L 68.371094 229.992188 C 68.371094 234.53125 69.375 237.492188 72.359375 241.75 L 89.289062 264.21875 C 97.300781 274.679688 107.097656 278.28125 115.058594 278.28125 C 117.5625 278.28125 119.886719 277.925781 121.914062 277.3125 C 132.839844 274.011719 182.148438 260.695312 208.054688 257.582031 C 215.0625 256.742188 223.667969 255.914062 231.984375 255.113281 C 244.210938 253.9375 254.769531 252.921875 257.558594 252.125 C 261.746094 250.929688 272.738281 247.847656 272.621094 238.773438 C 272.519531 230.878906 274.109375 210.726562 274.109375 210.726562 L 274.09375 210.714844 " fill-opacity="1" fill-rule="nonzero"/><path fill="#ffffff" d="M 207.902344 148.503906 C 203.804688 148.503906 200.480469 145.183594 200.480469 141.089844 C 200.480469 136.996094 203.804688 133.679688 207.902344 133.679688 C 212 133.679688 215.320312 136.996094 215.320312 141.089844 C 215.320312 145.183594 212 148.503906 207.902344 148.503906 " fill-opacity="1" fill-rule="nonzero"/><path fill="#f7dce8" d="M 199.316406 174.90625 C 197.128906 174.90625 194.164062 175.132812 189.980469 175.621094 C 179.46875 176.839844 147.484375 181.332031 126.027344 187.375 C 123.335938 188.136719 119.644531 189.171875 119.371094 189.964844 C 119.324219 190.109375 119.363281 190.519531 120.207031 191.664062 C 120.316406 191.804688 132.589844 207.667969 133.964844 209.433594 C 135.320312 211.179688 136.886719 211.859375 139.554688 211.859375 C 141.4375 211.859375 143.761719 211.511719 146.675781 210.988281 C 148.230469 210.707031 151.316406 210.128906 155.222656 209.398438 C 170.316406 206.5625 198.417969 201.289062 211.1875 199.59375 C 211.683594 199.527344 212.371094 199.457031 213.171875 199.375 C 215.144531 199.183594 217.84375 198.914062 220.082031 198.445312 C 223.4375 197.746094 223.683594 197.023438 223.6875 197.015625 C 223.6875 197.015625 223.683594 196.917969 223.519531 196.714844 C 220.941406 193.394531 211.347656 182.449219 206.964844 177.828125 C 205.148438 175.90625 203.984375 174.90625 199.316406 174.90625 M 139.554688 213.820312 C 136.285156 213.820312 134.148438 212.871094 132.414062 210.640625 C 131.03125 208.871094 118.757812 193.003906 118.636719 192.847656 C 117.800781 191.710938 117.101562 190.519531 117.515625 189.328125 C 118.070312 187.714844 120.140625 186.992188 125.492188 185.488281 C 147.074219 179.410156 179.199219 174.894531 189.757812 173.667969 C 194.015625 173.171875 197.050781 172.945312 199.316406 172.945312 C 204.664062 172.945312 206.3125 174.277344 208.394531 176.476562 C 212.800781 181.132812 222.464844 192.15625 225.074219 195.507812 C 225.859375 196.515625 225.675781 197.378906 225.492188 197.800781 C 224.617188 199.839844 220.554688 200.613281 213.367188 201.328125 C 212.585938 201.410156 211.914062 201.476562 211.445312 201.539062 C 198.726562 203.226562 170.660156 208.496094 155.585938 211.324219 C 151.671875 212.058594 148.582031 212.640625 147.023438 212.917969 C 144.007812 213.460938 141.582031 213.820312 139.554688 213.820312 " fill-opacity="1" fill-rule="nonzero"/><path fill="#ffffff" d="M 290.191406 228.398438 C 288.613281 228.398438 287.066406 227.652344 286.09375 226.257812 C 284.523438 224.003906 285.082031 220.898438 287.34375 219.332031 C 288.207031 218.726562 289.203125 218.4375 290.183594 218.4375 C 291.761719 218.4375 293.3125 219.1875 294.28125 220.574219 C 295.851562 222.835938 295.292969 225.9375 293.03125 227.507812 C 292.167969 228.109375 291.171875 228.398438 290.191406 228.398438 " fill-opacity="1" fill-rule="nonzero"/><path fill="#ffffff" d="M 63 267.636719 C 61.449219 267.613281 59.9375 266.867188 58.984375 265.5 C 57.414062 263.246094 57.972656 260.140625 60.230469 258.570312 C 61.097656 257.96875 62.082031 257.679688 63.0625 257.675781 C 62.160156 257.683594 61.253906 257.933594 60.433594 258.449219 C 58.109375 259.921875 57.417969 263 58.890625 265.320312 C 59.816406 266.785156 61.382812 267.601562 63 267.636719 " fill-opacity="1" fill-rule="nonzero"/><path fill="#d394ae" d="M 199.429688 174.023438 C 197.367188 174.023438 194.671875 174.203125 190.9375 174.597656 C 179.503906 175.789062 146.96875 180.507812 124.769531 186.761719 C 120.625 187.925781 118.621094 188.863281 118.277344 189.789062 C 118.105469 190.261719 118.316406 190.863281 119.039062 191.945312 C 119.140625 192.074219 131.546875 208.339844 132.964844 210.171875 C 134.582031 212.242188 136.535156 213.085938 139.714844 213.085938 C 141.425781 213.085938 143.53125 212.847656 146.546875 212.304688 C 148.242188 212.003906 151.664062 211.355469 155.996094 210.535156 C 171.308594 207.640625 199.804688 202.25 212.808594 200.523438 C 213.1875 200.472656 213.667969 200.414062 214.226562 200.351562 C 217.09375 200.019531 224.699219 199.140625 225.433594 197.386719 C 225.472656 197.292969 225.578125 197.046875 225.199219 196.558594 C 222.546875 193.152344 212.621094 182.511719 207.746094 177.359375 C 205.640625 175.136719 204.585938 174.023438 199.429688 174.023438 M 139.714844 214.265625 C 136.171875 214.265625 133.878906 213.257812 132.035156 210.890625 C 130.609375 209.058594 118.203125 192.792969 118.078125 192.628906 C 117.410156 191.628906 116.753906 190.503906 117.171875 189.382812 C 117.6875 187.992188 119.65625 186.976562 124.449219 185.625 C 146.722656 179.355469 179.351562 174.617188 190.816406 173.421875 C 194.589844 173.03125 197.324219 172.84375 199.429688 172.84375 C 205.09375 172.84375 206.414062 174.242188 208.601562 176.550781 C 213.492188 181.714844 223.449219 192.390625 226.128906 195.835938 C 226.792969 196.6875 226.710938 197.398438 226.523438 197.84375 C 225.597656 200.046875 220.007812 200.871094 214.363281 201.519531 C 213.816406 201.582031 213.335938 201.640625 212.96875 201.6875 C 199.996094 203.414062 171.515625 208.800781 156.214844 211.695312 C 151.878906 212.515625 148.453125 213.160156 146.757812 213.464844 C 143.667969 214.019531 141.496094 214.265625 139.714844 214.265625 " fill-opacity="1" fill-rule="nonzero"/><path fill="#ffffff" d="M 94.964844 289.363281 C 88.777344 289.363281 83.757812 284.351562 83.757812 278.167969 C 83.757812 273.03125 87.226562 268.699219 91.957031 267.386719 C 96.449219 272.230469 101.34375 275.195312 106.078125 276.785156 C 106.132812 277.238281 106.164062 277.703125 106.164062 278.167969 C 106.164062 284.351562 101.152344 289.363281 94.964844 289.363281 M 122.480469 286.613281 C 117.0625 286.613281 112.496094 282.964844 111.113281 277.992188 C 112.46875 278.191406 113.785156 278.28125 115.058594 278.28125 C 117.5625 278.28125 119.886719 277.925781 121.914062 277.3125 C 127.890625 275.507812 145.339844 270.707031 164.167969 266.21875 C 164.285156 266.816406 164.34375 267.433594 164.34375 268.058594 C 164.34375 273.425781 159.988281 277.777344 154.613281 277.777344 C 151.828125 277.777344 149.3125 276.605469 147.542969 274.730469 C 146.679688 276.640625 144.761719 277.976562 142.523438 277.976562 C 140.199219 277.976562 138.214844 276.53125 137.410156 274.496094 L 136.910156 274.695312 L 137.101562 274.65625 C 136.851562 274.761719 136.59375 274.847656 136.332031 274.925781 L 136.292969 274.9375 L 136.25 274.945312 C 135.621094 275.125 134.957031 275.226562 134.269531 275.226562 L 134.597656 275.160156 L 134.261719 275.203125 C 134.066406 281.539062 128.867188 286.613281 122.480469 286.613281 M 148.730469 273.601562 L 147.746094 274.195312 L 147.742188 274.222656 L 148.730469 273.601562 M 171.851562 267.960938 C 169.839844 267.960938 168.050781 267.027344 166.894531 265.574219 C 170.597656 264.703125 174.34375 263.851562 178.042969 263.035156 C 177.394531 265.855469 174.867188 267.960938 171.851562 267.960938 M 87.546875 261.90625 C 84.671875 260.101562 82.503906 257.277344 81.546875 253.941406 L 87.546875 261.90625 " fill-opacity="1" fill-rule="nonzero"/><g clip-path="url(#id39)"><g clip-path="url(#id40)"><g clip-path="url(#id41)"><path fill="url(#id42)" d="M 81.007812 237.253906 L 81.007812 276.320312 L 178.171875 276.320312 L 178.171875 237.253906 Z M 81.007812 237.253906 " fill-rule="nonzero"/></g></g></g><path fill="#fcf6f8" d="M 108.734375 247.835938 C 99.878906 246.128906 93.898438 241.785156 89.511719 237.253906 C 89.6875 237.179688 89.863281 237.113281 90.042969 237.042969 C 94.375 241.351562 100.179688 245.4375 108.589844 247.082031 C 108.648438 247.332031 108.695312 247.582031 108.734375 247.835938 " fill-opacity="1" fill-rule="nonzero"/><path fill="#fdf9fa" d="M 106.4375 242.15625 C 100.933594 241.050781 96.613281 238.878906 93.089844 236.277344 C 93.703125 236.195312 94.328125 236.152344 94.964844 236.152344 C 99.714844 236.152344 103.917969 238.527344 106.4375 242.15625 " fill-opacity="1" fill-rule="nonzero"/><path fill="#fdf7f9" d="M 107.941406 244.960938 C 101.054688 243.421875 96.113281 240.140625 92.207031 236.421875 C 92.5 236.367188 92.792969 236.316406 93.089844 236.277344 C 96.613281 238.878906 100.933594 241.050781 106.4375 242.15625 C 107.039062 243.019531 107.542969 243.960938 107.941406 244.960938 " fill-opacity="1" fill-rule="nonzero"/><path fill="#f6eef0" d="M 115.058594 278.28125 C 113.785156 278.28125 112.46875 278.191406 111.113281 277.992188 C 110.929688 277.332031 110.804688 276.648438 110.738281 275.949219 C 112.21875 276.207031 113.667969 276.320312 115.050781 276.320312 C 117.355469 276.320312 119.484375 275.996094 121.347656 275.4375 C 127.324219 273.628906 144.761719 268.832031 163.601562 264.335938 C 163.855469 264.9375 164.042969 265.566406 164.167969 266.21875 C 145.339844 270.707031 127.890625 275.507812 121.914062 277.3125 C 119.886719 277.925781 117.5625 278.28125 115.058594 278.28125 M 106.078125 276.785156 C 101.34375 275.195312 96.449219 272.230469 91.957031 267.386719 C 92.710938 267.179688 93.496094 267.046875 94.304688 267 C 99.339844 272.074219 104.828125 274.75 109.910156 275.789062 C 108.867188 276.1875 107.738281 276.402344 106.558594 276.402344 C 106.558594 276.402344 106.414062 276.371094 106.277344 276.371094 C 106.144531 276.371094 106.027344 276.402344 106.042969 276.53125 C 106.054688 276.617188 106.066406 276.703125 106.078125 276.785156 M 166.894531 265.574219 C 166.46875 265.046875 166.125 264.445312 165.886719 263.792969 C 169.96875 262.835938 174.097656 261.890625 178.171875 261 C 178.191406 261.203125 178.203125 261.40625 178.203125 261.617188 C 178.203125 262.105469 178.144531 262.582031 178.042969 263.035156 C 174.34375 263.851562 170.597656 264.703125 166.894531 265.574219 M 91.242188 263.53125 C 89.925781 263.171875 88.679688 262.617188 87.546875 261.90625 L 81.546875 253.941406 C 81.195312 252.722656 81.007812 251.429688 81.007812 250.09375 C 81.007812 250.050781 81.007812 250.003906 81.007812 249.964844 L 90.855469 263.03125 C 90.984375 263.199219 91.117188 263.367188 91.242188 263.53125 M 108.589844 247.082031 C 100.179688 245.4375 94.375 241.351562 90.042969 237.042969 C 90.738281 236.78125 91.464844 236.570312 92.207031 236.421875 C 96.113281 240.140625 101.054688 243.421875 107.941406 244.960938 C 108.210938 245.644531 108.429688 246.347656 108.589844 247.082031 " fill-opacity="1" fill-rule="nonzero"/><path fill="#ffffff" d="M 266.691406 197.253906 C 261.285156 191.34375 251.171875 180.722656 250.632812 180.15625 C 249.917969 179.3125 239.265625 167.269531 212.519531 165.847656 C 212.503906 165.585938 212.496094 165.328125 212.496094 165.0625 C 212.496094 157.9375 218.273438 152.167969 225.398438 152.167969 C 231.632812 152.167969 236.832031 156.585938 238.039062 162.460938 C 238.039062 162.460938 237.871094 163.121094 238.300781 163.121094 C 244.421875 163.121094 249.386719 168.082031 249.386719 174.199219 C 249.386719 174.589844 249.386719 174.824219 249.382812 174.960938 C 251.640625 175.671875 253.6875 176.855469 255.417969 178.382812 C 257.300781 176.902344 259.679688 176.019531 262.261719 176.019531 C 268.386719 176.019531 273.351562 180.976562 273.351562 187.097656 C 273.351562 191.640625 270.613281 195.546875 266.691406 197.253906 " fill-opacity="1" fill-rule="nonzero"/><path fill="#fdf9fa" d="M 258.507812 213.78125 C 254.179688 213.78125 250.589844 210.667969 249.84375 206.5625 L 249.589844 206.648438 C 247.953125 207.1875 246.203125 207.476562 244.386719 207.476562 C 238.859375 207.476562 233.964844 204.785156 230.9375 200.644531 C 229.578125 201.09375 228.125 201.339844 226.617188 201.339844 C 224.855469 201.339844 223.171875 201.011719 221.628906 200.40625 C 224.140625 199.832031 226.019531 199.039062 226.523438 197.84375 C 226.710938 197.398438 226.792969 196.6875 226.128906 195.835938 C 224.25 193.421875 218.800781 187.457031 214.023438 182.328125 C 215.078125 179.855469 216.84375 177.753906 219.0625 176.285156 L 219.058594 176.289062 C 215.914062 174.511719 213.589844 171.457031 212.796875 167.835938 C 238.714844 169.355469 249.035156 181.3125 249.140625 181.4375 L 249.1875 181.488281 C 249.304688 181.609375 259.011719 191.800781 264.632812 197.917969 C 264.625 197.921875 264.621094 197.921875 264.617188 197.921875 C 266.101562 201.5625 267.308594 204.769531 267.308594 204.984375 C 267.308594 209.84375 263.371094 213.78125 258.507812 213.78125 M 218.558594 198.722656 C 215.148438 196.238281 212.9375 192.21875 212.9375 187.675781 C 212.9375 186.667969 213.046875 185.683594 213.25 184.738281 C 217.414062 189.421875 221.882812 194.605469 223.519531 196.714844 C 223.683594 196.917969 223.6875 197.015625 223.6875 197.015625 C 223.683594 197.023438 223.4375 197.746094 220.082031 198.445312 C 219.589844 198.546875 219.082031 198.640625 218.558594 198.722656 " fill-opacity="1" fill-rule="nonzero"/><path fill="#f6eef0" d="M 264.632812 197.917969 C 259.011719 191.800781 249.304688 181.609375 249.1875 181.488281 L 249.140625 181.4375 C 249.035156 181.3125 238.714844 169.355469 212.796875 167.835938 C 212.652344 167.191406 212.558594 166.527344 212.519531 165.847656 C 239.265625 167.269531 249.917969 179.3125 250.632812 180.15625 C 251.171875 180.722656 261.285156 191.34375 266.691406 197.253906 C 266.03125 197.539062 265.34375 197.761719 264.632812 197.917969 " fill-opacity="1" fill-rule="nonzero"/><path fill="#fefbfd" d="M 219.847656 199.554688 C 219.402344 199.300781 218.972656 199.027344 218.558594 198.722656 C 219.082031 198.640625 219.589844 198.546875 220.082031 198.445312 C 223.4375 197.746094 223.683594 197.023438 223.6875 197.015625 C 223.6875 197.015625 223.683594 196.917969 223.519531 196.714844 C 221.882812 194.605469 217.414062 189.421875 213.25 184.738281 C 213.339844 184.339844 213.445312 183.949219 213.566406 183.5625 C 218.222656 188.570312 223.394531 194.242188 225.199219 196.558594 C 225.578125 197.046875 225.472656 197.292969 225.433594 197.386719 C 225.023438 198.359375 222.5 199.066406 219.847656 199.554688 " fill-opacity="1" fill-rule="nonzero"/><path fill="#fbf4f7" d="M 221.628906 200.40625 C 221.011719 200.164062 220.417969 199.878906 219.847656 199.554688 C 222.5 199.066406 225.023438 198.359375 225.433594 197.386719 C 225.472656 197.292969 225.578125 197.046875 225.199219 196.558594 C 223.394531 194.242188 218.222656 188.570312 213.566406 183.5625 C 213.699219 183.144531 213.851562 182.730469 214.023438 182.328125 C 218.800781 187.457031 224.25 193.421875 226.128906 195.835938 C 226.792969 196.6875 226.710938 197.398438 226.523438 197.84375 C 226.019531 199.039062 224.140625 199.832031 221.628906 200.40625 " fill-opacity="1" fill-rule="nonzero"/><path fill="#ffffff" d="M 63.105469 267.636719 C 63.070312 267.636719 63.03125 267.636719 63 267.636719 C 63.023438 267.636719 63.054688 267.636719 63.082031 267.636719 C 64.0625 267.636719 65.054688 267.351562 65.921875 266.746094 C 68.183594 265.175781 68.742188 262.074219 67.171875 259.8125 C 66.203125 258.421875 64.652344 257.675781 63.074219 257.675781 C 63.070312 257.675781 63.066406 257.675781 63.0625 257.675781 C 63.074219 257.675781 63.085938 257.675781 63.097656 257.675781 C 64.75 257.675781 66.363281 258.5 67.3125 259.992188 C 68.785156 262.320312 68.09375 265.398438 65.769531 266.863281 C 64.9375 267.386719 64.019531 267.636719 63.105469 267.636719 " fill-opacity="1" fill-rule="nonzero"/><path fill="#ffffff" d="M 63.082031 267.636719 C 63.054688 267.636719 63.023438 267.636719 63 267.636719 C 61.382812 267.601562 59.816406 266.785156 58.890625 265.320312 C 57.417969 263 58.109375 259.921875 60.433594 258.449219 C 61.253906 257.933594 62.160156 257.683594 63.0625 257.675781 C 63.066406 257.675781 63.070312 257.675781 63.074219 257.675781 C 64.652344 257.675781 66.203125 258.421875 67.171875 259.8125 C 68.742188 262.074219 68.183594 265.175781 65.921875 266.746094 C 65.054688 267.351562 64.0625 267.636719 63.082031 267.636719 " fill-opacity="1" fill-rule="nonzero"/><path fill="#a55568" d="M 264.300781 196.984375 L 264.355469 197.261719 C 263.464844 196.59375 262.449219 196.074219 261.359375 195.742188 C 261.800781 194.1875 262.023438 192.582031 262.023438 190.945312 C 262.023438 186.15625 260.121094 181.75 256.925781 178.527344 C 258.519531 177.53125 260.34375 177 262.261719 177 C 267.835938 177 272.367188 181.527344 272.367188 187.097656 C 272.367188 191.871094 268.976562 196.03125 264.300781 196.984375 Z M 258.507812 212.910156 C 254.191406 212.910156 250.679688 209.40625 250.679688 205.09375 C 250.679688 200.785156 254.191406 197.28125 258.507812 197.28125 C 262.820312 197.28125 266.332031 200.785156 266.332031 205.09375 C 266.332031 209.40625 262.820312 212.910156 258.507812 212.910156 Z M 244.386719 206.601562 C 239.796875 206.601562 235.492188 204.609375 232.53125 201.183594 C 237.675781 198.910156 241.273438 193.761719 241.273438 187.789062 C 241.273438 187.199219 241.238281 186.605469 241.167969 186.019531 C 245.78125 184.898438 249.359375 181.113281 250.1875 176.398438 C 256.136719 178.757812 260.058594 184.460938 260.058594 190.945312 C 260.058594 192.457031 259.84375 193.933594 259.425781 195.363281 C 259.121094 195.332031 258.816406 195.316406 258.507812 195.316406 C 253.109375 195.316406 248.71875 199.707031 248.71875 205.09375 C 248.71875 205.398438 248.734375 205.691406 248.757812 205.988281 C 247.34375 206.398438 245.878906 206.601562 244.386719 206.601562 Z M 213.917969 187.789062 C 213.917969 180.910156 219.417969 175.300781 226.257812 175.113281 C 226.671875 181.390625 231.914062 186.367188 238.300781 186.367188 C 238.613281 186.367188 238.917969 186.351562 239.226562 186.332031 C 239.277344 186.8125 239.3125 187.296875 239.3125 187.789062 C 239.3125 194.78125 233.613281 200.472656 226.617188 200.472656 C 219.613281 200.472656 213.917969 194.78125 213.917969 187.789062 Z M 213.480469 165.167969 C 213.480469 158.605469 218.824219 153.261719 225.398438 153.261719 C 230.882812 153.261719 235.679688 157.046875 236.972656 162.324219 C 231.324219 162.945312 226.828125 167.476562 226.285156 173.148438 C 223.644531 173.207031 221.171875 173.960938 219.050781 175.246094 C 215.601562 173.070312 213.480469 169.261719 213.480469 165.167969 Z M 248.40625 174.308594 C 248.40625 179.878906 243.875 184.40625 238.300781 184.40625 C 232.730469 184.40625 228.195312 179.878906 228.195312 174.308594 C 228.195312 168.742188 232.730469 164.214844 238.300781 164.214844 C 243.875 164.214844 248.40625 168.742188 248.40625 174.308594 Z M 274.335938 187.097656 C 274.335938 180.445312 268.921875 175.035156 262.261719 175.035156 C 259.78125 175.035156 257.429688 175.78125 255.410156 177.175781 C 253.925781 175.992188 252.234375 175.035156 250.371094 174.367188 L 250.371094 174.308594 C 250.371094 167.886719 245.320312 162.621094 238.976562 162.269531 C 237.621094 155.90625 231.929688 151.296875 225.398438 151.296875 C 217.742188 151.296875 211.511719 157.519531 211.511719 165.167969 C 211.511719 169.671875 213.714844 173.867188 217.335938 176.457031 C 214.050781 179.140625 211.953125 183.222656 211.953125 187.789062 C 211.953125 195.863281 218.53125 202.433594 226.617188 202.433594 C 227.984375 202.433594 229.308594 202.242188 230.566406 201.890625 C 233.902344 206.089844 238.972656 208.566406 244.386719 208.566406 C 246 208.566406 247.597656 208.351562 249.132812 207.921875 C 250.351562 211.941406 254.089844 214.875 258.507812 214.875 C 263.90625 214.875 268.292969 210.488281 268.292969 205.09375 C 268.292969 202.609375 267.359375 200.34375 265.828125 198.617188 C 270.820312 197.074219 274.335938 192.402344 274.335938 187.097656 " fill-opacity="1" fill-rule="nonzero"/><path fill="#a55568" d="M 236.625 166.429688 C 241.980469 166.429688 246.320312 170.765625 246.320312 176.113281 C 246.320312 177.238281 246.128906 178.3125 245.777344 179.3125 C 246.65625 177.929688 247.167969 176.289062 247.167969 174.527344 C 247.167969 169.585938 243.160156 165.582031 238.214844 165.582031 C 236.449219 165.582031 234.808594 166.09375 233.421875 166.972656 C 234.425781 166.621094 235.503906 166.429688 236.625 166.429688 " fill-opacity="1" fill-rule="nonzero"/><g clip-path="url(#id43)"><path fill="#a55568" d="M 207.902344 134.660156 C 204.347656 134.660156 201.464844 137.546875 201.464844 141.089844 C 201.464844 144.640625 204.347656 147.523438 207.902344 147.523438 C 211.449219 147.523438 214.339844 144.640625 214.339844 141.089844 C 214.339844 137.546875 211.449219 134.660156 207.902344 134.660156 Z M 207.902344 149.488281 C 203.265625 149.488281 199.496094 145.71875 199.496094 141.089844 C 199.496094 136.464844 203.265625 132.699219 207.902344 132.699219 C 212.535156 132.699219 216.300781 136.464844 216.300781 141.089844 C 216.300781 145.71875 212.535156 149.488281 207.902344 149.488281 " fill-opacity="1" fill-rule="nonzero"/></g><path fill="#a55568" d="M 206.582031 136.3125 C 209.808594 136.3125 212.425781 138.925781 212.425781 142.148438 C 212.425781 142.824219 212.308594 143.472656 212.097656 144.078125 C 212.625 143.242188 212.9375 142.253906 212.9375 141.191406 C 212.9375 138.214844 210.519531 135.804688 207.539062 135.804688 C 206.476562 135.804688 205.488281 136.109375 204.652344 136.644531 C 205.257812 136.429688 205.90625 136.3125 206.582031 136.3125 " fill-opacity="1" fill-rule="nonzero"/><path fill="#a55568" d="M 290.183594 219.421875 C 289.363281 219.421875 288.578125 219.667969 287.90625 220.132812 C 287.027344 220.746094 286.441406 221.660156 286.25 222.710938 C 286.058594 223.761719 286.289062 224.820312 286.902344 225.699219 C 287.648438 226.773438 288.878906 227.417969 290.195312 227.417969 C 291.007812 227.417969 291.796875 227.171875 292.472656 226.699219 C 294.285156 225.441406 294.734375 222.945312 293.472656 221.136719 C 292.726562 220.058594 291.496094 219.421875 290.183594 219.421875 Z M 290.195312 229.382812 C 288.234375 229.382812 286.402344 228.421875 285.289062 226.820312 C 284.375 225.511719 284.03125 223.929688 284.316406 222.363281 C 284.597656 220.796875 285.472656 219.433594 286.78125 218.523438 C 287.785156 217.828125 288.964844 217.457031 290.183594 217.457031 C 292.136719 217.457031 293.972656 218.414062 295.085938 220.015625 C 296.964844 222.714844 296.296875 226.433594 293.59375 228.3125 C 292.589844 229.011719 291.414062 229.382812 290.195312 229.382812 " fill-opacity="1" fill-rule="nonzero"/><path fill="#a55568" d="M 292.273438 221.21875 C 293.34375 222.761719 292.96875 224.878906 291.425781 225.949219 C 291.097656 226.171875 290.75 226.335938 290.386719 226.433594 C 290.964844 226.410156 291.542969 226.230469 292.050781 225.875 C 293.476562 224.886719 293.828125 222.929688 292.835938 221.503906 C 292.480469 220.996094 292.007812 220.625 291.472656 220.402344 C 291.777344 220.621094 292.046875 220.894531 292.273438 221.21875 " fill-opacity="1" fill-rule="nonzero"/><path fill="#a55568" d="M 62.847656 258.660156 C 62.09375 258.660156 61.355469 258.871094 60.714844 259.277344 C 58.847656 260.460938 58.292969 262.933594 59.472656 264.796875 C 60.210938 265.960938 61.476562 266.65625 62.859375 266.65625 C 63.617188 266.65625 64.351562 266.441406 64.996094 266.035156 C 65.898438 265.464844 66.523438 264.574219 66.761719 263.53125 C 66.992188 262.492188 66.808594 261.417969 66.238281 260.519531 C 65.496094 259.355469 64.234375 258.660156 62.847656 258.660156 Z M 62.859375 268.621094 C 60.800781 268.621094 58.914062 267.582031 57.8125 265.84375 C 56.050781 263.070312 56.882812 259.378906 59.660156 257.621094 C 60.617188 257.015625 61.71875 256.695312 62.847656 256.695312 C 64.910156 256.695312 66.792969 257.734375 67.894531 259.46875 C 68.75 260.8125 69.027344 262.414062 68.675781 263.964844 C 68.328125 265.519531 67.390625 266.84375 66.046875 267.695312 C 65.089844 268.296875 63.984375 268.621094 62.859375 268.621094 " fill-opacity="1" fill-rule="nonzero"/><path fill="#a55568" d="M 61.332031 260.566406 C 62.644531 259.738281 64.375 260.125 65.203125 261.433594 C 65.378906 261.710938 65.5 262 65.566406 262.300781 C 65.566406 261.824219 65.441406 261.347656 65.167969 260.914062 C 64.402344 259.707031 62.800781 259.351562 61.589844 260.117188 C 61.160156 260.386719 60.839844 260.765625 60.632812 261.195312 C 60.824219 260.953125 61.058594 260.742188 61.332031 260.566406 " fill-opacity="1" fill-rule="nonzero"/><path fill="#a55568" d="M 261.238281 178.984375 C 266.632812 179.472656 270.613281 184.242188 270.121094 189.632812 C 270.015625 190.765625 269.726562 191.832031 269.277344 192.8125 C 270.292969 191.496094 270.960938 189.890625 271.121094 188.113281 C 271.574219 183.132812 267.902344 178.730469 262.917969 178.277344 C 261.136719 178.113281 259.4375 178.480469 257.960938 179.238281 C 259.003906 178.976562 260.105469 178.878906 261.238281 178.984375 " fill-opacity="1" fill-rule="nonzero"/><path fill="#a55568" d="M 92.769531 239.589844 C 99.695312 239.589844 105.320312 245.203125 105.320312 252.125 C 105.320312 253.574219 105.070312 254.96875 104.613281 256.269531 C 105.753906 254.476562 106.414062 252.351562 106.414062 250.074219 C 106.414062 243.675781 101.226562 238.492188 94.820312 238.492188 C 92.539062 238.492188 90.414062 239.152344 88.617188 240.292969 C 89.921875 239.835938 91.316406 239.589844 92.769531 239.589844 " fill-opacity="1" fill-rule="nonzero"/><path fill="#a55568" d="M 92.984375 270.355469 C 98.453125 270.355469 102.882812 274.785156 102.882812 280.242188 C 102.882812 281.390625 102.683594 282.492188 102.328125 283.511719 C 103.226562 282.097656 103.746094 280.421875 103.746094 278.625 C 103.746094 273.582031 99.65625 269.492188 94.605469 269.492188 C 92.804688 269.492188 91.132812 270.015625 89.714844 270.914062 C 90.738281 270.554688 91.839844 270.355469 92.984375 270.355469 " fill-opacity="1" fill-rule="nonzero"/><path fill="#a55568" d="M 105.183594 260.703125 C 109.429688 260.703125 112.863281 264.132812 112.863281 268.375 C 112.863281 269.261719 112.714844 270.113281 112.433594 270.90625 C 113.128906 269.8125 113.535156 268.511719 113.535156 267.117188 C 113.535156 263.203125 110.359375 260.03125 106.445312 260.03125 C 105.046875 260.03125 103.746094 260.4375 102.648438 261.132812 C 103.441406 260.855469 104.292969 260.703125 105.183594 260.703125 " fill-opacity="1" fill-rule="nonzero"/><path fill="#a55568" d="M 157.222656 255.28125 C 158.050781 251.382812 161.890625 248.898438 165.789062 249.734375 C 166.609375 249.910156 167.363281 250.214844 168.039062 250.625 C 167.164062 249.769531 166.046875 249.148438 164.765625 248.871094 C 161.160156 248.101562 157.621094 250.398438 156.851562 253.996094 C 156.578125 255.277344 156.695312 256.550781 157.121094 257.699219 C 157.019531 256.914062 157.046875 256.101562 157.222656 255.28125 " fill-opacity="1" fill-rule="nonzero"/><path fill="#a55568" d="M 132.046875 263.953125 C 134.210938 262.679688 136.996094 263.414062 138.265625 265.574219 C 138.53125 266.03125 138.707031 266.511719 138.804688 267 C 138.832031 266.234375 138.648438 265.445312 138.234375 264.734375 C 137.058594 262.734375 134.488281 262.0625 132.488281 263.230469 C 131.773438 263.648438 131.230469 264.246094 130.875 264.925781 C 131.199219 264.546875 131.589844 264.214844 132.046875 263.953125 " fill-opacity="1" fill-rule="nonzero"/><path fill="#a55568" d="M 171.867188 257.785156 C 174.230469 258.136719 175.863281 260.335938 175.511719 262.695312 C 175.4375 263.191406 175.277344 263.65625 175.058594 264.074219 C 175.539062 263.523438 175.875 262.832031 175.988281 262.054688 C 176.3125 259.867188 174.808594 257.835938 172.621094 257.515625 C 171.84375 257.402344 171.082031 257.515625 170.414062 257.816406 C 170.882812 257.726562 171.367188 257.710938 171.867188 257.785156 " fill-opacity="1" fill-rule="nonzero"/><path fill="#a55568" d="M 139.492188 272.488281 C 139.910156 270.53125 141.835938 269.285156 143.796875 269.703125 C 144.207031 269.789062 144.585938 269.941406 144.925781 270.152344 C 144.488281 269.722656 143.925781 269.402344 143.28125 269.269531 C 141.472656 268.882812 139.691406 270.035156 139.304688 271.84375 C 139.167969 272.484375 139.226562 273.128906 139.441406 273.703125 C 139.390625 273.308594 139.402344 272.898438 139.492188 272.488281 " fill-opacity="1" fill-rule="nonzero"/><path fill="#a55568" d="M 161.871094 268.960938 C 160.898438 273.132812 156.726562 275.722656 152.550781 274.75 C 151.675781 274.546875 150.875 274.199219 150.15625 273.742188 C 151.074219 274.679688 152.265625 275.375 153.636719 275.695312 C 157.492188 276.597656 161.34375 274.203125 162.246094 270.347656 C 162.566406 268.976562 162.464844 267.605469 162.03125 266.367188 C 162.121094 267.210938 162.078125 268.085938 161.871094 268.960938 " fill-opacity="1" fill-rule="nonzero"/><path fill="#a55568" d="M 130.269531 278.238281 C 127.382812 282.773438 121.359375 284.121094 116.824219 281.234375 C 115.871094 280.632812 115.058594 279.886719 114.394531 279.050781 C 115.097656 280.542969 116.21875 281.859375 117.710938 282.808594 C 121.90625 285.472656 127.464844 284.230469 130.132812 280.039062 C 131.082031 278.546875 131.535156 276.878906 131.535156 275.230469 C 131.289062 276.273438 130.875 277.285156 130.269531 278.238281 " fill-opacity="1" fill-rule="nonzero"/><path fill="#a55568" d="M 216.191406 165.515625 C 216.984375 159.535156 222.488281 155.324219 228.476562 156.117188 C 229.738281 156.285156 230.910156 156.660156 231.980469 157.203125 C 230.5625 156.011719 228.800781 155.199219 226.828125 154.9375 C 221.296875 154.203125 216.214844 158.09375 215.484375 163.621094 C 215.222656 165.585938 215.546875 167.5 216.328125 169.179688 C 216.082031 168.007812 216.023438 166.773438 216.191406 165.515625 " fill-opacity="1" fill-rule="nonzero"/><path fill="#a55568" d="M 63.96875 214.375 C 60.65625 209.589844 61.851562 203.03125 66.636719 199.722656 C 67.640625 199.027344 68.722656 198.535156 69.835938 198.230469 C 68.054688 198.300781 66.269531 198.859375 64.695312 199.949219 C 60.273438 203.007812 59.171875 209.066406 62.230469 213.480469 C 63.320312 215.050781 64.792969 216.207031 66.433594 216.898438 C 65.5 216.21875 64.664062 215.375 63.96875 214.375 " fill-opacity="1" fill-rule="nonzero"/><path fill="#a55568" d="M 231.019531 197.015625 C 224.542969 198.539062 218.050781 194.53125 216.527344 188.0625 C 216.203125 186.703125 216.128906 185.347656 216.269531 184.035156 C 215.597656 185.960938 215.449219 188.09375 215.953125 190.222656 C 217.367188 196.199219 223.359375 199.898438 229.339844 198.492188 C 231.472656 197.988281 233.316406 196.898438 234.738281 195.445312 C 233.625 196.152344 232.378906 196.695312 231.019531 197.015625 " fill-opacity="1" fill-rule="nonzero"/><path fill="#a55568" d="M 257.523438 198.863281 C 261.398438 198.863281 264.542969 202.003906 264.542969 205.878906 C 264.542969 206.691406 264.402344 207.46875 264.152344 208.199219 C 264.785156 207.195312 265.15625 206.003906 265.15625 204.730469 C 265.15625 201.15625 262.253906 198.253906 258.671875 198.253906 C 257.394531 198.253906 256.207031 198.621094 255.203125 199.261719 C 255.929688 199.007812 256.707031 198.863281 257.523438 198.863281 " fill-opacity="1" fill-rule="nonzero"/><path fill="#a55568" d="M 192.46875 163.9375 C 195.007812 161.597656 198.960938 161.757812 201.300781 164.300781 C 201.792969 164.828125 202.171875 165.425781 202.441406 166.054688 C 202.257812 165.011719 201.78125 164.011719 201.011719 163.179688 C 198.851562 160.832031 195.199219 160.683594 192.851562 162.839844 C 192.015625 163.613281 191.460938 164.570312 191.1875 165.589844 C 191.507812 164.988281 191.933594 164.425781 192.46875 163.9375 " fill-opacity="1" fill-rule="nonzero"/><path fill="#a55568" d="M 68.890625 191.960938 C 71.050781 188 76.015625 186.542969 79.980469 188.699219 C 80.808594 189.15625 81.527344 189.730469 82.128906 190.394531 C 81.457031 189.183594 80.449219 188.144531 79.144531 187.4375 C 75.484375 185.441406 70.902344 186.789062 68.90625 190.445312 C 68.195312 191.746094 67.910156 193.167969 68 194.546875 C 68.148438 193.664062 68.4375 192.789062 68.890625 191.960938 " fill-opacity="1" fill-rule="nonzero"/><path fill="#a55568" d="M 187.589844 168.054688 C 187.296875 162.976562 191.199219 158.605469 196.28125 158.308594 C 198.742188 158.167969 201.117188 158.992188 202.957031 160.632812 C 204.800781 162.269531 205.894531 164.53125 206.035156 166.988281 L 204.074219 167.105469 C 203.960938 165.164062 203.101562 163.386719 201.648438 162.097656 C 200.199219 160.808594 198.332031 160.15625 196.394531 160.269531 C 192.390625 160.5 189.324219 163.945312 189.550781 167.941406 L 187.589844 168.054688 " fill-opacity="1" fill-rule="nonzero"/><path fill="#a55568" d="M 134.269531 276.304688 L 134.269531 274.339844 C 135.121094 274.339844 135.941406 274.175781 136.71875 273.847656 L 137.484375 275.660156 C 136.464844 276.089844 135.382812 276.304688 134.269531 276.304688 " fill-opacity="1" fill-rule="nonzero"/><g clip-path="url(#id44)"><path fill="#a55568" d="M 171.851562 267.078125 C 168.890625 267.078125 166.476562 264.671875 166.476562 261.714844 C 166.476562 258.757812 168.890625 256.347656 171.851562 256.347656 C 174.8125 256.347656 177.21875 258.757812 177.21875 261.714844 C 177.21875 264.671875 174.8125 267.078125 171.851562 267.078125 Z M 163.457031 263.21875 C 159.125 263.21875 155.59375 259.699219 155.59375 255.363281 C 155.59375 251.035156 159.125 247.515625 163.457031 247.515625 C 167.46875 247.515625 170.785156 250.53125 171.257812 254.414062 C 167.488281 254.71875 164.511719 257.875 164.511719 261.714844 C 164.511719 262.195312 164.5625 262.671875 164.652344 263.125 C 164.257812 263.1875 163.859375 263.21875 163.457031 263.21875 Z M 154.613281 276.894531 C 152.410156 276.894531 150.296875 276.0625 148.691406 274.585938 C 148.894531 273.949219 149.011719 273.277344 149.011719 272.574219 C 149.011719 270.253906 147.777344 268.21875 145.933594 267.078125 C 146.46875 262.800781 150.101562 259.472656 154.511719 259.425781 C 155.976562 262.632812 159.121094 264.921875 162.820312 265.160156 C 163.167969 266.121094 163.359375 267.121094 163.359375 268.15625 C 163.359375 272.972656 159.433594 276.894531 154.613281 276.894531 Z M 142.523438 277.089844 C 140.03125 277.089844 138.003906 275.066406 138.003906 272.574219 C 138.003906 270.082031 140.03125 268.058594 142.523438 268.058594 C 145.019531 268.058594 147.046875 270.082031 147.046875 272.574219 C 147.046875 275.066406 145.019531 277.089844 142.523438 277.089844 Z M 133.289062 274.929688 C 133.289062 280.886719 128.4375 285.734375 122.480469 285.734375 C 116.914062 285.734375 112.316406 281.507812 111.734375 276.105469 C 114.863281 274.308594 116.976562 270.933594 116.976562 267.078125 C 116.976562 266.609375 116.941406 266.152344 116.878906 265.699219 C 118.566406 264.675781 120.488281 264.132812 122.480469 264.132812 C 128.4375 264.132812 133.289062 268.976562 133.289062 274.929688 Z M 98.132812 266.515625 C 98.425781 262.121094 102.085938 258.636719 106.558594 258.636719 C 111.21875 258.636719 115.007812 262.421875 115.007812 267.078125 C 115.007812 271.640625 111.359375 275.363281 106.824219 275.507812 C 105.808594 271.148438 102.445312 267.679688 98.132812 266.515625 Z M 94.964844 288.480469 C 89.324219 288.480469 84.742188 283.898438 84.742188 278.269531 C 84.742188 272.636719 89.324219 268.058594 94.964844 268.058594 C 100.597656 268.058594 105.179688 272.636719 105.179688 278.269531 C 105.179688 283.898438 100.597656 288.480469 94.964844 288.480469 Z M 96.886719 263.011719 C 96.253906 263.101562 95.605469 263.152344 94.964844 263.152344 C 87.808594 263.152344 81.992188 257.335938 81.992188 250.191406 C 81.992188 243.046875 87.808594 237.234375 94.964844 237.234375 C 102.117188 237.234375 107.933594 243.046875 107.933594 250.191406 C 107.933594 252.484375 107.328125 254.714844 106.183594 256.679688 C 101.988281 256.828125 98.417969 259.46875 96.910156 263.160156 Z M 173.246094 254.519531 C 172.816406 249.5 168.589844 245.550781 163.457031 245.550781 C 158.039062 245.550781 153.632812 249.953125 153.632812 255.363281 C 153.632812 256.09375 153.714844 256.804688 153.863281 257.484375 C 148.933594 257.828125 144.914062 261.515625 144.070312 266.289062 C 143.570312 266.164062 143.054688 266.09375 142.523438 266.09375 L 142.285156 266.109375 C 141.398438 262.460938 138.113281 259.8125 134.269531 259.8125 C 131.609375 259.8125 129.121094 261.105469 127.582031 263.234375 C 126.015625 262.550781 124.292969 262.167969 122.480469 262.167969 C 120.339844 262.167969 118.269531 262.699219 116.410156 263.703125 C 115.191406 260.160156 112.109375 257.476562 108.335938 256.824219 C 109.355469 254.773438 109.898438 252.511719 109.898438 250.191406 C 109.898438 241.964844 103.199219 235.269531 94.964844 235.269531 C 86.722656 235.269531 80.023438 241.964844 80.023438 250.191406 C 80.023438 258.421875 86.722656 265.113281 94.964844 265.113281 C 95.421875 265.113281 95.882812 265.085938 96.34375 265.046875 C 96.269531 265.40625 96.214844 265.78125 96.183594 266.160156 C 95.78125 266.117188 95.375 266.09375 94.964844 266.09375 C 88.242188 266.09375 82.777344 271.554688 82.777344 278.269531 C 82.777344 284.980469 88.242188 290.441406 94.964844 290.441406 C 101.679688 290.441406 107.148438 284.980469 107.148438 278.269531 C 107.148438 278 107.136719 277.734375 107.117188 277.472656 C 108.074219 277.417969 108.996094 277.234375 109.863281 276.945312 C 110.832031 283.027344 116.121094 287.695312 122.480469 287.695312 C 129.523438 287.695312 135.253906 281.972656 135.253906 274.929688 C 135.253906 270.417969 132.886719 266.4375 129.335938 264.171875 C 130.515625 262.675781 132.332031 261.777344 134.269531 261.777344 C 137.167969 261.777344 139.648438 263.75 140.351562 266.480469 C 137.84375 267.371094 136.039062 269.765625 136.039062 272.574219 C 136.039062 276.148438 138.949219 279.054688 142.523438 279.054688 C 144.679688 279.054688 146.582031 277.996094 147.761719 276.378906 C 149.671875 277.972656 152.097656 278.859375 154.613281 278.859375 C 160.519531 278.859375 165.328125 274.058594 165.328125 268.15625 C 165.328125 267.101562 165.171875 266.074219 164.875 265.078125 C 165.015625 265.058594 165.164062 265.035156 165.304688 265.003906 C 166.515625 267.394531 168.992188 269.042969 171.851562 269.042969 C 175.894531 269.042969 179.183594 265.753906 179.183594 261.714844 C 179.183594 258.152344 176.625 255.175781 173.246094 254.519531 " fill-opacity="1" fill-rule="nonzero"/></g><path fill="#a55568" d="M 75.625 183.386719 C 69.195312 183.386719 63.964844 188.613281 63.964844 195.035156 C 63.964844 195.335938 63.976562 195.632812 64 195.933594 C 59.753906 198.375 56.886719 202.953125 56.886719 208.191406 C 56.886719 215.421875 62.304688 221.464844 69.488281 222.246094 L 69.703125 220.292969 C 63.515625 219.621094 58.851562 214.417969 58.851562 208.191406 C 58.851562 201.480469 64.320312 196.019531 71.035156 196.019531 C 72.007812 196.019531 72.976562 196.132812 73.910156 196.359375 L 74.375 194.449219 C 73.289062 194.1875 72.164062 194.054688 71.035156 194.054688 C 69.238281 194.054688 67.515625 194.394531 65.929688 195.011719 C 65.941406 189.679688 70.285156 185.347656 75.625 185.347656 C 78.78125 185.347656 81.75 186.894531 83.566406 189.480469 L 85.175781 188.351562 C 82.992188 185.242188 79.421875 183.386719 75.625 183.386719 " fill-opacity="1" fill-rule="nonzero"/></svg>