<svg xmlns="http://www.w3.org/2000/svg" xmlns:xlink="http://www.w3.org/1999/xlink" width="500" zoomAndPan="magnify" viewBox="0 0 375 374.999991" height="500" preserveAspectRatio="xMidYMid meet" version="1.0"><defs><clipPath id="id1"><path d="M 189.769531 210 L 244 210 L 244 235 L 189.769531 235 Z M 189.769531 210 " clip-rule="nonzero"/></clipPath><clipPath id="id2"><path d="M 197.003906 225.144531 C 200.347656 225.144531 203.136719 222.871094 203.988281 219.792969 L 224.296875 219.792969 L 239.394531 234.910156 C 240.539062 233.753906 241.789062 232.710938 243.109375 231.757812 L 226.304688 214.933594 L 203.660156 214.933594 C 202.535156 212.367188 199.980469 210.570312 197.003906 210.570312 C 192.984375 210.570312 189.730469 213.832031 189.730469 217.855469 C 189.730469 221.882812 192.984375 225.144531 197.003906 225.144531 Z M 197.003906 225.144531 " clip-rule="nonzero"/></clipPath><linearGradient x1="14.265" gradientTransform="matrix(2.324486, 0, 0, 2.327697, 183.25952, 180.118966)" y1="13.081998" x2="14.265" gradientUnits="userSpaceOnUse" y2="23.537999" id="id3"><stop stop-opacity="1" stop-color="rgb(19.117737%, 78.274536%, 68.978882%)" offset="0"/><stop stop-opacity="1" stop-color="rgb(19.062805%, 78.167725%, 69.067383%)" offset="0.03125"/><stop stop-opacity="1" stop-color="rgb(18.951416%, 77.955627%, 69.245911%)" offset="0.0625"/><stop stop-opacity="1" stop-color="rgb(18.841553%, 77.74353%, 69.424438%)" offset="0.09375"/><stop stop-opacity="1" stop-color="rgb(18.731689%, 77.531433%, 69.602966%)" offset="0.125"/><stop stop-opacity="1" stop-color="rgb(18.621826%, 77.320862%, 69.781494%)" offset="0.15625"/><stop stop-opacity="1" stop-color="rgb(18.510437%, 77.108765%, 69.960022%)" offset="0.1875"/><stop stop-opacity="1" stop-color="rgb(18.400574%, 76.896667%, 70.13855%)" offset="0.21875"/><stop stop-opacity="1" stop-color="rgb(18.29071%, 76.68457%, 70.317078%)" offset="0.25"/><stop stop-opacity="1" stop-color="rgb(18.179321%, 76.472473%, 70.495605%)" offset="0.28125"/><stop stop-opacity="1" stop-color="rgb(18.069458%, 76.261902%, 70.674133%)" offset="0.3125"/><stop stop-opacity="1" stop-color="rgb(17.959595%, 76.049805%, 70.852661%)" offset="0.34375"/><stop stop-opacity="1" stop-color="rgb(17.849731%, 75.837708%, 71.031189%)" offset="0.375"/><stop stop-opacity="1" stop-color="rgb(17.738342%, 75.62561%, 71.209717%)" offset="0.40625"/><stop stop-opacity="1" stop-color="rgb(17.628479%, 75.413513%, 71.388245%)" offset="0.4375"/><stop stop-opacity="1" stop-color="rgb(17.518616%, 75.201416%, 71.566772%)" offset="0.46875"/><stop stop-opacity="1" stop-color="rgb(17.407227%, 74.990845%, 71.746826%)" offset="0.5"/><stop stop-opacity="1" stop-color="rgb(17.297363%, 74.778748%, 71.925354%)" offset="0.53125"/><stop stop-opacity="1" stop-color="rgb(17.1875%, 74.56665%, 72.103882%)" offset="0.5625"/><stop stop-opacity="1" stop-color="rgb(17.077637%, 74.354553%, 72.28241%)" offset="0.59375"/><stop stop-opacity="1" stop-color="rgb(16.966248%, 74.142456%, 72.460938%)" offset="0.625"/><stop stop-opacity="1" stop-color="rgb(16.856384%, 73.930359%, 72.639465%)" offset="0.65625"/><stop stop-opacity="1" stop-color="rgb(16.746521%, 73.719788%, 72.817993%)" offset="0.6875"/><stop stop-opacity="1" stop-color="rgb(16.635132%, 73.50769%, 72.996521%)" offset="0.71875"/><stop stop-opacity="1" stop-color="rgb(16.525269%, 73.295593%, 73.175049%)" offset="0.75"/><stop stop-opacity="1" stop-color="rgb(16.415405%, 73.083496%, 73.353577%)" offset="0.78125"/><stop stop-opacity="1" stop-color="rgb(16.305542%, 72.871399%, 73.532104%)" offset="0.8125"/><stop stop-opacity="1" stop-color="rgb(16.194153%, 72.660828%, 73.710632%)" offset="0.84375"/><stop stop-opacity="1" stop-color="rgb(16.08429%, 72.44873%, 73.88916%)" offset="0.875"/><stop stop-opacity="1" stop-color="rgb(15.974426%, 72.236633%, 74.067688%)" offset="0.90625"/><stop stop-opacity="1" stop-color="rgb(15.863037%, 72.024536%, 74.246216%)" offset="0.9375"/><stop stop-opacity="1" stop-color="rgb(15.753174%, 71.812439%, 74.424744%)" offset="0.96875"/><stop stop-opacity="1" stop-color="rgb(15.643311%, 71.600342%, 74.603271%)" offset="1"/></linearGradient><clipPath id="id4"><path d="M 235 230 L 285 230 L 285 281 L 235 281 Z M 235 230 " clip-rule="nonzero"/></clipPath><clipPath id="id5"><path d="M 260.066406 230.726562 C 246.449219 230.726562 235.410156 241.78125 235.410156 255.414062 C 235.410156 269.050781 246.449219 280.105469 260.066406 280.105469 C 273.683594 280.105469 284.722656 269.050781 284.722656 255.414062 C 284.722656 241.78125 273.6875 230.726562 260.066406 230.726562 Z M 260.066406 275.476562 C 249.003906 275.476562 240.03125 266.492188 240.03125 255.414062 C 240.03125 244.332031 249.003906 235.351562 260.066406 235.351562 C 271.132812 235.351562 280.101562 244.332031 280.101562 255.414062 C 280.101562 266.492188 271.132812 275.476562 260.066406 275.476562 Z M 260.066406 275.476562 " clip-rule="nonzero"/></clipPath><linearGradient x1="33.043999" gradientTransform="matrix(2.324486, 0, 0, 2.327697, 183.25952, 180.118966)" y1="21.740998" x2="33.043999" gradientUnits="userSpaceOnUse" y2="42.955001" id="id6"><stop stop-opacity="1" stop-color="rgb(16.194153%, 72.660828%, 73.710632%)" offset="0"/><stop stop-opacity="1" stop-color="rgb(16.137695%, 72.55249%, 73.800659%)" offset="0.015625"/><stop stop-opacity="1" stop-color="rgb(16.026306%, 72.337341%, 73.982239%)" offset="0.03125"/><stop stop-opacity="1" stop-color="rgb(15.914917%, 72.122192%, 74.163818%)" offset="0.046875"/><stop stop-opacity="1" stop-color="rgb(15.802002%, 71.908569%, 74.343872%)" offset="0.0625"/><stop stop-opacity="1" stop-color="rgb(15.690613%, 71.69342%, 74.525452%)" offset="0.078125"/><stop stop-opacity="1" stop-color="rgb(15.579224%, 71.478271%, 74.707031%)" offset="0.09375"/><stop stop-opacity="1" stop-color="rgb(15.466309%, 71.263123%, 74.888611%)" offset="0.109375"/><stop stop-opacity="1" stop-color="rgb(15.354919%, 71.047974%, 75.068665%)" offset="0.125"/><stop stop-opacity="1" stop-color="rgb(15.24353%, 70.832825%, 75.250244%)" offset="0.140625"/><stop stop-opacity="1" stop-color="rgb(15.132141%, 70.619202%, 75.431824%)" offset="0.15625"/><stop stop-opacity="1" stop-color="rgb(15.019226%, 70.404053%, 75.611877%)" offset="0.171875"/><stop stop-opacity="1" stop-color="rgb(14.907837%, 70.188904%, 75.793457%)" offset="0.1875"/><stop stop-opacity="1" stop-color="rgb(14.796448%, 69.973755%, 75.975037%)" offset="0.203125"/><stop stop-opacity="1" stop-color="rgb(14.683533%, 69.758606%, 76.156616%)" offset="0.21875"/><stop stop-opacity="1" stop-color="rgb(14.572144%, 69.543457%, 76.33667%)" offset="0.234375"/><stop stop-opacity="1" stop-color="rgb(14.460754%, 69.329834%, 76.51825%)" offset="0.25"/><stop stop-opacity="1" stop-color="rgb(14.347839%, 69.114685%, 76.699829%)" offset="0.265625"/><stop stop-opacity="1" stop-color="rgb(14.23645%, 68.899536%, 76.879883%)" offset="0.28125"/><stop stop-opacity="1" stop-color="rgb(14.125061%, 68.684387%, 77.061462%)" offset="0.296875"/><stop stop-opacity="1" stop-color="rgb(14.012146%, 68.469238%, 77.243042%)" offset="0.3125"/><stop stop-opacity="1" stop-color="rgb(13.900757%, 68.254089%, 77.424622%)" offset="0.328125"/><stop stop-opacity="1" stop-color="rgb(13.789368%, 68.040466%, 77.604675%)" offset="0.34375"/><stop stop-opacity="1" stop-color="rgb(13.676453%, 67.825317%, 77.786255%)" offset="0.359375"/><stop stop-opacity="1" stop-color="rgb(13.565063%, 67.610168%, 77.967834%)" offset="0.375"/><stop stop-opacity="1" stop-color="rgb(13.453674%, 67.39502%, 78.149414%)" offset="0.390625"/><stop stop-opacity="1" stop-color="rgb(13.339233%, 67.176819%, 78.33252%)" offset="0.40625"/><stop stop-opacity="1" stop-color="rgb(13.214111%, 66.93573%, 78.535461%)" offset="0.421875"/><stop stop-opacity="1" stop-color="rgb(13.076782%, 66.673279%, 78.75824%)" offset="0.4375"/><stop stop-opacity="1" stop-color="rgb(12.940979%, 66.409302%, 78.979492%)" offset="0.453125"/><stop stop-opacity="1" stop-color="rgb(12.80365%, 66.146851%, 79.200745%)" offset="0.46875"/><stop stop-opacity="1" stop-color="rgb(12.666321%, 65.882874%, 79.421997%)" offset="0.484375"/><stop stop-opacity="1" stop-color="rgb(12.528992%, 65.620422%, 79.64325%)" offset="0.5"/><stop stop-opacity="1" stop-color="rgb(12.391663%, 65.356445%, 79.866028%)" offset="0.515625"/><stop stop-opacity="1" stop-color="rgb(12.255859%, 65.093994%, 80.08728%)" offset="0.53125"/><stop stop-opacity="1" stop-color="rgb(12.11853%, 64.830017%, 80.308533%)" offset="0.546875"/><stop stop-opacity="1" stop-color="rgb(11.981201%, 64.567566%, 80.529785%)" offset="0.5625"/><stop stop-opacity="1" stop-color="rgb(11.843872%, 64.303589%, 80.751038%)" offset="0.578125"/><stop stop-opacity="1" stop-color="rgb(11.708069%, 64.041138%, 80.973816%)" offset="0.59375"/><stop stop-opacity="1" stop-color="rgb(11.57074%, 63.777161%, 81.195068%)" offset="0.609375"/><stop stop-opacity="1" stop-color="rgb(11.433411%, 63.514709%, 81.416321%)" offset="0.625"/><stop stop-opacity="1" stop-color="rgb(11.296082%, 63.250732%, 81.637573%)" offset="0.640625"/><stop stop-opacity="1" stop-color="rgb(11.160278%, 62.988281%, 81.860352%)" offset="0.65625"/><stop stop-opacity="1" stop-color="rgb(11.022949%, 62.724304%, 82.081604%)" offset="0.671875"/><stop stop-opacity="1" stop-color="rgb(10.88562%, 62.461853%, 82.302856%)" offset="0.6875"/><stop stop-opacity="1" stop-color="rgb(10.748291%, 62.197876%, 82.524109%)" offset="0.703125"/><stop stop-opacity="1" stop-color="rgb(10.610962%, 61.935425%, 82.745361%)" offset="0.71875"/><stop stop-opacity="1" stop-color="rgb(10.475159%, 61.671448%, 82.96814%)" offset="0.734375"/><stop stop-opacity="1" stop-color="rgb(10.33783%, 61.408997%, 83.189392%)" offset="0.75"/><stop stop-opacity="1" stop-color="rgb(10.2005%, 61.14502%, 83.410645%)" offset="0.765625"/><stop stop-opacity="1" stop-color="rgb(10.063171%, 60.882568%, 83.631897%)" offset="0.78125"/><stop stop-opacity="1" stop-color="rgb(9.927368%, 60.618591%, 83.853149%)" offset="0.796875"/><stop stop-opacity="1" stop-color="rgb(9.790039%, 60.35614%, 84.075928%)" offset="0.8125"/><stop stop-opacity="1" stop-color="rgb(9.65271%, 60.092163%, 84.29718%)" offset="0.828125"/><stop stop-opacity="1" stop-color="rgb(9.515381%, 59.829712%, 84.518433%)" offset="0.84375"/><stop stop-opacity="1" stop-color="rgb(9.379578%, 59.565735%, 84.739685%)" offset="0.859375"/><stop stop-opacity="1" stop-color="rgb(9.242249%, 59.303284%, 84.962463%)" offset="0.875"/><stop stop-opacity="1" stop-color="rgb(9.104919%, 59.039307%, 85.183716%)" offset="0.890625"/><stop stop-opacity="1" stop-color="rgb(8.96759%, 58.776855%, 85.404968%)" offset="0.90625"/><stop stop-opacity="1" stop-color="rgb(8.830261%, 58.512878%, 85.626221%)" offset="0.921875"/><stop stop-opacity="1" stop-color="rgb(8.694458%, 58.250427%, 85.847473%)" offset="0.9375"/><stop stop-opacity="1" stop-color="rgb(8.557129%, 57.98645%, 86.070251%)" offset="0.953125"/><stop stop-opacity="1" stop-color="rgb(8.4198%, 57.723999%, 86.291504%)" offset="0.96875"/><stop stop-opacity="1" stop-color="rgb(8.282471%, 57.460022%, 86.512756%)" offset="0.984375"/><stop stop-opacity="1" stop-color="rgb(8.146667%, 57.197571%, 86.734009%)" offset="1"/></linearGradient><clipPath id="id7"><path d="M 252 180 L 267 180 L 267 227 L 252 227 Z M 252 180 " clip-rule="nonzero"/></clipPath><clipPath id="id8"><path d="M 256.835938 194.230469 L 256.835938 226.753906 C 258.15625 226.566406 259.496094 226.441406 260.875 226.441406 C 261.148438 226.441406 261.414062 226.472656 261.683594 226.480469 L 261.683594 194.265625 C 264.53125 193.273438 266.59375 190.59375 266.59375 187.40625 C 266.59375 183.378906 263.332031 180.117188 259.316406 180.117188 C 255.296875 180.117188 252.042969 183.382812 252.042969 187.40625 C 252.039062 190.554688 254.042969 193.210938 256.835938 194.230469 Z M 256.835938 194.230469 " clip-rule="nonzero"/></clipPath><linearGradient x1="32.719002" gradientTransform="matrix(2.324486, 0, 0, 2.327697, 183.25952, 180.118966)" y1="-0.000000990231" x2="32.719002" gradientUnits="userSpaceOnUse" y2="20.033999" id="id9"><stop stop-opacity="1" stop-color="rgb(21.998596%, 83.898926%, 64.299011%)" offset="0"/><stop stop-opacity="1" stop-color="rgb(21.998596%, 83.898926%, 64.299011%)" offset="0.0625"/><stop stop-opacity="1" stop-color="rgb(21.92688%, 83.758545%, 64.414978%)" offset="0.09375"/><stop stop-opacity="1" stop-color="rgb(21.783447%, 83.477783%, 64.648438%)" offset="0.125"/><stop stop-opacity="1" stop-color="rgb(21.638489%, 83.19397%, 64.883423%)" offset="0.15625"/><stop stop-opacity="1" stop-color="rgb(21.495056%, 82.911682%, 65.118408%)" offset="0.1875"/><stop stop-opacity="1" stop-color="rgb(21.350098%, 82.627869%, 65.353394%)" offset="0.21875"/><stop stop-opacity="1" stop-color="rgb(21.205139%, 82.345581%, 65.588379%)" offset="0.25"/><stop stop-opacity="1" stop-color="rgb(21.060181%, 82.061768%, 65.823364%)" offset="0.28125"/><stop stop-opacity="1" stop-color="rgb(20.916748%, 81.77948%, 66.05835%)" offset="0.3125"/><stop stop-opacity="1" stop-color="rgb(20.77179%, 81.495667%, 66.293335%)" offset="0.34375"/><stop stop-opacity="1" stop-color="rgb(20.626831%, 81.213379%, 66.52832%)" offset="0.375"/><stop stop-opacity="1" stop-color="rgb(20.483398%, 80.929565%, 66.763306%)" offset="0.40625"/><stop stop-opacity="1" stop-color="rgb(20.33844%, 80.647278%, 66.996765%)" offset="0.4375"/><stop stop-opacity="1" stop-color="rgb(20.193481%, 80.363464%, 67.23175%)" offset="0.46875"/><stop stop-opacity="1" stop-color="rgb(20.048523%, 80.081177%, 67.466736%)" offset="0.5"/><stop stop-opacity="1" stop-color="rgb(19.90509%, 79.797363%, 67.701721%)" offset="0.53125"/><stop stop-opacity="1" stop-color="rgb(19.760132%, 79.515076%, 67.936707%)" offset="0.5625"/><stop stop-opacity="1" stop-color="rgb(19.602966%, 79.208374%, 68.191528%)" offset="0.59375"/><stop stop-opacity="1" stop-color="rgb(19.464111%, 78.941345%, 68.415833%)" offset="0.609375"/><stop stop-opacity="1" stop-color="rgb(19.358826%, 78.738403%, 68.586731%)" offset="0.625"/><stop stop-opacity="1" stop-color="rgb(19.25354%, 78.535461%, 68.757629%)" offset="0.640625"/><stop stop-opacity="1" stop-color="rgb(19.148254%, 78.33252%, 68.928528%)" offset="0.65625"/><stop stop-opacity="1" stop-color="rgb(19.041443%, 78.129578%, 69.099426%)" offset="0.671875"/><stop stop-opacity="1" stop-color="rgb(18.936157%, 77.926636%, 69.271851%)" offset="0.6875"/><stop stop-opacity="1" stop-color="rgb(18.830872%, 77.723694%, 69.442749%)" offset="0.703125"/><stop stop-opacity="1" stop-color="rgb(18.725586%, 77.520752%, 69.613647%)" offset="0.71875"/><stop stop-opacity="1" stop-color="rgb(18.618774%, 77.31781%, 69.784546%)" offset="0.734375"/><stop stop-opacity="1" stop-color="rgb(18.513489%, 77.114868%, 69.955444%)" offset="0.75"/><stop stop-opacity="1" stop-color="rgb(18.408203%, 76.911926%, 70.126343%)" offset="0.765625"/><stop stop-opacity="1" stop-color="rgb(18.302917%, 76.708984%, 70.297241%)" offset="0.78125"/><stop stop-opacity="1" stop-color="rgb(18.196106%, 76.506042%, 70.46814%)" offset="0.796875"/><stop stop-opacity="1" stop-color="rgb(18.09082%, 76.303101%, 70.639038%)" offset="0.8125"/><stop stop-opacity="1" stop-color="rgb(17.985535%, 76.100159%, 70.811462%)" offset="0.828125"/><stop stop-opacity="1" stop-color="rgb(17.880249%, 75.897217%, 70.982361%)" offset="0.84375"/><stop stop-opacity="1" stop-color="rgb(17.774963%, 75.694275%, 71.153259%)" offset="0.859375"/><stop stop-opacity="1" stop-color="rgb(17.668152%, 75.491333%, 71.324158%)" offset="0.875"/><stop stop-opacity="1" stop-color="rgb(17.562866%, 75.288391%, 71.495056%)" offset="0.890625"/><stop stop-opacity="1" stop-color="rgb(17.457581%, 75.085449%, 71.665955%)" offset="0.90625"/><stop stop-opacity="1" stop-color="rgb(17.352295%, 74.882507%, 71.836853%)" offset="0.921875"/><stop stop-opacity="1" stop-color="rgb(17.245483%, 74.679565%, 72.007751%)" offset="0.9375"/><stop stop-opacity="1" stop-color="rgb(17.140198%, 74.476624%, 72.180176%)" offset="0.953125"/><stop stop-opacity="1" stop-color="rgb(17.034912%, 74.273682%, 72.351074%)" offset="0.96875"/><stop stop-opacity="1" stop-color="rgb(16.929626%, 74.07074%, 72.521973%)" offset="0.984375"/><stop stop-opacity="1" stop-color="rgb(16.822815%, 73.867798%, 72.692871%)" offset="1"/></linearGradient><clipPath id="id10"><path d="M 251 284 L 267 284 L 267 329.605469 L 251 329.605469 Z M 251 284 " clip-rule="nonzero"/></clipPath><clipPath id="id11"><path d="M 261.683594 314.964844 L 261.683594 284.480469 C 261.144531 284.507812 260.613281 284.558594 260.070312 284.558594 C 258.976562 284.558594 257.898438 284.488281 256.835938 284.371094 L 256.835938 314.960938 C 254.015625 315.964844 251.984375 318.636719 251.984375 321.804688 C 251.984375 325.828125 255.238281 329.089844 259.257812 329.089844 C 263.277344 329.089844 266.535156 325.824219 266.535156 321.804688 C 266.535156 318.636719 264.503906 315.96875 261.683594 314.964844 Z M 261.683594 314.964844 " clip-rule="nonzero"/></clipPath><linearGradient x1="32.695999" gradientTransform="matrix(2.324486, 0, 0, 2.327697, 183.25952, 180.118966)" y1="44.786998" x2="32.695999" gradientUnits="userSpaceOnUse" y2="63.999" id="id12"><stop stop-opacity="1" stop-color="rgb(7.321167%, 55.610657%, 88.070679%)" offset="0"/><stop stop-opacity="1" stop-color="rgb(7.258606%, 55.491638%, 88.169861%)" offset="0.015625"/><stop stop-opacity="1" stop-color="rgb(7.133484%, 55.253601%, 88.371277%)" offset="0.03125"/><stop stop-opacity="1" stop-color="rgb(7.009888%, 55.015564%, 88.571167%)" offset="0.046875"/><stop stop-opacity="1" stop-color="rgb(6.886292%, 54.776001%, 88.772583%)" offset="0.0625"/><stop stop-opacity="1" stop-color="rgb(6.762695%, 54.537964%, 88.972473%)" offset="0.078125"/><stop stop-opacity="1" stop-color="rgb(6.637573%, 54.299927%, 89.173889%)" offset="0.09375"/><stop stop-opacity="1" stop-color="rgb(6.513977%, 54.06189%, 89.373779%)" offset="0.109375"/><stop stop-opacity="1" stop-color="rgb(6.390381%, 53.823853%, 89.575195%)" offset="0.125"/><stop stop-opacity="1" stop-color="rgb(6.265259%, 53.58429%, 89.775085%)" offset="0.140625"/><stop stop-opacity="1" stop-color="rgb(6.141663%, 53.346252%, 89.976501%)" offset="0.15625"/><stop stop-opacity="1" stop-color="rgb(6.018066%, 53.108215%, 90.176392%)" offset="0.171875"/><stop stop-opacity="1" stop-color="rgb(5.892944%, 52.870178%, 90.377808%)" offset="0.1875"/><stop stop-opacity="1" stop-color="rgb(5.769348%, 52.630615%, 90.577698%)" offset="0.203125"/><stop stop-opacity="1" stop-color="rgb(5.645752%, 52.392578%, 90.779114%)" offset="0.21875"/><stop stop-opacity="1" stop-color="rgb(5.522156%, 52.154541%, 90.979004%)" offset="0.234375"/><stop stop-opacity="1" stop-color="rgb(5.397034%, 51.916504%, 91.18042%)" offset="0.25"/><stop stop-opacity="1" stop-color="rgb(5.273438%, 51.678467%, 91.38031%)" offset="0.265625"/><stop stop-opacity="1" stop-color="rgb(5.149841%, 51.438904%, 91.581726%)" offset="0.28125"/><stop stop-opacity="1" stop-color="rgb(5.024719%, 51.200867%, 91.781616%)" offset="0.296875"/><stop stop-opacity="1" stop-color="rgb(4.901123%, 50.96283%, 91.983032%)" offset="0.3125"/><stop stop-opacity="1" stop-color="rgb(4.777527%, 50.724792%, 92.182922%)" offset="0.328125"/><stop stop-opacity="1" stop-color="rgb(4.652405%, 50.486755%, 92.384338%)" offset="0.34375"/><stop stop-opacity="1" stop-color="rgb(4.528809%, 50.247192%, 92.584229%)" offset="0.359375"/><stop stop-opacity="1" stop-color="rgb(4.405212%, 50.009155%, 92.785645%)" offset="0.375"/><stop stop-opacity="1" stop-color="rgb(4.281616%, 49.771118%, 92.987061%)" offset="0.390625"/><stop stop-opacity="1" stop-color="rgb(4.156494%, 49.533081%, 93.186951%)" offset="0.40625"/><stop stop-opacity="1" stop-color="rgb(4.032898%, 49.293518%, 93.388367%)" offset="0.421875"/><stop stop-opacity="1" stop-color="rgb(3.909302%, 49.055481%, 93.588257%)" offset="0.4375"/><stop stop-opacity="1" stop-color="rgb(3.78418%, 48.817444%, 93.789673%)" offset="0.453125"/><stop stop-opacity="1" stop-color="rgb(3.660583%, 48.579407%, 93.989563%)" offset="0.46875"/><stop stop-opacity="1" stop-color="rgb(3.536987%, 48.34137%, 94.190979%)" offset="0.484375"/><stop stop-opacity="1" stop-color="rgb(3.413391%, 48.101807%, 94.390869%)" offset="0.5"/><stop stop-opacity="1" stop-color="rgb(3.288269%, 47.86377%, 94.592285%)" offset="0.515625"/><stop stop-opacity="1" stop-color="rgb(3.164673%, 47.625732%, 94.792175%)" offset="0.53125"/><stop stop-opacity="1" stop-color="rgb(3.036499%, 47.370911%, 95.001221%)" offset="0.546875"/><stop stop-opacity="1" stop-color="rgb(2.903748%, 47.10083%, 95.220947%)" offset="0.5625"/><stop stop-opacity="1" stop-color="rgb(2.76947%, 46.83075%, 95.439148%)" offset="0.578125"/><stop stop-opacity="1" stop-color="rgb(2.636719%, 46.560669%, 95.658875%)" offset="0.59375"/><stop stop-opacity="1" stop-color="rgb(2.503967%, 46.289062%, 95.877075%)" offset="0.609375"/><stop stop-opacity="1" stop-color="rgb(2.371216%, 46.018982%, 96.096802%)" offset="0.625"/><stop stop-opacity="1" stop-color="rgb(2.236938%, 45.748901%, 96.315002%)" offset="0.640625"/><stop stop-opacity="1" stop-color="rgb(2.104187%, 45.478821%, 96.534729%)" offset="0.65625"/><stop stop-opacity="1" stop-color="rgb(1.971436%, 45.207214%, 96.75293%)" offset="0.671875"/><stop stop-opacity="1" stop-color="rgb(1.838684%, 44.937134%, 96.972656%)" offset="0.6875"/><stop stop-opacity="1" stop-color="rgb(1.705933%, 44.667053%, 97.190857%)" offset="0.703125"/><stop stop-opacity="1" stop-color="rgb(1.571655%, 44.396973%, 97.410583%)" offset="0.71875"/><stop stop-opacity="1" stop-color="rgb(1.438904%, 44.125366%, 97.628784%)" offset="0.734375"/><stop stop-opacity="1" stop-color="rgb(1.306152%, 43.855286%, 97.848511%)" offset="0.75"/><stop stop-opacity="1" stop-color="rgb(1.173401%, 43.585205%, 98.066711%)" offset="0.765625"/><stop stop-opacity="1" stop-color="rgb(1.039124%, 43.315125%, 98.286438%)" offset="0.78125"/><stop stop-opacity="1" stop-color="rgb(0.906372%, 43.043518%, 98.504639%)" offset="0.796875"/><stop stop-opacity="1" stop-color="rgb(0.773621%, 42.773438%, 98.724365%)" offset="0.8125"/><stop stop-opacity="1" stop-color="rgb(0.640869%, 42.503357%, 98.942566%)" offset="0.828125"/><stop stop-opacity="1" stop-color="rgb(0.506592%, 42.23175%, 99.162292%)" offset="0.84375"/><stop stop-opacity="1" stop-color="rgb(0.37384%, 41.96167%, 99.380493%)" offset="0.859375"/><stop stop-opacity="1" stop-color="rgb(0.241089%, 41.691589%, 99.60022%)" offset="0.875"/><stop stop-opacity="1" stop-color="rgb(0.0869751%, 41.377258%, 99.855042%)" offset="1"/></linearGradient><clipPath id="id13"><path d="M 275 274 L 325.519531 274 L 325.519531 290 L 275 290 Z M 275 274 " clip-rule="nonzero"/></clipPath><clipPath id="id14"><path d="M 318.28125 274.847656 C 315.117188 274.847656 312.453125 276.882812 311.449219 279.703125 L 291.964844 279.703125 L 280.492188 276.167969 C 279.097656 277.542969 277.5625 278.769531 275.914062 279.84375 L 291.234375 284.5625 L 311.449219 284.5625 C 312.453125 287.386719 315.117188 289.421875 318.28125 289.421875 C 322.300781 289.421875 325.558594 286.160156 325.558594 282.136719 C 325.558594 278.109375 322.300781 274.847656 318.28125 274.847656 Z M 318.28125 274.847656 " clip-rule="nonzero"/></clipPath><linearGradient x1="50.540001" gradientTransform="matrix(2.324486, 0, 0, 2.327697, 183.25952, 180.118966)" y1="40.695998" x2="50.540001" gradientUnits="userSpaceOnUse" y2="46.956992" id="id15"><stop stop-opacity="1" stop-color="rgb(9.011841%, 58.859253%, 85.336304%)" offset="0"/><stop stop-opacity="1" stop-color="rgb(8.930969%, 58.703613%, 85.466003%)" offset="0.0625"/><stop stop-opacity="1" stop-color="rgb(8.769226%, 58.39386%, 85.726929%)" offset="0.125"/><stop stop-opacity="1" stop-color="rgb(8.607483%, 58.082581%, 85.98938%)" offset="0.1875"/><stop stop-opacity="1" stop-color="rgb(8.44574%, 57.771301%, 86.250305%)" offset="0.25"/><stop stop-opacity="1" stop-color="rgb(8.283997%, 57.461548%, 86.512756%)" offset="0.3125"/><stop stop-opacity="1" stop-color="rgb(8.122253%, 57.150269%, 86.773682%)" offset="0.375"/><stop stop-opacity="1" stop-color="rgb(7.96051%, 56.838989%, 87.036133%)" offset="0.4375"/><stop stop-opacity="1" stop-color="rgb(7.798767%, 56.529236%, 87.297058%)" offset="0.5"/><stop stop-opacity="1" stop-color="rgb(7.637024%, 56.217957%, 87.557983%)" offset="0.5625"/><stop stop-opacity="1" stop-color="rgb(7.475281%, 55.908203%, 87.820435%)" offset="0.625"/><stop stop-opacity="1" stop-color="rgb(7.313538%, 55.596924%, 88.08136%)" offset="0.6875"/><stop stop-opacity="1" stop-color="rgb(7.151794%, 55.285645%, 88.343811%)" offset="0.75"/><stop stop-opacity="1" stop-color="rgb(6.990051%, 54.975891%, 88.604736%)" offset="0.8125"/><stop stop-opacity="1" stop-color="rgb(6.828308%, 54.664612%, 88.867188%)" offset="0.875"/><stop stop-opacity="1" stop-color="rgb(6.666565%, 54.353333%, 89.128113%)" offset="0.9375"/><stop stop-opacity="1" stop-color="rgb(6.504822%, 54.043579%, 89.389038%)" offset="1"/></linearGradient><clipPath id="id16"><path d="M 274 210 L 325.519531 210 L 325.519531 233 L 274 233 Z M 274 210 " clip-rule="nonzero"/></clipPath><clipPath id="id17"><path d="M 290.988281 219.792969 L 311.296875 219.792969 C 312.148438 222.871094 314.933594 225.144531 318.28125 225.144531 C 322.300781 225.144531 325.558594 221.882812 325.558594 217.859375 C 325.558594 213.835938 322.296875 210.574219 318.28125 210.574219 C 315.304688 210.574219 312.753906 212.371094 311.625 214.9375 L 288.980469 214.9375 L 274.070312 229.867188 C 275.523438 230.667969 276.890625 231.597656 278.175781 232.621094 Z M 290.988281 219.792969 " clip-rule="nonzero"/></clipPath><linearGradient x1="50.141998" gradientTransform="matrix(2.324486, 0, 0, 2.327697, 183.25952, 180.118966)" y1="13.084" x2="50.141998" gradientUnits="userSpaceOnUse" y2="22.555999" id="id18"><stop stop-opacity="1" stop-color="rgb(19.116211%, 78.27301%, 68.980408%)" offset="0"/><stop stop-opacity="1" stop-color="rgb(19.017029%, 78.08075%, 69.142151%)" offset="0.0625"/><stop stop-opacity="1" stop-color="rgb(18.817139%, 77.696228%, 69.465637%)" offset="0.125"/><stop stop-opacity="1" stop-color="rgb(18.617249%, 77.313232%, 69.789124%)" offset="0.1875"/><stop stop-opacity="1" stop-color="rgb(18.417358%, 76.928711%, 70.11261%)" offset="0.25"/><stop stop-opacity="1" stop-color="rgb(18.217468%, 76.545715%, 70.436096%)" offset="0.3125"/><stop stop-opacity="1" stop-color="rgb(18.017578%, 76.161194%, 70.759583%)" offset="0.375"/><stop stop-opacity="1" stop-color="rgb(17.817688%, 75.778198%, 71.083069%)" offset="0.4375"/><stop stop-opacity="1" stop-color="rgb(17.617798%, 75.393677%, 71.406555%)" offset="0.5"/><stop stop-opacity="1" stop-color="rgb(17.417908%, 75.010681%, 71.730042%)" offset="0.5625"/><stop stop-opacity="1" stop-color="rgb(17.218018%, 74.62616%, 72.053528%)" offset="0.625"/><stop stop-opacity="1" stop-color="rgb(17.018127%, 74.243164%, 72.377014%)" offset="0.6875"/><stop stop-opacity="1" stop-color="rgb(16.818237%, 73.858643%, 72.7005%)" offset="0.75"/><stop stop-opacity="1" stop-color="rgb(16.618347%, 73.475647%, 73.023987%)" offset="0.8125"/><stop stop-opacity="1" stop-color="rgb(16.418457%, 73.091125%, 73.347473%)" offset="0.875"/><stop stop-opacity="1" stop-color="rgb(16.218567%, 72.70813%, 73.670959%)" offset="0.9375"/><stop stop-opacity="1" stop-color="rgb(16.018677%, 72.323608%, 73.994446%)" offset="1"/></linearGradient><clipPath id="id19"><path d="M 189.769531 274 L 243 274 L 243 290 L 189.769531 290 Z M 189.769531 274 " clip-rule="nonzero"/></clipPath><clipPath id="id20"><path d="M 223.320312 279.703125 L 203.835938 279.703125 C 202.835938 276.882812 200.167969 274.847656 197.003906 274.847656 C 192.984375 274.847656 189.730469 278.109375 189.730469 282.132812 C 189.730469 286.15625 192.988281 289.417969 197.003906 289.417969 C 200.167969 289.417969 202.835938 287.382812 203.835938 284.558594 L 224.050781 284.558594 L 242.746094 278.800781 C 241.230469 277.671875 239.832031 276.402344 238.5625 275.003906 Z M 223.320312 279.703125 " clip-rule="nonzero"/></clipPath><linearGradient x1="14.188" gradientTransform="matrix(2.324486, 0, 0, 2.327697, 183.25952, 180.118966)" y1="40.695998" x2="14.188" gradientUnits="userSpaceOnUse" y2="46.956" id="id21"><stop stop-opacity="1" stop-color="rgb(9.011841%, 58.859253%, 85.336304%)" offset="0"/><stop stop-opacity="1" stop-color="rgb(8.930969%, 58.703613%, 85.466003%)" offset="0.0625"/><stop stop-opacity="1" stop-color="rgb(8.769226%, 58.39386%, 85.726929%)" offset="0.125"/><stop stop-opacity="1" stop-color="rgb(8.607483%, 58.082581%, 85.98938%)" offset="0.1875"/><stop stop-opacity="1" stop-color="rgb(8.44574%, 57.771301%, 86.250305%)" offset="0.25"/><stop stop-opacity="1" stop-color="rgb(8.283997%, 57.461548%, 86.512756%)" offset="0.3125"/><stop stop-opacity="1" stop-color="rgb(8.122253%, 57.150269%, 86.773682%)" offset="0.375"/><stop stop-opacity="1" stop-color="rgb(7.96051%, 56.840515%, 87.034607%)" offset="0.4375"/><stop stop-opacity="1" stop-color="rgb(7.798767%, 56.529236%, 87.297058%)" offset="0.5"/><stop stop-opacity="1" stop-color="rgb(7.637024%, 56.217957%, 87.557983%)" offset="0.5625"/><stop stop-opacity="1" stop-color="rgb(7.475281%, 55.908203%, 87.820435%)" offset="0.625"/><stop stop-opacity="1" stop-color="rgb(7.313538%, 55.596924%, 88.08136%)" offset="0.6875"/><stop stop-opacity="1" stop-color="rgb(7.151794%, 55.28717%, 88.342285%)" offset="0.75"/><stop stop-opacity="1" stop-color="rgb(6.990051%, 54.975891%, 88.604736%)" offset="0.8125"/><stop stop-opacity="1" stop-color="rgb(6.828308%, 54.664612%, 88.865662%)" offset="0.875"/><stop stop-opacity="1" stop-color="rgb(6.666565%, 54.354858%, 89.128113%)" offset="0.9375"/><stop stop-opacity="1" stop-color="rgb(6.504822%, 54.043579%, 89.389038%)" offset="1"/></linearGradient><clipPath id="id22"><path d="M 244 239 L 276 239 L 276 272 L 244 272 Z M 244 239 " clip-rule="nonzero"/></clipPath><clipPath id="id23"><path d="M 275.921875 253.171875 L 275.921875 251.445312 L 271.058594 251.445312 L 271.058594 248.648438 C 271.058594 246.308594 269.164062 244.40625 266.824219 244.40625 L 264.03125 244.40625 L 264.03125 239.539062 L 262.308594 239.539062 L 262.308594 244.40625 L 260.929688 244.40625 L 260.929688 239.539062 L 259.207031 239.539062 L 259.207031 244.40625 L 257.828125 244.40625 L 257.828125 239.539062 L 256.101562 239.539062 L 256.101562 244.40625 L 253.308594 244.40625 C 250.972656 244.40625 249.074219 246.308594 249.074219 248.648438 L 249.074219 251.445312 L 244.210938 251.445312 L 244.210938 253.171875 L 249.074219 253.171875 L 249.074219 254.550781 L 244.210938 254.550781 L 244.210938 256.277344 L 249.074219 256.277344 L 249.074219 257.660156 L 244.210938 257.660156 L 244.210938 259.386719 L 249.074219 259.386719 L 249.074219 262.183594 C 249.074219 264.523438 250.972656 266.421875 253.308594 266.421875 L 256.101562 266.421875 L 256.101562 271.292969 L 257.828125 271.292969 L 257.828125 266.421875 L 259.207031 266.421875 L 259.207031 271.292969 L 260.929688 271.292969 L 260.929688 266.421875 L 262.308594 266.421875 L 262.308594 271.292969 L 264.03125 271.292969 L 264.03125 266.421875 L 266.824219 266.421875 C 269.164062 266.421875 271.058594 264.523438 271.058594 262.183594 L 271.058594 259.386719 L 275.921875 259.386719 L 275.921875 257.660156 L 271.058594 257.660156 L 271.058594 256.277344 L 275.921875 256.277344 L 275.921875 254.550781 L 271.058594 254.550781 L 271.058594 253.171875 Z M 267.820312 263.175781 L 252.320312 263.175781 L 252.320312 247.65625 L 267.820312 247.65625 Z M 267.820312 263.175781 " clip-rule="nonzero"/></clipPath><linearGradient x1="33.043999" gradientTransform="matrix(2.324486, 0, 0, 2.327697, 183.25952, 180.118966)" y1="25.526999" x2="33.043999" gradientUnits="userSpaceOnUse" y2="39.168998" id="id24"><stop stop-opacity="1" stop-color="rgb(14.916992%, 70.205688%, 75.779724%)" offset="0"/><stop stop-opacity="1" stop-color="rgb(14.845276%, 70.066833%, 75.895691%)" offset="0.03125"/><stop stop-opacity="1" stop-color="rgb(14.700317%, 69.790649%, 76.12915%)" offset="0.0625"/><stop stop-opacity="1" stop-color="rgb(14.556885%, 69.514465%, 76.36261%)" offset="0.09375"/><stop stop-opacity="1" stop-color="rgb(14.413452%, 69.238281%, 76.594543%)" offset="0.125"/><stop stop-opacity="1" stop-color="rgb(14.268494%, 68.962097%, 76.828003%)" offset="0.15625"/><stop stop-opacity="1" stop-color="rgb(14.125061%, 68.685913%, 77.061462%)" offset="0.1875"/><stop stop-opacity="1" stop-color="rgb(13.981628%, 68.409729%, 77.293396%)" offset="0.21875"/><stop stop-opacity="1" stop-color="rgb(13.83667%, 68.132019%, 77.526855%)" offset="0.25"/><stop stop-opacity="1" stop-color="rgb(13.693237%, 67.855835%, 77.760315%)" offset="0.28125"/><stop stop-opacity="1" stop-color="rgb(13.549805%, 67.579651%, 77.992249%)" offset="0.3125"/><stop stop-opacity="1" stop-color="rgb(13.406372%, 67.303467%, 78.225708%)" offset="0.34375"/><stop stop-opacity="1" stop-color="rgb(13.249207%, 67.004395%, 78.479004%)" offset="0.375"/><stop stop-opacity="1" stop-color="rgb(13.076782%, 66.673279%, 78.756714%)" offset="0.40625"/><stop stop-opacity="1" stop-color="rgb(12.901306%, 66.334534%, 79.042053%)" offset="0.4375"/><stop stop-opacity="1" stop-color="rgb(12.724304%, 65.995789%, 79.327393%)" offset="0.46875"/><stop stop-opacity="1" stop-color="rgb(12.548828%, 65.657043%, 79.612732%)" offset="0.5"/><stop stop-opacity="1" stop-color="rgb(12.371826%, 65.319824%, 79.896545%)" offset="0.53125"/><stop stop-opacity="1" stop-color="rgb(12.19635%, 64.981079%, 80.181885%)" offset="0.5625"/><stop stop-opacity="1" stop-color="rgb(12.020874%, 64.642334%, 80.467224%)" offset="0.59375"/><stop stop-opacity="1" stop-color="rgb(11.843872%, 64.303589%, 80.752563%)" offset="0.625"/><stop stop-opacity="1" stop-color="rgb(11.668396%, 63.964844%, 81.036377%)" offset="0.65625"/><stop stop-opacity="1" stop-color="rgb(11.491394%, 63.626099%, 81.321716%)" offset="0.6875"/><stop stop-opacity="1" stop-color="rgb(11.315918%, 63.287354%, 81.607056%)" offset="0.71875"/><stop stop-opacity="1" stop-color="rgb(11.138916%, 62.950134%, 81.892395%)" offset="0.75"/><stop stop-opacity="1" stop-color="rgb(10.96344%, 62.611389%, 82.176208%)" offset="0.78125"/><stop stop-opacity="1" stop-color="rgb(10.786438%, 62.272644%, 82.461548%)" offset="0.8125"/><stop stop-opacity="1" stop-color="rgb(10.610962%, 61.933899%, 82.746887%)" offset="0.84375"/><stop stop-opacity="1" stop-color="rgb(10.43396%, 61.595154%, 83.032227%)" offset="0.875"/><stop stop-opacity="1" stop-color="rgb(10.258484%, 61.256409%, 83.317566%)" offset="0.90625"/><stop stop-opacity="1" stop-color="rgb(10.083008%, 60.917664%, 83.601379%)" offset="0.9375"/><stop stop-opacity="1" stop-color="rgb(9.906006%, 60.580444%, 83.886719%)" offset="0.96875"/><stop stop-opacity="1" stop-color="rgb(9.73053%, 60.241699%, 84.172058%)" offset="1"/></linearGradient><clipPath id="id25"><path d="M 49.292969 45.394531 L 273.542969 45.394531 L 273.542969 212 L 49.292969 212 Z M 49.292969 45.394531 " clip-rule="nonzero"/></clipPath><clipPath id="id26"><path d="M 116 243 L 207 243 L 207 270.394531 L 116 270.394531 Z M 116 243 " clip-rule="nonzero"/></clipPath><clipPath id="id27"><path d="M 49.292969 248 L 71 248 L 71 270.394531 L 49.292969 270.394531 Z M 49.292969 248 " clip-rule="nonzero"/></clipPath><clipPath id="id28"><path d="M 49.292969 221 L 71 221 L 71 244 L 49.292969 244 Z M 49.292969 221 " clip-rule="nonzero"/></clipPath></defs><g clip-path="url(#id1)"><g clip-path="url(#id2)"><path fill="url(#id3)" d="M 189.769531 210.570312 L 189.769531 234.910156 L 243.109375 234.910156 L 243.109375 210.570312 Z M 189.769531 210.570312 " fill-rule="nonzero"/></g></g><g clip-path="url(#id4)"><g clip-path="url(#id5)"><path fill="url(#id6)" d="M 235.410156 230.726562 L 235.410156 280.105469 L 284.722656 280.105469 L 284.722656 230.726562 Z M 235.410156 230.726562 " fill-rule="nonzero"/></g></g><g clip-path="url(#id7)"><g clip-path="url(#id8)"><path fill="url(#id9)" d="M 252.039062 180.117188 L 252.039062 226.753906 L 266.59375 226.753906 L 266.59375 180.117188 Z M 252.039062 180.117188 " fill-rule="nonzero"/></g></g><g clip-path="url(#id10)"><g clip-path="url(#id11)"><path fill="url(#id12)" d="M 251.984375 284.371094 L 251.984375 329.089844 L 266.535156 329.089844 L 266.535156 284.371094 Z M 251.984375 284.371094 " fill-rule="nonzero"/></g></g><g clip-path="url(#id13)"><g clip-path="url(#id14)"><path fill="url(#id15)" d="M 275.914062 274.847656 L 275.914062 289.421875 L 325.519531 289.421875 L 325.519531 274.847656 Z M 275.914062 274.847656 " fill-rule="nonzero"/></g></g><g clip-path="url(#id16)"><g clip-path="url(#id17)"><path fill="url(#id18)" d="M 274.070312 210.574219 L 274.070312 232.621094 L 325.519531 232.621094 L 325.519531 210.574219 Z M 274.070312 210.574219 " fill-rule="nonzero"/></g></g><g clip-path="url(#id19)"><g clip-path="url(#id20)"><path fill="url(#id21)" d="M 189.769531 274.847656 L 189.769531 289.417969 L 242.746094 289.417969 L 242.746094 274.847656 Z M 189.769531 274.847656 " fill-rule="nonzero"/></g></g><g clip-path="url(#id22)"><g clip-path="url(#id23)"><path fill="url(#id24)" d="M 244.210938 239.539062 L 244.210938 271.292969 L 275.921875 271.292969 L 275.921875 239.539062 Z M 244.210938 239.539062 " fill-rule="nonzero"/></g></g><path fill="#87796f" d="M 255.082031 210.085938 L 67.753906 210.085938 C 58.382812 210.085938 50.78125 202.5 50.78125 193.140625 L 50.78125 64.078125 C 50.78125 54.71875 58.382812 47.132812 67.753906 47.132812 L 255.082031 47.132812 C 264.457031 47.132812 272.054688 54.71875 272.054688 64.078125 L 272.054688 193.140625 C 272.054688 202.5 264.457031 210.085938 255.082031 210.085938 Z M 255.082031 210.085938 " fill-opacity="1" fill-rule="nonzero"/><g clip-path="url(#id25)"><path fill="#3a312a" d="M 255.082031 211.570312 L 67.753906 211.570312 C 57.574219 211.570312 49.292969 203.300781 49.292969 193.140625 L 49.292969 64.078125 C 49.292969 53.914062 57.574219 45.644531 67.753906 45.644531 L 255.082031 45.644531 C 265.261719 45.644531 273.542969 53.914062 273.542969 64.078125 L 273.542969 193.140625 C 273.542969 203.300781 265.261719 211.570312 255.082031 211.570312 Z M 67.753906 48.617188 C 59.21875 48.617188 52.269531 55.550781 52.269531 64.078125 L 52.269531 193.140625 C 52.269531 201.664062 59.21875 208.597656 67.753906 208.597656 L 255.082031 208.597656 C 263.621094 208.597656 270.566406 201.664062 270.566406 193.140625 L 270.566406 64.078125 C 270.566406 55.550781 263.621094 48.617188 255.082031 48.617188 Z M 67.753906 48.617188 " fill-opacity="1" fill-rule="nonzero"/></g><path fill="#87796f" d="M 147.371094 210.085938 L 175.773438 210.085938 L 175.773438 245.34375 L 147.371094 245.34375 Z M 147.371094 210.085938 " fill-opacity="1" fill-rule="nonzero"/><path fill="#3a312a" d="M 175.773438 246.828125 L 147.371094 246.828125 C 146.550781 246.828125 145.882812 246.164062 145.882812 245.34375 L 145.882812 210.085938 C 145.882812 209.265625 146.550781 208.597656 147.371094 208.597656 L 175.773438 208.597656 C 176.597656 208.597656 177.265625 209.265625 177.265625 210.085938 L 177.265625 245.34375 C 177.265625 246.164062 176.597656 246.828125 175.773438 246.828125 Z M 148.859375 243.859375 L 174.285156 243.859375 L 174.285156 211.570312 L 148.859375 211.570312 Z M 148.859375 243.859375 " fill-opacity="1" fill-rule="nonzero"/><path fill="#87796f" d="M 168.8125 268.53125 L 204.785156 268.53125 C 204.785156 255.722656 194.386719 245.34375 181.558594 245.34375 L 141.28125 245.34375 C 128.453125 245.34375 118.054688 255.722656 118.054688 268.53125 Z M 168.8125 268.53125 " fill-opacity="1" fill-rule="nonzero"/><g clip-path="url(#id26)"><path fill="#3a312a" d="M 204.785156 270.015625 L 168.8125 270.015625 C 167.992188 270.015625 167.324219 269.351562 167.324219 268.53125 C 167.324219 267.707031 167.992188 267.042969 168.8125 267.042969 L 203.246094 267.042969 C 202.480469 255.769531 193.042969 246.828125 181.558594 246.828125 L 141.28125 246.828125 C 129.796875 246.828125 120.363281 255.769531 119.59375 267.042969 L 155.347656 267.042969 C 156.171875 267.042969 156.835938 267.707031 156.835938 268.53125 C 156.835938 269.351562 156.171875 270.015625 155.347656 270.015625 L 118.054688 270.015625 C 117.230469 270.015625 116.566406 269.351562 116.566406 268.53125 C 116.566406 254.925781 127.652344 243.855469 141.28125 243.855469 L 181.558594 243.855469 C 195.1875 243.855469 206.273438 254.925781 206.273438 268.53125 C 206.273438 269.351562 205.605469 270.015625 204.785156 270.015625 Z M 204.785156 270.015625 " fill-opacity="1" fill-rule="nonzero"/></g><path fill="#d6df58" d="M 81.710938 232.703125 C 81.710938 232.703125 85.09375 245.242188 94.832031 245.824219 C 94.832031 245.824219 81.832031 250.308594 81.613281 259.894531 C 81.613281 259.894531 79.054688 246.449219 68.789062 245.96875 C 68.789062 245.96875 80.746094 244.160156 81.710938 232.703125 Z M 81.710938 232.703125 " fill-opacity="1" fill-rule="nonzero"/><path fill="#3a312a" d="M 81.613281 261.378906 C 80.90625 261.378906 80.289062 260.878906 80.152344 260.175781 C 80.128906 260.050781 77.675781 247.871094 68.71875 247.453125 C 67.953125 247.417969 67.339844 246.808594 67.300781 246.046875 C 67.261719 245.28125 67.808594 244.613281 68.566406 244.5 C 69.003906 244.429688 79.375 242.699219 80.230469 232.578125 C 80.289062 231.863281 80.859375 231.292969 81.578125 231.226562 C 82.308594 231.167969 82.960938 231.621094 83.148438 232.316406 C 83.179688 232.433594 86.382812 243.835938 94.917969 244.34375 C 95.628906 244.386719 96.207031 244.921875 96.304688 245.625 C 96.402344 246.324219 95.988281 247 95.316406 247.230469 C 95.199219 247.273438 83.292969 251.503906 83.101562 259.929688 C 83.082031 260.691406 82.496094 261.3125 81.734375 261.375 C 81.695312 261.378906 81.652344 261.378906 81.613281 261.378906 Z M 73.933594 245.796875 C 77.78125 247.75 80.113281 251.492188 81.460938 254.589844 C 83.46875 250.609375 87.355469 247.867188 90.339844 246.242188 C 86.238281 244.417969 83.609375 240.644531 82.070312 237.601562 C 80.292969 241.921875 76.839844 244.40625 73.933594 245.796875 Z M 73.933594 245.796875 " fill-opacity="1" fill-rule="nonzero"/><path fill="#d6df58" d="M 60.179688 249.523438 C 60.179688 249.523438 62.574219 258.394531 69.460938 258.804688 C 69.460938 258.804688 60.265625 261.976562 60.113281 268.757812 C 60.113281 268.757812 58.300781 259.246094 51.039062 258.90625 C 51.039062 258.90625 59.5 257.628906 60.179688 249.523438 Z M 60.179688 249.523438 " fill-opacity="1" fill-rule="nonzero"/><g clip-path="url(#id27)"><path fill="#3a312a" d="M 60.109375 270.242188 C 59.402344 270.242188 58.785156 269.742188 58.648438 269.035156 C 58.632812 268.953125 56.957031 260.671875 50.96875 260.390625 C 50.207031 260.355469 49.59375 259.746094 49.554688 258.984375 C 49.515625 258.21875 50.0625 257.550781 50.820312 257.4375 C 51.113281 257.390625 58.125 256.207031 58.699219 249.398438 C 58.757812 248.679688 59.328125 248.109375 60.046875 248.042969 C 60.773438 247.984375 61.429688 248.4375 61.617188 249.136719 C 61.640625 249.214844 63.828125 256.980469 69.550781 257.324219 C 70.257812 257.367188 70.839844 257.902344 70.933594 258.605469 C 71.03125 259.304688 70.617188 259.980469 69.945312 260.210938 C 69.867188 260.238281 61.730469 263.136719 61.597656 268.792969 C 61.582031 269.550781 60.992188 270.175781 60.234375 270.238281 C 60.191406 270.242188 60.152344 270.242188 60.109375 270.242188 Z M 55.628906 258.824219 C 57.71875 260.144531 59.125 262.1875 60.039062 264.054688 C 61.40625 261.84375 63.527344 260.21875 65.363281 259.128906 C 63.09375 257.871094 61.507812 255.808594 60.460938 253.953125 C 59.296875 256.21875 57.46875 257.792969 55.628906 258.824219 Z M 55.628906 258.824219 " fill-opacity="1" fill-rule="nonzero"/></g><path fill="#d6df58" d="M 60.179688 223.117188 C 60.179688 223.117188 62.574219 231.988281 69.460938 232.398438 C 69.460938 232.398438 60.265625 235.570312 60.113281 242.351562 C 60.113281 242.351562 58.300781 232.839844 51.039062 232.5 C 51.039062 232.5 59.5 231.222656 60.179688 223.117188 Z M 60.179688 223.117188 " fill-opacity="1" fill-rule="nonzero"/><g clip-path="url(#id28)"><path fill="#3a312a" d="M 60.109375 243.835938 C 59.402344 243.835938 58.785156 243.335938 58.648438 242.628906 C 58.632812 242.546875 56.957031 234.265625 50.96875 233.984375 C 50.207031 233.949219 49.59375 233.339844 49.554688 232.578125 C 49.515625 231.8125 50.0625 231.144531 50.820312 231.03125 C 51.113281 230.984375 58.125 229.800781 58.699219 222.992188 C 58.757812 222.273438 59.328125 221.703125 60.046875 221.636719 C 60.773438 221.578125 61.429688 222.035156 61.617188 222.730469 C 61.640625 222.808594 63.828125 230.574219 69.550781 230.917969 C 70.257812 230.960938 70.839844 231.496094 70.933594 232.199219 C 71.03125 232.898438 70.617188 233.574219 69.945312 233.804688 C 69.867188 233.832031 61.730469 236.730469 61.597656 242.382812 C 61.582031 243.144531 60.992188 243.769531 60.234375 243.832031 C 60.191406 243.835938 60.152344 243.835938 60.109375 243.835938 Z M 55.628906 232.417969 C 57.71875 233.738281 59.121094 235.78125 60.039062 237.648438 C 61.40625 235.4375 63.527344 233.8125 65.363281 232.722656 C 63.09375 231.464844 61.507812 229.402344 60.460938 227.546875 C 59.296875 229.8125 57.46875 231.386719 55.628906 232.417969 Z M 55.628906 232.417969 " fill-opacity="1" fill-rule="nonzero"/></g><path fill="#8ac5dc" d="M 107.507812 59.519531 L 75.121094 59.519531 C 68.59375 59.519531 63.296875 64.796875 63.296875 71.328125 L 63.296875 185.898438 C 63.296875 192.417969 68.59375 197.707031 75.121094 197.707031 L 247.714844 197.707031 C 254.246094 197.707031 259.542969 192.417969 259.542969 185.898438 L 259.542969 71.328125 C 259.542969 64.796875 254.246094 59.519531 247.714844 59.519531 Z M 107.507812 59.519531 " fill-opacity="1" fill-rule="nonzero"/><path fill="#3a312a" d="M 247.714844 199.191406 L 75.121094 199.191406 C 67.78125 199.191406 61.808594 193.230469 61.808594 185.898438 L 61.808594 71.328125 C 61.808594 63.996094 67.78125 58.03125 75.121094 58.03125 L 107.507812 58.03125 C 108.332031 58.03125 108.996094 58.699219 108.996094 59.519531 C 108.996094 60.339844 108.332031 61.003906 107.507812 61.003906 L 75.121094 61.003906 C 69.421875 61.003906 64.785156 65.632812 64.785156 71.328125 L 64.785156 185.898438 C 64.785156 191.589844 69.421875 196.222656 75.121094 196.222656 L 247.714844 196.222656 C 253.417969 196.222656 258.054688 191.589844 258.054688 185.898438 L 258.054688 71.328125 C 258.054688 65.632812 253.417969 61.003906 247.714844 61.003906 L 120.074219 61.003906 C 119.253906 61.003906 118.585938 60.339844 118.585938 59.519531 C 118.585938 58.699219 119.253906 58.03125 120.074219 58.03125 L 247.714844 58.03125 C 255.058594 58.03125 261.03125 63.996094 261.03125 71.328125 L 261.03125 185.898438 C 261.03125 193.230469 255.058594 199.191406 247.714844 199.191406 Z M 247.714844 199.191406 " fill-opacity="1" fill-rule="nonzero"/><path fill="#ef6d7a" d="M 202.121094 162.378906 L 209.476562 162.378906 C 211.074219 162.378906 212.367188 161.085938 212.367188 159.492188 L 212.367188 158.234375 C 215.816406 157.484375 219.046875 156.144531 221.945312 154.324219 L 222.800781 155.175781 C 223.929688 156.304688 225.757812 156.304688 226.886719 155.175781 L 232.089844 149.984375 C 233.21875 148.859375 233.21875 147.03125 232.089844 145.90625 L 231.269531 145.089844 C 233.128906 142.191406 234.5 138.953125 235.273438 135.488281 L 236.410156 135.488281 C 238.007812 135.488281 239.300781 134.199219 239.300781 132.605469 L 239.300781 125.261719 C 239.300781 123.667969 238.003906 122.378906 236.410156 122.378906 L 235.273438 122.378906 C 234.5 118.914062 233.128906 115.675781 231.269531 112.777344 L 232.089844 111.960938 C 233.21875 110.832031 233.21875 109.007812 232.089844 107.882812 L 226.886719 102.6875 C 225.757812 101.5625 223.929688 101.5625 222.800781 102.6875 L 221.945312 103.542969 C 219.046875 101.722656 215.816406 100.382812 212.367188 99.632812 L 212.367188 98.375 C 212.367188 96.78125 211.074219 95.488281 209.476562 95.488281 L 202.121094 95.488281 C 200.527344 95.488281 199.230469 96.78125 199.230469 98.375 L 199.230469 99.703125 C 195.824219 100.480469 192.632812 101.839844 189.773438 103.667969 L 188.796875 102.6875 C 187.667969 101.5625 185.839844 101.5625 184.710938 102.6875 L 179.507812 107.882812 C 178.382812 109.007812 178.382812 110.832031 179.507812 111.960938 L 180.523438 112.972656 C 178.726562 115.820312 177.125 120.582031 176.644531 122.378906 L 175.1875 122.378906 C 173.589844 122.378906 172.296875 123.667969 172.296875 125.261719 L 172.296875 132.605469 C 172.296875 134.199219 173.589844 135.488281 175.1875 135.488281 L 176.644531 135.488281 C 177.398438 138.875 178.730469 142.046875 180.523438 144.890625 L 179.507812 145.90625 C 178.382812 147.03125 178.382812 148.859375 179.507812 149.984375 L 184.710938 155.175781 C 185.839844 156.304688 187.667969 156.304688 188.796875 155.175781 L 189.773438 154.199219 C 192.632812 156.027344 195.820312 157.386719 199.230469 158.164062 L 199.230469 159.492188 C 199.230469 161.085938 200.527344 162.378906 202.121094 162.378906 Z M 205.800781 143.925781 C 197.503906 143.925781 190.78125 137.210938 190.78125 128.933594 C 190.78125 120.652344 197.503906 113.9375 205.800781 113.9375 C 214.09375 113.9375 220.820312 120.652344 220.820312 128.933594 C 220.820312 137.214844 214.09375 143.925781 205.800781 143.925781 Z M 205.800781 143.925781 " fill-opacity="1" fill-rule="nonzero"/><path fill="#3a312a" d="M 209.476562 163.863281 L 202.121094 163.863281 C 199.707031 163.863281 197.742188 161.902344 197.742188 159.492188 L 197.742188 159.324219 C 195.027344 158.597656 192.429688 157.507812 189.996094 156.078125 L 189.847656 156.226562 C 188.140625 157.933594 185.363281 157.929688 183.660156 156.226562 L 178.457031 151.035156 C 176.75 149.332031 176.75 146.558594 178.457031 144.855469 L 178.648438 144.664062 C 177.246094 142.246094 176.183594 139.667969 175.472656 136.972656 L 175.1875 136.972656 C 172.773438 136.972656 170.808594 135.011719 170.808594 132.601562 L 170.808594 125.257812 C 170.808594 122.847656 172.773438 120.890625 175.1875 120.890625 L 175.527344 120.890625 C 176.117188 119.003906 177.265625 115.761719 178.660156 113.210938 L 178.457031 113.007812 C 177.632812 112.183594 177.175781 111.085938 177.175781 109.917969 C 177.175781 108.75 177.628906 107.652344 178.457031 106.828125 L 183.660156 101.632812 C 185.367188 99.933594 188.144531 99.933594 189.847656 101.632812 L 190 101.785156 C 192.429688 100.355469 195.027344 99.265625 197.746094 98.539062 L 197.746094 98.371094 C 197.746094 95.960938 199.707031 94 202.121094 94 L 209.476562 94 C 211.890625 94 213.855469 95.960938 213.855469 98.371094 L 213.855469 98.453125 C 216.613281 99.164062 219.25 100.242188 221.71875 101.667969 L 221.75 101.632812 C 223.457031 99.929688 226.234375 99.933594 227.941406 101.632812 L 233.144531 106.828125 C 234.84375 108.53125 234.847656 111.292969 233.152344 112.996094 C 234.609375 115.472656 235.714844 118.117188 236.445312 120.890625 C 238.84375 120.90625 240.789062 122.859375 240.789062 125.261719 L 240.789062 132.605469 C 240.789062 135.003906 238.84375 136.957031 236.445312 136.972656 C 235.714844 139.746094 234.609375 142.394531 233.152344 144.867188 C 234.847656 146.570312 234.84375 149.335938 233.144531 151.035156 L 227.941406 156.230469 C 226.234375 157.933594 223.457031 157.933594 221.75 156.230469 L 221.71875 156.195312 C 219.25 157.621094 216.613281 158.699219 213.855469 159.410156 L 213.855469 159.496094 C 213.855469 161.902344 211.890625 163.863281 209.476562 163.863281 Z M 189.777344 152.714844 C 190.054688 152.714844 190.332031 152.792969 190.578125 152.949219 C 193.347656 154.71875 196.371094 155.984375 199.566406 156.714844 C 200.242188 156.871094 200.71875 157.472656 200.71875 158.164062 L 200.71875 159.492188 C 200.71875 160.261719 201.347656 160.890625 202.121094 160.890625 L 209.476562 160.890625 C 210.25 160.890625 210.878906 160.261719 210.878906 159.492188 L 210.878906 158.234375 C 210.878906 157.535156 211.367188 156.929688 212.050781 156.78125 C 215.285156 156.078125 218.347656 154.828125 221.152344 153.066406 C 221.742188 152.695312 222.507812 152.78125 222.996094 153.269531 L 223.855469 154.125 C 224.398438 154.667969 225.289062 154.671875 225.835938 154.125 L 231.035156 148.933594 C 231.582031 148.386719 231.582031 147.5 231.035156 146.953125 L 230.214844 146.136719 C 229.71875 145.644531 229.636719 144.871094 230.015625 144.285156 C 231.8125 141.480469 233.09375 138.410156 233.820312 135.160156 C 233.972656 134.480469 234.574219 134 235.273438 134 L 236.410156 134 C 237.183594 134 237.808594 133.371094 237.808594 132.601562 L 237.808594 125.257812 C 237.808594 124.488281 237.183594 123.859375 236.410156 123.859375 L 235.273438 123.859375 C 234.574219 123.859375 233.972656 123.375 233.820312 122.695312 C 233.09375 119.449219 231.8125 116.378906 230.015625 113.574219 C 229.636719 112.988281 229.71875 112.214844 230.214844 111.722656 L 231.035156 110.902344 C 231.582031 110.359375 231.582031 109.472656 231.035156 108.925781 L 225.832031 103.734375 C 225.285156 103.1875 224.398438 103.1875 223.851562 103.734375 L 222.996094 104.589844 C 222.503906 105.078125 221.738281 105.164062 221.152344 104.792969 C 218.34375 103.03125 215.28125 101.78125 212.050781 101.078125 C 211.363281 100.929688 210.875 100.328125 210.875 99.625 L 210.875 98.367188 C 210.875 97.597656 210.25 96.96875 209.476562 96.96875 L 202.121094 96.96875 C 201.347656 96.96875 200.71875 97.597656 200.71875 98.367188 L 200.71875 99.695312 C 200.71875 100.390625 200.238281 100.988281 199.5625 101.144531 C 196.367188 101.875 193.34375 103.140625 190.578125 104.910156 C 189.988281 105.289062 189.214844 105.203125 188.722656 104.710938 L 187.742188 103.734375 C 187.195312 103.1875 186.308594 103.1875 185.761719 103.734375 L 180.5625 108.925781 C 180.296875 109.191406 180.148438 109.539062 180.148438 109.914062 C 180.148438 110.289062 180.296875 110.636719 180.5625 110.902344 L 181.578125 111.917969 C 182.066406 112.410156 182.152344 113.171875 181.785156 113.757812 C 180.113281 116.410156 178.539062 121.046875 178.078125 122.757812 C 177.902344 123.40625 177.3125 123.859375 176.640625 123.859375 L 175.1875 123.859375 C 174.414062 123.859375 173.785156 124.484375 173.785156 125.257812 L 173.785156 132.601562 C 173.785156 133.371094 174.414062 134 175.1875 134 L 176.640625 134 C 177.339844 134 177.941406 134.480469 178.09375 135.160156 C 178.800781 138.332031 180.046875 141.339844 181.785156 144.097656 C 182.15625 144.683594 182.070312 145.449219 181.578125 145.9375 L 180.5625 146.953125 C 180.015625 147.496094 180.015625 148.386719 180.5625 148.929688 L 185.765625 154.125 C 186.3125 154.667969 187.199219 154.667969 187.746094 154.125 L 188.722656 153.148438 C 189.011719 152.863281 189.390625 152.714844 189.777344 152.714844 Z M 205.800781 145.410156 C 196.699219 145.410156 189.292969 138.019531 189.292969 128.933594 C 189.292969 119.84375 196.699219 112.453125 205.800781 112.453125 C 214.902344 112.453125 222.308594 119.84375 222.308594 128.933594 C 222.308594 138.019531 214.902344 145.410156 205.800781 145.410156 Z M 205.800781 115.425781 C 198.339844 115.425781 192.269531 121.484375 192.269531 128.933594 C 192.269531 136.378906 198.339844 142.4375 205.800781 142.4375 C 213.261719 142.4375 219.332031 136.378906 219.332031 128.933594 C 219.332031 121.484375 213.261719 115.425781 205.800781 115.425781 Z M 205.800781 115.425781 " fill-opacity="1" fill-rule="nonzero"/><path fill="#d7e057" d="M 128.214844 78.585938 L 128.214844 80.777344 C 122.597656 82.058594 117.347656 84.292969 112.636719 87.308594 L 111.027344 85.695312 C 109.167969 83.839844 106.152344 83.839844 104.296875 85.695312 L 95.726562 94.25 C 93.867188 96.105469 93.867188 99.113281 95.726562 100.96875 L 97.402344 102.640625 C 94.441406 107.332031 92.25 112.554688 91.003906 118.132812 L 88.605469 118.132812 C 85.976562 118.132812 83.847656 120.261719 83.847656 122.882812 L 83.847656 134.980469 C 83.847656 137.605469 85.980469 139.734375 88.605469 139.734375 L 91.003906 139.734375 C 91.800781 142.691406 94.441406 150.535156 97.402344 155.226562 L 95.726562 156.894531 C 93.867188 158.75 93.867188 161.761719 95.726562 163.617188 L 104.296875 172.167969 C 106.152344 174.023438 109.167969 174.023438 111.027344 172.167969 L 112.636719 170.558594 C 117.347656 173.570312 122.597656 175.808594 128.214844 177.089844 L 128.214844 179.277344 C 128.214844 181.902344 130.347656 184.03125 132.976562 184.03125 L 145.09375 184.03125 C 147.722656 184.03125 149.851562 181.902344 149.851562 179.277344 L 149.851562 177.203125 C 155.539062 175.96875 160.859375 173.761719 165.632812 170.757812 L 167.042969 172.167969 C 168.902344 174.023438 171.917969 174.023438 173.773438 172.167969 L 182.34375 163.617188 C 184.203125 161.761719 184.203125 158.75 182.34375 156.894531 L 180.992188 155.546875 C 184.054688 150.773438 186.316406 145.441406 187.589844 139.734375 L 189.464844 139.734375 C 192.09375 139.734375 194.222656 137.605469 194.222656 134.984375 L 194.222656 122.882812 C 194.222656 120.257812 192.09375 118.132812 189.464844 118.132812 L 187.589844 118.132812 C 186.316406 112.425781 184.054688 107.089844 180.992188 102.316406 L 182.34375 100.96875 C 184.203125 99.113281 184.203125 96.105469 182.34375 94.25 L 173.773438 85.695312 C 171.917969 83.839844 168.902344 83.839844 167.042969 85.695312 L 165.632812 87.105469 C 160.859375 84.105469 155.539062 81.894531 149.851562 80.660156 L 149.851562 78.585938 C 149.851562 75.960938 147.722656 73.835938 145.09375 73.835938 L 132.976562 73.835938 C 130.347656 73.835938 128.214844 75.960938 128.214844 78.585938 Z M 163.777344 128.933594 C 163.777344 142.574219 152.699219 153.632812 139.035156 153.632812 C 125.371094 153.632812 114.292969 142.574219 114.292969 128.933594 C 114.292969 115.289062 125.367188 104.230469 139.035156 104.230469 C 152.699219 104.230469 163.777344 115.289062 163.777344 128.933594 Z M 163.777344 128.933594 " fill-opacity="1" fill-rule="nonzero"/><path fill="#3a312a" d="M 145.09375 185.511719 L 132.976562 185.511719 C 129.53125 185.511719 126.726562 182.714844 126.726562 179.277344 L 126.726562 178.257812 C 121.832031 177.019531 117.175781 175.070312 112.851562 172.445312 L 112.078125 173.21875 C 109.640625 175.648438 105.679688 175.648438 103.242188 173.21875 L 94.675781 164.664062 C 93.492188 163.488281 92.84375 161.917969 92.84375 160.253906 C 92.84375 158.589844 93.492188 157.023438 94.675781 155.84375 L 95.527344 154.992188 C 93.0625 150.691406 90.882812 144.5625 89.878906 141.21875 L 88.605469 141.21875 C 85.160156 141.21875 82.359375 138.421875 82.359375 134.980469 L 82.359375 122.882812 C 82.359375 119.445312 85.160156 116.644531 88.605469 116.644531 L 89.824219 116.644531 C 91.027344 111.789062 92.941406 107.164062 95.519531 102.859375 L 94.675781 102.019531 C 93.496094 100.84375 92.84375 99.273438 92.84375 97.609375 C 92.84375 95.941406 93.496094 94.375 94.675781 93.199219 L 103.242188 84.644531 C 104.421875 83.464844 105.992188 82.816406 107.660156 82.816406 C 109.328125 82.816406 110.898438 83.464844 112.078125 84.644531 L 112.855469 85.417969 C 117.175781 82.792969 121.835938 80.84375 126.730469 79.605469 L 126.730469 78.585938 C 126.730469 75.144531 129.53125 72.347656 132.976562 72.347656 L 145.09375 72.347656 C 148.539062 72.347656 151.34375 75.148438 151.34375 78.585938 L 151.34375 79.476562 C 156.300781 80.675781 161.023438 82.605469 165.410156 85.222656 L 165.992188 84.644531 C 167.171875 83.464844 168.742188 82.816406 170.410156 82.816406 C 172.078125 82.816406 173.648438 83.464844 174.828125 84.644531 L 183.394531 93.199219 C 184.574219 94.375 185.226562 95.941406 185.226562 97.609375 C 185.226562 99.273438 184.574219 100.839844 183.394531 102.019531 L 182.882812 102.53125 C 185.558594 106.921875 187.535156 111.660156 188.769531 116.644531 L 189.464844 116.644531 C 192.910156 116.644531 195.710938 119.441406 195.710938 122.882812 L 195.710938 134.980469 C 195.710938 138.417969 192.910156 141.214844 189.464844 141.214844 L 188.769531 141.214844 C 187.53125 146.199219 185.558594 150.9375 182.882812 155.328125 L 183.394531 155.84375 C 185.832031 158.273438 185.832031 162.230469 183.394531 164.664062 L 174.828125 173.214844 C 172.390625 175.648438 168.425781 175.648438 165.992188 173.214844 L 165.410156 172.636719 C 161.023438 175.257812 156.300781 177.183594 151.339844 178.382812 L 151.339844 179.273438 C 151.339844 182.714844 148.539062 185.511719 145.09375 185.511719 Z M 112.636719 169.070312 C 112.914062 169.070312 113.195312 169.148438 113.441406 169.304688 C 118.09375 172.28125 123.175781 174.414062 128.550781 175.640625 C 129.226562 175.792969 129.707031 176.394531 129.707031 177.089844 L 129.707031 179.277344 C 129.707031 181.078125 131.171875 182.542969 132.976562 182.542969 L 145.09375 182.542969 C 146.898438 182.542969 148.367188 181.078125 148.367188 179.277344 L 148.367188 177.203125 C 148.367188 176.503906 148.851562 175.898438 149.539062 175.75 C 154.976562 174.570312 160.125 172.46875 164.839844 169.5 C 165.429688 169.132812 166.195312 169.21875 166.6875 169.707031 L 168.097656 171.117188 C 169.371094 172.390625 171.449219 172.390625 172.722656 171.117188 L 181.292969 162.5625 C 182.566406 161.289062 182.566406 159.214844 181.292969 157.941406 L 179.941406 156.59375 C 179.445312 156.101562 179.363281 155.332031 179.738281 154.742188 C 182.765625 150.027344 184.917969 144.867188 186.136719 139.40625 C 186.289062 138.726562 186.894531 138.246094 187.589844 138.246094 L 189.464844 138.246094 C 191.265625 138.246094 192.734375 136.777344 192.734375 134.980469 L 192.734375 122.882812 C 192.734375 121.082031 191.265625 119.617188 189.464844 119.617188 L 187.589844 119.617188 C 186.894531 119.617188 186.289062 119.132812 186.136719 118.457031 C 184.917969 112.996094 182.765625 107.835938 179.738281 103.121094 C 179.363281 102.53125 179.445312 101.761719 179.941406 101.265625 L 181.289062 99.917969 C 181.910156 99.300781 182.25 98.480469 182.25 97.609375 C 182.25 96.738281 181.910156 95.917969 181.292969 95.300781 L 172.722656 86.746094 C 171.488281 85.511719 169.332031 85.511719 168.097656 86.746094 L 166.6875 88.15625 C 166.195312 88.644531 165.429688 88.730469 164.839844 88.359375 C 160.121094 85.394531 154.972656 83.292969 149.539062 82.113281 C 148.851562 81.964844 148.367188 81.359375 148.367188 80.660156 L 148.367188 78.585938 C 148.367188 76.785156 146.898438 75.320312 145.09375 75.320312 L 132.976562 75.320312 C 131.171875 75.320312 129.703125 76.785156 129.703125 78.585938 L 129.703125 80.773438 C 129.703125 81.464844 129.226562 82.066406 128.546875 82.222656 C 123.175781 83.449219 118.09375 85.578125 113.441406 88.554688 C 112.851562 88.929688 112.078125 88.847656 111.585938 88.355469 L 109.972656 86.742188 C 108.738281 85.511719 106.582031 85.511719 105.347656 86.742188 L 96.777344 95.296875 C 96.160156 95.914062 95.820312 96.734375 95.820312 97.605469 C 95.820312 98.476562 96.160156 99.296875 96.777344 99.914062 L 98.453125 101.585938 C 98.941406 102.078125 99.027344 102.84375 98.65625 103.429688 C 95.734375 108.0625 93.644531 113.117188 92.453125 118.453125 C 92.304688 119.132812 91.699219 119.613281 91 119.613281 L 88.605469 119.613281 C 86.800781 119.613281 85.335938 121.078125 85.335938 122.878906 L 85.335938 134.976562 C 85.335938 136.777344 86.800781 138.242188 88.605469 138.242188 L 91 138.242188 C 91.675781 138.242188 92.265625 138.691406 92.4375 139.34375 C 93.242188 142.324219 95.820312 149.933594 98.65625 154.425781 C 99.027344 155.015625 98.941406 155.78125 98.453125 156.269531 L 96.777344 157.941406 C 96.160156 158.558594 95.820312 159.378906 95.820312 160.25 C 95.820312 161.121094 96.160156 161.941406 96.777344 162.558594 L 105.347656 171.113281 C 106.621094 172.386719 108.695312 172.386719 109.972656 171.113281 L 111.582031 169.503906 C 111.871094 169.21875 112.253906 169.070312 112.636719 169.070312 Z M 128.214844 80.773438 L 128.226562 80.773438 Z M 139.035156 155.117188 C 124.570312 155.117188 112.804688 143.371094 112.804688 128.933594 C 112.804688 114.492188 124.570312 102.746094 139.035156 102.746094 C 153.496094 102.746094 165.265625 114.492188 165.265625 128.933594 C 165.265625 143.371094 153.5 155.117188 139.035156 155.117188 Z M 139.035156 105.71875 C 126.210938 105.71875 115.78125 116.132812 115.78125 128.933594 C 115.78125 141.730469 126.210938 152.144531 139.035156 152.144531 C 151.855469 152.144531 162.289062 141.730469 162.289062 128.933594 C 162.289062 116.132812 151.855469 105.71875 139.035156 105.71875 Z M 139.035156 105.71875 " fill-opacity="1" fill-rule="nonzero"/><path fill="#6ca8bf" d="M 247.710938 61.007812 L 232.828125 61.007812 C 238.53125 61.007812 243.167969 65.632812 243.167969 71.328125 L 243.167969 185.902344 C 243.167969 191.589844 238.53125 196.222656 232.828125 196.222656 L 247.710938 196.222656 C 253.417969 196.222656 258.050781 191.589844 258.050781 185.902344 L 258.050781 71.328125 C 258.050781 65.632812 253.417969 61.007812 247.710938 61.007812 Z M 247.710938 61.007812 " fill-opacity="1" fill-rule="nonzero"/></svg>